<?xml version="1.0" encoding="utf-8"?>
<!-- Generator: Adobe Illustrator 18.1.1, SVG Export Plug-In . SVG Version: 6.00 Build 0)  -->
<svg version="1.1" id="Layer_1" xmlns="http://www.w3.org/2000/svg" xmlns:xlink="http://www.w3.org/1999/xlink" x="0px" y="0px"
	 viewBox="369.6 0 788.5 792" enable-background="new 369.6 0 788.5 792" xml:space="preserve">
<g>
	<g>
		<path fill="none" d="M473.9,161.4c0-0.2,0-0.4,0-0.6l-0.1,0.1c0,0-0.1-0.1-0.1-0.1c0,0.2,0.1,0.4,0.1,0.6L473.9,161.4z"/>
		<path fill="#DD7626" d="M450.3,165l17.1-1.2l1.3,18.6l13.1-0.9l-1.3-18.6l17.1-1.2c35.4-2.5,62.1-33.2,59.6-68.6l-23.8,1.5
			c-14,1-26.6,6.5-36.7,14.9c0.1-3,0.1-6.1-0.1-9.2c-1.8-25.2-14.2-46.4-31-56.9C450.3,56.1,441,78.8,442.7,104
			c0.2,3.1,0.6,6.2,1.1,9.1c-11.1-6.9-24.3-10.6-38.4-9.6l-23.8,1.8C384.2,140.8,414.9,167.5,450.3,165z M473.8,160.9l0.1-0.1
			c0,0.2,0,0.4,0,0.6l-0.2,0c0-0.2-0.1-0.4-0.1-0.6C473.7,160.8,473.7,160.9,473.8,160.9z"/>
		<path fill="#DD7626" d="M491.3,190.7l-30.7,2.1c-40.4,2.8-68.4,39.7-62.5,78.1l165.4-4.3C568.6,224.7,534.2,187.7,491.3,190.7z"/>
		<path fill="#DD7626" d="M560.8,274.1l-161,9.2c0.2,0.5,0.3,1.1,0.5,1.6l20.4,48.8l131.7-17.4L560.8,274.1z"/>
		<polygon fill="#DD7626" points="546.3,328.5 420.1,341.6 431.9,372.3 538.1,364.5 		"/>
	</g>
	<g>
		<g>
			<path fill="#97B056" d="M606.9,119.8l18-25.2c0.2-0.3,0.5-0.3,0.8-0.5l-14.3-18.6c-1.5-2-3.7-3.6-6.3-4.5
				c-6.9-2.3-14.4,1.4-16.8,8.3l-7.5,22.2c0.3,0.1,0.6,0,0.9,0.2L606.9,119.8z"/>
		</g>
		<g>
			<path fill="#97B056" d="M588.5,149.8l16.3-22.8l-26.2-18.8l-9.5,28c0.2,0.1,0.4,0,0.5,0.1L588.5,149.8z"/>
		</g>
		<g>
			
				<rect x="599.2" y="138.1" transform="matrix(0.582 -0.8132 0.8132 0.582 133.1268 560.7542)" fill="#97B056" width="25.6" height="25.6"/>
		</g>
		<g>
			<polygon fill="#97B056" points="594,224 616.4,358.3 676.6,358.3 652.7,214.3 			"/>
		</g>
		<g>
			<path fill="#97B056" d="M633.9,142.2l13.5-18.8c0.1-0.2,0.3-0.1,0.4-0.3l-18-23.4l-18.8,26.2L633.9,142.2z"/>
		</g>
		<g>
			<path fill="#97B056" d="M651.6,207.4c19.9-18.6,22.8-49.7,5.9-71.8l-5.3-6.9l-33.6,46.9c-0.6,0.8-1.4,1.3-2.3,1.4
				c-0.9,0.1-1.8,0-2.6-0.6l-46.9-33.6l-2.8,8.2c-5.4,16.3-3,35.2,8.3,49.8c5.6,7.3,12.7,12.7,20.5,16.2l0,0L651.6,207.4z"/>
		</g>
		<path fill="#F5F5F5" d="M610.9,126.3l0.3-0.4l-0.4-0.3c0,0.1,0,0.2-0.1,0.3C610.8,126.1,610.8,126.2,610.9,126.3z"/>
		<path fill="#F5F5F5" d="M610.7,126c0-0.1,0-0.2,0.1-0.3l-0.5-0.4C610.5,125.5,610.5,125.8,610.7,126z"/>
		<path fill="#F5F5F5" d="M605.2,126.9c-0.1-0.1-0.1-0.2-0.2-0.3l-0.3,0.4l0.4,0.3C605.2,127.1,605.2,127,605.2,126.9z"/>
		<path fill="#F5F5F5" d="M605.4,126.1l-0.4,0.5c0.1,0.1,0.1,0.2,0.2,0.3C605.3,126.6,605.2,126.3,605.4,126.1z"/>
		<path fill="#F5F5F5" d="M605.2,126.9c0,0.1,0,0.2-0.1,0.3l0.5,0.4C605.4,127.4,605.4,127.1,605.2,126.9z"/>
		<path fill="#F5F5F5" d="M610.9,126.3c-0.1-0.1-0.1-0.2-0.2-0.3c-0.1,0.3,0,0.5-0.2,0.8L610.9,126.3z"/>
		<g>
			
				<rect x="699.9" y="67.7" transform="matrix(0.5819 -0.8132 0.8132 0.5819 232.4654 613.2778)" fill="#97B056" width="25.6" height="25.6"/>
		</g>
		<g>
			<polygon fill="#97B056" points="694.7,153.7 713,264.3 766.2,221 753.4,144 			"/>
		</g>
		<g>
			<path fill="#F5F5F5" d="M705.5,56.6l0.9,0.6c-0.3-0.2-0.4-0.6-0.6-1L705.5,56.6z"/>
			<path fill="#F5F5F5" d="M711.2,56.4l0.6-0.9l-0.4-0.3C711.4,55.7,711.5,56.1,711.2,56.4z"/>
			<path fill="#F5F5F5" d="M711,54.9c-1.6-1.1-3.8-0.8-4.9,0.8l-0.4,0.5c0.2,0.3,0.3,0.7,0.6,1c0.8,0.6,1.7,0.8,2.6,0.6
				c0.9-0.1,1.7-0.6,2.3-1.4c0.2-0.3,0.2-0.7,0.3-1.1L711,54.9z"/>
			<g>
				<path fill="#97B056" d="M707.6,49.5l18-25.2c0.2-0.3,0.5-0.3,0.8-0.5L712.1,5.2c-1.5-2-3.7-3.6-6.3-4.5
					C698.9-1.6,691.4,2.1,689,9l-7.5,22.2c0.3,0.1,0.6,0,0.9,0.2L707.6,49.5z"/>
			</g>
			<g>
				<path fill="#97B056" d="M730.6,29.4l-18.8,26.2l22.8,16.3L748.1,53c0.1-0.2,0.3-0.1,0.4-0.3L730.6,29.4z"/>
			</g>
			<g>
				<path fill="#97B056" d="M669.8,65.8c0.2,0.1,0.4,0,0.5,0.1l18.8,13.5l16.3-22.8l-26.2-18.8L669.8,65.8z"/>
			</g>
		</g>
		<g>
			<path fill="#97B056" d="M752.3,137.1c19.9-18.6,22.8-49.7,5.9-71.8l-5.3-6.9l-33.6,46.9c-0.6,0.8-1.4,1.3-2.3,1.4
				c-0.9,0.1-1.8,0-2.6-0.6l-46.9-33.6l-2.8,8.2c-5.4,16.3-3,35.2,8.3,49.8c5.6,7.3,12.7,12.7,20.5,16.2l0,0L752.3,137.1z"/>
		</g>
	</g>
	<g>
		<g>
			<path fill="#97B056" d="M1140.1,161.3c-12.5-15.5-34-19.6-51.1-10.9l11.3-24.7c3.8-8.4,5.7-18,4.9-27.8
				c-2.5-30.7-29.5-53.5-60.1-50.9c-30.7,2.5-53.5,29.5-50.9,60.1l2.6,31c-1.4-2-3-3.9-4.7-5.7c-16.3-16.1-42.5-15.9-58.6,0.4
				c-16.1,16.3-15.9,42.5,0.4,58.6l39.9,39.3c-9.9-2.4-20.7,0.2-28.4,7.9c-11.6,11.8-11.4,30.7,0.3,42.3l48.4,47.7
				c2.9,2.8,6.4,4.7,10.2,5.5l5.1-29.2l-32.3-37.7l4.7-4.1l28.9,33.8l12.2-69.7l-39-45.5l4.7-4.1l35.6,41.6l17.4-99.5l6.2,1.1
				l-17.4,99.5l47.6-27l3.1,5.4l-52.1,29.5l-12.2,69.7l38.7-21.9l3.1,5.4l-43.2,24.5l-5.1,29.1c3.8,0.5,7.7,0,11.5-1.7l61.8-28.4
				c2.1-1,4.4-2.3,6.3-3.9c12.8-10.4,14.8-29.2,4.5-42c-5.2-6.4-12.4-10.1-19.9-10.9l50.7-23.3c3-1.4,6-3.2,8.7-5.4
				C1151.7,205.2,1154.4,179.1,1140.1,161.3z"/>
			<polygon fill="#F5F5F5" points="1016.2,283.9 1016.2,283.9 1016.2,283.9 			"/>
		</g>
		<g>
			<polygon fill="#97B056" points="1006.8,357.4 1000.4,357.8 1004.2,334.3 1010.4,335.3 			"/>
		</g>
	</g>
	<rect x="635.6" y="375.8" fill="#B3B4B4" width="454.9" height="80.5"/>
	<polygon fill="#B3B4B4" points="608.8,379.9 381.7,393.3 381.7,446 604.6,456.3 	"/>
	<polygon fill="#B3B4B4" points="635.6,481.1 1090.5,481.1 1096,760.1 635.6,790.8 	"/>
	<polygon fill="#B3B4B4" points="387.9,470.7 608.8,485.2 608.8,779.4 386.8,719.5 	"/>
</g>
<g>
	<path fill="#E3A425" d="M799.9,204.9c-18.8,50.5-32.9,98.9-33.3,153.1l34.4,0c0.5-47.7,9.6-119.8,22.8-182.8
		C817.4,186.3,809.2,196,799.9,204.9z"/>
	<path fill="#E3A425" d="M766.9,232c-2.1,4.4-4.2,8.6-6.3,12.7c-17.3,35.1-31,62.9-31.3,113.2l29.7,0c0.4-50.6,12.4-96,29-142.5
		C781.2,221.1,774.1,226.6,766.9,232z"/>
	<path fill="#E3A425" d="M808.4,358l45.2,0.1C853,310.9,844.1,239.4,831,177C817.9,239.4,808.9,310.8,808.4,358z"/>
	<path fill="#E3A425" d="M690.9,339.8c0,5.7,0.5,11.8,1.6,18l29.4,0c0.2-51.8,14.1-80.3,31.8-116
		C720.9,266.7,690.9,293.1,690.9,339.8z"/>
	<path fill="#E3A425" d="M971,339.8c0-46.7-30-73.1-62.7-97.9c17.7,35.8,31.6,64.3,31.8,116.3l29.3,0
		C970.4,351.9,971,345.7,971,339.8z"/>
	<path fill="#E3A425" d="M895.1,232c-7.2-5.4-14.3-10.8-21.1-16.5c16.6,46.6,28.7,92.1,29,142.7l29.7,0
		c-0.2-50.5-13.9-78.3-31.3-113.5C899.3,240.5,897.2,236.3,895.1,232z"/>
	<path fill="#E3A425" d="M838.3,175.2c13.2,63,22.3,135.2,22.8,182.8l34.4,0c-0.4-54.2-14.5-102.7-33.3-153.2
		C852.8,196,844.5,186.3,838.3,175.2z"/>
</g>
</svg>
