<?xml version="1.0" encoding="utf-8"?>
<!-- Generator: Adobe Illustrator 18.1.1, SVG Export Plug-In . SVG Version: 6.00 Build 0)  -->
<svg version="1.1" id="Layer_1" xmlns="http://www.w3.org/2000/svg" xmlns:xlink="http://www.w3.org/1999/xlink" x="0px" y="0px"
	 viewBox="369.6 0 788.5 792" enable-background="new 369.6 0 788.5 792" xml:space="preserve">
<g>
	<path fill="#DD7626" d="M1081.3,448.4c-13.9-13.9-36.5-13.9-50.5,0c-8.4,8.4-12.6,19.3-12.9,30.3c-27.1-31.6-67.3-51.6-112.2-51.6
		l-249.8,42.3l-31.6,15.9c-19.2-29.4-57.3-41.9-90.9-27.8l28.1,66.8l-70.9,61.9l-52.5,9.7V665L547,723h37l23.2,69.6h25V723h1.9
		l23.2,69.6h25v-65.2c24.8,15.3,65.1,25.3,110.6,25.3c33.7,0,64.5-5.5,88.3-14.6l9.9,13.7l-12.5,40.7h37.5l29.8-75.2
		c62.2-17.5,107.9-74.5,107.9-142.3c0-26.6-7.1-51.4-19.4-73l9.4-25.1c0.3,4.3,2,8.5,5.2,11.8c8.9,8.9,23.4,8.9,32.3,0
		C1092.5,477.6,1092.5,459.5,1081.3,448.4z M889.3,469.6l3,29.8l-156.8,16l-3-29.8L889.3,469.6z M555.3,603.7
		c-5.1,0-9.3-4.2-9.3-9.3c0-5.1,4.2-9.3,9.3-9.3s9.3,4.2,9.3,9.3C564.6,599.5,560.4,603.7,555.3,603.7z"/>
	<circle fill="#97B056" cx="781.5" cy="354.1" r="57.9"/>
	<circle fill="#97B056" cx="828.1" cy="199.4" r="57.9"/>
	<path fill="#97B056" d="M723.6,114.7c32,0,57.9-25.9,57.9-57.9S755.6-1.1,723.6-1.1c-32,0-57.9,25.9-57.9,57.9
		S691.6,114.7,723.6,114.7z"/>
</g>
</svg>
