<?xml version="1.0" encoding="utf-8"?>
<!-- Generator: Adobe Illustrator 18.1.1, SVG Export Plug-In . SVG Version: 6.00 Build 0)  -->
<svg version="1.1" id="Layer_1" xmlns="http://www.w3.org/2000/svg" xmlns:xlink="http://www.w3.org/1999/xlink" x="0px" y="0px"
	 viewBox="369.6 0 788.5 792" enable-background="new 369.6 0 788.5 792" xml:space="preserve">
<g>
	<path fill="#97B056" d="M905.9,384.9c70.6,0,127.8-57.2,127.8-127.8c0-1.7-0.2-3.3-0.2-5c-41.5-5.5-84.1-8.3-127.6-8.3
		c-43.5,0-86.1,2.8-127.6,8.3c-0.1,1.7-0.3,3.3-0.3,5C778.1,327.7,835.3,384.9,905.9,384.9z M945.3,310.3
		c-4.7,17.5-20.5,30.4-39.4,30.4c-19,0-34.7-12.9-39.4-30.4H945.3z"/>
	<path fill="#97B056" d="M1001.5,573.7H810.3V406.9l-77.9,17.2V790h64.5h13.4h191.2h13.4h64.5V424.1l-77.9-17.2V573.7z M771.3,633.7
		c-8.4,0-15.2-6.8-15.2-15.2c0-8.4,6.8-15.2,15.2-15.2c8.4,0,15.2,6.8,15.2,15.2C786.5,626.9,779.7,633.7,771.3,633.7z
		 M1040.4,603.3c8.4,0,15.2,6.8,15.2,15.2c0,8.4-6.8,15.2-15.2,15.2c-8.4,0-15.2-6.8-15.2-15.2
		C1025.2,610.1,1032,603.3,1040.4,603.3z"/>
	<path fill="#97B056" d="M1031.9,189.7v-77.2c0-61.3-49.7-111-111-111h-30.1c-61.3,0-111,49.7-111,111v77.2
		c-32,4-63.3,9.5-93.7,16.6l5.9,25.4l2.1,8.9c28.7-6.7,58.1-11.9,88.2-15.7c40.2-5.1,81.5-7.8,123.6-7.8c42.1,0,83.4,2.7,123.6,7.8
		c30.1,3.8,59.5,9,88.2,15.7l2.1-8.9l5.9-25.4C1095.2,199.2,1063.9,193.7,1031.9,189.7z"/>
	<rect x="515.1" y="715" fill="#DD7626" width="23.5" height="75.1"/>
	<path fill="#97B056" d="M499.4,696.3c-24.9,0-45.2-20.2-45.2-45.2v-12.3c0-24.9,20.2-45.2,45.2-45.2h48c9.7,0,17.6,7.9,17.6,17.6
		v67.3c0,9.7-7.9,17.6-17.6,17.6H499.4z"/>
	<path fill="#DD7626" d="M538.6,573.1V393.7h17.3c52.7,0,95.6-42.9,95.6-95.6V65.6H628v232.5c0,39.8-32.4,72.1-72.1,72.1h-17.3V65.6
		h-23.5v304.7h-17.3c-39.8,0-72.1-32.4-72.1-72.1V65.6h-23.5v232.5c0,52.7,42.9,95.6,95.6,95.6h17.3v179.5L538.6,573.1z"/>
</g>
</svg>
