<?xml version="1.0" encoding="utf-8"?>
<!-- Generator: Adobe Illustrator 18.1.1, SVG Export Plug-In . SVG Version: 6.00 Build 0)  -->
<svg version="1.1" id="Layer_1" xmlns="http://www.w3.org/2000/svg" xmlns:xlink="http://www.w3.org/1999/xlink" x="0px" y="0px"
	 viewBox="369.6 0 788.5 792" enable-background="new 369.6 0 788.5 792" xml:space="preserve">
<g>
	<path fill="none" d="M535.8,144.6c0-0.1,0-0.2,0-0.3c0,0,0,0-0.1,0c0,0-0.1,0-0.1,0C535.7,144.4,535.7,144.5,535.8,144.6
		L535.8,144.6z"/>
	<path fill="#DC7626" d="M523.8,146.3l8.7-0.6l0.7,8.8l6.7-0.4l-0.7-8.8l8.7-0.6c18.1-1.2,31.7-15.6,30.4-32.2l-12.2,0.7
		c-7.2,0.5-13.6,3-18.7,7c0.1-1.4,0-2.9-0.1-4.3c-0.9-11.8-7.2-21.8-15.8-26.7c-7.8,6-12.5,16.7-11.6,28.5c0.1,1.5,0.3,2.9,0.6,4.3
		c-5.7-3.3-12.4-5-19.6-4.5l-12.2,0.9C490,134.9,505.7,147.5,523.8,146.3z M535.8,144.4C535.8,144.3,535.8,144.3,535.8,144.4
		c0.1,0.1,0.1,0.2,0.1,0.3l-0.1,0C535.7,144.5,535.7,144.4,535.8,144.4C535.7,144.3,535.7,144.4,535.8,144.4z"/>
	<path fill="#DC7626" d="M544.7,158.4l-15.7,1c-20.6,1.3-34.9,18.7-31.9,36.7l84.4-2C584.2,174.3,566.6,157,544.7,158.4z"/>
	<path fill="#DC7626" d="M575.9,217.4l4.2-19.8l-82.1,4.3c0.1,0.3,0.2,0.5,0.3,0.8l10.4,22.9L575.9,217.4z"/>
	<polygon fill="#DC7626" points="572.8,223.1 508.4,229.3 516.3,248.2 567.7,243.9 	"/>
	<polygon fill="#DC7626" points="564.1,264.2 568.7,249.8 520.2,251.2 525.5,266.6 	"/>
	<path fill="#DC7626" d="M548.5,306c3.5-0.3,6.3-2.7,7-5.8l7.2-32.7l-35.3,4.9l13,29.1C541.8,304.5,545.1,306.3,548.5,306z"/>
	<path fill="#97AF56" d="M1153,169.5c-5.4-9.1-17-13.1-27.3-10.2l8.7-11.6c2.9-3.9,4.9-8.7,5.4-13.8c1.6-15.9-11.1-30.1-28.4-31.6
		c-17.3-1.5-32.6,10.2-34.3,26.2l-1.6,16.1c-0.6-1.1-1.3-2.3-2.1-3.3c-7.5-9.7-22.1-12-32.6-5.1c-10.5,6.9-13,20.4-5.5,30.1
		l18.3,23.8c-5.3-2.1-11.6-1.8-16.6,1.5c-7.6,5-9.4,14.7-4,21.7l22.2,28.8c0.9,1.2,2.1,2.2,3.4,2.9l5.3-13.5l-13.8-21.5l6.4-3.5
		l10.6,16.6l11.9-30.2l-16.7-26.1l6.4-3.5l13.6,21.2l18.1-45.8l7,2.4l-18.1,45.8l25.2-8.2l2.5,6.5l-31,10.1l-11.9,30.2l19.7-6.4
		l2.5,6.5l-25.5,8.3l-5.3,13.5c1.5,0.2,3.1,0.1,4.6-0.2l37.1-9c1.3-0.3,2.7-0.8,3.9-1.4c8.2-4.1,11.1-13.6,6.6-21.1
		c-2.2-3.7-5.9-6.3-10-7.4l30.5-7.4c1.8-0.4,3.7-1.1,5.4-2C1155.1,193,1159.2,179.9,1153,169.5z"/>
	
		<rect x="1049.7" y="258.3" transform="matrix(-0.3669 0.9303 -0.9303 -0.3669 1690.95 -634.1764)" fill="#97AF56" width="23.2" height="0"/>
	<polygon fill="#97AF56" points="1050,266.8 1057,269.1 1065.5,247.6 1058.5,245.2 	"/>
	<path fill="#B3B2B3" d="M828.5,415.5c-6.2,0-10.1,3.4-10.8,8.1h20.6C838.1,419.1,834.2,415.5,828.5,415.5z"/>
	<path fill="#B3B2B3" d="M659.3,416.7c-7.4,0-13.2,5.7-13.2,12.8c0,7.2,5.8,13.1,13.2,13.1c7.4,0,13.3-5.9,13.3-13.1
		C672.6,422.3,666.7,416.7,659.3,416.7z"/>
	<path fill="#B3B2B3" d="M753,429.5c0,6.6,4.1,13,12,13c6.6,0,10.1-3.9,11.2-6.5v-16.7c0,0-4.2-2.6-10.6-2.6
		C757.3,416.7,753,423,753,429.5z"/>
	<path fill="#B3B2B3" d="M1045.4,480.5c-17.1-14.8-34.2-29.5-51.3-44.3v-84.5c0-13.1-11.6-23.8-25.8-23.8H562.9
		c-14.3,0-25.8,10.6-25.8,23.8v74.6c0.5-0.1,0.9-0.1,1.4-0.2l1.3,8.9c-0.9,0.1-1.8,0.3-2.7,0.4v58.1c0,13.1,11.6,23.8,25.8,23.8
		h371.7c0,2.8,0,5.7,0,8.5c0,1.6,0.2,3.2,0.8,4.7c3.3,8.6,14.8,11,22.3,4.5c5-4.3,10-8.6,14.9-12.9c0.4-0.3,0.8-0.7,1.4-1.1
		c0.3,0.7,0.6,1.2,0.8,1.7c4.9,10.5,9.8,21,14.8,31.5c0.7,1.4,1.6,2.8,2.6,4.1c2,2.5,5,3.6,8,4.5h4.5c6.3-2.4,12.6-4.9,18.9-7.4
		c3-1.2,5.4-3,6.9-5.6c2.4-4,2.1-8.1,0-12.1c-5.2-10.4-10.3-20.8-15.5-31.2c-0.3-0.6-0.6-1.2-0.9-1.9c0.8-0.1,1.4-0.2,1.9-0.3
		c6.9-0.6,13.8-1.2,20.7-1.7c4.7-0.3,8.7-2,11.3-5.7C1052,491.7,1050.9,485.3,1045.4,480.5z M659.3,454.1c-14.3,0-26-11.3-26-24.7
		c0-13.2,11.7-24.3,26-24.3c14.4,0,26.1,11.2,26.1,24.3C685.4,442.8,673.7,454.1,659.3,454.1z M733,409.7l-3.3,6.9
		c-0.6,1.1-1.8,1.5-3,1c-1.2-0.5-2.4-0.9-4.7-0.9c-5.5,0-8.8,3.2-9.7,4.9v29.2c0,1.7-1.2,2.2-2.9,2.2h-8.5c-1.2,0-2.4-1-2.4-2.2
		v-42.4c0-1.3,1.2-2.2,2.4-2.2h4.1c1.2,0,1.8,0.5,2.2,1.5l1.9,4.6c1.8-2.3,6.5-7.1,14.3-7.1C729.4,405.1,734.4,406.6,733,409.7z
		 M790,450.7c0,1.2-1.1,2.2-2.4,2.2h-4.1c-1.2,0-2-0.9-2.4-2.2l-1.3-3.7c0,0-5.8,7-16.6,7c-13.9,0-24.3-10.4-24.3-24.6
		c0-13.7,10-24.4,25.2-24.4c5.1,0,9.9,1.1,12.2,1.9v-22.8c0-1.1,1.2-2.2,2.4-2.2h8.9c1.3,0,2.4,1.1,2.4,2.2V450.7z M852,429.8
		c-0.1,1.2-1.3,2.1-2.4,2.1H817c0.1,5.8,5.3,10.9,12.7,10.9c5.1,0,8.6-1.7,10.9-3.4c1.2-0.9,2.5-1,3.3,0l4.3,5.3c0.9,0.9,1,2-0.2,3
		c-4.4,3.4-10.7,6.4-18.9,6.4c-15.2,0-25.8-11.2-25.8-24.6c0-13.2,10.6-24.4,25.7-24.4c13.2,0,23.3,9,23.3,21.7
		C852.2,427.5,852.1,429.1,852,429.8z M899.2,409.7l-3.3,6.9c-0.5,1.1-1.8,1.5-3,1c-1.2-0.5-2.4-0.9-4.7-0.9c-5.5,0-8.8,3.2-9.7,4.9
		v29.2c0,1.7-1.2,2.2-2.9,2.2h-8.5c-1.2,0-2.4-1-2.4-2.2v-42.4c0-1.3,1.2-2.2,2.4-2.2h4.1c1.2,0,1.8,0.5,2.2,1.5l1.9,4.6
		c1.8-2.3,6.5-7.1,14.3-7.1C895.7,405.1,900.7,406.6,899.2,409.7z M994.1,493.9C994.1,493.9,994.1,493.9,994.1,493.9
		C994.1,493.9,994.1,493.9,994.1,493.9c8.3,16.8,16.5,33.3,24.8,50.1c-5.4,2.2-10.8,4.4-16.4,6.7c-6-12.9-12-25.6-18-38.5
		c-1.9-4-3.8-8.1-5.7-12.2c-6.7,5.8-13.4,11.6-20.2,17.4c-3.5,3-7,6-10.5,9.1v-9.1V413.5c15.4,13.3,30.7,26.5,46,39.7
		c14.3,12.3,28.6,24.7,43,37.1C1022.5,491.5,1008.4,492.7,994.1,493.9z"/>
	<path fill="#B3B2B3" d="M729.7,325.6h9.8c0-1.6,0-3.1-0.1-4.7l-9.8,0.3C729.6,322.7,729.7,324.2,729.7,325.6z"/>
	<path fill="#B3B2B3" d="M639.9,209.2c-3.3-0.7-6.7-1.3-10-1.8l-1.5,8.9c3.1,0.5,6.2,1,9.3,1.7L639.9,209.2z"/>
	<path fill="#B3B2B3" d="M663.9,216.9c-3.1-1.3-6.3-2.5-9.4-3.6l-3.4,8.4c3,1,5.9,2.1,8.7,3.3L663.9,216.9z"/>
	<path fill="#B3B2B3" d="M720.3,263.1c-1.8-2.7-3.7-5.3-5.7-7.8l-7.9,5.3c1.9,2.3,3.6,4.8,5.2,7.2L720.3,263.1z"/>
	<path fill="#B3B2B3" d="M685.9,228.8c-2.7-1.8-5.6-3.6-8.5-5.2l-5.1,7.7c2.7,1.5,5.3,3.1,7.8,4.8L685.9,228.8z"/>
	<path fill="#B3B2B3" d="M722.3,287.3l9.2-3.1c-1.2-2.9-2.5-5.8-3.9-8.7l-8.9,3.8C720,281.9,721.2,284.6,722.3,287.3z"/>
	<path fill="#B3B2B3" d="M704.9,244.4c-2.3-2.3-4.7-4.5-7.2-6.6l-6.6,6.6c2.3,2,4.5,4,6.7,6.1L704.9,244.4z"/>
	<path fill="#B3B2B3" d="M728.2,308.3l9.6-1.4c-0.5-3.1-1.2-6.2-2-9.2l-9.5,2.1C727.1,302.6,727.7,305.4,728.2,308.3z"/>
	<path fill="#99999A" d="M614.6,206c-1.7-0.1-3.4-0.1-5.1-0.1v9c1.6,0,3.1,0,4.7,0.1L614.6,206z"/>
	<path fill="#99999A" d="M795.3,523.3h-9.8c0,1.6,0,3.1,0.1,4.7l9.8-0.3C795.3,526.2,795.3,524.8,795.3,523.3z"/>
	<path fill="#B3B2B3" d="M826,609.1c2.7,2.3,5.5,4.5,8.4,6.6l6-7.1c-2.7-1.9-5.3-4-7.7-6.1L826,609.1z"/>
	<path fill="#B3B2B3" d="M796.9,541.7l-9.6,1.5c0.6,3.3,1.4,6.7,2.3,9.9l9.4-2.3C798.2,547.8,797.5,544.7,796.9,541.7z"/>
	<path fill="#B3B2B3" d="M803.9,564.2l-9,3.4c1.4,3.1,2.9,6.2,4.6,9.2l8.7-4.1C806.6,570,805.2,567.1,803.9,564.2z"/>
	<path fill="#B3B2B3" d="M808,589.9c2.1,2.8,4.3,5.5,6.7,8.1l7.5-5.7c-2.2-2.4-4.2-4.9-6.1-7.5L808,589.9z"/>
	<path fill="#99999A" d="M857.1,618.8c-1.4-0.7-2.7-1.4-4.1-2.1l-5,7.7c1.5,0.8,2.9,1.6,4.4,2.3L857.1,618.8z"/>
	<path fill="#B3B2B3" d="M879.1,321.3l-9.8-0.3c-0.1,1.5-0.1,3.1-0.1,4.7h9.8C879,324.2,879.1,322.7,879.1,321.3z"/>
	<path fill="#B3B2B3" d="M899.5,260l-8.3-4.8c-1.8,2.6-3.5,5.3-5,8l8.6,4.2C896.2,264.9,897.8,262.4,899.5,260z"/>
	<path fill="#B3B2B3" d="M888.8,279.2l-9-3.4c-1.3,2.9-2.4,5.8-3.4,8.7l9.3,2.8C886.6,284.6,887.6,281.9,888.8,279.2z"/>
	<path fill="#B3B2B3" d="M882,299.8l-9.5-1.9c-0.7,3-1.3,6.1-1.7,9.1l9.7,1.2C880.8,305.5,881.3,302.6,882,299.8z"/>
	<path fill="#B3B2B3" d="M930.7,228l-6-7.1c-2.6,1.9-5.2,3.9-7.7,6l6.5,6.7C925.8,231.7,928.2,229.8,930.7,228z"/>
	<path fill="#B3B2B3" d="M913.6,242.8l-7.3-6c-2.2,2.3-4.4,4.7-6.5,7.1l7.7,5.5C909.5,247.1,911.5,244.9,913.6,242.8z"/>
	<path fill="#B3B2B3" d="M994.6,203l-1.3-8.9c-3.3,0.4-6.6,1-9.9,1.6l2,8.8C988.5,203.9,991.5,203.4,994.6,203z"/>
	<path fill="#B3B2B3" d="M971.8,207.8l-3-8.5c-3.2,1-6.3,2-9.4,3.2l3.7,8.3C965.9,209.7,968.9,208.7,971.8,207.8z"/>
	<path fill="#B3B2B3" d="M950.3,216.3l-4.6-7.9c-3,1.5-5.9,3-8.7,4.6l5.2,7.6C944.8,219.1,947.5,217.6,950.3,216.3z"/>
	<path fill="#99999A" d="M1013.5,201.8v-9c-1.7,0-3.4,0-5.1,0.1l0.3,9C1010.3,201.8,1011.9,201.8,1013.5,201.8z"/>
	<path fill="#99999A" d="M424.3,553.3l-9.8-0.3c-0.1,1.5-0.1,3.1-0.1,4.6h9.8C424.3,556.2,424.3,554.8,424.3,553.3z"/>
	<path fill="#B3B2B3" d="M495.5,448.4l-4.6-7.9c-3,1.5-5.9,3-8.7,4.6l5.2,7.6C490,451.2,492.7,449.7,495.5,448.4z"/>
	<path fill="#B3B2B3" d="M504.6,434.5l3.7,8.3c2.9-1.1,5.8-2.1,8.8-3l-3-8.5C510.8,432.3,507.7,433.4,504.6,434.5z"/>
	<path fill="#B3B2B3" d="M458.8,474.9l-7.2-6c-2.2,2.3-4.4,4.7-6.5,7.1l7.7,5.5C454.7,479.2,456.7,477,458.8,474.9z"/>
	<path fill="#B3B2B3" d="M434,511.3l-9-3.4c-1.3,2.9-2.4,5.8-3.4,8.7l9.3,2.8C431.8,516.7,432.8,514,434,511.3z"/>
	<path fill="#B3B2B3" d="M475.9,460.1l-6-7.1c-2.6,1.9-5.2,3.9-7.7,6l6.5,6.7C471,463.8,473.4,461.9,475.9,460.1z"/>
	<path fill="#B3B2B3" d="M427.2,531.9l-9.5-1.9c-0.7,3-1.3,6-1.7,9.1l9.7,1.2C426,537.6,426.5,534.7,427.2,531.9z"/>
	<path fill="#B3B2B3" d="M528.6,427.8l2,8.8c2.2-0.4,4.3-0.8,6.5-1.1v-9.1C534.3,426.8,531.4,427.2,528.6,427.8z"/>
	<path fill="#B3B2B3" d="M444.7,492.1l-8.3-4.8c-1.8,2.6-3.5,5.3-5,8l8.6,4.2C441.4,497,443,494.5,444.7,492.1z"/>
	<path fill="#B3B2B3" d="M538.5,426.2c-0.5,0.1-0.9,0.1-1.4,0.2v9.1c0.9-0.1,1.8-0.3,2.7-0.4L538.5,426.2z"/>
	<path fill="#E2A325" d="M427.3,646.1c11.4,0,21.1,6.9,24.4,16.4l111.1-8.4l4.2-85.9l-195.6,38.4l3.1,61.8l27.4-2.1
		C403.7,654.8,414.4,646.1,427.3,646.1z M519,596.9c3.9,0,7.1,2.9,7.1,6.5c0,3.6-3.2,6.5-7.1,6.5s-7.1-2.9-7.1-6.5
		C511.9,599.8,515.1,596.9,519,596.9z M470.8,607.4c7.2,0,13.1,5.4,13.1,12.1c0,6.7-5.9,12.1-13.1,12.1c-7.2,0-13.1-5.4-13.1-12.1
		C457.7,612.8,463.6,607.4,470.8,607.4z"/>
	<path fill="#E2A325" d="M531,564.3c-5,0-9.1-3.7-9.1-8.3c0-1,0.2-2,0.6-3l-18.2-5.6l-44.6,19.6c2.4,1.2,4,3.5,4,6.2
		c0,3.9-3.5,7.1-7.7,7.1s-7.7-3.2-7.7-7.1c0-0.4,0-0.8,0.1-1.2l-56.1,24.7l8.1-1.6l158.4-31.1l-19.1-5.8
		C538.6,561.8,535.1,564.3,531,564.3z M490.5,569.6c-2.5,0-4.5-1.9-4.5-4.2c0-2.3,2-4.2,4.5-4.2c2.5,0,4.5,1.9,4.5,4.2
		C495,567.7,493,569.6,490.5,569.6z"/>
	<polygon fill="#E2A325" points="392.2,596.8 400.3,595.2 392.2,596.8 	"/>
	<path fill="#DC7626" d="M1000,619.2c-6.7,9.3-10.6,20.2-11.1,31.6c-0.1,2-1.8,3.5-3.9,3.5c-0.1,0-0.1,0-0.2,0
		c-2.2-0.1-3.9-1.8-3.8-3.8c0.5-11.5,4.1-22.6,10.4-32.3c-6.5-0.7-13.2-1.1-20-1.2c-7.8,9.8-12.3,21.5-12.8,33.8
		c-0.1,2-1.8,3.5-3.9,3.5c-0.1,0-0.1,0-0.2,0c-2.2-0.1-3.9-1.8-3.8-3.8c0.5-12,4.4-23.5,11.2-33.5c-7.5,0.2-14.8,0.7-21.9,1.5
		c-7.1,9.5-11.2,20.6-11.7,32.3c-0.1,2-1.8,3.5-3.9,3.5c-0.1,0-0.1,0-0.2,0c-2.2-0.1-3.9-1.8-3.8-3.8c0.5-10.8,3.7-21.3,9.3-30.6
		c-46,7.5-79.1,28.5-79.1,53.2c0,3.2,0.6,6.3,1.6,9.3c1.3,3.6,4.2,6.6,8,8.1c17.9,7.3,59,12.4,106.9,12.4c47.9,0,89-5.1,106.9-12.4
		c3.8-1.5,6.7-4.5,8-8.1c1.1-3,1.6-6.1,1.6-9.3C1083.4,647.6,1048.2,626.1,1000,619.2z"/>
</g>
</svg>
