<?xml version="1.0" encoding="utf-8"?>
<!-- Generator: Adobe Illustrator 18.1.1, SVG Export Plug-In . SVG Version: 6.00 Build 0)  -->
<svg version="1.1" id="Layer_1" xmlns="http://www.w3.org/2000/svg" xmlns:xlink="http://www.w3.org/1999/xlink" x="0px" y="0px"
	 viewBox="369.6 0 788.5 792" enable-background="new 369.6 0 788.5 792" xml:space="preserve">
<g>
	<path fill="none" d="M1030.4,431.9c-5.1-4.6-6.7-11.2-4.8-17.1h-65.2v41.7h82.8v-13L1030.4,431.9z"/>
	<path fill="none" d="M802.6,152.9c-1.8,11.3,6.8,21.8,19,23.5c12.2,1.6,23.8-6.2,25.6-17.5c1.8-11.3-6.8-22-19.1-23.7
		C815.9,133.5,804.4,141.6,802.6,152.9z"/>
	<polygon fill="none" points="507.6,414.8 522.8,456.5 572.6,456.5 572.6,414.8 	"/>
	<path fill="#E2A325" d="M883.8,481c-9.2-2.8-19.1-4.3-29.3-4.3h-24.1c-18.9,11.4-41.5,18.1-65.7,18.1c-24.3,0-46.9-6.7-65.7-18.1
		h-24.1c-10.2,0-20.1,1.5-29.3,4.3v186.5h-64.5v0h367.2v0h-64.5V481z"/>
	<polygon fill="#97AF56" points="457.4,355.4 470.3,361.3 476.7,349.4 463.8,343.4 	"/>
	<path fill="#97AF56" d="M478.5,346.1l5.8-10.8c0-0.1,0.1-0.2,0.2-0.2l-12.1-10.5l-8.1,15L478.5,346.1z"/>
	<path fill="#97AF56" d="M453.8,353.7l7-13.1l-16.3-7.5l-2.7,15.1c0.1,0,0.2,0.1,0.3,0.1L453.8,353.7z"/>
	<polygon fill="#97AF56" points="489.8,414.8 489.8,456.5 522.8,456.5 507.6,414.8 	"/>
	<path fill="#97AF56" d="M499,391.2l-4.8-13.1c3-3.5,5.1-7.8,5.9-12.5c1.7-9.5-2.1-18.7-9.1-24.9l-3.5-3.1l-6.3,11.7c0,0,0,0,0,0
		s0,0,0,0l-8.2,15.2c-0.2,0.5-0.7,0.8-1.1,0.9c-0.5,0.1-1,0.1-1.5-0.1l-16.5-7.5c0,0,0,0,0,0s0,0,0,0l-12.7-5.8l-0.8,4.4
		c-2.6,14.3,7.1,27.9,22,31.5l0,0l31.9-9.9l1.3,3.4l-31.9,9.9l6.1,16.6l13.5-16.8H499z"/>
	<path fill="#97AF56" d="M461.4,336.8l7.8-14.4c0.1-0.1,0.2-0.3,0.3-0.4l-9.6-8.3c-3-2.6-7.7-2.5-10.6,0.3c-1.1,1-1.7,2.3-1.9,3.6
		l-2.2,11.9c0.2,0,0.3,0.1,0.5,0.1L461.4,336.8z"/>
	<path fill="#97AF56" d="M409.6,338.4l5.8-10.8c0-0.1,0.1-0.2,0.2-0.2l-12.1-10.5l-8.1,15L409.6,338.4z"/>
	<path fill="#97AF56" d="M425.3,370.4c3-3.5,5.1-7.7,5.9-12.5c1.7-9.5-2.1-18.7-9.1-24.9l-3.5-3.1l-6.3,11.7c0,0,0,0,0,0s0,0,0,0
		l-8.2,15.2c-0.2,0.5-0.7,0.8-1.1,0.9c-0.5,0.1-1,0.1-1.5-0.1l-16.5-7.5c0,0,0,0,0,0s0,0,0,0l-12.7-5.8l-0.8,4.4
		c-2.6,14.3,7.1,27.9,22,31.5l0,0L425.3,370.4L425.3,370.4z"/>
	<polygon fill="#97AF56" points="425.9,371.9 426.6,373.8 394.7,383.7 421.3,456.5 456.7,456.5 	"/>
	<polygon fill="#97AF56" points="388.5,347.6 401.4,353.6 407.9,341.6 394.9,335.7 	"/>
	<path fill="#97AF56" d="M385,346l7-13.1l-16.3-7.5l-2.7,15.1c0.1,0,0.2,0.1,0.3,0.1L385,346z"/>
	<path fill="#97AF56" d="M392.5,329.1l7.8-14.4c0.1-0.1,0.2-0.3,0.3-0.4L391,306c-3-2.6-7.7-2.5-10.6,0.3c-1.1,1-1.7,2.3-1.9,3.6
		l-2.2,11.9c0.2,0,0.3,0.1,0.5,0.1L392.5,329.1z"/>
	<path fill="#97AF56" d="M1151.5,363.2c-7.8-8.9-21.2-11.3-31.8-6.2l7-14.2c2.4-4.8,3.5-10.3,3-15.9c-1.6-17.6-18.4-30.7-37.5-29.2
		c-19.1,1.5-33.3,16.9-31.7,34.5l1.6,17.8c-0.9-1.1-1.8-2.3-2.9-3.3c-10.2-9.2-26.5-9.1-36.5,0.2c-10,9.4-9.9,24.4,0.3,33.6
		l11.8,10.7h15l18.9,23.6h0v22.1l1.4,1.5l7-36.8l-23.9-25.7l5-3.9l20.3,21.9l10.4-54.5l6.5,1l-10.4,54.5l27.2-14.2l3.2,5.3
		l-31.9,16.7l-7,36.8l21.6-11.3l3.2,5.3l-26.3,13.8l-1.8,9.4h17.8l25.2-10.7c1.3-0.6,2.7-1.3,3.9-2.2c8-6,9.2-16.8,2.8-24.1
		c-3.2-3.7-7.7-5.8-12.4-6.3l31.6-13.4c1.9-0.8,3.8-1.9,5.4-3.1C1158.8,388.4,1160.5,373.4,1151.5,363.2z"/>
	<path fill="#97AF56" d="M1030.4,431.9l12.8,11.6v-28.7h-17.6C1023.7,420.7,1025.3,427.3,1030.4,431.9z"/>
	<g>
		<path fill="#E2A325" d="M866.1,389.3v-5.5c-0.1,0-0.1,0-0.2,0c-0.3,0.1-0.7,0.2-1,0.3c-11.1,2.9-22.8,4.4-34.9,4.4
			c-5.1,0-10.2-0.3-15.1-0.8c0.1,0.5,0.2,1.1,0.2,1.7c0,0,0,0,0,0c0,4.1-3.6,7.4-8.1,7.4c-4.5,0-8.1-3.3-8.1-7.4c0,0,0,0,0,0
			c0-1.5,0.5-2.9,1.3-4.1c-27.5-6-51.7-20-69.4-39.3c-5-5.5-9.5-11.3-13.4-17.5c-3.2,6.2-7,12.1-11.4,17.5
			c-11,13.6-25.5,24.6-42.2,31.9c-0.1,0.1-0.2,0.1-0.4,0.2c-0.1,0.1-0.3,0.1-0.4,0.2v11.1h0c0,0,0,0,0,0c0,6.3,0.7,12.5,2,18.4
			c6.9,31.7,31.2,57.6,63.3,68.9c11.2,4,23.4,6.1,36.2,6.1s24.9-2.2,36.2-6.1c32.1-11.3,56.4-37.2,63.3-68.9
			C865.4,401.9,866.1,395.7,866.1,389.3C866.1,389.4,866.1,389.3,866.1,389.3z M783.4,432.2c-2.2,7.7-9.7,13.3-18.7,13.3
			c-9,0-16.5-5.7-18.7-13.3H783.4z M722.2,396.8c-4.5,0-8.1-3.3-8.1-7.4c0,0,0,0,0,0c0-4.1,3.6-7.4,8.1-7.4c4.5,0,8.1,3.3,8.1,7.4
			c0,0,0,0,0,0C730.3,393.5,726.7,396.8,722.2,396.8z"/>
		<path fill="#E2A325" d="M663.2,368.9c0.9-0.4,1.9-0.9,2.8-1.4c10.9-5.6,20.5-12.9,28.5-21.5c7.4-8,13.4-17.2,17.7-27.2
			c-1.2-2.4-2.4-4.9-3.4-7.5c-2.2-5.2-3.9-10.6-5.3-16.2c-0.4-1.6-0.7-3.2-1.1-4.8c-0.1-0.5-0.2-1-0.3-1.6c-5,3.3-9.7,7-14,11
			c-19.3,17.9-31.2,42.6-31.2,69.9c0,0.7,0,1.3,0,2C659.1,370.8,661.2,369.9,663.2,368.9C663.2,368.9,663.2,368.9,663.2,368.9z"/>
		<path fill="#E2A325" d="M841.2,299.8c-19.5-18.1-46.6-29.4-76.5-29.4c-12.9,0-25.2,2.1-36.7,5.9c-1.5,0.5-3,1-4.5,1.6
			c-1.5,0.6-3,1.2-4.4,1.8c-2.5,1.1-4.9,2.2-7.2,3.4c0.1,0.8,0.2,1.5,0.4,2.3c0.2,1.3,0.5,2.6,0.7,3.9c1,4.9,2.4,9.8,4.1,14.5
			c0.3,0.9,0.6,1.7,1,2.6c0.6,1.5,1.2,3,1.9,4.5c0.9,2,1.8,3.9,2.8,5.8c5.7,10.9,13.3,20.8,22.5,29.3c21.6,20.2,51.7,32.8,84.9,32.8
			c12.1,0,23.7-1.7,34.7-4.7c0.4-0.1,0.8-0.2,1.3-0.4c0,0,0.1,0,0.1,0c2.1-0.6,4.2-1.3,6.3-2c0-0.7,0-1.3,0-2
			C872.4,342.4,860.5,317.7,841.2,299.8z"/>
	</g>
	<path fill="#E2A325" d="M434.7,525.4h-5.6h-15.9h-6.5h-1.7c-11.5,0-20.8,8.6-20.8,19.1v25.5c0,10.6,9.3,19.1,20.8,19.1h1.7h6.5
		h15.9h5.6c4.6,0,8.3-3.4,8.3-7.6V533C443,528.8,439.3,525.4,434.7,525.4z"/>
	<g>
		<path fill="#DC7626" d="M598.2,414.8L598.2,414.8L598.2,414.8L598.2,414.8L598.2,414.8l-18.9-23.6H499h-15.9L469.6,408l-5.5,6.8h0
			v41.7h-7.4h-35.5h-8.1v68.9h15.9h5.6c4.6,0,8.3,3.4,8.3,7.6v48.5c0,4.2-3.7,7.6-8.3,7.6h-5.6h-15.9v78.4h167.9h64.5V481v-24.6
			h-47.4V414.8z M492.2,622.1l-21.4,0.1l0.2-20.9l21.9-0.4L492.2,622.1z M493.2,597.4l-22.3,0.3l0.6-69.3l0-3.1l0.2-20.5l2.6,0
			l15.4-0.1l3.9,0L493.2,597.4z M497.3,504.5l7.5,0l35.4-0.2l28.5-0.2l-0.7,14.6l-70.6,0.2L497.3,504.5z M593,520.9v4.3v13.3
			l-8.1,0.1l-14.3,0.2l2.1-24.5l0.8-9.8H593V520.9z M583.9,542l9.1-0.1l0.1,18.2l-12,0.1l-61.3,0.5l-0.2-17.8L583.9,542z
			 M555.9,621.6l-39,0.1l0.5-40.5l39.4-0.2L555.9,621.6z M581.1,621.5l-21.2,0.2l1.3-57.9l19.9-0.3l12.2-0.2l0.5,58L581.1,621.5z
			 M522.8,456.5h-33v-41.7h17.8h65v41.7H522.8z"/>
		<path fill="#DC7626" d="M1094.6,584.9h5.6h15.9V456.5h-25h-17.8h-4.6v-10.3v-0.8v-8.6v-22.1h0l-18.9-23.6h-15h-81.1l-18.9,23.6h0
			v41.7h-51V481v186.5h64.5h167.9v-18.9h-15.9h-5.6c-4.6,0-8.3-3.4-8.3-7.6v-48.5C1086.3,588.3,1090,584.9,1094.6,584.9z
			 M1063.7,560l-73.3,0.6l-0.2-17.8l73.4-1L1063.7,560z M1063.6,538.6l-22.5,0.2l2.1-24.6l0.8-9.7h19.6v20.7V538.6z M960.4,414.8
			h65.2h17.6v28.7v13h-82.8V414.8z M962.8,622.1l-14.5,0.1l-6.9,0l0.2-20.9l6.6-0.1l15.2-0.2L962.8,622.1z M963.8,597.4l-15.6,0.2
			l-6.7,0.1l0.6-65.3l0.1-7.2l0.2-20.5l18-0.2l3.9,0L963.8,597.4z M967.9,504.5l71.4-0.5l-0.7,14.6l-70.7,0.2L967.9,504.5z
			 M1026.5,621.6l-39,0.1l0.5-40.5l39.4-0.2L1026.5,621.6z M1030.5,621.7l1.3-57.9l32.1-0.4l0.5,58L1030.5,621.7z"/>
	</g>
	<path fill="#E2A325" d="M1124.4,584.9h-1.7h-6.5h-15.9h-5.6c-4.6,0-8.3,3.4-8.3,7.6V641c0,4.2,3.7,7.6,8.3,7.6h5.6h15.9h6.5h1.7
		c11.5,0,20.8-8.6,20.8-19.1V604C1145.1,593.4,1135.8,584.9,1124.4,584.9z"/>
	<path fill="#B3B2B3" d="M567.8,231.8c0.5,0.8,1.6,1.2,2.5,0.7l35.3-17.3c1-0.5,1.2-1.5,0.8-2.3l-3.8-6.5c-0.5-0.8-1.6-1.2-2.5-0.7
		l-25.6,12.6l-8.1-14l21.4-10.5c0.9-0.4,1.3-1.5,0.8-2.3l-3.8-6.6c-0.5-0.8-1.6-1.1-2.5-0.7l-21.4,10.5l-7.6-13.1l25.6-12.6
		c0.9-0.5,1.2-1.5,0.8-2.3l-3.8-6.5c-0.5-0.8-1.6-1.2-2.5-0.7L538,176.7c-1,0.5-1.2,1.5-0.8,2.3L567.8,231.8z"/>
	<path fill="#B3B2B3" d="M635.1,201.8c0.3,0.9,1.3,1.4,2.3,1.2l8.6-2.2c1-0.3,1.6-1.2,1.3-2.1l-11.2-37.5l0.2,0l50.6,29.6
		c0.6,0.3,1.1,0.4,1.8,0.2l1.3-0.3c0.9-0.2,1.6-1.2,1.3-2l-17.5-58.7c-0.3-0.9-1.3-1.4-2.3-1.2l-8.7,2.2c-1,0.3-1.6,1.2-1.3,2.1
		l10.8,36l-0.2,0L622.1,141c-0.6-0.3-1.1-0.4-1.8-0.2l-1.4,0.4c-0.9,0.2-1.6,1.2-1.3,2L635.1,201.8z"/>
	<path fill="#B3B2B3" d="M734.2,185.9c11.5-0.7,20.1-7.5,19.3-20.1l-3-43.5c-0.1-0.9-0.9-1.7-2-1.6l-9.2,0.5
		c-1.1,0.1-1.8,0.9-1.7,1.8l3,43.5c0.4,6.2-3.3,8.4-7.3,8.7c-3.2,0.2-5.3-1.3-6.7-2.5c-0.9-0.8-1.9-0.9-2.9,0.1l-4.8,5.1
		c-0.5,0.7-0.6,1.6,0,2.3C720.7,181.9,725.7,186.4,734.2,185.9z"/>
	<path fill="#B3B2B3" d="M819.8,188c19.4,2.6,37.2-9.5,40-27.4c2.8-17.9-10.4-34.4-29.9-37c-19.4-2.6-37.1,9.7-40,27.6
		C787.1,169.1,800.3,185.4,819.8,188z M828.1,135.2c12.2,1.6,20.9,12.4,19.1,23.7c-1.8,11.3-13.3,19.1-25.6,17.5
		c-12.2-1.6-20.8-12.2-19-23.5C804.4,141.6,815.9,133.5,828.1,135.2z"/>
	<path fill="#B3B2B3" d="M906.4,176.2L895.2,203c-0.4,0.8,0.1,1.9,1.1,2.2l8.4,3c0.9,0.3,2.1-0.1,2.4-1l11.2-26.9l32.9-20.6
		c1.2-0.8,1-2.4-0.4-3l-9.4-3.3c-0.7-0.3-1.4,0-1.8,0.2l-22.7,14.2l-6.6-24.6c-0.1-0.4-0.4-1-1.1-1.3l-9.3-3.3
		c-1.5-0.5-2.8,0.6-2.5,1.9L906.4,176.2z"/>
	<path fill="#B3B2B3" d="M968.2,209.2l2.7,1.5c0.8,0.4,1.9,0.2,2.4-0.4l17.2-20.2l5.5-8.7c0.5-0.8,0.2-1.9-0.7-2.3l-9.3-5
		c-0.9-0.5-2.1-0.2-2.6,0.6l-5.6,8.9l-10.5,23.6C967,207.8,967.4,208.8,968.2,209.2z"/>
	<path fill="#B3B2B3" d="M955.5,231.9c3.9,2.1,8.9,0.9,11.1-2.6c2.2-3.5,1-8.2-2.9-10.3c-3.7-2-8.7-0.7-11,2.8
		C950.5,225.4,951.8,229.9,955.5,231.9z"/>
</g>
</svg>
