<?xml version="1.0" encoding="utf-8"?>
<!-- Generator: Adobe Illustrator 18.1.1, SVG Export Plug-In . SVG Version: 6.00 Build 0)  -->
<svg version="1.1" id="Layer_1" xmlns="http://www.w3.org/2000/svg" xmlns:xlink="http://www.w3.org/1999/xlink" x="0px" y="0px"
	 viewBox="0 0 72 87.7" enable-background="new 0 0 72 87.7" xml:space="preserve">
<g>
	<path fill="#DD7626" d="M71.1,49.7c-1.5-1.5-4-1.5-5.6,0c-0.9,0.9-1.4,2.1-1.4,3.3c-3-3.5-7.4-5.7-12.4-5.7L24.1,52l-3.5,1.8
		c-2.1-3.3-6.3-4.6-10-3.1l3.1,7.4l-7.8,6.8L0,66v7.6L12,80h4.1l2.6,7.7h2.8V80h0.2l2.6,7.7H27v-7.2c2.7,1.7,7.2,2.8,12.2,2.8
		c3.7,0,7.1-0.6,9.8-1.6l1.1,1.5l-1.4,4.5h4.1l3.3-8.3C63,77.5,68,71.2,68,63.7c0-2.9-0.8-5.7-2.1-8.1l1-2.8c0,0.5,0.2,0.9,0.6,1.3
		c1,1,2.6,1,3.6,0C72.3,52.9,72.3,50.9,71.1,49.7z M49.9,52l0.3,3.3l-17.3,1.8l-0.3-3.3L49.9,52z M13,66.9c-0.6,0-1-0.5-1-1
		c0-0.6,0.5-1,1-1s1,0.5,1,1C14,66.4,13.5,66.9,13,66.9z"/>
	<circle fill="#97B056" cx="38" cy="39.3" r="6.4"/>
	<circle fill="#97B056" cx="43.1" cy="22.2" r="6.4"/>
	<circle fill="#97B056" cx="31.6" cy="6.4" r="6.4"/>
</g>
</svg>
