<?xml version="1.0" encoding="utf-8"?>
<!-- Generator: Adobe Illustrator 18.1.1, SVG Export Plug-In . SVG Version: 6.00 Build 0)  -->
<svg version="1.1" id="Layer_1" xmlns="http://www.w3.org/2000/svg" xmlns:xlink="http://www.w3.org/1999/xlink" x="0px" y="0px"
	 viewBox="151.5 7.5 777 777" enable-background="new 151.5 7.5 777 777" xml:space="preserve">
<g>
	<polygon fill="none" points="571.1,226.1 571.1,223.3 567.4,226.1 	"/>
	<path fill="none" d="M571.1,182.2v-9.1l-9.1,9.1C564.6,181.3,568.4,181.3,571.1,182.2z"/>
	<path fill="none" d="M617.7,161.2l-22.8-22.8c0,4.6-0.9,9.1-3.6,12.8c0,0,0,0.9-0.9,0.9l9.1,11
		C604.9,160.3,612.2,159.4,617.7,161.2z"/>
	<path fill="#98B055" d="M465.9,178.6l32,14.6c-6.4,0.9-11.8,4.6-14.6,11c-3.6,8.2-0.9,16.5,5.5,22.8h39.3l-19.2-11l3.6-6.4
		l21.9,11.8l-7.3-41.1L497,163.9h-43.8C455,171.2,459.6,175.8,465.9,178.6z"/>
	<polygon fill="#98B055" points="529,164.9 530.9,172.2 536.3,164.9 	"/>
	<polygon fill="#98B055" points="522.6,164.9 509.8,164.9 523.5,172.2 	"/>
	<path fill="#98B055" d="M540,221.6l16.5-19.2l5.5,4.6L543.6,227h23.8l3.6-3.6v-42c-2.7-0.9-6.4-0.9-9.1,0l9.1-9.1v-9.1h-25.6
		l-12.8,15.6L540,221.6z"/>
	<path fill="#98B055" d="M750.4,105.5c-9.1-11.8-26.5-15.6-41.1-9.1l9.1-19.2c2.7-7.3,4.6-13.7,3.6-21.9
		c-1.9-24.7-23.8-43-47.5-40.2c-24.9,1.8-43.1,23.7-40.3,47.5l1.9,24.7c-0.9-1.9-2.7-3.6-3.6-4.6c-12.8-12.8-33.8-11.8-45.7,0
		c-8.2,8.2-11,19.2-9.1,29.3c1.9,0.9,3.6,1.9,5.5,2.7c7.6,5.1,11.2,14.1,11.7,21.9c-0.6-8.5-5.1-16.9-12.8-22
		c-1.9-0.9-3.6-1.9-5.5-2.7c0.1,0.6,0.2,1.1,0.3,1.7c-9-3.2-20.5-0.4-26.7,7.6l1.9-17.3c0-6.4-0.9-11.8-3.6-17.3
		c-8.2-17.3-29.3-25.6-46.6-17.3c-17.3,8.2-25.6,29.3-17.3,46.6l9.1,18.3c-0.9-0.9-2.7-1.9-4.6-2.7c-10.1-4.6-21.9-2.7-28.3,5.5
		h59.4l-6.6-24l7.3-0.9l4.6,24.7h54l11.8,16.5c0,0,0-0.9,0.9-0.9c2.7-4.6,3.6-9.1,3.6-12.8l-9.1-9.1c-3.9-3.2-6.4-6.9-7.8-11
		c1.7,3.3,4.1,6.4,6.7,9.1l9.2,10.1l22.8,22.8c-6.4-1.9-12.8-0.9-18.3,2.7l0.9,0.9v41.1l21.9,21.1h22l0.9-6.4l-26.5-29.3l6.4-5.5
		l21.1,24.7l9.1-51.2l-30.2-35.6l6.4-5.5l26.6,30.3l12.8-75.9l8.2,1.9l-12.8,75.9l34.8-20.1l4.6,7.3l-43,21.9l-9.1,51.2l27.4-15.6
		l4.6,7.3l-33.8,19.2l-0.9,4.6h37.5v0.9l15.6-7.3c1.9-0.9,3.6-1.9,5.5-3.6c10.1-8.2,11.8-23.8,3.6-32.9c-4.6-5.5-9.1-8.2-15.6-9.1
		l40.2-18.3c2.7-0.9,5.5-2.7,7.3-4.6C758.6,140.3,761.4,119.2,750.4,105.5z"/>
	<path fill="#98B055" d="M290.4,96.3l9.1-12.8l-15.6-11l-5.5,15.6l0,0L290.4,96.3z"/>
	<path fill="#98B055" d="M327.9,133.8l-34.8,6.4l-0.9-4.6l34.8-6.4c11-11,12.8-28.3,3.6-42l-3.6-4.6L307,110c0,0.9-0.9,0.9-1.9,0.9
		c-1,0-0.9,0-1.9,0l-27.4-20.1l-1.9,5.5c-3.6,9.1-1.9,21.1,5.5,29.3c3.6,4.6,8.2,8.2,11.8,9.1l14.6,91.4h35.6L327.9,133.8z"/>
	<path fill="#98B055" d="M300.5,79l10.1-14.6c0,0,0,0,0.9,0l-9.1-11.1c-0.9-0.9-1.9-1.9-3.6-2.7c-4.6-1.9-9.1,0.9-9.1,5.5l-4.6,12.8
		c0,0,0,0,0.9,0L300.5,79z"/>
	
		<rect x="297" y="89.2" transform="matrix(-0.582 0.8132 -0.8132 -0.582 559.8196 -94.7833)" fill="#98B055" width="14.6" height="14.6"/>
	<path fill="#98B055" d="M316.1,91.7l8.2-11l0,0L314.2,67l-11,15.6L316.1,91.7z"/>
	<path fill="#98B055" d="M375.4,49.7l8.2-11l0,0l-10.1-12.8l-11,15.6L375.4,49.7z"/>
	<path fill="#98B055" d="M360,36.9l10-14.6c0,0,0,0,0.9,0l-9.1-11c-0.9-0.9-2.7-1.9-3.6-2.7c-4.6-1.9-9.1,0.9-9.1,5.5l-5.5,12.8
		c0,0,0,0,0.9,0L360,36.9z"/>
	<path fill="#98B055" d="M389.1,164.9L389.1,164.9l8.2-10.1l-11-65.8l0.9,4.6L351.6,99l-0.9-4.6l34.8-6.4c11-11,12.8-28.3,3.6-42
		l-3.6-4.6l-20.1,27.4c0,0.9-0.9,0.9-1.9,0.9c-0.9,0-0.9,0-1.9,0l-27.4-20.1l-1.9,5.5c-3.6,9.1-1.9,21.1,5.5,29.3
		c3.6,4.6,8.2,8.2,11.8,9.1l21.9,131.6h15.6V163h1.9V164.9z"/>
	<path fill="#98B055" d="M349,54.3l9.1-12.8l-14.6-11L338,46.9l0,0L349,54.3z"/>
	
		<rect x="356.2" y="48.3" transform="matrix(-0.582 0.8132 -0.8132 -0.582 620.174 -207.6714)" fill="#98B055" width="14.6" height="14.6"/>
	<path fill="#DD7627" d="M680.8,509.5L680.8,509.5h2.7h6.4V241.6h-89.6v-76.8l-1.9-0.9l-9.1-11l-11-16.5h-54H517h-59.4h-47.5
		l-12.7,18.2l-8.2,9.1l0,0v76.8h-92.3v138v72.2v60.3c1.9-0.9,4.6-1.9,6.4-1.9h3.6h23.8h2.7l0,0c14.6,0.9,26.5,12.8,26.5,28.3v23.8
		c0,14.6-11,26.5-26.5,28.3l0,0h-2.7h-23.8h-3.6c-2.7,0-4.6-0.9-6.4-1.9v39.3h392.1v-37.5h-6.4h-1.9l0,0
		c-14.6-0.9-26.5-12.8-26.5-28.3v-23.8C654.2,523.2,665.2,510.3,680.8,509.5z M604,473.8l0.9,64.9l-57.6,0.9l1.9-65.8l0.9-41.1
		l54.8-0.9L604,473.8z M561.9,322l-0.9,26.5H440.4V323L561.9,322z M474.2,473.8v-9.1l66.7-0.9v9.1l-1.9,65.8h-66.7L474.2,473.8z
		 M603,426.2l-125.3,0.9v-32.9l125.3-1.9V426.2z M603,323v62.2l-38.4,0.9l5.5-63.1H603L603,323z M453.2,164.9h43.9h13.7h12.8h7.3
		h7.3h9.1h23.8v9.1v9.1v41.1v3.6v1.9v12.8h-18.3h-9.1h-7.3h-18.3h-99.7v-12.8v-1.9v-61.2h34.8V164.9z M396.5,323.9H434l-0.9,149.9
		v21.1l-38.4,0.9v-21.9L396.5,323.9z M433,502.1l-1.9,39.3h-36.5V503L433,502.1z"/>
	<g>
		<path fill="#E4A527" d="M680.8,589.9L680.8,589.9h2.7h6.4h17.3h2.7c7.3,0,12.8-6.4,12.8-12.8v-54c0-7.3-6.4-12.8-12.8-12.8h-3.6
			H689h-5.5h-2.7l0,0c-14.6,0.9-26.5,12.8-26.5,28.3v23.8C654.2,576.2,665.2,588,680.8,589.9z"/>
		<path fill="#E4A527" d="M332.5,509.5L332.5,509.5h-2.7H306h-3.6c-2.7,0-4.6,0.9-6.4,1.9c-0.9,0.9-2.7,1.9-3.6,2.7L178,464.6v72.2
			l115.2,49.4c0.9,0.9,1.9,1.9,2.7,1.9c1.9,0.9,4.6,1.9,6.4,1.9h3.6h23.9h2.7l0,0c14.6-0.9,26.5-12.8,26.5-28.3v-22.8
			C359,523.2,348,510.3,332.5,509.5z"/>
		<polygon fill="#E4A527" points="296.9,451.9 296.9,379.6 283.2,373.2 179,328.5 179,400.7 283.2,445.4 		"/>
		<path fill="#E4A527" d="M583.8,707.8l9.1,4.6h26.5l-18.3-28.3c-4.6-7.3-14.6-9.1-21.9-5.5c-2.7,1.9-5.5,4.6-6.4,8.2l-4.6-8.2
			c-4.6-8.2-13.7-10.1-21.9-6.4c-4.6,2.7-7.3,6.4-8.2,10.1l36.5,20.1L583.8,707.8z"/>
		<path fill="#E4A527" d="M766.7,705c-7.3-21.9-27.4-38.4-51.2-38.4h-36.5h-28.3c-9.1,0-15.6,7.3-15.6,15.6
			c0,9.1,7.3,15.6,15.6,15.6h28.3c6.4,0,11,5.5,11,11c0,6.4-5.5,11-11,11h-19.2h-36.5h-32h-0.9l-7.3-3.6l-43.9-24.7l-16.5-9.1l0,0
			l0,0l0,0c-0.9,0-0.9,0-1.9-0.9c-0.9,0-0.9-0.9-1.9-0.9c-0.9,0-0.9,0-1.9,0h-0.9c-0.9,0-0.9,0-1.9,0h-0.9c-0.9,0-0.9,0-1.9,0h-0.9
			c-0.9,0-0.9,0-1.9,0.9c-0.9,0-0.9,0-1.9,0.9c-0.9,0-0.9,0.9-1.9,0.9l-0.9,0.9l-0.9,0.9l-0.9,0.9l0,0v2.7l-0.9,0.9l0,0l0,0
			c0,0,0,0.9-0.9,0.9c0,0.9-0.9,0.9-0.9,1.9c0,1,0,0.9,0,1.9c0,0.9,0,0.9,0,1.9c0,0.9,0,0.9,0,1.9c0,0.9,0,0.9,0,1.9s0,0.9,0,1.9
			c0,0.9,0,0.9,0,1.9c0,0.9,0,0.9,0.9,1.9c0,0,0,0.9,0.9,0.9c0,0.9,0.9,0.9,0.9,1.9l0.9,0.9l0.9,0.9l0.9,0.9l0.9,0.9
			c0.9,0,0.9,0.9,1.9,0.9l95.2,53c20.1,11,43,17.3,65.8,17.3h32.9h64.9h139v-76.8L766.7,705L766.7,705z"/>
	</g>
</g>
</svg>
