<?xml version="1.0" encoding="utf-8"?>
<!-- Generator: Adobe Illustrator 18.1.1, SVG Export Plug-In . SVG Version: 6.00 Build 0)  -->
<svg version="1.1" id="Layer_1" xmlns="http://www.w3.org/2000/svg" xmlns:xlink="http://www.w3.org/1999/xlink" x="0px" y="0px"
	 viewBox="151.5 7.5 777 777" enable-background="new 151.5 7.5 777 777" xml:space="preserve">
<g>
	<g>
		<g>
			<path fill="#B4B4B5" d="M520.8,310.6c1.5,2.3,5.4,2.3,6.9,0l39.8-77.4c7.7-14.6,7.7-33-2.3-49c-13-21.5-41.4-28.4-63.6-17.6
				c-24.5,12.3-33.7,42.1-21.5,66.7L520.8,310.6z"/>
		</g>
		<circle fill="#FFFFFF" cx="523.9" cy="211" r="25.3"/>
	</g>
	<g>
		<g>
			<path fill="#98B055" d="M309.3,535.1c1.5,2.3,3.8,2.3,4.6,0l27.6-53.6c5.4-10.7,5.4-23-1.5-33.7c-9.2-14.6-29.1-19.9-44.4-12.3
				c-17.6,8.4-23.8,29.1-14.6,46.7L309.3,535.1z"/>
		</g>
		<circle fill="#FFFFFF" cx="311.6" cy="465.4" r="17.6"/>
	</g>
	<g>
		<g>
			<path fill="#DD7627" d="M689.4,401.8c1.5,2.3,3.8,2.3,4.6,0l27.6-53.6c5.4-10.7,5.4-23-1.5-33.7c-9.2-14.6-29.1-19.9-44.4-12.3
				c-17.6,8.4-23.8,29.1-14.6,46.7L689.4,401.8z"/>
		</g>
		<circle fill="#FFFFFF" cx="691.7" cy="332.8" r="17.6"/>
	</g>
	<g>
		<g>
			<path fill="#98B055" d="M667.9,559.7c0.8,1.5,2.3,1.5,2.3,0l17.6-33c3.1-6.9,3.1-14.6-0.8-21.5c-6.1-9.2-17.6-12.3-27.6-7.7
				c-10.7,5.4-14.6,17.6-9.2,28.4L667.9,559.7z"/>
		</g>
		<circle fill="#FFFFFF" cx="668.7" cy="516" r="11.5"/>
	</g>
	<g>
		<g>
			<path fill="#98B055" d="M828.1,254.7c0.8,1.5,2.3,1.5,2.3,0l17.6-33c3.1-6.9,3.1-14.6-0.8-21.5c-6.1-9.2-17.6-12.3-27.6-7.7
				c-10.7,5.4-14.6,17.6-9.2,28.4L828.1,254.7z"/>
		</g>
		<circle fill="#FFFFFF" cx="829.6" cy="211" r="11.5"/>
	</g>
	<g>
		<g>
			<path fill="#B4B4B5" d="M218.1,317.5c0.8,1.5,3.1,1.5,3.8,0l22.2-42.1c3.8-7.7,3.8-18.4-1.5-27.6c-7.7-12.3-23-16.1-35.2-10
				c-13,6.9-18.4,23-12.3,37.5L218.1,317.5z"/>
		</g>
		<circle fill="#FFFFFF" cx="219.7" cy="262.3" r="13.8"/>
	</g>
	<g>
		<g>
			<path fill="#B4B4B5" d="M477.9,638.6c0.8,1.5,2.3,1.5,2.3,0l17.6-33c3.1-6.9,3.1-14.6-0.8-21.5c-6.1-9.2-17.6-12.3-27.6-7.7
				c-10.7,5.4-14.6,17.6-9.2,28.4L477.9,638.6z"/>
		</g>
		<circle fill="#FFFFFF" cx="478.7" cy="595.7" r="11.5"/>
	</g>
	<g>
		<g>
			<path fill="#B4B4B5" d="M897.1,425.6c0.8,1.5,3.1,1.5,3.8,0l23-44.4c4.6-8.4,4.6-19.2-1.5-28.4c-7.7-12.3-23.8-16.9-36.8-10
				c-13.8,7.7-19.9,24.5-12.3,38.3L897.1,425.6z"/>
		</g>
		<circle fill="#FFFFFF" cx="898.6" cy="368.1" r="14.6"/>
	</g>
	<g>
		<g>
			<path fill="#98B055" d="M838.1,610.2c0.8,1.5,3.1,1.5,3.8,0l22.2-42.9c3.8-8.4,4.6-19.2-1.5-27.6c-7.7-12.3-23-16.1-36-10
				c-13.8,7.7-19.2,23.8-12.3,37.5L838.1,610.2z"/>
		</g>
		<circle fill="#FFFFFF" cx="840.4" cy="555.1" r="14.6"/>
	</g>
	<g>
		<g>
			<path fill="#DD7627" d="M363.7,342.8c0.8,1.5,2.3,1.5,2.3,0l17.6-33c3.1-6.9,3.1-14.6-0.8-21.5c-6.1-9.2-17.6-12.3-27.6-7.7
				c-10.7,5.4-14.6,17.6-9.2,28.4L363.7,342.8z"/>
		</g>
		<circle fill="#FFFFFF" cx="364.5" cy="300.6" r="11.5"/>
	</g>
	<g>
		<g>
			<path fill="#DD7627" d="M173.7,591.8c0.8,1.5,2.3,1.5,2.3,0l17.6-33c3.1-6.9,3.1-14.6-0.8-21.5c-6.1-9.2-17.6-12.3-27.6-7.7
				c-10.7,6.1-14.6,18.4-9.2,29.1L173.7,591.8z"/>
		</g>
		<circle fill="#FFFFFF" cx="174.5" cy="549.7" r="11.5"/>
	</g>
	<g>
		<path fill="#E4A527" d="M608.2,438.6c-8.4,2.3-17.6,3.8-26.8,3.8c-3.8,0-7.7,0-12.3-0.8c0,0.8,0,0.8,0,1.5c0,3.1-2.3,6.1-6.1,6.1
			c-3.1,0-6.1-2.3-6.1-6.1c0-1.5,0.8-2.3,1.5-3.1c-21.5-4.6-39.8-16.9-52.9-32.2c-3.8-4.6-7.7-9.2-10.7-14.6
			c-2.3,5.4-5.4,10-8.4,14.6c-8.4,11.5-19.2,20.7-32.2,26.8l0,0c0,0,0,0-0.8,0v9.2c0,5.4,0.8,10.7,1.5,15.3
			c7.7,36,38.3,62.1,76.6,62.1s69-27.6,76.6-62.1c0.8-4.6,1.5-10,1.5-15.3L608.2,438.6L608.2,438.6
			C608.9,438.6,608.9,438.6,608.2,438.6z M531.5,490.7c-6.9,0-12.3-4.6-14.6-11.5h28.4C543.8,485.3,538.4,490.7,531.5,490.7z
			 M498.6,449.3c-3.1,0-6.1-2.3-6.1-6.1c0-3.8,2.3-6.1,6.1-6.1c3.8,0,6.1,2.3,6.1,6.1C505.5,446.2,502.4,449.3,498.6,449.3z"/>
		<path fill="#E4A527" d="M454.2,425.6c0.8-0.8,1.5-0.8,2.3-1.5c7.7-4.6,16.1-10.7,22.2-17.6c6.1-6.9,10.7-14.6,13.8-22.2
			c-0.8-2.3-2.3-3.8-2.3-6.1c-1.5-4.6-3.1-8.4-3.8-13c0-1.5-0.8-2.3-0.8-3.8c0-0.8,0-0.8,0-1.5c-3.8,2.3-7.7,6.1-10.7,9.2
			c-14.6,15.3-23.8,36-23.8,58.2c0,0.8,0,1.5,0,1.5C450.3,427.8,452.6,427.1,454.2,425.6L454.2,425.6z"/>
		<path fill="#E4A527" d="M590.6,368.8c-15.3-15.3-36-24.5-59-24.5c-10,0-19.2,2.3-28.4,5.4c-1.5,0.8-2.3,0.8-3.1,1.5
			c-1.5,0-2.3,0.8-3.8,0.8c-2.3,0.8-3.1,2.3-5.4,2.3c0,0.8,0,1.5,0,2.3c0,1.5,0,2.3,0.8,3.1c0.8,3.8,2.3,7.7,3.1,12.3
			c0,0.8,0.8,1.5,0.8,2.3c0.8,1.5,0.8,2.3,1.5,3.1c0.8,1.5,1.5,3.1,2.3,4.6c4.6,9.2,10,17.6,17.6,24.5
			c16.9,16.9,39.8,27.6,65.1,27.6c9.2,0,17.6-1.5,26.8-3.8h0.8l0,0c1.5-0.8,3.1-1.5,4.6-2.3c0-0.8,0-1.5,0-1.5
			C614.3,404.1,605.1,383.4,590.6,368.8z"/>
	</g>
</g>
</svg>
