<?xml version="1.0" encoding="utf-8"?>
<!-- Generator: Adobe Illustrator 18.1.1, SVG Export Plug-In . SVG Version: 6.00 Build 0)  -->
<svg version="1.1" id="Layer_1" xmlns="http://www.w3.org/2000/svg" xmlns:xlink="http://www.w3.org/1999/xlink" x="0px" y="0px"
	 viewBox="465.4 3.9 754.2 783.7" enable-background="new 465.4 3.9 754.2 783.7" xml:space="preserve">
<g>
	<path fill="#DD7626" d="M631.8,372.9l219.2,7.1l4.6,212.1C736.6,587.9,636,491.9,631.8,372.9z"/>
	<path fill="#DD7626" d="M867.3,369.5l297.3,3.4c-4.3,162-135.3,293-297.3,297.3V369.5z"/>
	<path fill="#DD7626" d="M465.4,360.2c1.9-127.1,104.7-231.1,232.7-233.5c128-2.4,234.6,97.6,241.3,224.5"/>
	<polygon fill="#DD7626" points="1131.2,138.4 1169.7,188.9 1121.6,185.1 1105.1,95.7 1105.4,90.8 1190.5,97.5 	"/>
	<path fill="#DD7626" d="M960.7,92.6l-2.6,262.5h197.6L1114,199.7h-11v-8.2v-8.2v-24.7l-18.3-68.1L960.7,92.6z M1035.3,131.8
		c0-7.8,6.3-14.1,14.1-14.1c7.8,0,14.1,6.3,14.1,14.1c0,7.8-6.3,14.1-14.1,14.1C1041.6,145.9,1035.3,139.6,1035.3,131.8z"/>
	<polygon fill="#DD7626" points="1103,158.6 1109.7,183.4 1103,183.4 	"/>
	<polygon fill="#DD7626" points="1103,191.5 1111.8,191.5 1114,199.7 1103,199.7 	"/>
	<polygon fill="#DD7626" points="1103,183.4 1109.7,183.4 1111.8,191.5 1103,191.5 	"/>
	<polygon fill="#DD7626" points="861,787.6 867.3,692.2 962.7,787.6 	"/>
	<path fill="#DD7626" d="M889.6,3.9l99.3,3.9c38.6,1.5,69.3,32.1,72,69.8l-99.3-3.9C922.9,72.2,892.2,41.6,889.6,3.9z"/>
	<path fill="#DD7626" d="M1219.5,279.6c0,17.8-14,32.1-31.7,32.7l-1.1,0c-14.6,0-27.5-10-31.4-24.2l-2.5-9.4l-0.5,0.2L1138,231
		l49.2,14.4l0,0.1l8.6,2.8C1209.8,252.2,1219.5,265.1,1219.5,279.6z"/>
</g>
</svg>
