<?xml version="1.0" encoding="utf-8"?>
<!-- Generator: Adobe Illustrator 18.1.1, SVG Export Plug-In . SVG Version: 6.00 Build 0)  -->
<svg version="1.1" id="Layer_1" xmlns="http://www.w3.org/2000/svg" xmlns:xlink="http://www.w3.org/1999/xlink" x="0px" y="0px"
	 viewBox="369.6 0 788.5 792" enable-background="new 369.6 0 788.5 792" xml:space="preserve">
<g>
	<rect x="817.2" y="520.6" fill="none" width="21" height="2.5"/>
	<rect x="841.7" y="520.6" fill="none" width="2.8" height="2.5"/>
	<rect x="773.9" y="520.6" fill="none" width="21" height="2.5"/>
	<rect x="804.7" y="520.6" fill="none" width="2.8" height="2.5"/>
	<rect x="810.9" y="520.6" fill="none" width="2.8" height="2.5"/>
	<rect x="798.4" y="520.6" fill="none" width="2.8" height="2.5"/>
	<rect x="841.7" y="480.7" fill="none" width="2.8" height="2.5"/>
	<rect x="841.7" y="474.9" fill="none" width="2.8" height="2.5"/>
	<rect x="841.7" y="509.1" fill="none" width="2.8" height="2.5"/>
	<rect x="841.7" y="514.8" fill="none" width="2.8" height="2.5"/>
	<rect x="841.7" y="486.5" fill="none" width="2.8" height="19.4"/>
	<rect x="730.5" y="520.6" fill="none" width="21" height="2.5"/>
	<rect x="724.3" y="486.5" fill="none" width="2.8" height="19.4"/>
	<rect x="724.3" y="514.8" fill="none" width="2.8" height="2.5"/>
	<rect x="724.3" y="509.1" fill="none" width="2.8" height="2.5"/>
	<rect x="724.3" y="474.9" fill="none" width="2.8" height="2.5"/>
	<rect x="767.6" y="520.6" fill="none" width="2.8" height="2.5"/>
	<rect x="724.3" y="480.7" fill="none" width="2.8" height="2.5"/>
	<rect x="761.3" y="520.6" fill="none" width="2.8" height="2.5"/>
	<rect x="755.1" y="520.6" fill="none" width="2.8" height="2.5"/>
	<rect x="724.3" y="520.6" fill="none" width="2.8" height="2.5"/>
	<rect x="804.7" y="469.1" fill="none" width="2.8" height="2.5"/>
	<rect x="718" y="435" fill="none" width="2.8" height="2.5"/>
	<rect x="841.7" y="435" fill="none" width="2.8" height="2.5"/>
	<path fill="none" d="M810.9,431.8h2.8v-2.5h-2.1c-0.2,0.1-0.5,0.3-0.7,0.4V431.8z"/>
	<rect x="767.6" y="474.9" fill="none" width="2.8" height="2.5"/>
	<rect x="798.4" y="474.9" fill="none" width="2.8" height="2.5"/>
	<rect x="724.3" y="435" fill="none" width="2.8" height="2.5"/>
	<rect x="724.3" y="429.2" fill="none" width="2.8" height="2.5"/>
	<rect x="767.6" y="469.1" fill="none" width="2.8" height="2.5"/>
	<rect x="724.3" y="469.1" fill="none" width="2.8" height="2.5"/>
	<rect x="730.5" y="429.2" fill="none" width="21" height="2.5"/>
	<path fill="none" d="M757.8,431.8v-2.1c-0.2-0.1-0.5-0.3-0.7-0.4h-2.1v2.5H757.8z"/>
	<rect x="810.9" y="435" fill="none" width="2.8" height="2.5"/>
	<rect x="817.2" y="435" fill="none" width="21" height="2.5"/>
	<rect x="711.7" y="406.6" fill="none" width="2.8" height="19.4"/>
	<rect x="841.7" y="446.5" fill="none" width="2.8" height="19.4"/>
	<rect x="841.7" y="440.8" fill="none" width="2.8" height="2.5"/>
	<rect x="841.7" y="469.1" fill="none" width="2.8" height="2.5"/>
	<path fill="none" d="M807.4,431.8v-0.3c-0.2,0.1-0.4,0.2-0.6,0.3H807.4z"/>
	<rect x="773.9" y="474.9" fill="none" width="21" height="2.5"/>
	<rect x="798.4" y="480.7" fill="none" width="2.8" height="2.5"/>
	<path fill="none" d="M736.5,403.4c-0.3-0.8-0.5-1.7-0.7-2.5h-5.3v2.5H736.5z"/>
	<rect x="724.3" y="400.8" fill="none" width="2.8" height="2.5"/>
	<path fill="none" d="M832.3,403.4h6v-2.5H833C832.8,401.7,832.5,402.5,832.3,403.4z"/>
	<rect x="730.5" y="474.9" fill="none" width="21" height="2.5"/>
	<rect x="761.3" y="514.8" fill="none" width="2.8" height="2.5"/>
	<rect x="730.5" y="469.1" fill="none" width="21" height="2.5"/>
	<rect x="841.7" y="400.8" fill="none" width="2.8" height="2.5"/>
	<rect x="841.7" y="406.6" fill="none" width="2.8" height="19.4"/>
	<rect x="755.1" y="514.8" fill="none" width="2.8" height="2.5"/>
	<rect x="730.5" y="514.8" fill="none" width="21" height="2.5"/>
	<rect x="730.5" y="446.5" fill="none" width="21" height="19.4"/>
	<rect x="854.3" y="406.6" fill="none" width="2.8" height="19.4"/>
	<rect x="730.5" y="509.1" fill="none" width="21" height="2.5"/>
	<rect x="730.5" y="486.5" fill="none" width="21" height="19.4"/>
	<rect x="730.5" y="480.7" fill="none" width="21" height="2.5"/>
	<rect x="724.3" y="446.5" fill="none" width="2.8" height="19.4"/>
	<rect x="755.1" y="440.8" fill="none" width="2.8" height="2.5"/>
	<rect x="767.6" y="480.7" fill="none" width="2.8" height="2.5"/>
	<rect x="773.9" y="480.7" fill="none" width="21" height="2.5"/>
	<rect x="761.3" y="440.8" fill="none" width="2.8" height="2.5"/>
	<rect x="761.3" y="435" fill="none" width="2.8" height="2.5"/>
	<rect x="730.5" y="440.8" fill="none" width="21" height="2.5"/>
	<rect x="804.7" y="440.8" fill="none" width="2.8" height="2.5"/>
	<rect x="817.2" y="440.8" fill="none" width="21" height="2.5"/>
	<rect x="810.9" y="440.8" fill="none" width="2.8" height="2.5"/>
	<rect x="804.7" y="435" fill="none" width="2.8" height="2.5"/>
	<rect x="724.3" y="440.8" fill="none" width="2.8" height="2.5"/>
	<rect x="817.2" y="446.5" fill="none" width="21" height="19.4"/>
	<rect x="730.5" y="435" fill="none" width="21" height="2.5"/>
	<rect x="755.1" y="435" fill="none" width="2.8" height="2.5"/>
	<path fill="none" d="M761.9,431.8c-0.2-0.1-0.4-0.2-0.6-0.3v0.3H761.9z"/>
	<rect x="767.6" y="514.8" fill="none" width="2.8" height="2.5"/>
	<rect x="810.9" y="514.8" fill="none" width="2.8" height="2.5"/>
	<rect x="804.7" y="514.8" fill="none" width="2.8" height="2.5"/>
	<rect x="798.4" y="514.8" fill="none" width="2.8" height="2.5"/>
	<rect x="773.9" y="514.8" fill="none" width="21" height="2.5"/>
	<rect x="817.2" y="514.8" fill="none" width="21" height="2.5"/>
	<rect x="817.2" y="469.1" fill="none" width="21" height="2.5"/>
	<rect x="817.2" y="480.7" fill="none" width="21" height="2.5"/>
	<rect x="817.2" y="509.1" fill="none" width="21" height="2.5"/>
	<rect x="817.2" y="474.9" fill="none" width="21" height="2.5"/>
	<rect x="817.2" y="486.5" fill="none" width="21" height="19.4"/>
	<rect x="798.4" y="469.1" fill="none" width="2.8" height="2.5"/>
	<rect x="848" y="474.9" fill="none" width="2.8" height="2.5"/>
	<rect x="848" y="480.7" fill="none" width="2.8" height="2.5"/>
	<rect x="711.7" y="474.9" fill="none" width="2.8" height="2.5"/>
	<rect x="711.7" y="480.7" fill="none" width="2.8" height="2.5"/>
	<rect x="711.7" y="486.5" fill="none" width="2.8" height="19.4"/>
	<rect x="848" y="486.5" fill="none" width="2.8" height="19.4"/>
	<rect x="711.7" y="435" fill="none" width="2.8" height="2.5"/>
	<rect x="711.7" y="429.2" fill="none" width="2.8" height="2.5"/>
	<rect x="711.7" y="469.1" fill="none" width="2.8" height="2.5"/>
	<rect x="711.7" y="440.8" fill="none" width="2.8" height="2.5"/>
	<rect x="711.7" y="446.5" fill="none" width="2.8" height="19.4"/>
	<rect x="848" y="520.6" fill="none" width="2.8" height="2.5"/>
	<rect x="848" y="526.4" fill="none" width="2.8" height="19.4"/>
	<rect x="711.7" y="526.4" fill="none" width="2.8" height="19.4"/>
	<rect x="711.7" y="520.6" fill="none" width="2.8" height="2.5"/>
	<rect x="711.7" y="549" fill="none" width="2.8" height="2.5"/>
	<rect x="841.7" y="526.4" fill="none" width="2.8" height="19.4"/>
	<rect x="848" y="514.8" fill="none" width="2.8" height="2.5"/>
	<rect x="718" y="406.6" fill="none" width="2.8" height="19.4"/>
	<rect x="848" y="509.1" fill="none" width="2.8" height="2.5"/>
	<rect x="711.7" y="509.1" fill="none" width="2.8" height="2.5"/>
	<rect x="711.7" y="514.8" fill="none" width="2.8" height="2.5"/>
	<rect x="817.2" y="429.2" fill="none" width="21" height="2.5"/>
	<rect x="848" y="469.1" fill="none" width="2.8" height="2.5"/>
	<rect x="761.3" y="469.1" fill="none" width="2.8" height="2.5"/>
	<rect x="804.7" y="474.9" fill="none" width="2.8" height="2.5"/>
	<rect x="798.4" y="486.5" fill="none" width="2.8" height="19.4"/>
	<rect x="804.7" y="486.5" fill="none" width="2.8" height="19.4"/>
	<rect x="804.7" y="480.7" fill="none" width="2.8" height="2.5"/>
	<rect x="848" y="429.2" fill="none" width="2.8" height="2.5"/>
	<rect x="773.9" y="469.1" fill="none" width="21" height="2.5"/>
	<rect x="798.4" y="435" fill="none" width="2.8" height="2.5"/>
	<rect x="817.2" y="526.4" fill="none" width="21" height="19.4"/>
	<path fill="none" d="M773.9,486.5v19.4h21v-19.4H773.9z M784.4,501.1c-2.6,0-4.8-2-4.8-4.4c0-2.4,2.1-4.4,4.8-4.4s4.8,2,4.8,4.4
		C789.2,499.1,787,501.1,784.4,501.1z"/>
	<rect x="848" y="435" fill="none" width="2.8" height="2.5"/>
	<rect x="761.3" y="474.9" fill="none" width="2.8" height="2.5"/>
	<rect x="724.3" y="406.6" fill="none" width="2.8" height="19.4"/>
	<rect x="848" y="446.5" fill="none" width="2.8" height="19.4"/>
	<rect x="848" y="440.8" fill="none" width="2.8" height="2.5"/>
	<rect x="767.6" y="486.5" fill="none" width="2.8" height="19.4"/>
	<rect x="841.7" y="429.2" fill="none" width="2.8" height="2.5"/>
	<rect x="761.3" y="480.7" fill="none" width="2.8" height="2.5"/>
	<rect x="761.3" y="486.5" fill="none" width="2.8" height="19.4"/>
	<rect x="854.3" y="469.1" fill="none" width="2.8" height="2.5"/>
	<rect x="854.3" y="514.8" fill="none" width="2.8" height="2.5"/>
	<rect x="854.3" y="520.6" fill="none" width="2.8" height="2.5"/>
	<rect x="718" y="480.7" fill="none" width="2.8" height="2.5"/>
	<rect x="718" y="549" fill="none" width="2.8" height="2.5"/>
	<rect x="854.3" y="509.1" fill="none" width="2.8" height="2.5"/>
	<rect x="854.3" y="549" fill="none" width="2.8" height="2.5"/>
	<rect x="718" y="514.8" fill="none" width="2.8" height="2.5"/>
	<rect x="854.3" y="486.5" fill="none" width="2.8" height="19.4"/>
	<rect x="718" y="486.5" fill="none" width="2.8" height="19.4"/>
	<rect x="854.3" y="526.4" fill="none" width="2.8" height="19.4"/>
	<rect x="718" y="509.1" fill="none" width="2.8" height="2.5"/>
	<rect x="718" y="440.8" fill="none" width="2.8" height="2.5"/>
	<rect x="854.3" y="446.5" fill="none" width="2.8" height="19.4"/>
	<rect x="854.3" y="435" fill="none" width="2.8" height="2.5"/>
	<rect x="854.3" y="440.8" fill="none" width="2.8" height="2.5"/>
	<rect x="854.3" y="429.2" fill="none" width="2.8" height="2.5"/>
	<rect x="848" y="406.6" fill="none" width="2.8" height="19.4"/>
	<rect x="848" y="549" fill="none" width="2.8" height="2.5"/>
	<rect x="854.3" y="480.7" fill="none" width="2.8" height="2.5"/>
	<rect x="718" y="469.1" fill="none" width="2.8" height="2.5"/>
	<rect x="854.3" y="474.9" fill="none" width="2.8" height="2.5"/>
	<rect x="718" y="446.5" fill="none" width="2.8" height="19.4"/>
	<rect x="718" y="474.9" fill="none" width="2.8" height="2.5"/>
	<path fill="none" d="M773.9,526.4v19.4h21v-19.4H773.9z M784.4,538.2c-2.6,0-4.8-2-4.8-4.4c0-2.4,2.1-4.4,4.8-4.4s4.8,2,4.8,4.4
		C789.2,536.3,787,538.2,784.4,538.2z"/>
	<rect x="761.3" y="549" fill="none" width="2.8" height="2.5"/>
	<rect x="767.6" y="526.4" fill="none" width="2.8" height="19.4"/>
	<rect x="755.1" y="549" fill="none" width="2.8" height="2.5"/>
	<rect x="767.6" y="549" fill="none" width="2.8" height="2.5"/>
	<rect x="724.3" y="549" fill="none" width="2.8" height="2.5"/>
	<rect x="773.9" y="549" fill="none" width="21" height="2.5"/>
	<rect x="798.4" y="526.4" fill="none" width="2.8" height="19.4"/>
	<rect x="810.9" y="526.4" fill="none" width="2.8" height="19.4"/>
	<rect x="730.5" y="549" fill="none" width="21" height="2.5"/>
	<rect x="804.7" y="526.4" fill="none" width="2.8" height="19.4"/>
	<rect x="798.4" y="549" fill="none" width="2.8" height="2.5"/>
	<rect x="817.2" y="549" fill="none" width="21" height="2.5"/>
	<rect x="810.9" y="549" fill="none" width="2.8" height="2.5"/>
	<rect x="761.3" y="526.4" fill="none" width="2.8" height="19.4"/>
	<rect x="841.7" y="549" fill="none" width="2.8" height="2.5"/>
	<rect x="718" y="526.4" fill="none" width="2.8" height="19.4"/>
	<rect x="724.3" y="526.4" fill="none" width="2.8" height="19.4"/>
	<rect x="755.1" y="526.4" fill="none" width="2.8" height="19.4"/>
	<rect x="718" y="520.6" fill="none" width="2.8" height="2.5"/>
	<rect x="730.5" y="526.4" fill="none" width="21" height="19.4"/>
	<rect x="804.7" y="549" fill="none" width="2.8" height="2.5"/>
	<rect x="773.9" y="440.8" fill="none" width="21" height="2.5"/>
	<rect x="810.9" y="469.1" fill="none" width="2.8" height="2.5"/>
	<rect x="810.9" y="474.9" fill="none" width="2.8" height="2.5"/>
	<rect x="804.7" y="446.5" fill="none" width="2.8" height="19.4"/>
	<rect x="798.4" y="446.5" fill="none" width="2.8" height="19.4"/>
	<rect x="804.7" y="509.1" fill="none" width="2.8" height="2.5"/>
	<rect x="810.9" y="480.7" fill="none" width="2.8" height="2.5"/>
	<rect x="810.9" y="509.1" fill="none" width="2.8" height="2.5"/>
	<rect x="798.4" y="509.1" fill="none" width="2.8" height="2.5"/>
	<rect x="810.9" y="486.5" fill="none" width="2.8" height="19.4"/>
	<rect x="755.1" y="446.5" fill="none" width="2.8" height="19.4"/>
	<path fill="none" d="M794.9,437.5v-1.9c-3.4,0.7-6.9,1-10.5,1c-3.6,0-7.1-0.4-10.5-1v1.9H794.9z"/>
	<rect x="767.6" y="440.8" fill="none" width="2.8" height="2.5"/>
	<rect x="767.6" y="435" fill="none" width="2.8" height="2.5"/>
	<rect x="767.6" y="446.5" fill="none" width="2.8" height="19.4"/>
	<rect x="761.3" y="446.5" fill="none" width="2.8" height="19.4"/>
	<polygon fill="none" points="848,403.4 850.8,403.4 850.8,401.6 848.6,400.8 848,400.8 	"/>
	<path fill="none" d="M773.9,465.9h21v-19.4h-21V465.9z M784.4,455.1c2.6,0,4.8,2,4.8,4.4c0,2.4-2.1,4.4-4.8,4.4s-4.8-2-4.8-4.4
		C779.6,457.1,781.8,455.1,784.4,455.1z"/>
	<polygon fill="none" points="855.9,403.4 854.3,402.8 854.3,403.4 	"/>
	<rect x="718" y="429.2" fill="none" width="2.8" height="2.5"/>
	<rect x="761.3" y="509.1" fill="none" width="2.8" height="2.5"/>
	<rect x="755.1" y="509.1" fill="none" width="2.8" height="2.5"/>
	<rect x="767.6" y="509.1" fill="none" width="2.8" height="2.5"/>
	<rect x="773.9" y="509.1" fill="none" width="21" height="2.5"/>
	<rect x="755.1" y="474.9" fill="none" width="2.8" height="2.5"/>
	<rect x="755.1" y="469.1" fill="none" width="2.8" height="2.5"/>
	<rect x="755.1" y="480.7" fill="none" width="2.8" height="2.5"/>
	<rect x="755.1" y="486.5" fill="none" width="2.8" height="19.4"/>
	<polygon fill="none" points="720.8,403.4 720.8,400.8 720.4,400.8 718,401.7 718,403.4 	"/>
	<rect x="798.4" y="440.8" fill="none" width="2.8" height="2.5"/>
	<polygon fill="none" points="714.5,402.9 713,403.4 714.5,403.4 	"/>
	<rect x="810.9" y="446.5" fill="none" width="2.8" height="19.4"/>
	<path fill="#E2A325" d="M1021.7,358.6c-15.7-1.9-31.8-2.9-48.3-2.9c-16.4,0-32.6,1-48.3,2.9c-1,0.1-1.9,0.2-2.9,0.4v12.2l4.3,0.1
		c5.2,19.5,24.2,33.9,46.9,33.9c22.2,0,40.9-13.8,46.6-32.6l5.4,0.1v-13.5C1024.2,359,1022.9,358.8,1021.7,358.6z M972.9,389.5
		c-7.7,0-14-4.8-15.9-11.3h31.8C987,384.7,980.6,389.5,972.9,389.5z"/>
	<rect x="932.8" y="499.7" fill="#E2A325" width="83.4" height="37.2"/>
	<path fill="#E2A325" d="M1016.4,475h-85.9v-61.7l-22.2,6.4V555h16.8h5.4h85.9h5.4h16.8V419.6l-22.2-6.4V475z M1021.7,541.9h-94.4
		v-47.3h94.4V541.9z"/>
	<path fill="#E2A325" d="M1117.8,279.1h-23.4c-21.1,0-38.2,15.8-38.2,35.2V373c0,19.4,17.2,35.2,38.2,35.2h7.1v74.1h-3.5
		c-4,0-7.3,3-7.3,6.7v24.5c0,3.7,3.3,6.7,7.3,6.7h3.5V555h9.1v-34.7h1.7h4.6c10.1,0,18.3-7.5,18.3-16.8v-4.3
		c0-9.3-8.2-16.8-18.3-16.8h-4.6h-1.7v-74.1h7.1c21.1,0,38.2-15.8,38.2-35.2v-58.7C1156.1,294.9,1138.9,279.1,1117.8,279.1z"/>
	<path fill="#97AF56" d="M524,355.8c0,0.7-0.1,1.4-0.1,2.1c0,26.1,23,47.3,51.3,47.3c28.3,0,51.3-21.2,51.3-47.3
		c0-0.7,0-1.4-0.1-2.1c-16.7-2-33.8-3.1-51.3-3.1C557.8,352.7,540.6,353.7,524,355.8z M575.3,389.5c-7.7,0-14-4.8-15.9-11.3h31.8
		C589.3,384.7,582.9,389.5,575.3,389.5z"/>
	<path fill="#97AF56" d="M613.6,555h5.4h25.9V419.6l-31.3-6.4V475h-76.8v-61.7l-31.3,6.4V555h25.9h5.4H613.6z M629.3,485.9
		c3.4,0,6.1,2.5,6.1,5.6c0,3.1-2.7,5.6-6.1,5.6c-3.4,0-6.1-2.5-6.1-5.6C623.2,488.4,625.9,485.9,629.3,485.9z M521.2,497.2
		c-3.4,0-6.1-2.5-6.1-5.6c0-3.1,2.7-5.6,6.1-5.6c3.4,0,6.1,2.5,6.1,5.6C527.3,494.6,524.6,497.2,521.2,497.2z"/>
	<path fill="#97AF56" d="M625.9,333.1v-28.5c0-22.8-20.1-41.3-44.9-41.3h-11.5c-24.8,0-44.9,18.5-44.9,41.3v28.5
		c-12.8,1.5-25.4,3.5-37.6,6.2l2.4,9.4l0.7,2.9c11.5-2.5,23.4-4.4,35.5-5.8c16.1-1.9,32.7-2.9,49.6-2.9c16.9,0,33.5,1,49.6,2.9
		c12.1,1.4,24,3.4,35.5,5.8l0.7-2.9l2.4-9.4C651.2,336.6,638.7,334.6,625.9,333.1z"/>
	<path fill="#97AF56" d="M463.8,287v86c0,14.8-13.1,26.8-29.1,26.8h-7.1V287h-9.1v112.9h-7.1c-16.1,0-29.1-12-29.1-26.8v-86h-9.1v86
		c0,19.4,17.2,35.2,38.2,35.2h7.1v74.1h-1.7h-4.6c-10.1,0-18.3,7.5-18.3,16.8v4.3c0,9.3,8.2,16.8,18.3,16.8h4.6h1.7V555h9.1v-34.7
		h3.5c4,0,7.3-3,7.3-6.7v-24.5c0-3.7-3.3-6.7-7.3-6.7h-3.5v-74.1h7.1c21.1,0,38.2-15.8,38.2-35.2v-86H463.8z"/>
	<path fill="#E2A325" d="M1009.9,246.8c-3.8,0-7.5,0.7-10.8,2.1c-6-7.2-15.5-11.9-26.2-11.9c-10.5,0-19.9,4.5-25.9,11.6
		c-3.1-1.2-6.5-1.8-10.1-1.8c-14.8,0-26.9,11.1-26.9,24.7c0,6.7,2.9,12.8,7.6,17.3c1.8,2.5,3.4,5,4.7,7.7c-0.1,0.4-0.2,0.8-0.2,1.3
		v32.5v7.5v4.5v4.8v2.7c1.5-0.2,3-0.4,4.5-0.6c15.2-1.8,30.8-2.7,46.7-2.7c15.9,0,31.5,0.9,46.7,2.7c1.8,0.2,3.5,0.4,5.3,0.7v-2.7
		v-4.8v-4.5v-7.5v-31.1c-0.2-1.2-0.5-2.3-0.8-3.2c1.3-2.5,2.8-4.9,4.5-7.2c4.7-4.5,7.6-10.6,7.6-17.3
		C1036.8,257.9,1024.7,246.8,1009.9,246.8z"/>
	<path fill="#E2A325" d="M970,409h-2.4c-13,0-23.6,9.8-23.6,21.8v25.1h2.4c13,0,23.6-9.8,23.6-21.8V409z"/>
	<path fill="#E2A325" d="M977.8,409h-1.9v19.6c0,9.4,8.3,17,18.5,17h1.9v-19.6C996.3,416.7,987.9,409,977.8,409z"/>
	<path fill="#DC7626" d="M789.2,417.3c0-2.4-2.1-4.4-4.8-4.4s-4.8,2-4.8,4.4c0,1.5,0.8,2.9,2.1,3.7h5.3
		C788.3,420.2,789.2,418.8,789.2,417.3z"/>
	<ellipse fill="#DC7626" cx="784.4" cy="456.9" rx="4.8" ry="4.4"/>
	<ellipse fill="#DC7626" cx="784.4" cy="496.7" rx="4.8" ry="4.4"/>
	<ellipse fill="#DC7626" cx="784.4" cy="536.7" rx="4.8" ry="4.4"/>
	<polygon fill="#DC7626" points="786.8,395.1 784.4,392.9 781.9,395.1 	"/>
	<polygon fill="#DC7626" points="743.6,392.9 737.2,395.1 751.6,395.1 751.6,392.9 	"/>
	<polygon fill="#DC7626" points="720.8,400.7 720.4,400.8 720.8,400.8 	"/>
	<path fill="#DC7626" d="M735.1,397.6h-4.6v3.2h5.3C735.5,399.8,735.3,398.7,735.1,397.6z"/>
	<polygon fill="#DC7626" points="727,400.8 727,398.5 724.3,399.5 724.3,400.8 	"/>
	<polygon fill="#DC7626" points="848.6,400.8 848,400.6 848,400.8 	"/>
	<polygon fill="#DC7626" points="793.2,400.8 789.6,397.6 779.1,397.6 775.5,400.8 	"/>
	<rect x="755.1" y="397.6" fill="#DC7626" width="0" height="3.2"/>
	<path fill="#DC7626" d="M751.6,400.8v-3.2h-16.4c0.2,1.1,0.4,2.2,0.7,3.2H751.6z"/>
	<path fill="#DC7626" d="M737.6,406.6c-0.4-1.1-0.8-2.1-1.1-3.2h-6v3.2H737.6z"/>
	<rect x="724.3" y="403.4" fill="#DC7626" width="2.8" height="3.2"/>
	<polygon fill="#DC7626" points="714.5,406.6 714.5,403.4 713,403.4 711.7,403.8 711.7,406.6 	"/>
	<rect x="718" y="403.4" fill="#DC7626" width="2.8" height="3.2"/>
	<rect x="755.1" y="403.4" fill="#DC7626" width="0" height="3.2"/>
	<path fill="#DC7626" d="M751.6,406.6v-3.2h-15.1c0.3,1.1,0.7,2.2,1.1,3.2H751.6z"/>
	<path fill="#DC7626" d="M806.9,431.8h-2.2v1C805.4,432.4,806.1,432.1,806.9,431.8z"/>
	<path fill="#DC7626" d="M764.1,431.8h-2.2c0.7,0.3,1.5,0.7,2.2,1V431.8z"/>
	<path fill="#DC7626" d="M817.2,425.3c-0.3,0.2-0.6,0.5-0.8,0.7h0.8V425.3z"/>
	<path fill="#DC7626" d="M798.4,434.8c-0.2,0-0.4,0.1-0.5,0.1h0.5V434.8z"/>
	<path fill="#DC7626" d="M770.4,434.8v0.1h0.5C770.7,434.9,770.5,434.9,770.4,434.8z"/>
	<path fill="#DC7626" d="M751.6,425.3v0.7h0.8C752.1,425.8,751.8,425.5,751.6,425.3z"/>
	<polygon fill="#DC7626" points="730.5,397.3 729.7,397.6 730.5,397.6 	"/>
	<path fill="#DC7626" d="M860.5,405l-3.5-1.2l-1.2-0.4h-1.6v-0.6l-3.5-1.2v1.8H848v-2.5v-0.2l-3.5-1.2l-2.8-1l-2.4-0.8l-1.1-0.4
		c-0.1,0.6-4.5-0.3-4.6,0.4h-16.4v-2.5H832l-6.3-2.2h-8.5h-3.5v2.2v2.5h0v3.2h0v2.5h0v3.2h0V426h-2.8v-9.2l-3.5-3.2V426h-2.8v-14.8
		l-3.5-3.2v18h-2.8v-19.4h1.2l-1.2-1.1l-2.4-2.1l-1.1-1v1h-21v-1l-1.1,1l-2.4,2.1l-1.2,1.1h1.2V426h-2.8v-18l-3.5,3.2V426h-2.8
		v-12.3l-3.5,3.2v9.2h-2.8v-19.4v-3.2v-2.5v-3.2v-2.5v-2.2h-3.5v2.2v2.5v3.2v2.5v3.2v18.7c0.3,0.2,0.6,0.5,0.8,0.7h-0.8h-21v-19.4
		v-3.2v-2.5v-3.2h-0.8l-2.7,0.9v2.3v2.5v3.2V426h-2.8v-19.4v-3.2v-2.5v-1.3l-3.5,1.2v0.1v2.5v3.2V426H718v-19.4v-3.2v-1.7l-3.5,1.2
		v0.5v3.2V426h-2.8v-19.4v-2.8l-3.5,1.2l-0.7,0.2v1.4V426v3.2v2.5v3.2v2.5v3.2v2.5v3.2v19.4v3.2v2.5v3.2v2.5v3.2v2.5v3.2v19.4v3.2
		v2.5v3.2v2.5v3.2v2.5v3.2v19.4v3.2v2.5v3.2v0.2h0.7h3.5h2.8h3.5h2.8h3.5h2.8h3.5h21h3.5h2.8h3.5h2.8h3.5h2.8h3.5h21h3.5h2.8h3.5
		h2.8h3.5h2.8h3.5h21h3.5h2.8h3.5h2.8h3.5h2.8h3.5h0.7v-0.2v-3.2V549v-3.2v-19.4v-3.2v-2.5v-3.2v-2.5v-3.2v-2.5v-3.2v-19.4v-3.2
		v-2.5v-3.2v-2.5v-3.2v-2.5v-3.2v-19.4v-3.2v-2.5v-3.2V435v-3.2v-2.5V426v-19.4v-1.4L860.5,405z M714.5,551.5h-2.8V549h2.8V551.5z
		 M714.5,545.8h-2.8v-19.4h2.8V545.8z M714.5,523.2h-2.8v-2.5h2.8V523.2z M714.5,517.4h-2.8v-2.5h2.8V517.4z M714.5,511.6h-2.8v-2.5
		h2.8V511.6z M714.5,505.8h-2.8v-19.4h2.8V505.8z M714.5,483.2h-2.8v-2.5h2.8V483.2z M714.5,477.5h-2.8v-2.5h2.8V477.5z
		 M714.5,471.7h-2.8v-2.5h2.8V471.7z M714.5,465.9h-2.8v-19.4h2.8V465.9z M714.5,443.3h-2.8v-2.5h2.8V443.3z M714.5,437.5h-2.8V435
		h2.8V437.5z M714.5,431.8h-2.8v-2.5h2.8V431.8z M720.8,551.5H718V549h2.8V551.5z M720.8,545.8H718v-19.4h2.8V545.8z M720.8,523.2
		H718v-2.5h2.8V523.2z M720.8,517.4H718v-2.5h2.8V517.4z M720.8,511.6H718v-2.5h2.8V511.6z M720.8,505.8H718v-19.4h2.8V505.8z
		 M720.8,483.2H718v-2.5h2.8V483.2z M720.8,477.5H718v-2.5h2.8V477.5z M720.8,471.7H718v-2.5h2.8V471.7z M720.8,465.9H718v-19.4h2.8
		V465.9z M720.8,443.3H718v-2.5h2.8V443.3z M720.8,437.5H718V435h2.8V437.5z M720.8,431.8H718v-2.5h2.8V431.8z M727,551.5h-2.8V549
		h2.8V551.5z M727,545.8h-2.8v-19.4h2.8V545.8z M727,523.2h-2.8v-2.5h2.8V523.2z M727,517.4h-2.8v-2.5h2.8V517.4z M727,511.6h-2.8
		v-2.5h2.8V511.6z M727,505.8h-2.8v-19.4h2.8V505.8z M727,483.2h-2.8v-2.5h2.8V483.2z M727,477.5h-2.8v-2.5h2.8V477.5z M727,471.7
		h-2.8v-2.5h2.8V471.7z M727,465.9h-2.8v-19.4h2.8V465.9z M727,443.3h-2.8v-2.5h2.8V443.3z M727,437.5h-2.8V435h2.8V437.5z
		 M727,431.8h-2.8v-2.5h2.8V431.8z M751.6,551.5h-21V549h21V551.5z M751.6,545.8h-21v-19.4h21V545.8z M751.6,523.2h-21v-2.5h21
		V523.2z M751.6,517.4h-21v-2.5h21V517.4z M751.6,511.6h-21v-2.5h21V511.6z M751.6,505.8h-21v-19.4h21V505.8z M751.6,483.2h-21v-2.5
		h21V483.2z M751.6,477.5h-21v-2.5h21V477.5z M751.6,471.7h-21v-2.5h21V471.7z M751.6,465.9h-21v-19.4h21V465.9z M751.6,443.3h-21
		v-2.5h21V443.3z M751.6,437.5h-21V435h21V437.5z M751.6,431.8h-21v-2.5h21V431.8z M757.8,551.5h-2.8V549h2.8V551.5z M757.8,545.8
		h-2.8v-19.4h2.8V545.8z M757.8,523.2h-2.8v-2.5h2.8V523.2z M757.8,517.4h-2.8v-2.5h2.8V517.4z M757.8,511.6h-2.8v-2.5h2.8V511.6z
		 M757.8,505.8h-2.8v-19.4h2.8V505.8z M757.8,483.2h-2.8v-2.5h2.8V483.2z M757.8,477.5h-2.8v-2.5h2.8V477.5z M757.8,471.7h-2.8v-2.5
		h2.8V471.7z M757.8,465.9h-2.8v-19.4h2.8V465.9z M757.8,443.3h-2.8v-2.5h2.8V443.3z M757.8,437.5h-2.8V435h2.8V437.5z M757.8,429.6
		v2.1h-2.8v-2.5h2.1h0.7V429.6z M764.1,551.5h-2.8V549h2.8V551.5z M764.1,545.8h-2.8v-19.4h2.8V545.8z M764.1,523.2h-2.8v-2.5h2.8
		V523.2z M764.1,517.4h-2.8v-2.5h2.8V517.4z M764.1,511.6h-2.8v-2.5h2.8V511.6z M764.1,505.8h-2.8v-19.4h2.8V505.8z M764.1,483.2
		h-2.8v-2.5h2.8V483.2z M764.1,477.5h-2.8v-2.5h2.8V477.5z M764.1,471.7h-2.8v-2.5h2.8V471.7z M764.1,465.9h-2.8v-19.4h2.8V465.9z
		 M764.1,443.3h-2.8v-2.5h2.8V443.3z M764.1,437.5h-2.8V435h2.8V437.5z M764.1,431.8v1c-0.7-0.3-1.5-0.6-2.2-1h-0.6v-0.3v-2.3h2.8
		V431.8z M767.6,429.2h2.8v2.5h-2.8V429.2z M770.4,551.5h-2.8V549h2.8V551.5z M770.4,545.8h-2.8v-19.4h2.8V545.8z M770.4,523.2h-2.8
		v-2.5h2.8V523.2z M770.4,517.4h-2.8v-2.5h2.8V517.4z M770.4,511.6h-2.8v-2.5h2.8V511.6z M770.4,505.8h-2.8v-19.4h2.8V505.8z
		 M770.4,483.2h-2.8v-2.5h2.8V483.2z M770.4,477.5h-2.8v-2.5h2.8V477.5z M770.4,471.7h-2.8v-2.5h2.8V471.7z M770.4,465.9h-2.8v-19.4
		h2.8V465.9z M770.4,443.3h-2.8v-2.5h2.8V443.3z M770.4,435v2.5h-2.8V435H770.4v-0.1c0.2,0,0.4,0.1,0.5,0.1H770.4z M773.9,406.6h21
		V426H787h-5.3h-7.9V406.6z M773.9,429.2h21v2.5h-21V429.2z M773.9,435.7V435h21v0.7v1.9h-21V435.7z M773.9,440.8h21v2.5h-21V440.8z
		 M773.9,446.5h21v19.4h-21V446.5z M773.9,469.1h21v2.5h-21V469.1z M773.9,474.9h21v2.5h-21V474.9z M773.9,480.7h21v2.5h-21V480.7z
		 M773.9,486.5h21v19.4h-21V486.5z M773.9,509.1h21v2.5h-21V509.1z M773.9,514.8h21v2.5h-21V514.8z M773.9,520.6h21v2.5h-21V520.6z
		 M773.9,526.4h21v19.4h-21V526.4z M773.9,551.5V549h21v2.5H773.9z M801.2,551.5h-2.8V549h2.8V551.5z M801.2,545.8h-2.8v-19.4h2.8
		V545.8z M801.2,523.2h-2.8v-2.5h2.8V523.2z M801.2,517.4h-2.8v-2.5h2.8V517.4z M801.2,511.6h-2.8v-2.5h2.8V511.6z M801.2,505.8
		h-2.8v-19.4h2.8V505.8z M801.2,483.2h-2.8v-2.5h2.8V483.2z M801.2,477.5h-2.8v-2.5h2.8V477.5z M801.2,471.7h-2.8v-2.5h2.8V471.7z
		 M801.2,465.9h-2.8v-19.4h2.8V465.9z M801.2,443.3h-2.8v-2.5h2.8V443.3z M801.2,437.5h-2.8V435h-0.5c0.2,0,0.4-0.1,0.5-0.1v0.1h2.8
		V437.5z M801.2,431.8h-2.8v-2.5h2.8V431.8z M807.4,551.5h-2.8V549h2.8V551.5z M807.4,545.8h-2.8v-19.4h2.8V545.8z M807.4,523.2
		h-2.8v-2.5h2.8V523.2z M807.4,517.4h-2.8v-2.5h2.8V517.4z M807.4,511.6h-2.8v-2.5h2.8V511.6z M807.4,505.8h-2.8v-19.4h2.8V505.8z
		 M807.4,483.2h-2.8v-2.5h2.8V483.2z M807.4,477.5h-2.8v-2.5h2.8V477.5z M807.4,471.7h-2.8v-2.5h2.8V471.7z M807.4,465.9h-2.8v-19.4
		h2.8V465.9z M807.4,443.3h-2.8v-2.5h2.8V443.3z M807.4,437.5h-2.8V435h2.8V437.5z M807.4,431.5v0.3h-0.6c-0.7,0.3-1.5,0.7-2.2,1v-1
		v-2.5h2.8V431.5z M813.7,551.5h-2.8V549h2.8V551.5z M813.7,545.8h-2.8v-19.4h2.8V545.8z M813.7,523.2h-2.8v-2.5h2.8V523.2z
		 M813.7,517.4h-2.8v-2.5h2.8V517.4z M813.7,511.6h-2.8v-2.5h2.8V511.6z M813.7,505.8h-2.8v-19.4h2.8V505.8z M813.7,483.2h-2.8v-2.5
		h2.8V483.2z M813.7,477.5h-2.8v-2.5h2.8V477.5z M813.7,471.7h-2.8v-2.5h2.8V471.7z M813.7,465.9h-2.8v-19.4h2.8V465.9z
		 M813.7,443.3h-2.8v-2.5h2.8V443.3z M813.7,437.5h-2.8V435h2.8V437.5z M813.7,431.8h-2.8v-2.1v-0.4h0.7h2.1V431.8z M838.2,551.5
		h-21V549h21V551.5z M838.2,545.8h-21v-19.4h21V545.8z M838.2,523.2h-21v-2.5h21V523.2z M838.2,517.4h-21v-2.5h21V517.4z
		 M838.2,511.6h-21v-2.5h21V511.6z M838.2,505.8h-21v-19.4h21V505.8z M838.2,483.2h-21v-2.5h21V483.2z M838.2,477.5h-21v-2.5h21
		V477.5z M838.2,471.7h-21v-2.5h21V471.7z M838.2,465.9h-21v-19.4h21V465.9z M838.2,443.3h-21v-2.5h21V443.3z M838.2,437.5h-21V435
		h21V437.5z M838.2,431.8h-21v-2.5h21V431.8z M838.2,426h-21h-0.8c0.3-0.2,0.6-0.4,0.8-0.7v-18.7h13.9h7.1V426z M838.2,403.4h-6
		h-15.1v-2.5H833h5.3V403.4z M844.5,551.5h-2.8V549h2.8V551.5z M844.5,545.8h-2.8v-19.4h2.8V545.8z M844.5,523.2h-2.8v-2.5h2.8
		V523.2z M844.5,517.4h-2.8v-2.5h2.8V517.4z M844.5,511.6h-2.8v-2.5h2.8V511.6z M844.5,505.8h-2.8v-19.4h2.8V505.8z M844.5,483.2
		h-2.8v-2.5h2.8V483.2z M844.5,477.5h-2.8v-2.5h2.8V477.5z M844.5,471.7h-2.8v-2.5h2.8V471.7z M844.5,465.9h-2.8v-19.4h2.8V465.9z
		 M844.5,443.3h-2.8v-2.5h2.8V443.3z M844.5,437.5h-2.8V435h2.8V437.5z M844.5,431.8h-2.8v-2.5h2.8V431.8z M844.5,426h-2.8v-19.4
		h2.8V426z M844.5,403.4h-2.8v-2.5h2.8V403.4z M850.8,551.5H848V549h2.8V551.5z M850.8,545.8H848v-19.4h2.8V545.8z M850.8,523.2H848
		v-2.5h2.8V523.2z M850.8,517.4H848v-2.5h2.8V517.4z M850.8,511.6H848v-2.5h2.8V511.6z M850.8,505.8H848v-19.4h2.8V505.8z
		 M850.8,483.2H848v-2.5h2.8V483.2z M850.8,477.5H848v-2.5h2.8V477.5z M850.8,471.7H848v-2.5h2.8V471.7z M850.8,465.9H848v-19.4h2.8
		V465.9z M850.8,443.3H848v-2.5h2.8V443.3z M850.8,437.5H848V435h2.8V437.5z M850.8,431.8H848v-2.5h2.8V431.8z M850.8,426H848v-19.4
		h2.8V426z M857,551.5h-2.8V549h2.8V551.5z M857,545.8h-2.8v-19.4h2.8V545.8z M857,523.2h-2.8v-2.5h2.8V523.2z M857,517.4h-2.8v-2.5
		h2.8V517.4z M857,511.6h-2.8v-2.5h2.8V511.6z M857,505.8h-2.8v-19.4h2.8V505.8z M857,483.2h-2.8v-2.5h2.8V483.2z M857,477.5h-2.8
		v-2.5h2.8V477.5z M857,471.7h-2.8v-2.5h2.8V471.7z M857,465.9h-2.8v-19.4h2.8V465.9z M857,443.3h-2.8v-2.5h2.8V443.3z M857,437.5
		h-2.8V435h2.8V437.5z M857,431.8h-2.8v-2.5h2.8V431.8z M857,426h-2.8v-19.4h2.8V426z"/>
	<g>
		<path fill="#DC7626" d="M839.5,335.8c-0.2,0-0.4,0.1-0.5,0.1c-6,1.5-12.3,2.4-18.8,2.4c-21.4,0-40.6-8.9-53.5-22.9
			c-2.7-2.9-5.1-6.1-7.2-9.5c-1.7,3.4-3.8,6.5-6.2,9.5c-5.9,7.3-13.7,13.3-22.8,17.2c-0.1,0-0.1,0.1-0.2,0.1c-0.1,0-0.2,0.1-0.2,0.1
			c-1,0.4-2,0.8-3,1.2c0.6,5.2,2,10.1,4.1,14.7c1.6,7.4,4.9,14.1,9.6,20c0.4,0.5,0.8,1,1.2,1.5c5.9,6.8,13.6,12.2,22.6,15.5
			c0.4,0.1,0.8,0.3,1.2,0.4c0.6,0.2,1.2,0.4,1.8,0.6c0.9,0.3,1.8,0.5,2.8,0.8c1.2,0.3,2.3,0.6,3.5,0.8c3.6,0.7,7.3,1,11,1
			c3.4,0,6.8-0.3,10-0.9c1.2-0.2,2.3-0.4,3.5-0.7c0.9-0.2,1.9-0.5,2.8-0.7c1-0.3,1.9-0.6,2.8-0.9c0.2-0.1,0.4-0.2,0.7-0.2
			c0.1,0,0.3-0.1,0.4-0.1c9-3.3,16.8-8.7,22.7-15.5c0.2-0.2,0.4-0.5,0.6-0.7c5-6,8.5-13,10.2-20.7c2-4.3,3.3-9,4-13.8
			c-1,0.3-1.9,0.6-2.9,0.8C839.6,335.8,839.6,335.8,839.5,335.8z M792.7,370.1c-2.5,1.2-5.3,1.9-8.3,1.9c-3,0-5.8-0.7-8.3-1.9
			c-4.5-2.2-8-6-9.3-10.7H802C800.6,364.1,797.2,368,792.7,370.1z"/>
		<path fill="#DC7626" d="M730.2,327.7c0.5-0.2,1-0.5,1.5-0.7c5.9-3,11.1-6.9,15.4-11.6c4-4.3,7.3-9.3,9.5-14.7
			c-0.7-1.3-1.3-2.6-1.8-4c-1.2-2.8-2.1-5.7-2.8-8.7c-0.3-1.1-0.5-2.3-0.7-3.4c-14.8,9.7-24.4,25.6-24.4,43.6c0,0.4,0,0.7,0,1.1
			C727.9,328.7,729.1,328.3,730.2,327.7C730.2,327.7,730.2,327.7,730.2,327.7z"/>
		<path fill="#DC7626" d="M784.9,274.6c-7,0-13.6,1.1-19.8,3.2c-0.8,0.3-1.6,0.6-2.4,0.9c-0.8,0.3-1.6,0.6-2.4,1
			c-1.3,0.6-2.6,1.2-3.9,1.8c0.2,1.1,0.3,2.3,0.6,3.4c0.5,2.7,1.3,5.3,2.2,7.8c0.2,0.5,0.3,1,0.5,1.4c0.3,0.8,0.7,1.6,1,2.4
			c0.5,1.1,1,2.1,1.5,3.2c3.1,5.9,7.2,11.2,12.1,15.8c11.7,10.9,27.9,17.7,45.8,17.7c6.5,0,12.8-0.9,18.7-2.6
			c0.2-0.1,0.5-0.1,0.7-0.2c0,0,0,0,0.1,0c1.1-0.3,2.3-0.7,3.4-1.1c0-0.4,0-0.7,0-1.1C843,298.6,817,274.6,784.9,274.6z"/>
	</g>
</g>
</svg>
