<?xml version="1.0" encoding="utf-8"?>
<!-- Generator: Adobe Illustrator 18.1.1, SVG Export Plug-In . SVG Version: 6.00 Build 0)  -->
<svg version="1.1" id="Layer_1" xmlns="http://www.w3.org/2000/svg" xmlns:xlink="http://www.w3.org/1999/xlink" x="0px" y="0px"
	 viewBox="0 0 200.5 68.5" enable-background="new 0 0 200.5 68.5" xml:space="preserve">
<g>
	<polygon fill="#DD7726" points="189,11.2 200.5,25.2 189,35.3 	"/>
	<line fill="#5A5A5A" stroke="#E3A425" stroke-width="3" stroke-miterlimit="10" x1="179.5" y1="11.5" x2="179.5" y2="67.5"/>
	<rect x="161" y="15.5" fill="#DD7726" width="31" height="16"/>
	<g>
		<g>
			<polygon fill="#F5F6F6" points="175.5,23.1 175.5,21.6 169.6,21.6 169.7,23.2 			"/>
			<polygon fill="#F5F6F6" points="173.5,19.5 173.6,18.3 167.9,18.3 167.9,19.6 			"/>
			<polygon fill="#F5F6F6" points="169.5,25 169.4,28.5 172.6,28.5 172.6,25 			"/>
			<polygon fill="#F5F6F6" points="176,21.3 176,18.5 174,18.5 174,21.4 			"/>
			<polygon fill="#F5F6F6" points="165.7,28.5 167.4,28.5 167.5,26.7 165.8,26.7 			"/>
			<polygon fill="#F5F6F6" points="173,23.5 172.9,28.5 175.6,28.5 175.6,23.4 			"/>
			<polygon fill="#F5F6F6" points="165.7,26.4 167.5,26.4 167.6,18.3 165.8,18.3 			"/>
		</g>
	</g>
	<line fill="none" stroke="#E0E1E0" stroke-width="2" stroke-miterlimit="10" x1="195" y1="67.5" x2="0" y2="67.5"/>
	<g>
		<path fill="none" d="M28.5,13.3C28.5,13.3,28.5,13.3,28.5,13.3L28.5,13.3L28.5,13.3C28.5,13.3,28.5,13.3,28.5,13.3L28.5,13.3z"/>
		<path fill="#DD7726" d="M26.6,13.6l1.4-0.1l0.1,1.5l1.1-0.1l-0.1-1.5l1.4-0.1c2.9-0.2,5.1-2.7,4.9-5.7l-2,0.1
			c-1.2,0.1-2.2,0.5-3,1.2c0-0.2,0-0.5,0-0.8c-0.1-2.1-1.2-3.8-2.6-4.7c-1.3,1.1-2,2.9-1.9,5c0,0.3,0,0.5,0.1,0.8
			c-0.9-0.6-2-0.9-3.2-0.8l-2,0.2C21.1,11.6,23.7,13.8,26.6,13.6z M28.5,13.3L28.5,13.3C28.5,13.3,28.5,13.3,28.5,13.3L28.5,13.3
			C28.5,13.3,28.5,13.3,28.5,13.3L28.5,13.3z"/>
		<path fill="#DD7726" d="M30,15.7l-2.5,0.2c-3.3,0.2-5.6,3.3-5.2,6.4L35.9,22C36.3,18.5,33.5,15.5,30,15.7z"/>
		<path fill="#DD7726" d="M35.7,22.6l-13.3,0.8c0,0,0,0.1,0,0.1l1.7,4L35,26.1L35.7,22.6z"/>
		<path fill="#DD7726" d="M27.2,35.7l2.1,5.1c0.2,0.5,0.7,0.8,1.3,0.8c0.6-0.1,1-0.5,1.1-1l1.2-5.7L27.2,35.7z"/>
	</g>
	<g>
		<path fill="#F5F6F6" d="M40.3,14.6c-0.1,0-0.2,0-0.2-0.1l-4-2.8c-0.1-0.1-0.2-0.3-0.1-0.4c0.1-0.1,0.3-0.2,0.4-0.1l4,2.8
			c0.1,0.1,0.2,0.3,0.1,0.4C40.4,14.6,40.3,14.6,40.3,14.6z"/>
		<path fill="#F5F6F6" d="M40.3,14.6c-0.1,0-0.2,0-0.2-0.1c-0.1-0.1-0.2-0.3-0.1-0.4l2.8-4c0.1-0.1,0.3-0.2,0.4-0.1
			c0.1,0.1,0.2,0.3,0.1,0.4l-2.8,4C40.4,14.6,40.3,14.6,40.3,14.6z"/>
		<g>
			<path fill="#F5F6F6" d="M39.6,10.6c-0.1,0-0.2,0-0.2-0.1l-2.3-1.7C37,8.8,36.9,8.6,37,8.5c0.1-0.1,0.3-0.2,0.4-0.1l2.3,1.7
				c0.1,0.1,0.2,0.3,0.1,0.4C39.7,10.5,39.7,10.6,39.6,10.6z"/>
			<path fill="#F5F6F6" d="M39.6,10.6c-0.1,0-0.2,0-0.2-0.1c-0.1-0.1-0.2-0.3-0.1-0.4L41,7.8c0.1-0.1,0.3-0.2,0.4-0.1
				c0.1,0.1,0.2,0.3,0.1,0.4l-1.7,2.3C39.7,10.5,39.7,10.6,39.6,10.6z"/>
		</g>
		<g>
			<path fill="#F5F6F6" d="M41.8,12.4c-0.1,0-0.2,0-0.2-0.1l-2.2-1.6c-0.1-0.1-0.2-0.3-0.1-0.4c0.1-0.1,0.3-0.2,0.4-0.1l2.2,1.6
				c0.1,0.1,0.2,0.3,0.1,0.4C42,12.4,41.9,12.4,41.8,12.4z"/>
			<path fill="#F5F6F6" d="M38.1,13c-0.1,0-0.2,0-0.2-0.1c-0.1-0.1-0.2-0.3-0.1-0.4l1.6-2.2c0.1-0.1,0.3-0.2,0.4-0.1
				c0.1,0.1,0.2,0.3,0.1,0.4l-1.6,2.2C38.2,13,38.2,13,38.1,13z"/>
		</g>
		
			<rect x="38.3" y="17.5" transform="matrix(0.9865 -0.1635 0.1635 0.9865 -2.3594 6.9103)" fill="#EDEDED" width="4.9" height="0.6"/>
		<path fill="#F5F6F6" d="M48.6,8.8c-0.1,0-0.2,0-0.2-0.1l-4-2.8c-0.1-0.1-0.2-0.3-0.1-0.4c0.1-0.1,0.3-0.2,0.4-0.1l4,2.8
			c0.1,0.1,0.2,0.3,0.1,0.4C48.7,8.7,48.7,8.8,48.6,8.8z"/>
		<path fill="#F5F6F6" d="M48.6,8.8c-0.1,0-0.2,0-0.2-0.1c-0.1-0.1-0.2-0.3-0.1-0.4l2.8-4c0.1-0.1,0.3-0.2,0.4-0.1
			c0.1,0.1,0.2,0.3,0.1,0.4l-2.8,4C48.7,8.7,48.7,8.8,48.6,8.8z"/>
		<g>
			<path fill="#F5F6F6" d="M47.9,4.8c-0.1,0-0.2,0-0.2-0.1l-2.3-1.7c-0.1-0.1-0.2-0.3-0.1-0.4c0.1-0.1,0.3-0.2,0.4-0.1L48,4.2
				c0.1,0.1,0.2,0.3,0.1,0.4C48.1,4.7,48,4.8,47.9,4.8z"/>
			<path fill="#F5F6F6" d="M47.9,4.8c-0.1,0-0.2,0-0.2-0.1c-0.1-0.1-0.2-0.3-0.1-0.4L49.3,2c0.1-0.1,0.3-0.2,0.4-0.1
				c0.1,0.1,0.2,0.3,0.1,0.4l-1.7,2.3C48.1,4.7,48,4.8,47.9,4.8z"/>
		</g>
		<g>
			<path fill="#F5F6F6" d="M50.1,6.6c-0.1,0-0.2,0-0.2-0.1L47.7,5c-0.1-0.1-0.2-0.3-0.1-0.4c0.1-0.1,0.3-0.2,0.4-0.1l2.2,1.6
				c0.1,0.1,0.2,0.3,0.1,0.4C50.3,6.6,50.2,6.6,50.1,6.6z"/>
			<path fill="#F5F6F6" d="M46.4,7.2c-0.1,0-0.2,0-0.2-0.1c-0.1-0.1-0.2-0.3-0.1-0.4l1.6-2.2c0.1-0.1,0.3-0.2,0.4-0.1
				c0.1,0.1,0.2,0.3,0.1,0.4l-1.6,2.2C46.5,7.2,46.5,7.2,46.4,7.2z"/>
		</g>
		
			<rect x="46.7" y="11.7" transform="matrix(0.9865 -0.1635 0.1635 0.9865 -1.2991 8.1903)" fill="#EDEDED" width="4.9" height="0.6"/>
	</g>
	<g>
		<path fill="#98B057" d="M83.5,13.3c-1-1.3-2.8-1.6-4.2-0.9l0.9-2c0.3-0.7,0.5-1.5,0.4-2.3c-0.2-2.5-2.4-4.4-5-4.2
			c-2.5,0.2-4.4,2.4-4.2,5l0.2,2.6c-0.1-0.2-0.2-0.3-0.4-0.5c-1.3-1.3-3.5-1.3-4.8,0c-1.3,1.3-1.3,3.5,0,4.8l3.3,3.2
			c-0.8-0.2-1.7,0-2.3,0.7c-1,1-0.9,2.5,0,3.5l4,3.9c0.3,0.3,0.7,0.5,1.1,0.5c0.4,0.1,0.8,0.1,1.2-0.1l5.1-2.3
			c0.2-0.1,0.4-0.2,0.5-0.3c1.1-0.9,1.2-2.4,0.4-3.5c-0.4-0.5-1-0.8-1.6-0.9l4.2-1.9c0.2-0.1,0.5-0.3,0.7-0.4
			C84.4,16.9,84.7,14.8,83.5,13.3z M73.3,23.4L73.3,23.4L73.3,23.4L73.3,23.4z"/>
		<g>
			<line fill="none" stroke="#F5F6F6" stroke-width="0.8" stroke-miterlimit="10" x1="74.1" y1="18.7" x2="70.8" y2="14.8"/>
			<line fill="none" stroke="#F5F6F6" stroke-width="0.8" stroke-miterlimit="10" x1="74.1" y1="18.7" x2="78.5" y2="16.2"/>
			<line fill="none" stroke="#F5F6F6" stroke-width="0.8" stroke-miterlimit="10" x1="73" y1="25.1" x2="70.2" y2="21.9"/>
			<line fill="none" stroke="#F5F6F6" stroke-width="0.8" stroke-miterlimit="10" x1="73" y1="25.1" x2="76.6" y2="23"/>
		</g>
	</g>
	<g>
		<polygon fill="#DD7726" points="34.5,27.1 24.1,28.2 25,30.5 33.7,30.5 		"/>
		<g>
			<path fill="#98B057" d="M43.2,17.1c1.6-1.5,1.9-4.1,0.5-5.9l-3.8-5c-0.1-0.2-0.3-0.3-0.5-0.4C38.8,5.7,38.2,6,38,6.5l-2,5.9
				c-0.4,1.3-0.2,2.9,0.7,4.1c0.5,0.6,1,1,1.7,1.3l2.1,12.6h5L43.2,17.1z"/>
		</g>
		<g>
			<path fill="#98B057" d="M51.6,20c0.4-0.3,0.7-0.6,1.1-0.8c0,0,0.1,0,0.1-0.1l-1.3-7.8c1.6-1.5,1.9-4.1,0.5-5.9l-3.8-5
				c-0.1-0.2-0.3-0.3-0.5-0.4c-0.6-0.2-1.2,0.1-1.4,0.7l-2,5.9C43.8,8,44,9.6,45,10.8c0.5,0.6,1,1,1.7,1.3l1.8,10.7
				C49.3,21.8,50.4,20.8,51.6,20z"/>
		</g>
		<path fill="#E3A425" d="M49.7,30.5L49.6,30C49.6,30.2,49.6,30.4,49.7,30.5L49.7,30.5z"/>
		<path fill="#E3A425" d="M54.7,30.5h0.8c0-0.2,0-0.4,0-0.6c0-3.9,0.8-10.1,1.9-15.5c-0.5,0.9-1.2,1.7-2,2.5c-0.8,2.1-1.5,4.2-2,6.3
			L54.7,30.5z"/>
		<path fill="#E3A425" d="M66.9,30.5h2.3c0.2-0.9,0.4-1.7,0.4-2.5c0-3.9-2.5-6-5.2-8.1c1.5,3,2.6,5.3,2.6,9.7
			C67,29.9,67,30.2,66.9,30.5z"/>
		<path fill="#E3A425" d="M54.4,17.8c-0.5,0.4-1.1,0.9-1.7,1.3l0.4,2.6C53.6,20.3,54,19.1,54.4,17.8z"/>
		<path fill="#E3A425" d="M63.9,30.5h2.4c0-0.3,0.1-0.6,0.1-0.9c0-4.2-1.1-6.5-2.6-9.4c-0.2-0.3-0.3-0.7-0.5-1.1
			c-0.6-0.4-1.2-0.9-1.7-1.4c1.4,3.9,2.4,7.7,2.4,11.9C63.9,30,63.9,30.3,63.9,30.5z"/>
		<path fill="#E3A425" d="M60.5,30.5h2.8c0-0.3,0-0.5,0-0.8c0-4.5-1.2-8.6-2.8-12.8c-0.8-0.7-1.4-1.5-2-2.5
			c1.1,5.4,1.9,11.5,1.9,15.5C60.5,30.1,60.5,30.3,60.5,30.5z"/>
		<path fill="#E3A425" d="M59.8,29.9c0-3.9-0.8-10-1.9-15.3c-1.1,5.3-1.9,11.4-1.9,15.3c0,0.2,0,0.4,0,0.6h3.7
			C59.8,30.3,59.8,30.1,59.8,29.9z"/>
		<path fill="#E3A425" d="M49,29.6c0-0.9,0.1-1.7,0.2-2.5l-0.7-4.3c-1.2,1.4-2,3-2,5.2c0,0.8,0.1,1.6,0.4,2.5H49
			C49,30.2,49,29.9,49,29.6z"/>
		<path fill="#E3A425" d="M52.7,30.5h2l-1.2-7.3c-0.5,2.1-0.8,4.3-0.8,6.5C52.7,30,52.7,30.3,52.7,30.5z"/>
		<path fill="#E3A425" d="M52.2,20.2c-1.4,2.9-2.6,5.2-2.6,9.4c0,0.1,0,0.3,0,0.4l0.1,0.5h2.4c0-0.3,0-0.5,0-0.8
			c0-2.8,0.5-5.5,1.2-8.1l-0.4-2.6c0,0-0.1,0-0.1,0.1C52.5,19.5,52.3,19.8,52.2,20.2z"/>
		<path fill="#E3A425" d="M51.6,20c-1.2,0.9-2.3,1.8-3.2,2.9l0.7,4.3C49.5,24.3,50.4,22.3,51.6,20z"/>
		<path fill="#F5F6F6" d="M49.6,30l-0.5-2.9C49,27.9,49,28.7,49,29.6c0,0.3,0,0.6,0.1,0.9h0.6C49.6,30.4,49.6,30.2,49.6,30z"/>
		<path fill="#F5F6F6" d="M49.6,29.6c0-4.2,1.1-6.5,2.6-9.4c0.2-0.3,0.3-0.7,0.5-1.1c-0.4,0.3-0.7,0.5-1.1,0.8
			c-1.2,2.3-2.1,4.3-2.5,7.2l0.5,2.9C49.6,29.9,49.6,29.8,49.6,29.6z"/>
		<path fill="#F5F6F6" d="M53.5,23.2c0.5-2.1,1.2-4.2,2-6.3c-0.3,0.3-0.6,0.6-1,0.9c-0.5,1.3-0.9,2.6-1.2,3.9L53.5,23.2z"/>
		<path fill="#F5F6F6" d="M52.7,29.7c0-2.3,0.3-4.4,0.8-6.5l-0.3-1.5c-0.7,2.6-1.2,5.2-1.2,8.1c0,0.3,0,0.5,0,0.8h0.6
			C52.7,30.3,52.7,30,52.7,29.7z"/>
		<path fill="#F5F6F6" d="M55.5,30.5h0.6c0-0.2,0-0.4,0-0.6c0-3.9,0.8-10,1.9-15.3c-0.1-0.3-0.1-0.7-0.2-1c-0.1,0.3-0.2,0.6-0.4,0.8
			c-1.1,5.4-1.9,11.5-1.9,15.5C55.5,30.1,55.5,30.3,55.5,30.5z"/>
		<path fill="#F5F6F6" d="M66.4,29.6c0,0.3,0,0.6-0.1,0.9h0.6c0-0.3,0.1-0.6,0.1-0.9c0-4.3-1.2-6.7-2.6-9.7
			c-0.4-0.3-0.7-0.6-1.1-0.8c0.2,0.4,0.3,0.7,0.5,1.1C65.2,23.1,66.4,25.4,66.4,29.6z"/>
		<path fill="#F5F6F6" d="M63.3,30.5h0.6c0-0.3,0-0.5,0-0.8c0-4.3-1-8.1-2.4-11.9c-0.3-0.3-0.7-0.6-1-0.9c1.6,4.2,2.8,8.3,2.8,12.8
			C63.3,30,63.3,30.3,63.3,30.5z"/>
		<path fill="#F5F6F6" d="M59.8,29.9c0,0.2,0,0.4,0,0.6h0.6c0-0.2,0-0.4,0-0.6c0-3.9-0.8-10.1-1.9-15.5c-0.1-0.3-0.3-0.5-0.4-0.8
			c-0.1,0.3-0.1,0.6-0.2,1C59.1,19.9,59.8,26,59.8,29.9z"/>
		<path fill="#F5F6F6" d="M58.2,13.6c-0.1-0.2-0.2-0.3-0.2-0.5c-0.1,0.2-0.1,0.3-0.2,0.5c0.1,0.3,0.1,0.6,0.2,1
			C58,14.3,58.1,13.9,58.2,13.6z"/>
		<path fill="#F5F6F6" d="M51.6,36.6c-0.3-0.2-0.7-0.4-1-0.6l0.3,1.7l2.3-0.4c-0.2-0.1-0.3-0.1-0.5-0.2
			C52.3,36.9,51.9,36.8,51.6,36.6z"/>
		<rect x="58" y="38" fill="#F5F6F6" width="0" height="0"/>
		<path fill="#F5F6F6" d="M53.2,37.3c0.7,0.2,1.4,0.4,2.2,0.6c-0.2-0.2-0.5-0.5-0.7-0.8L53.2,37.3z"/>
		<path fill="#F5F6F6" d="M50.4,34.6l0.2,1.4c0.3,0.2,0.6,0.4,1,0.6C51.1,35.9,50.7,35.3,50.4,34.6z"/>
		<path fill="#F5F6F6" d="M54.7,37c0.2,0.3,0.5,0.6,0.7,0.8c0.3,0.1,0.6,0.1,1,0.1c-0.3-0.3-0.6-0.7-1-1.1L54.7,37z"/>
		<path fill="#F5F6F6" d="M58,38l0.3-0.1c-0.1-0.2-0.2-0.3-0.3-0.5c-0.1,0.2-0.2,0.3-0.3,0.5L58,38z"/>
	</g>
	<circle fill="#9B9B9B" cx="54.2" cy="58.2" r="9.3"/>
	<path fill="#B4B4B4" d="M81,58.5H66.5c0-7-5.5-12.3-12.3-12.3s-12.3,5.3-12.3,12.3H23v-26h58V58.5z"/>
	<path fill="#B4B4B4" d="M143,58.5h7V37.8c0-3.1-2.4-5.3-5.5-5.3h-24L109,18.6c-2.4-2.6-5.7-4.1-9.2-4.1H84.1c-2,0-3.1,1.4-3.1,3.4
		v40.6h37.3c0-7,5.5-12.3,12.3-12.3C137.5,46.2,143,51.5,143,58.5z"/>
	<path fill="#9B9B9B" d="M101.7,19.5H89.5c-0.9,0-1.5,1.1-1.5,2v11h26.5l-7.2-9.9C106,20.9,103.9,19.5,101.7,19.5z"/>
	
		<line fill="none" stroke="#9B9B9B" stroke-width="2" stroke-linecap="round" stroke-miterlimit="10" x1="152" y1="54.5" x2="142" y2="54.5"/>
	
		<line fill="none" stroke="#9B9B9B" stroke-width="2" stroke-linecap="round" stroke-miterlimit="10" x1="39" y1="54.5" x2="21" y2="54.5"/>
	<line fill="none" stroke="#9B9B9B" stroke-width="3" stroke-miterlimit="10" x1="88" y1="38" x2="95" y2="38"/>
	<circle fill="none" stroke="#EDEDED" stroke-width="1.44" stroke-miterlimit="10" cx="54.2" cy="58.2" r="3.6"/>
	<path fill="none" stroke="#F5F6F6" stroke-miterlimit="10" d="M154,38h-11.2c-0.7,0-1.3,0.2-1.3,0.9v1.6c0,2,1.7,3.6,3.8,3.6h8.7"
		/>
	<rect x="21.5" y="38" fill="none" stroke="#F5F6F6" stroke-miterlimit="10" width="9" height="6"/>
	<circle fill="#9B9B9B" cx="130.7" cy="58.2" r="9.3"/>
	<circle fill="none" stroke="#EDEDED" stroke-width="1.44" stroke-miterlimit="10" cx="130.7" cy="58.2" r="3.6"/>
	<line fill="none" stroke="#F5F6F6" stroke-miterlimit="10" x1="80.5" y1="58.5" x2="80.5" y2="28.5"/>
</g>
</svg>
