<?xml version="1.0" encoding="utf-8"?>
<!-- Generator: Adobe Illustrator 16.0.0, SVG Export Plug-In . SVG Version: 6.00 Build 0)  -->
<!DOCTYPE svg PUBLIC "-//W3C//DTD SVG 1.1//EN" "http://www.w3.org/Graphics/SVG/1.1/DTD/svg11.dtd">
<svg version="1.1" id="Layer_1" xmlns="http://www.w3.org/2000/svg" xmlns:xlink="http://www.w3.org/1999/xlink" x="0px" y="0px"
	 width="48.599px" height="41.817px" viewBox="0 0 48.599 41.817" enable-background="new 0 0 48.599 41.817" xml:space="preserve">
<g>
	<path fill="#98B057" d="M24.299,39.502c0,0-12.283-12.338-17.922-18.006C0.769,15.86,1.923,8.246,7.372,4.323
		c6.082-4.379,15.048-1.311,16.927,6.427c1.879-7.738,10.845-10.806,16.927-6.427c5.449,3.923,6.603,11.537,0.995,17.174
		C36.583,27.165,24.299,39.502,24.299,39.502"/>
	<path fill="none" stroke="#FFFFFF" stroke-width="2" stroke-miterlimit="10" d="M34.799,6.842c3.412,0,6.178,2.765,6.178,6.177"/>
	<path fill="#98B057" d="M24.299,41.817c0,0-13.812-13.873-20.153-20.246C-2.16,15.231-0.862,6.67,5.265,2.258
		c6.839-4.924,16.921-1.474,19.034,7.228c2.113-8.702,12.195-12.152,19.034-7.228c6.127,4.412,7.425,12.973,1.118,19.312
		C38.112,27.944,24.299,41.817,24.299,41.817"/>
	<path fill="none" stroke="#FFFFFF" stroke-width="2" stroke-miterlimit="10" d="M36.107,5.091c3.836,0,6.946,3.11,6.946,6.946"/>
</g>
</svg>
