<?xml version="1.0" encoding="utf-8"?>
<!-- Generator: Adobe Illustrator 18.1.1, SVG Export Plug-In . SVG Version: 6.00 Build 0)  -->
<svg version="1.1" id="Layer_1" xmlns="http://www.w3.org/2000/svg" xmlns:xlink="http://www.w3.org/1999/xlink" x="0px" y="0px"
	 viewBox="151.5 7.5 777 777" enable-background="new 151.5 7.5 777 777" xml:space="preserve">
<g>
	<path fill="#DD7626" d="M536.6,327.7c3.2-12.1,0.8-24.2-4.8-32.3c-9.7,3.2-17.8,12.9-21,25c-0.8,1.6-0.8,3.2-0.8,4.8
		c-4-4.8-9.7-8.8-16.9-11.3l-11.3-3.2c-1.6,6.5-1.6,12.1,0,17.8L536.6,327.7L536.6,327.7z"/>
	<path fill="#DD7626" d="M509.1,361.6l6.5,1.6l2.4-8.8l8.1,2.4c9.7,2.4,19.4,0.8,26.6-4h-37.9l0,0l0,0l0,0h-4h0.8L509.1,361.6z"/>
	<path fill="#DD7626" d="M518.8,369.7l-15.3-4c-19.4-5.6-39.6,7.2-42.8,26.6l79.1,25.9C549.5,398.8,539.8,375.4,518.8,369.7z"/>
	<path fill="#DD7626" d="M526.1,439.9l11.3-18.5L459.1,398v0.8l1.6,26.6L526.1,439.9z"/>
	<polygon fill="#DD7626" points="509.1,464.2 521.3,444.8 459.1,429.4 459.9,451.3 	"/>
	<polygon fill="#DD7626" points="461.5,473 498.7,483.5 507.5,470.6 462.3,455.3 	"/>
	<path fill="#DD7626" d="M463.1,513.4c0,3.2,2.4,6.5,5.6,7.2c3.2,0.8,6.5-0.8,8.8-3.2l18.5-30.7l-34.7-7.2L463.1,513.4z"/>
	<polygon fill="#97B056" points="368.7,520.7 369.4,524.7 330.7,531.1 330.7,529.5 350.9,653 390.4,653 	"/>
	<path fill="#97B056" d="M357.4,477.9l8.8-12.1l0,0l-12.1-15.3L342,467.4L357.4,477.9z"/>
	<path fill="#97B056" d="M329.9,527.1L329.9,527.1l37.9-6.5c12.9-12.1,14.5-32.3,4-46.8l-3.2-4.8l-21.8,30.7c0,0.8-0.8,0.8-1.6,0.8
		s-0.8,0-1.6,0l-24.2-17.8v36.3C322.6,522.3,326.6,524.7,329.9,527.1z"/>
	
		<rect x="334.1" y="474.5" transform="matrix(-0.8132 -0.582 0.582 -0.8132 340.1575 1075.0432)" fill="#97B056" width="16.9" height="16.9"/>
	<path fill="#97B056" d="M339.6,463.3l12.1-16.2c0,0,0,0,0.8,0l-9.7-12.1c-0.8-1.6-2.4-2.4-4-3.2c-4.8-1.6-9.7,0.8-11.3,5.6
		l-4.8,13.7h0.8L339.6,463.3z"/>
	<polygon fill="#97B056" points="327.5,482.7 338,468.2 321,456.1 319.4,459.3 319.4,477 	"/>
	<path fill="#97B056" d="M405,417.3l12.1-16.2c0,0,0,0,0.8,0l-9.7-12.1c-0.8-1.6-2.4-2.4-4-3.2c-4.8-1.6-9.7,0.8-11.3,5.6L388,406
		h0.8L405,417.3z"/>
	
		<rect x="400.3" y="429.3" transform="matrix(0.5819 -0.8132 0.8132 0.5819 -185.107 515.4278)" fill="#97B056" width="16.9" height="16.9"/>
	<path fill="#97B056" d="M392.9,436.7l10.5-14.5l-16.9-12.1l-6.5,18.5l0,0L392.9,436.7z"/>
	<path fill="#97B056" d="M422.8,431.9l8.8-12.1l0,0l-12.1-15.3l-12.1,16.9L422.8,431.9z"/>
	<path fill="#97B056" d="M434.9,478.6l-37.9,6.5l-0.8-4.8l37.9-6.5c12.9-12.1,14.5-32.3,4-46.8l-3.2-4.8l-21.8,30.7
		c0,0.8-0.8,0.8-1.6,0.8c-0.8,0-0.8,0-1.6,0l-30.7-21.8l-1.6,5.6c-3.2,10.5-1.6,22.6,5.6,32.3c4,4.8,8.1,8.1,13.7,10.5L424.3,653
		h39.6L434.9,478.6z"/>
	<path fill="#97B056" d="M725.6,446.4c-21,1.6-36.3,20.2-34.7,40.4l1.6,21c-0.8-1.6-1.6-2.4-3.2-4c-11.3-10.5-29.1-10.5-39.6,0
		c-10.5,11.3-10.5,29.1,0,39.6l26.6,26.6c-6.5-1.6-13.7,0-19.4,5.6c-8.1,8.1-8.1,21,0,28.2l33.1,32.3c1.6,1.6,3.2,2.4,4.8,3.2
		l3.2-18.5l-20.2-24.2l5.6-4.8l16.9,20.2l7.2-42.8l-25.9-29.9l5.6-4.8l21.8,25l11.3-63.8l7.2,1.6l-11.3,63.8l29.1-16.2l4,6.5
		l-33.9,19.4l-7.2,42.8l22.6-12.9l4,6.5l-28.2,16.2l-3.2,18.5c1.6,0,4,0,5.6-0.8l42-19.4c1.6-0.8,3.2-1.6,4-2.4
		c8.8-7.2,9.7-19.4,3.2-28.2c-3.2-4-8.1-6.5-13.7-7.2l18.5-8.8v-60.7c-3.2,0.8-6.5,1.6-8.8,2.4l7.2-16.9c0.8-1.6,0.8-2.4,1.6-4
		v-23.5C758.6,456.1,743.3,445.6,725.6,446.4z"/>
	<path fill="#97B056" d="M789.4,523.9c0-0.8-0.8-0.8-0.8-0.8v37.2C797.4,550.5,798.2,535.2,789.4,523.9z"/>
	<polygon fill="#97B056" points="703.8,641.8 701.3,653 702.9,653 704.5,642.6 	"/>
	<polygon fill="#97B056" points="695.7,641 694.8,640.2 692.5,653 694.1,653 	"/>
	<polygon fill="#97B056" points="701.3,653 703.8,641.8 695.7,641 694.1,653 	"/>
	<path fill="#97B056" d="M636.7,172.6l9.7,26.6c-4-3.2-9.7-4.8-14.5-2.4c-8.1,3.2-12.1,11.3-8.8,19.4l12.1,32.3
		c0.8,1.6,1.6,2.4,2.4,4l8.1-11.3l-6.5-23.4l5.6-1.6l4.8,19.4l18.5-26.6L660,180l5.6-1.6l6.5,24.2l28.2-39.6l4.8,3.2L677,205.8
		l25-1.6l0.8,5.6l-29.9,2.4l-18.5,26.6l20.2-1.6l0.8,5.6l-24.2,1.6l-8.1,11.3c1.6,0.8,2.4,0.8,4,0.8h34.7c0.8,0,2.4,0,4-0.8
		c8.1-1.6,12.9-10.5,11.3-18.5c-0.8-4-3.2-7.2-6.5-9.7h28.2c1.6,0,3.2,0,4.8-0.8c11.3-2.4,18.5-14.5,15.3-25.9
		c-2.4-9.7-11.3-16.2-21-16.2l10.5-8.8c3.2-3.2,6.5-7.2,8.1-12.1c5.6-14.5-1.6-30.7-16.9-36.3c-14.5-5.6-30.7,1.6-36.3,16.9
		l-5.6,14.5c0-1.6-0.8-2.4-0.8-4c-4-11.3-16.2-16.9-27.5-12.9C638.4,150.1,632.7,162.2,636.7,172.6z"/>
	
		<rect x="624.2" y="265.9" transform="matrix(-0.5768 0.8169 -0.8169 -0.5768 1219.5312 -99.2604)" fill="#97B056" width="22.6" height="0.8"/>
	
		<rect x="618.8" y="261.4" transform="matrix(0.5768 -0.8169 0.8169 0.5768 52.7705 625.4978)" fill="#97B056" width="22.6" height="0.8"/>
	
		<rect x="629.8" y="252.7" transform="matrix(-0.8166 -0.5772 0.5772 -0.8166 996.7736 844.6591)" fill="#97B056" width="5.6" height="22.6"/>
	<path fill="#DD7626" d="M493,620c0-31.5,8.1-48.4,18.5-69.4c-19.4,14.5-37.2,30.7-37.2,58.1c0,13.7,4.8,30.7,16.2,44.4H501
		C496.2,642.6,493,631.3,493,620z"/>
	<path fill="#DD7626" d="M526.9,653h16.9c-2.4-8.1-3.2-17.8-3.2-31.5c0-28.2,5.6-72.7,13.7-111.4c-4,6.5-8.8,12.1-14.5,17.8
		c-11.3,30.7-20.2,59.7-20.2,92C519.7,633.7,522.1,644.2,526.9,653z"/>
	<path fill="#DD7626" d="M572.2,653h16.9c4-8.8,7.2-20.2,7.2-32.3c0-33.1-8.8-62.2-20.2-92c-5.6-5.6-10.5-11.3-14.5-17.8
		c8.1,38.8,13.7,83.2,13.7,111.4C576.2,635.4,574.5,645.1,572.2,653z"/>
	<path fill="#DD7626" d="M614.1,653h10.5c11.3-13.7,16.2-30.7,16.2-44.4c0-27.5-17.8-43.6-37.2-58.1c10.5,21,18.5,38.8,18.5,69.4
		C623,631.3,619,642.6,614.1,653z"/>
	<path fill="#DD7626" d="M571.3,622.4c0-28.2-5.6-71.9-13.7-109.8c-8.1,37.9-13.7,82.4-13.7,109.8c0,13.7,1.6,23.4,3.2,31.5h20.2
		C569.7,645.8,571.3,636.1,571.3,622.4z"/>
	<path fill="#DD7626" d="M593.9,653h15.3c5.6-10.5,8.8-21.8,8.8-33.1c0-30.7-8.1-46.8-18.5-67.8c-1.6-2.4-2.4-4.8-4-7.2
		c-4-3.2-8.8-6.5-12.9-9.7c9.7,28.2,16.9,55.7,16.9,86.4C600.4,633.7,597.9,644.2,593.9,653z"/>
	<path fill="#DD7626" d="M497,620c0,11.3,4,22.6,8.8,33.1h16.2c-4-8.8-6.5-20.2-6.5-32.3c0-30.7,7.2-58.1,16.9-86.4
		c-4,3.2-8.1,6.5-12.9,9.7c-1.6,2.4-2.4,4.8-4,7.2C505.9,573.2,497,589.3,497,620z"/>
	<path fill="#DD7626" d="M598.8,125.8c2.4,11.3,16.2,15.3,24.2,7.2l20.2-20.2c8.1-7.2,4.8-21-5.6-24.2L611,80.6
		c-10.5-3.2-20.2,5.6-18.5,16.9L598.8,125.8z M639.1,100.8c0.8-0.8,1.6-0.8,2.4,0c0.8,0.8,0.8,1.6,0,2.4c-0.8,0.8-1.6,0.8-2.4,0
		C638.4,102.4,638.4,100.8,639.1,100.8z M630.3,112.9c0.8-0.8,1.6-0.8,2.4,0c0.8,0.8,0.8,1.6,0,2.4c-0.8,0.8-1.6,0.8-2.4,0
		C629.5,114.5,629.4,113.8,630.3,112.9z M624.6,100c0.8-0.8,1.6-0.8,2.4,0c0.8,0.8,0.8,1.6,0,2.4c-0.8,0.8-1.6,0.8-2.4,0
		C623.8,101.6,623.8,100.8,624.6,100z M618.2,122.6c0.8-0.8,1.6-0.8,2.4,0c0.8,0.8,0.8,1.6,0,2.4c-0.8,0.8-1.6,0.8-2.4,0
		C617.3,125,617.3,123.4,618.2,122.6z M614.1,90.3c0.8-0.8,1.6-0.8,2.4,0c0.8,0.8,0.8,1.6,0,2.4c-0.8,0.8-1.6,0.8-2.4,0
		C614.1,91.9,614.1,91.1,614.1,90.3z M609.3,128.2c-0.8,0.8-1.6,0.8-2.4,0c-0.8-0.8-0.8-1.6,0-2.4c0.8-0.8,1.6-0.8,2.4,0
		C610.1,126.6,610.1,128.2,609.3,128.2z M606,111.3c0.8-0.8,1.6-0.8,2.4,0c0.8,0.8,0.8,1.6,0,2.4c-0.8,0.8-1.6,0.8-2.4,0
		C605.3,112.9,605.3,111.3,606,111.3z M602,97.6c0.8-0.8,1.6-0.8,2.4,0c0.8,0.8,0.8,1.6,0,2.4c-0.8,0.8-1.6,0.8-2.4,0
		C601.2,99.2,601.2,98.4,602,97.6z"/>
	<path fill="#DD7626" d="M652.9,74.2l2.4-7.2l-7.2-2.4c-8.8-2.4-17.8,2.4-20.2,10.5l-2.4,7.2l7.2,2.4
		C641.6,87.9,650.4,83.1,652.9,74.2z"/>
	<path fill="#DD7626" d="M619,80.6l6.5,1.6l1.6-5.6c2.4-6.5-1.6-13.7-8.8-16.2l-6.5-1.6l-0.8,5.6C608.5,71.7,612.5,79,619,80.6z"/>
	<path fill="#DD7626" d="M434.9,40.3l-29.1,12.1c-11.3,4-13.7,19.4-4,27.5l25,21c9.7,8.1,25,2.4,26.6-10.5l4-32.3
		C458.3,45.1,446.2,35.4,434.9,40.3z M410.6,75c-0.8,0-1.6-0.8-1.6-2.4c0.8-0.8,1.6-0.8,2.4-0.8c0.8,0,1.6,0.8,1.6,2.4
		S412.2,75,410.6,75z M416.3,59.7c-0.8,0-1.6-0.8-1.6-2.4c0-0.8,0.8-1.6,2.4-1.6c0.8,0,1.6,0.8,1.6,2.4
		C418.7,59.7,417.9,60.4,416.3,59.7z M424.4,83.8c-0.8,0-1.6-0.8-1.6-2.4c0-0.8,0.8-1.6,2.4-1.6c1.6,0,1.6,0.8,1.6,2.4
		S425.2,83.8,424.4,83.8z M432.5,61.3c-0.8,0-1.6-0.8-1.6-2.4c0-0.8,0.8-1.6,2.4-1.6c0.8,0,1.6,0.8,1.6,2.4
		C434.9,61.3,433.2,61.3,432.5,61.3z M435.7,97.6c-0.8,0-1.6-0.8-1.6-2.4c0-0.8,0.8-1.6,2.4-1.6c0.8,0,1.6,0.8,1.6,2.4
		C438.1,96.7,437.3,97.6,435.7,97.6z M449.4,66.9c0,0.8-0.8,1.6-2.4,1.6c-0.8,0-1.6-0.8-1.6-2.4c0-0.8,0.8-1.6,2.4-1.6
		C448.6,65.3,449.4,66.1,449.4,66.9z M446.2,47.5c0.8,0,1.6,0.8,1.6,2.4c0,0.8-0.8,1.6-2.4,1.6c-0.8,0-1.6-0.8-1.6-2.4
		C444.6,48.3,445.3,47.5,446.2,47.5z M444.6,82.2c0.8,0,1.6,0.8,1.6,2.4c0,0.8-0.8,1.6-2.4,1.6c-0.8,0-1.6-0.8-1.6-2.4
		C442.2,83.1,442.9,82.2,444.6,82.2z"/>
	<path fill="#DD7626" d="M419.5,43.5l8.1-3.2c9.7-4,13.7-14.5,9.7-24.2l-3.2-8.1l-8.1,3.2c-9.7,4-13.7,14.5-9.7,24.2l0.8,1.6l0,0
		L419.5,43.5z"/>
	<path fill="#DD7626" d="M412.2,46.7l6.5-2.4l-2.4-6.5c-3.2-7.2-11.3-11.3-19.4-8.1l-6.5,1.6l2.4,6.5
		C396.1,45.9,405,49.1,412.2,46.7z"/>
	<polygon fill="#DD7626" points="416.3,37 416.3,37 419.5,43.5 	"/>
	<g>
		<path fill="#97B056" d="M464,167.8c2.4-9.7,6.5-19.4,12.1-27.5l0.8-1.6l1.6,0.8c8.1,5.6,15.3,12.9,21,21.8
			c3.2-8.8,8.1-16.9,14.5-23.4c-8.1-7.2-18.5-12.1-30.7-12.1c-3.2,0-5.6,0-8.8,0.8c-16.9,3.2-27.5,12.9-33.1,25
			C450.2,154.9,457.5,160.6,464,167.8z"/>
		<path fill="#97B056" d="M427.6,198.5c1.6,0,2.4,0,4,0c12.1,0,23.4,3.2,33.1,8.8c0-1.6-0.8-2.4-0.8-3.2c-1.6-7.2-1.6-14.5-1.6-21
			c0-0.8,0-1.6,0-2.4c0-0.8,0-1.6,0-2.4c0-1.6,0.8-3.2,0.8-4.8c-6.5-7.2-13.7-13.7-22.6-17.8c-0.8,0-1.6-0.8-1.6-0.8
			c-0.8,0-1.6-0.8-2.4-0.8c-1.6-0.8-2.4-1.6-3.2-1.6C426,166.2,424.4,182.3,427.6,198.5L427.6,198.5z"/>
		<path fill="#97B056" d="M505.1,169.4c0,0.8,0.8,1.6,0.8,1.6c0,0.8,0.8,1.6,0.8,1.6c3.2,6.5,4.8,12.9,6.5,20.2c0,1.6,0,2.4,0.8,4
			c8.1-9.7,18.5-17.8,31.5-21.8l0,0c-3.2-16.2-10.5-30.7-21.8-40.4c-0.8,0.8-1.6,1.6-2.4,2.4c-0.8,0.8-0.8,0.8-1.6,1.6
			c-0.8,0.8-0.8,0.8-1.6,1.6c-6.5,7.2-11.3,15.3-14.5,25C503.5,167,504.3,167.8,505.1,169.4z"/>
		<path fill="#97B056" d="M501.9,217c0-0.8,0.8-1.6,0.8-3.2c1.6-4,4-8.1,6.5-12.1c0-2.4-0.8-5.6-0.8-8.1c-1.6-7.2-3.2-13.7-6.5-20.2
			c0-0.8-0.8-1.6-0.8-1.6s0-0.8-0.8-0.8c0,0,0-0.8-0.8-0.8c0-0.8-0.8-0.8-0.8-1.6c-0.8-0.8-0.8-1.6-1.6-2.4
			c-5.6-8.8-12.1-16.2-20.2-21.8c-5.6,8.1-8.8,17.8-10.5,27.5c0,0.8,0,1.6,0,3.2c0,0.8,0,1.6,0,1.6v0.8v0.8c0,0.8,0,1.6,0,2.4
			c-0.8,7.2,0,13.7,1.6,21c0.8,2.4,0.8,4.8,1.6,7.2c4,2.4,7.2,5.6,10.5,8.1c0.8,0.8,1.6,1.6,2.4,2.4c0.8,0.8,1.6,1.6,2.4,2.4
			c4.8,5.6,9.7,12.1,12.9,19.4c0-8.1,1.6-16.2,4.8-22.6C501.9,218.7,501.9,217.9,501.9,217z"/>
		<path fill="#97B056" d="M494.6,249.4c-2.4-7.2-6.5-14.5-11.3-20.2c-0.8-0.8-1.6-1.6-1.6-2.4c-0.8-0.8-1.6-1.6-2.4-2.4
			c-2.4-2.4-4.8-4.8-8.1-7.2c-0.8-0.8-1.6-1.6-3.2-1.6c-0.8-0.8-1.6-1.6-3.2-1.6c-10.5-6.5-21.8-10.5-34.7-10.5c-0.8,0-1.6,0-2.4,0
			c-0.8,0-1.6,0-2.4,0c-0.8,0-1.6,0-2.4,0c-0.8,0-0.8,0-1.6,0c1.6,4.8,4,9.7,6.5,13.7c4,7.2,9.7,14.5,16.2,20.2
			c8.1,7.2,17.8,12.9,27.5,15.3h0.8c0.8,0,1.6,0.8,2.4,0.8c0.8,0,1.6,0.8,2.4,0.8c3.2,0.8,7.2,0.8,10.5,0.8l0,0c1.6,0,4,0,5.6-0.8
			c0.8,0,1.6,0,2.4,0v-0.8C495.4,251.8,495.4,251,494.6,249.4z"/>
		<path fill="#97B056" d="M549.5,179.1c-0.8,0-1.6,0-2.4,0.8c-0.8,0-1.6,0-2.4,0.8c-12.1,4-22.6,12.1-29.9,22.6
			c-0.8,0.8-1.6,1.6-1.6,3.2c-0.8,0.8-1.6,2.4-1.6,3.2c-1.6,3.2-3.2,6.5-4.8,9.7c0,0.8-0.8,2.4-0.8,3.2c0,0.8-0.8,1.6-0.8,2.4
			c-2.4,7.2-3.2,15.3-3.2,23.4c0,1.6,0,2.4,0,4v0.8c0.8,0,1.6-0.8,2.4-0.8c5.6-1.6,10.5-4,15.3-6.5c0.8,0,0.8-0.8,1.6-0.8
			c0.9,0,0.8-0.8,1.6-1.6l0,0l0,0c8.1-5.6,14.5-12.9,19.4-21.8c4-8.1,7.2-16.9,8.8-26.6c0.8-5.6,0.8-10.5,0.8-16.9
			C551.2,179.1,550.3,179.1,549.5,179.1z"/>
	</g>
	<polygon fill="#E3A425" points="690,328.5 681.1,312.3 665,328.5 	"/>
	<path fill="#E3A425" d="M577.8,412.5l-12.9,12.1l30.7,44.4l17.8-13.7c-4-8.8-0.8-20.2,8.1-25.9c8.1-4.8,17.8-4,24.2,1.6l71.9-54.1
		L703,351h-63.8L577.8,412.5z M595.6,432.6c-1.6,0.8-4,0.8-4.8-0.8c-0.8-1.6-0.8-4,0.8-4.8c1.6-0.8,4-0.8,4.8,0.8
		C597.9,429.4,597.2,431,595.6,432.6z M661.7,354.4c2.4-1.6,6.5-0.8,8.1,1.6c1.6,2.4,0.8,6.5-1.6,8.1c-2.4,1.6-6.5,0.8-8.1-1.6
		C657.7,360,658.5,356,661.7,354.4z M644.8,401.1c-4.8,3.2-11.3,1.6-14.5-3.2s-1.6-11.3,3.2-14.5c4.8-3.2,11.3-1.6,14.5,3.2
		C651.3,391.4,649.7,397.9,644.8,401.1z"/>
	<path fill="#E3A425" d="M673.8,313.2l-16.2,4c0.8,3.2,0,6.5-3.2,8.1c-3.2,2.4-8.1,0.8-9.7-2.4c-0.8-0.8-0.8-1.6-0.8-2.4l-15.3,4
		l-2.4,4h32.3L673.8,313.2z"/>
	<path fill="#E3A425" d="M612.5,360.8c1.6,3.2,0.8,6.5-1.6,8.8c-3.2,1.6-6.5,0.8-8.8-1.6c0,0,0-0.8-0.8-0.8l-26.7,42.8l57.3-54.9
		l0.8-0.8H610l-3.2,4.8C609.3,357.6,611.7,358.4,612.5,360.8z"/>
	<path fill="#E3A425" d="M574.5,408.5l57.3-54.9L574.5,408.5z"/>
	<path fill="#B3B4B4" d="M515.6,352.7L515.6,352.7L515.6,352.7z"/>
	<polygon fill="#B3B4B4" points="515.6,352.7 515.6,352.7 515.6,352.7 515.6,352.7 515.6,352.7 	"/>
	<path fill="#B3B4B4" d="M515.6,352.7L515.6,352.7L515.6,352.7z"/>
	<path fill="#B3B4B4" d="M319.4,454.5v-1.6C319.4,453.6,319.4,453.6,319.4,454.5z"/>
	<path fill="#B3B4B4" d="M765.9,481.1c0-3.2-0.8-5.6-1.6-8.8v23.4C765.9,491.6,765.9,486.7,765.9,481.1z"/>
	<g>
		<path fill="#B3B4B4" d="M852.3,739.5H841h-93.7h-499h-11.3h-0.8v29.9c0,6.5,5.6,12.1,12.1,12.1h499H841c6.5,0,12.1-5.6,12.1-12.1
			v-29.9H852.3z"/>
		<path fill="#B3B4B4" d="M852.3,729.8c-0.8-0.8-0.8-2.4-1.6-3.2l0,0l-62.2-66.2V560.2v-37.2V352.7c-2.4-0.8-4-1.6-5.6-3.2
			c-4,5.6-9.7,9.7-17.8,11.3h-0.8V473c0.8,2.4,1.6,5.6,1.6,8.8c0.8,4.8,0,10.5-1.6,15.3V515v60.6V653H703h-0.8h-8.1h-0.8h-67.8
			h-10.5h-4.8H595h-4.8h-16.9h-4.8h-20.4h-4.8h-16.9h-4h-15.3H502h-10.5H464h-39.6h-33.9H351h-31.5v-134v-36.3v-5.6v-17.8v-5.7
			c0-0.8,0-0.8,0-1.6v-99.3h191.3h4l0,0l0,0l0,0l0,0h37.9h50.9h3.2h3.2h22.6h3.2h3.2l0,0H703h2.4h2.4h32.3c-1.6-1.6-3.2-4-4-5.6l0,0
			c0,0-4.8-8.1-9.7-18.5h-32.3h-2.4h-2.4h-25l0,0h-3.2h-3.2l0,0h-32.3h-3.2H619h-82.4h-54.9H296.1v332.6l-15.3,16.2l-42,49.3
			c-0.8,0.8-1.6,1.6-1.6,3.2c0,0,0,0,0,0.8l0,0h15.3h495.7H837L852.3,729.8L852.3,729.8C852.3,730.6,852.3,730.6,852.3,729.8z"/>
	</g>
	<path fill="#DD7626" d="M829.7,276L829.7,276c-3.2-19.4-21.8-32.3-41.2-29.1c-8.8,1.6-16.2,5.6-21,12.1c-7.2-4-15.3-5.6-24.2-4.8
		c-19.4,3.2-32.3,21.8-29.1,41.2l0,0c1.6,8.1,8.1,22.6,13.7,33.9c4.8,10.5,9.7,18.5,9.7,18.5l0,0c0.8,2.4,2.4,4,4,5.6
		c5.6,5.6,13.7,8.8,22.6,8.1h0.8c7.2-0.8,13.7-5.6,17.8-11.3c1.6,1.6,4,2.4,5.6,3.2c4,1.6,8.8,2.4,14.5,1.6
		c11.3-1.6,20.2-11.3,21.8-21.8l0,0C824.1,332.6,832.9,292.2,829.7,276z M770.7,275.2c-8.1,1.6-15.3-3.2-19.4-9.7l4-0.8
		c2.4,4,7.2,6.5,12.1,7.2c0.8,0,1.6,0,2.4,0c0.8,0,1.6,0,2.4-0.8c4.8-1.6,8.1-5.6,8.8-10.5l4-0.8C784.5,267.9,778,274.4,770.7,275.2
		z"/>
	<path fill="#DD7626" d="M769.1,251l9.7-13.7c1.6,0,3.2,0,5.6,0c8.1-1.6,14.5-5.6,19.4-12.1c5.6-8.1,7.2-19.4,3.2-28.2l-0.8-1.6
		h-1.6c-2.4,0-4.8,0-7.2,0c-8.1,1.6-14.5,5.6-19.4,12.1c-5.6,8.1-7.2,17.8-4,26.6l-6.5,8.8l-3.2-17.8l-5.6,0.8l4,25.9L769.1,251z"/>
	<path fill="#E3A425" d="M396.9,314.8c9.7-1.6,16.2-9.7,16.9-19.4l19.4,6.5l-5.6-27.5l-14.5,12.9c-3.2-10.5-13.7-16.9-25-14.5
		c-16.2,3.2-33.1-3.2-42-17.8c-8.8-13.7-8.1-32.3,1.6-46c5.6-7.2,5.6-16.9,0.8-24.2c-0.8-1.6-2.4-3.2-4-4l17.8-8.1l-22.6-16.9
		l-1.6,21c-8.8-3.2-18.5-0.8-24.2,7.2c-21,27.5-22.6,65.4-4,93.7C328.3,306.7,363,321.3,396.9,314.8z"/>
</g>
</svg>
