<?xml version="1.0" encoding="utf-8"?>
<!-- Generator: Adobe Illustrator 19.2.0, SVG Export Plug-In . SVG Version: 6.00 Build 0)  -->
<svg version="1.1" xmlns="http://www.w3.org/2000/svg" xmlns:xlink="http://www.w3.org/1999/xlink" x="0px" y="0px"
	 viewBox="0 0 612 792" style="enable-background:new 0 0 612 792;" xml:space="preserve">
<style type="text/css">
	.st0{fill:#E2A426;}
</style>
<g id="Layer_1">
	<g id="Layer_1_1_">
	</g>
</g>
<g id="Navigation_1_">
	<path class="st0" d="M395.4,209c-44.7,0-73,21.8-89.4,41.5c-16.4-19.7-44.6-41.5-89.4-41.5c-76.2,0-127.4,70.6-127.4,136.5
		c0,96,184.3,224.6,205.3,238.9c3.4,2.3,7.4,3.5,11.4,3.5s8-1.2,11.4-3.5c21-14.3,205.3-143,205.3-238.9
		C522.8,279.6,471.6,209,395.4,209z M219.5,282.6c-28.3,0-51.3,23-51.3,51.3c0,6.2-5,11.1-11.1,11.1c-6.2,0-11.2-5-11.2-11.1
		c0-40.6,33-73.6,73.6-73.6c6.2,0,11.2,5,11.2,11.1C230.7,277.6,225.7,282.6,219.5,282.6z"/>
</g>
</svg>
