<?xml version="1.0" encoding="utf-8"?>
<!-- Generator: Adobe Illustrator 18.1.1, SVG Export Plug-In . SVG Version: 6.00 Build 0)  -->
<svg version="1.1" id="Layer_1" xmlns="http://www.w3.org/2000/svg" xmlns:xlink="http://www.w3.org/1999/xlink" x="0px" y="0px"
	 viewBox="0 0 612 792" enable-background="new 0 0 612 792" xml:space="preserve">
<g>
	<path fill="#E3A300" d="M450.7,462.6l37.5,23.8l10.6,6.9l36.3,23.1c3.8-5,6.9-10.6,8.8-16.9l0,0c0,0,30.6-81.9,30.6-115.6l0,0
		c0-41.9-33.8-75-75-75c-15,0-29.4,4.4-41.3,12.5c0-0.6,0-0.6,0-1.3v-6.3l25-25c2.5,0,4.4,0.6,6.9,0.6c15,0,29.4-5.6,40-16.9
		c13.8-13.8,19.4-33.8,15-53.1l-0.6-4.4l-3.1-0.6c-4.4-1.3-8.8-1.9-13.1-1.9c-15,0-29.4,5.6-40,16.9c-12.5,12.5-18.1,30-15.6,46.9
		L458.2,290v-28.8c0-4.4-3.8-7.5-7.5-7.5s-7.5,3.8-7.5,7.5v47.5v9.4c0,0.6,0,1.3,0,1.3c-11.9-7.5-25.6-12.5-41.3-12.5
		c-41.9,0-75,33.8-75,75l0,0c0,0.6,0,0.6,0,1.3L450.7,462.6z M413.2,341.3c3.8-1.9,8.8-0.6,10.6,3.1c1.9,3.1,3.8,5.6,6.3,8.1
		c5.6,5,12.5,8.1,20,8.1s15-3.1,20-8.1c2.5-2.5,5-5,6.3-8.1c1.9-3.8,6.9-5,10.6-3.1c3.8,1.9,5,6.9,3.1,10.6
		c-3.8,6.9-8.8,12.5-15,16.9c-7.5,5-16.3,7.5-25,7.5c-8.8,0-18.1-3.1-25-7.5c-6.3-4.4-11.3-10-15-16.9
		C408.2,348.2,409.5,343.8,413.2,341.3z"/>
	<path fill="#E3A300" d="M569.5,556.3L522.6,527l-18.1-11.9L472,494.5l-3.8-2.5c-1.3,5.6-1.9,11.3-2.5,16.9c0,1.9-0.6,3.8-0.6,5.6
		c0,1.3-0.6,3.1-1.3,4.4c-1.3,1.9-3.8,3.1-6.3,3.1c0,0,0,0-0.6,0c-4.4,0-7.5-3.8-7.5-8.1c0-5,0.6-9.4,1.3-14.4
		c0-1.3,0.6-2.5,0.6-3.8c0.6-3.1,1.3-6.3,1.9-9.4c0,0,0,0,0-0.6c0-1.3,0.6-1.9,0.6-3.1l-3.8-2.5l-26.9-16.9l-19.4-11.9
		c-1.9,5-3.8,10-5,15c-1.9,6.3-3.1,12.5-3.8,19.4c0,2.5-0.6,5-0.6,7.5c0,1.3,0,2.5,0,3.1c0,4.4-3.8,7.5-7.5,7.5c0,0,0,0-0.6,0
		c-4.4,0-7.5-3.8-7.5-8.1v-0.6c0-3.1,0.6-6.9,0.6-10c1.3-9.4,3.1-18.8,5.6-28.1c1.9-5,3.1-10,5.6-15l-46.9-28.1
		c-2.5,4.4-5,8.8-7.5,13.8c-0.6,0.6-0.6,1.9-1.3,2.5c-6.9,15.6-11.3,32.5-11.9,50c0,4.4-3.8,7.5-7.5,7.5c0,0,0,0-0.6,0
		c-4.4,0-7.5-3.8-7.5-8.1c0.6-21.3,6.3-41.9,15.6-60c1.9-4.4,4.4-8.1,6.3-11.9c0.6-0.6,0.6-1.3,1.3-1.9l0,0l-1.9-1.3l-16.3-10.6
		c-9.4-6.3-20-9.4-30-10c-1.3,0-2.5-0.6-3.8-0.6l0,0c-1.3,0-2.5,0-3.8,0s-2.5,0-3.8,0l0,0l0,0c-1.9,0-3.8,0.6-5.6,0.6
		c-0.6,0-0.6,0-1.3,0c0,0,0,0-0.6,0c0,0,0,0-0.6,0c-1.9,0.6-4.4,0.6-6.3,1.3h-0.6c0,0,0,0-0.6,0c-1.3,0-1.9,0.6-3.1,1.3
		c-1.3,0.6-1.9,0.6-3.1,1.3c0,0-0.6,0-0.6,0.6h-0.6c-1.3,0.6-1.9,1.3-3.1,1.3c-0.6,0.6-1.3,0.6-1.9,1.3l-0.6,0.6
		c-0.6,0-0.6,0.6-1.3,0.6c-1.3,0.6-2.5,1.3-3.1,1.9c-0.6,0-0.6,0.6-1.3,0.6l0,0c-0.6,0.6-1.3,1.3-1.9,1.3c-0.6,0.6-1.9,1.3-2.5,1.9
		c-0.6,0-0.6,0.6-1.3,0.6c-0.6,0.6-1.3,1.3-2.5,2.5c-1.3,1.3-1.9,1.9-3.1,3.1c-0.6,0.6-1.3,1.9-1.9,2.5c0,0,0,0.6-0.6,0.6l-0.6,0.6
		c-0.6,0.6-1.3,1.9-1.9,2.5s-1.3,1.9-1.9,2.5c0,0.6-0.6,0.6-0.6,1.3c-0.6,1.3-1.3,1.9-1.9,3.1c-0.6,1.3-1.3,2.5-1.9,3.8v0.6l0,0
		c-0.6,0.6-0.6,1.9-1.3,2.5c-1.3,2.5-1.9,5-2.5,7.5l0,0l0,0l-6.3,21.3l-21.9-6.3l4.4-14.4l1.9-6.3c1.3-5.6,2.5-10.6,3.1-16.3
		c1.3-18.1-3.8-36.3-13.8-50.6c-10-15-25-26.3-43.8-31.3l0,0l-8.1,28.1c-0.6,2.5-1.3,4.4-1.9,6.9c-2.5,11.3-1.9,23.1,0.6,33.8
		c0.6,3.1,1.3,5.6,2.5,8.1l0,0c-3.8-1.3-6.9-2.5-10.6-3.8c-11.3-3.1-22.5-4.4-33.1-4.4l0,0c-17.5,0.6-33.8,6.3-46.3,15.6
		c0,5.6,1.9,9.4,3.8,12.5c10.6,18.8,30.6,34.4,55.6,41.9c2.5,0.6,4.4,1.3,6.9,1.9c1.3,0,3.1,0.6,4.4,1.3l0,0
		c-2.5,1.9-4.4,3.8-6.9,6.3c-5.6,5.6-10.6,12.5-15,20c-2.5,4.4-4.4,9.4-6.3,14.4l-3.1,11.3l-5,17.5c17.5,5,35.6,3.8,51.3-2.5
		c21.9-8.8,40-26.9,47.5-51.9l4.4-13.8l1.9-6.3l21.9,6.3l-6.3,21.3l0,0l0,0l0,0c0,0.6-0.6,1.9-0.6,2.5c-0.6,1.9-0.6,3.8-1.3,5.6
		c0,0.6,0,1.3,0,1.9v0.6c0,1.9-0.6,3.8-0.6,5c0,1.3,0,2.5,0,3.8s0,2.5,0,3.8v0.6c0,1.3,0,2.5,0.6,3.8c0,1.3,0,2.5,0.6,3.8
		c0,1.3,0.6,3.1,1.3,4.4c0,1.3,0.6,1.9,0.6,3.1c0.6,1.3,0.6,1.9,1.3,3.1c0,0.6,0.6,1.3,0.6,1.3v0.6c0,0.6,0.6,1.3,0.6,1.9
		c0.6,1.9,1.3,3.1,2.5,5c0.6,0.6,0.6,1.3,1.3,1.9c0.6,1.3,1.3,1.9,1.9,2.5c0.6,0.6,0.6,1.3,1.3,1.9l0.6,0.6c0,0,0,0.6,0.6,0.6
		c1.3,1.9,2.5,3.1,3.8,5l0.6,0.6c1.3,1.9,3.1,3.1,4.4,5l0,0c0,0,0,0,0.6,0.6c1.9,1.9,3.8,3.1,5.6,4.4l0,0l0,0
		c1.9,1.3,3.8,2.5,5.6,3.8c0,0,0.6,0,0.6,0.6l0,0l0,0c10,5.6,21.9,9.4,34.4,9.4h178.8l0,0l0,0l0,0h5h5l0,0h115.6
		c1.9,0,4.4-0.6,5.6-1.3c2.5-1.3,4.4-3.1,5.6-5.6c0-0.6,0.6-1.3,0.6-1.9C576.4,565.7,575.1,559.5,569.5,556.3z M176.9,455.1h-0.6
		C176.3,455.1,176.3,454.4,176.9,455.1c-0.6-0.6-0.6-0.6-0.6-0.6C176.3,454.4,176.9,454.4,176.9,455.1L176.9,455.1z"/>
	<path fill="#E3A300" d="M228.8,379.4L228.8,379.4l-0.6-0.6l0,0l0,0C228.2,379.4,228.8,379.4,228.8,379.4z"/>
</g>
</svg>
