<?xml version="1.0" encoding="utf-8"?>
<!-- Generator: Adobe Illustrator 18.1.1, SVG Export Plug-In . SVG Version: 6.00 Build 0)  -->
<svg version="1.1" id="Layer_1" xmlns="http://www.w3.org/2000/svg" xmlns:xlink="http://www.w3.org/1999/xlink" x="0px" y="0px"
	 viewBox="0 0 13 13" enable-background="new 0 0 13 13" xml:space="preserve">
<g>
	<g>
		<g enable-background="new    ">
			<g>
				<defs>
					<rect id="SVGID_1_" x="0" y="0" width="13" height="13"/>
				</defs>
				<clipPath id="SVGID_2_">
					<use xlink:href="#SVGID_1_"  overflow="visible"/>
				</clipPath>
				<g clip-path="url(#SVGID_2_)">
					<defs>
						<path id="SVGID_3_" d="M4.8,12.3L0.5,7.6L1,8.1c0,0-0.6-0.6-0.6-0.7v0C0.3,7.3,0.2,7.1,0.2,7c0-0.1-0.1-0.3-0.1-0.4
							c0-0.1,0-0.2,0-0.3c0-0.1,0-0.1,0-0.2c0-0.1,0.1-0.6,0.7-1.3c0.9-1.1,4-4,4-4c0.5-0.6,1.4-0.6,1.9,0c0.5,0.6,0.5,1.5,0,2.1
							L4.8,5h6.2c0.8,0,1.8,0.7,1.8,1.5c0,0.8-0.6,1.5-0.9,1.5H5.2l1.5,2.2c0.5,0.6,0.5,1.5,0,2.1C6.2,12.9,5.4,12.9,4.8,12.3"/>
					</defs>
					<clipPath id="SVGID_4_">
						<use xlink:href="#SVGID_3_"  overflow="visible"/>
					</clipPath>
					<g clip-path="url(#SVGID_4_)">
						<defs>
							<rect id="SVGID_5_" x="0" y="0" width="13" height="13"/>
						</defs>
						<clipPath id="SVGID_6_">
							<use xlink:href="#SVGID_5_"  overflow="visible"/>
						</clipPath>
						<rect x="-4.9" y="-4.7" clip-path="url(#SVGID_6_)" fill="#DD7627" width="22.6" height="22.4"/>
					</g>
				</g>
			</g>
		</g>
	</g>
</g>
</svg>
