<?xml version="1.0" encoding="utf-8"?>
<!-- Generator: Adobe Illustrator 19.2.1, SVG Export Plug-In . SVG Version: 6.00 Build 0)  -->
<svg version="1.1" xmlns="http://www.w3.org/2000/svg" xmlns:xlink="http://www.w3.org/1999/xlink" x="0px" y="0px"
	 viewBox="0 0 85.3 65.5" style="enable-background:new 0 0 85.3 65.5;" xml:space="preserve">
<style type="text/css">
	.st0{fill:#98AD55;}
	.st1{fill:#98B054;}
</style>
<g id="Layer_1">
</g>
<g id="Modal">
	<path class="st0" d="M66.9,25.4"/>
</g>
<g id="Isolation_Mode">
	<g>
		<g>
			<path class="st1" d="M55.9,46.8c-0.2-0.2-0.3-0.3-0.1-0.7l0.9-1.4c0.2-0.3,0.5-0.3,0.9,0c0.7,0.6,1.6,1.1,2.6,1.2v-4.4
				c-2.1-0.8-4.5-2-4.5-5c0-2.1,1.4-4,4.5-4.3v-0.7c0-0.2,0.2-0.4,0.4-0.4H61c0.2,0,0.4,0.2,0.4,0.4v0.7c2,0.2,3.6,1.2,4,1.5
				c0.2,0.1,0.3,0.5,0.1,0.7l-0.9,1.3c-0.2,0.2-0.4,0.3-0.6,0.2c-0.6-0.4-1.5-1-2.6-1.2c0,1.4,0,2.8,0,4.1c2,0.8,4.7,2.2,4.7,5.1
				c0,2.5-1.7,4.3-4.7,4.5v2.4c0,0.2-0.2,0.4-0.5,0.4c-0.3,0-0.7,0-0.7-0.4v-2.4C57.8,48.4,56.4,47.2,55.9,46.8z M60.2,34.8
				c-1.1,0.1-1.7,0.8-1.7,1.7c0,0.9,0.6,1.4,1.7,2V34.8z M63.1,44.4c0-0.9-0.5-1.7-1.7-2.3v4C62.4,46,63.1,45.4,63.1,44.4z"/>
		</g>
		<g>
			<path class="st0" d="M36.2,41.5H21.9c-0.7,0-1.3,0.6-1.3,1.3c0,0.7,0.6,1.3,1.3,1.3h14.3c0.7,0,1.3-0.6,1.3-1.3
				C37.5,42,36.9,41.5,36.2,41.5z"/>
			<path class="st0" d="M21.9,36.8h7.2c0.7,0,1.3-0.6,1.3-1.3s-0.6-1.3-1.3-1.3h-7.2c-0.7,0-1.3,0.6-1.3,1.3S21.2,36.8,21.9,36.8z"
				/>
			<path class="st0" d="M68.8,27v-8.2c0-3.3-2.7-6-6-6h-0.3v-0.3c0-3.3-2.7-6-6-6H13.1c-3.3,0-6,2.7-6,6v26.3c0,3.3,2.7,6,6,6h0.3
				v0.3c0,3.3,2.7,6,6,6H48c3,3.9,7.6,6.4,12.9,6.4c9,0,16.3-7.3,16.3-16.3C77.2,35.1,73.8,29.8,68.8,27z M60.9,25
				c-2.8,0-5.5,0.7-7.8,2L16,27.1v-4.6h50.3v3.4C64.6,25.3,62.8,25,60.9,25z M62.8,15.3c1.9,0,3.5,1.6,3.5,3.5V20H16v-1.2
				c0-1.9,1.6-3.5,3.5-3.5H62.8z M13.5,18.8v23.4h-0.3c-1.9,0-3.5-1.6-3.5-3.5V12.5c0-1.9,1.6-3.5,3.5-3.5h43.3
				c1.9,0,3.5,1.6,3.5,3.5v0.3H19.5C16.2,12.8,13.5,15.5,13.5,18.8z M19.5,48.6c-1.9,0-3.5-1.6-3.5-3.5V29.7h33.5
				c-3,3-4.9,7-4.9,11.6c0,2.7,0.7,5.2,1.8,7.4H19.5z M60.9,55c-7.6,0-13.8-6.2-13.8-13.8c0-7.6,6.2-13.8,13.8-13.8
				s13.8,6.2,13.8,13.8C74.7,48.8,68.5,55,60.9,55z"/>
		</g>
	</g>
</g>
</svg>
