<?xml version="1.0" encoding="utf-8"?>
<!-- Generator: Adobe Illustrator 18.1.1, SVG Export Plug-In . SVG Version: 6.00 Build 0)  -->
<svg version="1.1" id="Layer_1" xmlns="http://www.w3.org/2000/svg" xmlns:xlink="http://www.w3.org/1999/xlink" x="0px" y="0px"
	 viewBox="0 0 1224 792" enable-background="new 0 0 1224 792" xml:space="preserve">
<g>
	<g>
		<path fill="none" d="M346.3,162c0-0.2,0-0.4,0-0.6l-0.1,0.1l-0.1-0.1c0,0.2,0.1,0.4,0.1,0.6H346.3z"/>
		<path fill="#DD7626" d="M322.7,165.6l17.1-1.2l1.3,18.6l13.1-0.9l-1.3-18.6l17.1-1.2c35.4-2.5,62.1-33.2,59.6-68.6l-23.8,1.5
			c-14,1-26.6,6.5-36.7,14.9c0.1-3,0.1-6.1-0.1-9.2c-1.8-25.2-14.2-46.4-31-56.9c-15.3,12.7-24.6,35.4-22.9,60.6
			c0.2,3.1,0.6,6.2,1.1,9.1c-11.1-6.9-24.3-10.6-38.4-9.6l-23.8,1.8C256.6,141.4,287.3,168.1,322.7,165.6z M346.2,161.5l0.1-0.1
			c0,0.2,0,0.4,0,0.6h-0.2c0-0.2-0.1-0.4-0.1-0.6C346.1,161.4,346.1,161.5,346.2,161.5z"/>
		<path fill="#DD7626" d="M363.7,191.3l-30.7,2.1c-40.4,2.8-68.4,39.7-62.5,78.1l165.4-4.3C441,225.3,406.6,188.3,363.7,191.3z"/>
		<path fill="#DD7626" d="M433.2,274.7l-161,9.2c0.2,0.5,0.3,1.1,0.5,1.6l20.4,48.8l131.7-17.4L433.2,274.7z"/>
		<polygon fill="#DD7626" points="418.7,329.1 292.5,342.2 304.3,372.9 410.5,365.1 		"/>
	</g>
	<g>
		<g>
			<path fill="#97B056" d="M479.3,120.4l18-25.2c0.2-0.3,0.5-0.3,0.8-0.5l-14.3-18.6c-1.5-2-3.7-3.6-6.3-4.5
				c-6.9-2.3-14.4,1.4-16.8,8.3l-7.5,22.2c0.3,0.1,0.6,0,0.9,0.2L479.3,120.4z"/>
		</g>
		<g>
			<path fill="#97B056" d="M460.9,150.4l16.3-22.8L451,108.8l-9.5,28c0.2,0.1,0.4,0,0.5,0.1L460.9,150.4z"/>
		</g>
		<g>
			
				<rect x="471.6" y="138.7" transform="matrix(-0.582 0.8132 -0.8132 -0.582 889.5706 -154.2841)" fill="#97B056" width="25.6" height="25.6"/>
		</g>
		<g>
			<polygon fill="#97B056" points="466.4,224.6 488.8,358.9 549,358.9 525.1,214.9 			"/>
		</g>
		<g>
			<path fill="#97B056" d="M506.3,142.8l13.5-18.8c0.1-0.2,0.3-0.1,0.4-0.3l-18-23.4l-18.8,26.2L506.3,142.8z"/>
		</g>
		<g>
			<path fill="#97B056" d="M524,208c19.9-18.6,22.8-49.7,5.9-71.8l-5.3-6.9L491,176.2c-0.6,0.8-1.4,1.3-2.3,1.4
				c-0.9,0.1-1.8,0-2.6-0.6l-46.9-33.6l-2.8,8.2c-5.4,16.3-3,35.2,8.3,49.8c5.6,7.3,12.7,12.7,20.5,16.2l0,0L524,208z"/>
		</g>
		<path fill="#F5F5F5" d="M483.3,126.9l0.3-0.4l-0.4-0.3c0,0.1,0,0.2-0.1,0.3C483.2,126.7,483.2,126.8,483.3,126.9z"/>
		<path fill="#F5F5F5" d="M483.1,126.6c0-0.1,0-0.2,0.1-0.3l-0.5-0.4C482.9,126.1,482.9,126.4,483.1,126.6z"/>
		<path fill="#F5F5F5" d="M477.6,127.5c-0.1-0.1-0.1-0.2-0.2-0.3l-0.3,0.4l0.4,0.3C477.6,127.7,477.6,127.6,477.6,127.5z"/>
		<path fill="#F5F5F5" d="M477.8,126.7l-0.4,0.5c0.1,0.1,0.1,0.2,0.2,0.3C477.7,127.2,477.6,126.9,477.8,126.7z"/>
		<path fill="#F5F5F5" d="M477.6,127.5c0,0.1,0,0.2-0.1,0.3l0.5,0.4C477.8,128,477.8,127.7,477.6,127.5z"/>
		<path fill="#F5F5F5" d="M483.3,126.9c-0.1-0.1-0.1-0.2-0.2-0.3c-0.1,0.3,0,0.5-0.2,0.8L483.3,126.9z"/>
		<g>
			
				<rect x="572.3" y="68.3" transform="matrix(-0.5819 0.8132 -0.8132 -0.5819 991.5193 -347.4329)" fill="#97B056" width="25.6" height="25.6"/>
		</g>
		<g>
			<polygon fill="#97B056" points="567.1,154.3 585.4,264.9 638.6,221.6 625.8,144.6 			"/>
		</g>
		<g>
			<path fill="#F5F5F5" d="M577.9,57.2l0.9,0.6c-0.3-0.2-0.4-0.6-0.6-1L577.9,57.2z"/>
			<path fill="#F5F5F5" d="M583.6,57l0.6-0.9l-0.4-0.3C583.8,56.3,583.9,56.7,583.6,57z"/>
			<path fill="#F5F5F5" d="M583.4,55.5c-1.6-1.1-3.8-0.8-4.9,0.8l-0.4,0.5c0.2,0.3,0.3,0.7,0.6,1c0.8,0.6,1.7,0.8,2.6,0.6
				c0.9-0.1,1.7-0.6,2.3-1.4c0.2-0.3,0.2-0.7,0.3-1.1L583.4,55.5z"/>
			<g>
				<path fill="#97B056" d="M580,50.1l18-25.2c0.2-0.3,0.5-0.3,0.8-0.5L584.5,5.8c-1.5-2-3.7-3.6-6.3-4.5
					c-6.9-2.3-14.4,1.4-16.8,8.3l-7.5,22.2c0.3,0.1,0.6,0,0.9,0.2L580,50.1z"/>
			</g>
			<g>
				<path fill="#97B056" d="M603,30l-18.8,26.2L607,72.5l13.5-18.9c0.1-0.2,0.3-0.1,0.4-0.3L603,30z"/>
			</g>
			<g>
				<path fill="#97B056" d="M542.2,66.4c0.2,0.1,0.4,0,0.5,0.1L561.5,80l16.3-22.8l-26.2-18.8L542.2,66.4z"/>
			</g>
		</g>
		<g>
			<path fill="#97B056" d="M624.7,137.7c19.9-18.6,22.8-49.7,5.9-71.8l-5.3-6.9l-33.6,46.9c-0.6,0.8-1.4,1.3-2.3,1.4
				c-0.9,0.1-1.8,0-2.6-0.6l-46.9-33.6l-2.8,8.2c-5.4,16.3-3,35.2,8.3,49.8c5.6,7.3,12.7,12.7,20.5,16.2l0,0L624.7,137.7z"/>
		</g>
	</g>
	<g>
		<g>
			<path fill="#97B056" d="M1012.5,161.9c-12.5-15.5-34-19.6-51.1-10.9l11.3-24.7c3.8-8.4,5.7-18,4.9-27.8
				c-2.5-30.7-29.5-53.5-60.1-50.9c-30.7,2.5-53.5,29.5-50.9,60.1l2.6,31c-1.4-2-3-3.9-4.7-5.7c-16.3-16.1-42.5-15.9-58.6,0.4
				s-15.9,42.5,0.4,58.6l39.9,39.3c-9.9-2.4-20.7,0.2-28.4,7.9c-11.6,11.8-11.4,30.7,0.3,42.3l48.4,47.7c2.9,2.8,6.4,4.7,10.2,5.5
				l5.1-29.2l-32.3-37.7l4.7-4.1l28.9,33.8l12.2-69.7l-39-45.5l4.7-4.1l35.6,41.6l17.4-99.5l6.2,1.1l-17.4,99.5l47.6-27l3.1,5.4
				l-52.1,29.5l-12.2,69.7l38.7-21.9l3.1,5.4l-43.2,24.5l-5.1,29.1c3.8,0.5,7.7,0,11.5-1.7l61.8-28.4c2.1-1,4.4-2.3,6.3-3.9
				c12.8-10.4,14.8-29.2,4.5-42c-5.2-6.4-12.4-10.1-19.9-10.9l50.7-23.3c3-1.4,6-3.2,8.7-5.4
				C1024.1,205.8,1026.8,179.7,1012.5,161.9z"/>
			<path fill="#F5F5F5" d="M888.6,284.5L888.6,284.5L888.6,284.5z"/>
		</g>
		<g>
			<polygon fill="#97B056" points="879.2,358 872.8,358.4 876.6,334.9 882.8,335.9 			"/>
		</g>
	</g>
	<rect x="508" y="376.4" fill="#B3B4B4" width="454.9" height="80.5"/>
	<polygon fill="#B3B4B4" points="481.2,380.5 254.1,393.9 254.1,446.6 477,456.9 	"/>
	<polygon fill="#B3B4B4" points="508,481.7 962.9,481.7 968.4,760.7 508,791.4 	"/>
	<polygon fill="#B3B4B4" points="260.3,471.3 481.2,485.8 481.2,780 259.2,720.1 	"/>
</g>
<g>
	<path fill="#E3A425" d="M672.3,205.5c-18.8,50.5-32.9,98.9-33.3,153.1h34.4c0.5-47.7,9.6-119.8,22.8-182.8
		C689.8,186.9,681.6,196.6,672.3,205.5z"/>
	<path fill="#E3A425" d="M639.3,232.6c-2.1,4.4-4.2,8.6-6.3,12.7c-17.3,35.1-31,62.9-31.3,113.2h29.7c0.4-50.6,12.4-96,29-142.5
		C653.6,221.7,646.5,227.2,639.3,232.6z"/>
	<path fill="#E3A425" d="M680.8,358.6l45.2,0.1c-0.6-47.2-9.5-118.7-22.6-181.1C690.3,240,681.3,311.4,680.8,358.6z"/>
	<path fill="#E3A425" d="M563.3,340.4c0,5.7,0.5,11.8,1.6,18h29.4c0.2-51.8,14.1-80.3,31.8-116C593.3,267.3,563.3,293.7,563.3,340.4
		z"/>
	<path fill="#E3A425" d="M843.4,340.4c0-46.7-30-73.1-62.7-97.9c17.7,35.8,31.6,64.3,31.8,116.3h29.3
		C842.8,352.5,843.4,346.3,843.4,340.4z"/>
	<path fill="#E3A425" d="M767.5,232.6c-7.2-5.4-14.3-10.8-21.1-16.5c16.6,46.6,28.7,92.1,29,142.7h29.7
		c-0.2-50.5-13.9-78.3-31.3-113.5C771.7,241.1,769.6,236.9,767.5,232.6z"/>
	<path fill="#E3A425" d="M710.7,175.8c13.2,63,22.3,135.2,22.8,182.8h34.4c-0.4-54.2-14.5-102.7-33.3-153.2
		C725.2,196.6,716.9,186.9,710.7,175.8z"/>
</g>
<polygon fill="#FFFFFF" points="710.7,573 742.2,527 852,644.1 786,716 660.4,588.8 "/>
<polygon fill="#FFFFFF" points="585.1,510.6 872.8,500.1 899.1,729.6 602.9,740.7 "/>
<g id="Content">
	<g>
		<path fill="#98AF57" d="M773.5,633.1c-2.4,0-4.2,1.8-4.2,4.2s1.8,4.2,4.2,4.2c2.2,0,4.2-1.8,4.2-4.2
			C777.8,635,775.8,633.1,773.5,633.1z"/>
		<path fill="#98AF57" d="M749.3,598.3c0-2.2-1.8-4.2-4.2-4.2s-4.2,1.8-4.2,4.2c0,2.4,1.8,4.2,4.2,4.2
			C747.3,602.5,749.3,600.6,749.3,598.3z"/>
		<path fill="#98AF57" d="M859.9,640l-87.2-87.2l-12.5-12.5l-10.4-10.4c-2-2-4.5-3-7.2-3h-52.1c-14.6,0-26.5,11.9-26.5,26.5v52.1
			c0,2.8,1.1,5.3,3,7.2l93.2,93.2l12.5,12.5l4.3,4.3c2.4,2.4,6.2,2.4,8.6,0l74.3-74.3C862.1,646.2,862.1,642.4,859.9,640z
			 M706.7,569.8c-4.2,4.2-11.1,4.2-15.3,0s-4.2-11.1,0-15.3s11.1-4.2,15.3,0S710.9,565.6,706.7,569.8z M733.3,598.3
			c0-6.5,5.1-11.7,11.7-11.7c6.5,0,11.7,5.1,11.7,11.7c0,6.5-5.3,11.7-11.7,11.7C738.6,610,733.3,604.9,733.3,598.3z M747.6,647.2
			c-0.1,0.4-0.8,0.9-1.4,0.9h-4.2c-1.3,0-2.1-1.2-1.4-2.4l29.7-57.5c0.3-0.5,0.8-0.9,1.4-0.9h4.3c1.3,0,2.1,1.2,1.4,2.4L747.6,647.2
			z M773.5,649c-6.5,0-11.7-5.1-11.7-11.7c0-6.6,5.3-11.7,11.7-11.7c6.5,0,11.7,5.1,11.7,11.7C785.3,643.9,780,649,773.5,649z"/>
	</g>
</g>
</svg>
