<?xml version="1.0" encoding="utf-8"?>
<!-- Generator: Adobe Illustrator 19.2.1, SVG Export Plug-In . SVG Version: 6.00 Build 0)  -->
<svg version="1.1" xmlns="http://www.w3.org/2000/svg" xmlns:xlink="http://www.w3.org/1999/xlink" x="0px" y="0px"
	 viewBox="0 0 612 792" style="enable-background:new 0 0 612 792;" xml:space="preserve">
<style type="text/css">
	.st0{fill:#7F9345;}
	.st1{fill:#98B054;}
	.st2{fill:#FFFFFF;}
</style>
<g id="Layer_1">
</g>
<g id="Modal">
	<g>
		<path class="st0" d="M537.2,153c-27-1.3-505.4-10.8-505.4-10.8l15.6,467.6l477.8-5.4L537.2,153z"/>
		<path class="st1" d="M76.5,638.9c27,1.3,505.5,10.5,505.5,10.5l-15.7-467.2l-477.8,5.4L76.5,638.9z"/>
		<g>
			<path class="st2" d="M268.4,460.8c-0.2,14.2,2.9,25.3,9.3,33.5c6.4,8.1,17,12.4,31.8,12.9v-77.8c-8.8-2.4-17.5-5.2-26.2-8.5
				c-8.7-3.3-16.5-7.6-23.5-12.9c-7-5.3-12.6-11.8-16.9-19.8c-4.3-7.9-6.4-17.8-6.4-29.6c0-10.3,2-19.3,6-27.2
				c4-7.8,9.3-14.4,16.1-19.6c6.8-5.3,14.5-9.3,23.3-12.1c8.8-2.8,18-4.2,27.7-4.2v-25.1h13.8v25.1c9.7,0,18.8,1.3,27.3,3.9
				s16,6.4,22.4,11.6c6.3,5.1,11.4,11.7,15.1,19.6c3.8,7.9,5.6,17.2,5.6,27.7h-36.7c-0.4-10.9-3.3-19.3-8.5-25.1
				c-5.3-5.8-13.7-8.7-25.2-8.7v67.9c9.7,2.6,19.1,5.6,28.3,9c9.2,3.4,17.4,7.8,24.5,13.2c7.1,5.4,12.8,12,17,19.9
				c4.3,7.9,6.4,17.7,6.4,29.3c0,12-2,22.5-5.9,31.4c-4,8.9-9.4,16.3-16.2,22.2c-6.9,5.9-14.9,10.4-24.1,13.5
				c-9.2,3.1-19.2,4.9-29.9,5.3v25.1h-13.8v-25.1c-11.6-0.2-22.2-2-31.8-5.5c-9.7-3.4-17.9-8.3-24.8-14.6
				c-6.9-6.3-12.2-14.1-15.9-23.3c-3.8-9.2-5.5-19.8-5.3-31.8H268.4z M309.6,324.5c-11.6,0-20.5,2.4-26.9,7.2
				c-6.3,4.8-9.5,12.9-9.5,24.3c0,5.1,1.1,9.5,3.2,13.2c2.2,3.6,4.9,6.8,8.2,9.3c3.3,2.6,7.2,4.7,11.6,6.3c4.4,1.6,8.8,2.9,13.3,4
				V324.5z M323.4,507.2c11.6-0.9,21.1-4.2,28.5-10.1c7.4-5.9,11.1-15.3,11.1-28.1c0-6-1.1-11-3.4-15.1c-2.3-4.1-5.3-7.5-9-10.3
				c-3.8-2.8-8-5-12.7-6.8c-4.7-1.7-9.5-3.2-14.5-4.5V507.2z"/>
		</g>
	</g>
</g>
</svg>
