<?xml version="1.0" encoding="utf-8"?>
<!-- Generator: Adobe Illustrator 16.0.0, SVG Export Plug-In . SVG Version: 6.00 Build 0)  -->
<!DOCTYPE svg PUBLIC "-//W3C//DTD SVG 1.1//EN" "http://www.w3.org/Graphics/SVG/1.1/DTD/svg11.dtd">
<svg version="1.1" id="Layer_1" xmlns="http://www.w3.org/2000/svg" xmlns:xlink="http://www.w3.org/1999/xlink" x="0px" y="0px"
	 width="66.744px" height="26.771px" viewBox="0 0 66.744 26.771" enable-background="new 0 0 66.744 26.771" xml:space="preserve">
<g>
	<g>
		<g>
			<defs>
				<polyline id="SVGID_1_" points="51.55,16.514 66.662,16.413 66.662,13.375 51.508,13.534 51.55,16.514 				"/>
			</defs>
			<clipPath id="SVGID_2_">
				<use xlink:href="#SVGID_1_"  overflow="visible"/>
			</clipPath>
			<rect x="46.508" y="8.375" clip-path="url(#SVGID_2_)" fill="#C8C7C7" width="25.154" height="13.139"/>
		</g>
	</g>
	<g>
		<g>
			<defs>
				<polyline id="SVGID_3_" points="60.797,12.607 60.898,7.884 51.522,7.884 51.532,12.67 60.797,12.607 				"/>
			</defs>
			<clipPath id="SVGID_4_">
				<use xlink:href="#SVGID_3_"  overflow="visible"/>
			</clipPath>
			<rect x="46.522" y="2.884" clip-path="url(#SVGID_4_)" fill="#C8C7C7" width="19.376" height="14.786"/>
		</g>
	</g>
	<g>
		<g>
			<defs>
				<polyline id="SVGID_5_" points="51.627,26.626 59.491,26.626 59.668,17.658 51.733,17.709 51.627,26.626 				"/>
			</defs>
			<clipPath id="SVGID_6_">
				<use xlink:href="#SVGID_5_"  overflow="visible"/>
			</clipPath>
			<rect x="46.627" y="12.658" clip-path="url(#SVGID_6_)" fill="#C8C7C7" width="18.041" height="18.968"/>
		</g>
	</g>
	<g>
		<g>
			<defs>
				<polyline id="SVGID_7_" points="66.662,12.452 66.662,7.884 62.076,7.884 61.834,12.487 66.662,12.452 				"/>
			</defs>
			<clipPath id="SVGID_8_">
				<use xlink:href="#SVGID_7_"  overflow="visible"/>
			</clipPath>
			<rect x="56.835" y="2.884" clip-path="url(#SVGID_8_)" fill="#C8C7C7" width="14.827" height="14.604"/>
		</g>
	</g>
	<g>
		<g>
			<defs>
				<polyline id="SVGID_9_" points="50.509,23.122 45.429,23.183 45.429,26.626 50.358,26.626 50.509,23.122 				"/>
			</defs>
			<clipPath id="SVGID_10_">
				<use xlink:href="#SVGID_9_"  overflow="visible"/>
			</clipPath>
			<rect x="40.429" y="18.122" clip-path="url(#SVGID_10_)" fill="#C8C7C7" width="15.08" height="13.504"/>
		</g>
	</g>
	<g>
		<g>
			<defs>
				<polyline id="SVGID_11_" points="60.635,26.626 66.744,26.626 66.744,21.359 60.834,21.398 60.635,26.626 				"/>
			</defs>
			<clipPath id="SVGID_12_">
				<use xlink:href="#SVGID_11_"  overflow="visible"/>
			</clipPath>
			<rect x="55.635" y="16.359" clip-path="url(#SVGID_12_)" fill="#C8C7C7" width="16.109" height="15.267"/>
		</g>
	</g>
	<g>
		<g>
			<defs>
				<polyline id="SVGID_13_" points="60.725,20.444 66.662,20.43 66.662,17.579 60.752,17.599 60.725,20.444 				"/>
			</defs>
			<clipPath id="SVGID_14_">
				<use xlink:href="#SVGID_13_"  overflow="visible"/>
			</clipPath>
			<rect x="55.726" y="12.579" clip-path="url(#SVGID_14_)" fill="#C8C7C7" width="15.937" height="12.865"/>
		</g>
	</g>
	<g>
		<g>
			<defs>
				<polyline id="SVGID_15_" points="50.448,7.884 45.429,7.884 45.429,21.758 50.368,21.712 50.448,7.884 				"/>
			</defs>
			<clipPath id="SVGID_16_">
				<use xlink:href="#SVGID_15_"  overflow="visible"/>
			</clipPath>
			<rect x="40.429" y="2.884" clip-path="url(#SVGID_16_)" fill="#C8C7C7" width="15.02" height="23.874"/>
		</g>
	</g>
	<g>
		<g>
			<defs>
				<rect id="SVGID_17_" x="49.771" y="3.256" width="2.165" height="3.878"/>
			</defs>
			<clipPath id="SVGID_18_">
				<use xlink:href="#SVGID_17_"  overflow="visible"/>
			</clipPath>
			<rect x="44.771" y="-1.744" clip-path="url(#SVGID_18_)" fill="#C8C7C7" width="12.165" height="13.878"/>
		</g>
	</g>
	<g>
		<g>
			<defs>
				<rect id="SVGID_19_" x="59.906" y="3.256" width="2.164" height="3.878"/>
			</defs>
			<clipPath id="SVGID_20_">
				<use xlink:href="#SVGID_19_"  overflow="visible"/>
			</clipPath>
			<rect x="54.906" y="-1.744" clip-path="url(#SVGID_20_)" fill="#C8C7C7" width="12.164" height="13.878"/>
		</g>
	</g>
	<g>
		<g>
			<defs>
				<polyline id="SVGID_21_" points="60.264,0 51.782,0 49.618,2.333 61.982,2.333 60.264,0 				"/>
			</defs>
			<clipPath id="SVGID_22_">
				<use xlink:href="#SVGID_21_"  overflow="visible"/>
			</clipPath>
			<rect x="44.618" y="-5" clip-path="url(#SVGID_22_)" fill="#C8C7C7" width="22.364" height="12.333"/>
		</g>
	</g>
	<g>
		<g>
			<defs>
				<path id="SVGID_23_" d="M9.614,9.005h5.294c0.101,0,0.185-0.081,0.185-0.18V8.108c0-0.1-0.084-0.18-0.185-0.18H9.614
					c-0.102,0-0.184,0.08-0.184,0.18v0.717C9.431,8.924,9.513,9.005,9.614,9.005"/>
			</defs>
			<clipPath id="SVGID_24_">
				<use xlink:href="#SVGID_23_"  overflow="visible"/>
			</clipPath>
			<rect x="4.431" y="2.929" clip-path="url(#SVGID_24_)" fill="#C8C7C7" width="15.662" height="11.076"/>
		</g>
	</g>
	<g>
		<g>
			<defs>
				<path id="SVGID_25_" d="M3.472,17.518C1.758,17.518,0,20.349,0,22.83c0,2.48,1.554,3.877,3.472,3.877s3.472-1.396,3.472-3.877
					C6.943,20.349,5.186,17.518,3.472,17.518"/>
			</defs>
			<clipPath id="SVGID_26_">
				<use xlink:href="#SVGID_25_"  overflow="visible"/>
			</clipPath>
			<rect x="-5" y="12.518" clip-path="url(#SVGID_26_)" fill="#C8C7C7" width="16.943" height="19.189"/>
		</g>
	</g>
	<g>
		<g>
			<defs>
				<path id="SVGID_27_" d="M16.548,15.824v-0.141c-0.014,0-0.027,0-0.041,0c-0.287-2.305-2.047-3.265-2.047-6.119h-4.398
					c0,2.91-1.824,3.855-2.057,6.26H16.548"/>
			</defs>
			<clipPath id="SVGID_28_">
				<use xlink:href="#SVGID_27_"  overflow="visible"/>
			</clipPath>
			<rect x="3.005" y="4.564" clip-path="url(#SVGID_28_)" fill="#C8C7C7" width="18.543" height="16.26"/>
		</g>
	</g>
	<g>
		<g>
			<defs>
				<path id="SVGID_29_" d="M7.975,16.356v8.696c0,0.89,0.735,1.609,1.644,1.609h5.285c0.908,0,1.645-0.72,1.645-1.609v-8.696H7.975
					"/>
			</defs>
			<clipPath id="SVGID_30_">
				<use xlink:href="#SVGID_29_"  overflow="visible"/>
			</clipPath>
			<rect x="2.975" y="11.356" clip-path="url(#SVGID_30_)" fill="#C8C7C7" width="18.573" height="20.306"/>
		</g>
	</g>
	<g>
		<g>
			<defs>
				<path id="SVGID_31_" d="M36.04,11.448c0.002-0.001,0.004-0.003,0.006-0.004c0,0.01-0.002,0.019-0.002,0.029h-0.008
					c0-0.011,0-0.02-0.001-0.029C36.037,11.445,36.038,11.447,36.04,11.448z M37.13,11.56c1.631,0,2.953-1.313,2.953-2.935
					l-1.098-0.008c-0.646,0-1.242,0.21-1.729,0.561C37.272,9.04,37.28,8.9,37.28,8.758c0-1.153-0.5-2.158-1.24-2.69
					c-0.74,0.532-1.239,1.537-1.239,2.69c0,0.143,0.008,0.282,0.022,0.42c-0.486-0.351-1.081-0.561-1.729-0.561l-1.098,0.008
					c0,1.621,1.322,2.935,2.953,2.935h0.789v0.853h-0.828c-1.638,0-2.829,1.506-2.488,3.066h3.859c0.1,0,0.18,0.081,0.18,0.18
					c0,0.1-0.08,0.18-0.18,0.18h-3.766l0.525,1.811h3.24c0.1,0,0.18,0.08,0.18,0.18s-0.08,0.18-0.18,0.18h-3.135l0.525,1.811h2.609
					c0.1,0,0.18,0.081,0.18,0.18c0,0.1-0.08,0.181-0.18,0.181h-2.504l1.156,3.979h1.348c0.1,0,0.18,0.081,0.18,0.18
					c0,0.1-0.08,0.181-0.18,0.181h-1.243l0.558,1.921c0.129,0.441,0.758,0.441,0.887,0l1.189-4.091h-1.391
					c-0.101,0-0.182-0.081-0.182-0.181c0-0.099,0.081-0.18,0.182-0.18h1.494l1.843-6.339c0.471-1.62-0.753-3.237-2.448-3.237h-0.829
					V11.56H37.13z"/>
			</defs>
			<clipPath id="SVGID_32_">
				<use xlink:href="#SVGID_31_"  overflow="visible"/>
			</clipPath>
			<rect x="26.997" y="1.067" clip-path="url(#SVGID_32_)" fill="#C8C7C7" width="18.086" height="30.703"/>
		</g>
	</g>
	<g>
		<g>
			<defs>
				<path id="SVGID_33_" d="M26.989,19.44c-0.709,0-1.311-0.466-1.512-1.105h0.34c0.158,0.391,0.509,0.685,0.936,0.766
					c0.076,0.015,0.155,0.023,0.236,0.023s0.16-0.009,0.236-0.023c0.427-0.081,0.777-0.375,0.936-0.766h0.34
					C28.3,18.975,27.698,19.44,26.989,19.44z M32.155,20.309c0-1.723-1.404-3.12-3.139-3.12c-0.773,0-1.48,0.279-2.027,0.741
					c-0.547-0.462-1.254-0.741-2.027-0.741c-1.734,0-3.139,1.397-3.139,3.12h-0.002c0,1.421,1.287,4.803,1.287,4.803l0.002-0.001
					c0.233,0.828,0.996,1.435,1.902,1.435c1.092,0,1.977-0.879,1.977-1.965h-0.001h0.001l0,0l0,0c0,1.086,0.885,1.965,1.977,1.965
					c0.906,0,1.668-0.606,1.902-1.435l0.002,0.001c0,0,1.287-3.382,1.287-4.803H32.155z"/>
			</defs>
			<clipPath id="SVGID_34_">
				<use xlink:href="#SVGID_33_"  overflow="visible"/>
			</clipPath>
			<rect x="16.821" y="12.188" clip-path="url(#SVGID_34_)" fill="#C8C7C7" width="20.336" height="19.356"/>
		</g>
	</g>
	<g>
		<g>
			<defs>
				<path id="SVGID_35_" d="M27.235,17.331v-2.257h-0.474v1.591l-0.688-0.684c0.151-0.834-0.104-1.677-0.711-2.279
					c-0.488-0.485-1.139-0.753-1.831-0.753c-0.203,0-0.408,0.024-0.607,0.071l-0.133,0.031l-0.032,0.134
					c-0.212,0.88,0.045,1.786,0.687,2.423c0.488,0.485,1.138,0.753,1.83,0.753c0.155,0,0.311-0.019,0.463-0.046l1.022,1.016H27.235"
					/>
			</defs>
			<clipPath id="SVGID_36_">
				<use xlink:href="#SVGID_35_"  overflow="visible"/>
			</clipPath>
			<rect x="17.687" y="7.949" clip-path="url(#SVGID_36_)" fill="#C8C7C7" width="14.549" height="14.382"/>
		</g>
	</g>
</g>
</svg>
