<?xml version="1.0" encoding="utf-8"?>
<!-- Generator: Adobe Illustrator 18.1.1, SVG Export Plug-In . SVG Version: 6.00 Build 0)  -->
<svg version="1.1" id="Layer_1" xmlns="http://www.w3.org/2000/svg" xmlns:xlink="http://www.w3.org/1999/xlink" x="0px" y="0px"
	 viewBox="0 0 137.9 149.5" enable-background="new 0 0 137.9 149.5" xml:space="preserve">
<g>
	<g>
		<g>
			
				<path fill="#FFFFFF" stroke="#FFFFFF" stroke-width="3" stroke-linecap="round" stroke-linejoin="round" stroke-miterlimit="10" d="
				M118.4,62.1l0.6,5.5l1.3-0.1c0.3,0,0.6,0.2,0.7,0.6c0,0.3-0.2,0.6-0.6,0.7l-1.3,0.1l0.2,1.8l-4.2,0.4c-0.1-0.6-0.2-1.2-0.4-1.8
				l-0.1,0c-0.3,0-0.6-0.2-0.7-0.6c0-0.3,0.1-0.5,0.3-0.6c-1.4-2.6-4.3-4.2-7.5-3.9c-4.2,0.4-7.3,4.1-6.8,8.4L76.7,75l-1.6-16
				l-0.3-2.5L74.2,50c-0.1-1.2,0.7-2.2,1.9-2.3l9.6-1c2.2-0.2,4.3,0.5,5.9,1.9l7.9,7.8l14.8-1.5c1.8-0.2,3.3,1,3.5,2.8L118.4,62.1z"
				/>
		</g>
		<g>
			<g>
				<g>
					<path fill="none" d="M41.7,50.4C41.7,50.4,41.7,50.4,41.7,50.4L41.7,50.4L41.7,50.4C41.7,50.4,41.7,50.4,41.7,50.4L41.7,50.4z"
						/>
					<path fill="#DD7726" d="M40.5,50.8l0.9-0.1l0.2,0.9l0.7-0.1l-0.2-0.9l0.9-0.1c1.8-0.3,3-2,2.7-3.8l-1.2,0.2
						c-0.7,0.1-1.3,0.5-1.8,0.9c0-0.2,0-0.3-0.1-0.5c-0.2-1.3-1-2.3-1.9-2.7c-0.7,0.7-1.1,1.9-0.8,3.2c0,0.2,0.1,0.3,0.1,0.5
						c-0.6-0.3-1.3-0.4-2-0.3l-1.2,0.2C37.1,49.9,38.7,51.1,40.5,50.8z M41.7,50.4L41.7,50.4C41.7,50.4,41.7,50.4,41.7,50.4
						L41.7,50.4C41.7,50.4,41.7,50.4,41.7,50.4L41.7,50.4z"/>
					<path fill="#DD7726" d="M42.7,51.8l-1.5,0.3c-2,0.4-3.3,2.4-2.8,4.3l8.4-1.1C46.9,53.2,44.9,51.5,42.7,51.8z"/>
					<path fill="#DD7726" d="M39.9,59.5l6.6-1.6l0.2-2.2L38.6,57c0,0,0,0.1,0,0.1L39.9,59.5z"/>
					<polygon fill="#DD7726" points="46.3,58.6 39.9,59.9 40.6,61.3 46,60.7 					"/>
					<path fill="#98B057" d="M49.7,48.6l0.6-1c0,0,0,0,0,0l-1-1.1l-0.8,1.4L49.7,48.6z"/>
					<path fill="#98B057" d="M48.3,47.7l0.8-1.4c0,0,0,0,0,0l-0.8-0.9c-0.1-0.1-0.2-0.2-0.3-0.2c-0.4-0.1-0.7,0.1-0.8,0.5l-0.3,1.2
						c0,0,0,0,0,0L48.3,47.7z"/>
					<polygon fill="#98B057" points="51,51.9 51.1,52.2 48.1,53 50.1,60.3 53.2,60 					"/>
					<path fill="#98B057" d="M51,51.9c0.9-1,0.9-2.6-0.1-3.7l-0.3-0.3l-1.5,2.6c0,0-0.1,0.1-0.1,0.1c0,0-0.1,0-0.1,0L46.3,49
						l-0.1,0.4c-0.2,0.9,0,1.8,0.7,2.5c0.3,0.3,0.7,0.6,1.1,0.7l0,0L51,51.9z"/>
					
						<rect x="48" y="48.5" transform="matrix(0.4967 -0.8679 0.8679 0.4967 -18.2042 67.0077)" fill="#98B057" width="1.3" height="1.3"/>
					<path fill="#98B057" d="M47.5,49.3l0.7-1.2l-1.4-0.8l-0.3,1.5c0,0,0,0,0,0L47.5,49.3z"/>
					
						<rect x="47.9" y="52.8" transform="matrix(-0.2623 -0.965 0.965 -0.2623 9.7191 113.1069)" fill="#EDEDED" width="0.4" height="0"/>
					<polygon fill="#EDEDED" points="51,51.9 48,52.7 48,52.7 48,52.7 48.1,53 51.1,52.2 					"/>
					
						<rect x="52.8" y="44.5" transform="matrix(0.4967 -0.8679 0.8679 0.4967 -12.2594 69.0729)" fill="#98B057" width="1.3" height="1.3"/>
					<path fill="#98B057" d="M55.7,47.8c0.9-1,0.9-2.6-0.1-3.7l-0.3-0.3l-1.5,2.6c0,0-0.1,0.1-0.1,0.1c0,0-0.1,0-0.1,0l-2.6-1.5
						L51,45.4c-0.2,0.9,0,1.8,0.7,2.5c0.3,0.3,0.7,0.6,1.1,0.7l0,0L55.7,47.8z"/>
					<path fill="#98B057" d="M56.3,53.1c0.2-0.2,0.4-0.4,0.6-0.6c0,0,0,0,0,0l-1.2-4.4l-2.9,0.8l0-0.1l1.7,6.2
						C55,54.3,55.7,53.7,56.3,53.1z"/>
					<path fill="#98B057" d="M53,43.6l0.8-1.4c0,0,0,0,0,0L53,41.3c-0.1-0.1-0.2-0.2-0.3-0.2c-0.4-0.1-0.7,0.1-0.8,0.5l-0.3,1.2
						c0,0,0,0,0,0L53,43.6z"/>
					<path fill="#98B057" d="M52.2,45.2l0.7-1.2l-1.4-0.8l-0.3,1.5c0,0,0,0,0,0L52.2,45.2z"/>
					<path fill="#98B057" d="M54.5,44.6l0.6-1c0,0,0,0,0,0l-1-1.1l-0.8,1.4L54.5,44.6z"/>
					<polygon fill="#EDEDED" points="52.8,48.6 52.9,48.8 52.8,48.6 					"/>
					<polygon fill="#EDEDED" points="55.8,48.1 55.7,47.8 55.8,48.1 					"/>
					<polygon fill="#EDEDED" points="55.8,48.1 55.7,47.8 52.8,48.6 52.8,48.6 52.8,48.6 52.9,48.8 52.9,48.9 					"/>
					<path fill="#98B057" d="M75.6,47c-0.7-0.7-1.8-0.8-2.6-0.3l0.4-1.3c0.1-0.4,0.2-0.9,0.1-1.4c-0.3-1.5-1.8-2.6-3.3-2.3
						c-1.5,0.3-2.6,1.8-2.3,3.3l0.3,1.6c-0.1-0.1-0.2-0.2-0.3-0.3c-0.9-0.7-2.2-0.6-3,0.3c-0.7,0.9-0.6,2.2,0.3,3l2.2,1.8
						c-0.5-0.1-1.1,0.1-1.4,0.5c-0.3,0.4-0.4,1-0.2,1.5c0.5,0.4,0.9,0.8,1.3,1.3l1.9,1.5c0.1,0.1,0.3,0.2,0.5,0.2l0.1-1.4l-1.8-1.7
						l0.3-0.4l1.5,1.4l0.2-3.4l-2.2-2.1l0.3-0.4l1.9,1.8l0.4-5l0.5,0l-0.4,5l2.1-1.5l0.3,0.4L70.3,51l-0.2,3.4l1.7-1.2l0.3,0.4
						l-2,1.4L70,56.5c0.2,0,0.3-0.1,0.5-0.1l3-1.8c0.1-0.1,0.2-0.1,0.3-0.2c0.6-0.6,0.6-1.6,0-2.2c-0.3-0.3-0.7-0.4-1.1-0.5l2.5-1.4
						c0.1-0.1,0.3-0.2,0.4-0.3C76.4,49.2,76.4,47.8,75.6,47z"/>
					<polygon fill="#98B057" points="69.5,56.6 69.5,56.5 69.5,56.5 					"/>
					
						<rect x="69" y="57.4" transform="matrix(-7.209066e-02 0.9974 -0.9974 -7.209066e-02 132.188 -8.1567)" fill="#98B057" width="1.8" height="0"/>
					<polygon fill="#98B057" points="69.5,56.6 69.3,58.4 69.8,58.3 70,56.5 69.5,56.5 					"/>
					<path fill="#E3A425" d="M66.4,58.6l1.4-0.1c0.1-0.5,0.1-1.1,0.1-1.6c-0.1-0.9-0.4-1.6-0.8-2.2l-0.8-0.6
						c-0.2-0.2-0.4-0.4-0.5-0.7c-0.5-0.4-1-0.8-1.6-1.1c1.1,1.7,1.9,3.1,2.2,5.8C66.4,58.3,66.4,58.5,66.4,58.6z"/>
					<path fill="#E3A425" d="M55.8,59.7l-0.1-0.3C55.8,59.5,55.8,59.6,55.8,59.7L55.8,59.7z"/>
					<path fill="#E3A425" d="M55.3,59.2c-0.1-0.6-0.1-1.1-0.1-1.5l-0.7-2.6c-0.6,0.9-1,2-0.9,3.3c0,0.5,0.2,1,0.4,1.5l1.4-0.1
						C55.4,59.6,55.3,59.4,55.3,59.2z"/>
					<path fill="#E3A425" d="M62,58.7c-0.2-2.4-1.1-6.1-2.1-9.3c-0.4,3.3-0.4,7.1-0.2,9.5c0,0.1,0,0.3,0,0.4l2.3-0.2
						C62.1,59,62.1,58.8,62,58.7z"/>
					<path fill="#E3A425" d="M58,51.6c-0.3,0.3-0.6,0.6-0.9,0.9l0.4,1.6C57.6,53.2,57.7,52.4,58,51.6z"/>
					<path fill="#E3A425" d="M58.9,59.4l0.5-0.1c0-0.1,0-0.3,0-0.4c-0.2-2.4-0.2-6.3,0.2-9.6c-0.3,0.6-0.6,1.1-1.1,1.6
						c-0.4,1.4-0.6,2.7-0.8,4L58.9,59.4z"/>
					<path fill="#E3A425" d="M62.5,59l1.7-0.2c0-0.2,0-0.3,0-0.5c-0.3-2.8-1.3-5.2-2.5-7.7c-0.5-0.4-1-0.9-1.4-1.4
						c1,3.2,1.9,7,2.1,9.4C62.4,58.8,62.4,58.9,62.5,59z"/>
					<path fill="#E3A425" d="M64.6,58.8l1.5-0.2c0-0.2,0-0.4,0-0.6c-0.3-2.6-1.1-3.9-2.2-5.7c-0.1-0.2-0.3-0.4-0.4-0.6
						c-0.4-0.2-0.8-0.5-1.2-0.7c1.1,2.3,2,4.6,2.2,7.2C64.6,58.5,64.6,58.7,64.6,58.8z"/>
					<path fill="#E3A425" d="M56.3,53.1c-0.7,0.6-1.3,1.3-1.8,2l0.7,2.6C55.3,55.9,55.8,54.6,56.3,53.1z"/>
					<path fill="#E3A425" d="M56.7,53.2c-0.7,1.9-1.3,3.4-1,6c0,0.1,0,0.2,0,0.3l0.1,0.3l1.5-0.1c0-0.2-0.1-0.3-0.1-0.5
						c-0.2-1.7-0.1-3.4,0.2-5L57,52.5c0,0,0,0,0,0C56.9,52.8,56.8,53,56.7,53.2z"/>
					<path fill="#E3A425" d="M57.7,59.5l1.2-0.1L57.7,55c-0.2,1.3-0.2,2.7-0.1,4.1C57.6,59.2,57.6,59.4,57.7,59.5z"/>
					<path fill="#E3A425" d="M67.1,54.7c-0.3-0.5-0.8-0.9-1.3-1.3c0.1,0.3,0.2,0.5,0.5,0.7L67.1,54.7z"/>
				</g>
				<g>
					
						<rect x="40.5" y="65.5" transform="matrix(0.1011 0.9949 -0.9949 0.1011 105.1179 18.9696)" fill="#B4B4B4" width="3.1" height="4.3"/>
					<path fill="#B4B4B4" d="M39.4,62.6l0.3,3.1l4.9-0.5l0.4,4.3L40.1,70l0.9,8.6l11.7-1.2c-0.4-4.3,2.6-7.9,6.8-8.4
						c4.2-0.4,7.9,2.5,8.4,6.8l8.2-0.8l-1.6-16L39.4,62.6z"/>
					<path fill="#B4B4B4" d="M113.7,58.8c-0.2,0-0.6,0-0.6,0.3l0.1,1c0.1,1.1,1.3,1.8,2.3,1.7l2.8-0.3l-0.3-3.1L113.7,58.8z"/>
					<path fill="#B4B4B4" d="M112.6,60.1l-0.1-1c-0.1-0.6,0.6-0.9,1.2-1l4.3-0.4c-0.3-1.8-1.7-2.9-3.5-2.8l-14.8,1.5l-7.9-7.8
						c-1.6-1.4-3.8-2.2-5.9-1.9l-9.6,1c-1.2,0.1-2,1.1-1.9,2.3l0.7,6.5l0.3,2.5l1.6,16l23.1-2.4c-0.4-4.3,2.6-7.9,6.8-8.4
						c4.2-0.4,7.9,2.5,8.4,6.8l4.2-0.4l-0.9-8.6l-2.8,0.3C114.2,62.5,112.7,61.5,112.6,60.1z"/>
				</g>
				<circle fill="#9B9B9B" cx="60.3" cy="76.5" r="5.8"/>
				<path fill="#FFFFFF" d="M87.2,49.7l-7.6,0.8c-0.6,0.1-1,0.8-0.9,1.3l0.7,6.8l16.5-1.7l-5.1-5.6C89.9,50.3,88.5,49.6,87.2,49.7z"
					/>
				<path fill="#9B9B9B" d="M120.3,68.7l-5.8,0.6c-0.3,0-0.6-0.2-0.7-0.6c0-0.3,0.2-0.6,0.6-0.7l5.8-0.6c0.3,0,0.6,0.2,0.7,0.6
					S120.7,68.7,120.3,68.7z"/>
				<path fill="#9B9B9B" d="M51,75.8l-11.5,1.2c-0.3,0-0.6-0.2-0.7-0.6c0-0.3,0.2-0.6,0.6-0.7l11.5-1.2c0.3,0,0.6,0.2,0.7,0.6
					C51.6,75.4,51.3,75.7,51,75.8z"/>
				
					<rect x="79.7" y="60.8" transform="matrix(0.9949 -0.1011 0.1011 0.9949 -5.8228 8.5984)" fill="#9B9B9B" width="4.3" height="1.9"/>
				<path fill="#EDEDED" d="M60.6,79.2c-1.5,0.1-2.8-0.9-2.9-2.4c-0.1-1.5,0.9-2.8,2.4-2.9s2.8,0.9,2.9,2.4S62.1,79,60.6,79.2z
					 M60.1,74.7c-1,0.1-1.7,1-1.6,2c0.1,1,1,1.7,2,1.6c1-0.1,1.7-1,1.6-2C62,75.3,61.1,74.6,60.1,74.7z"/>
				<circle fill="#9B9B9B" cx="107.5" cy="71.7" r="5.8"/>
				<path fill="#EDEDED" d="M107.7,74.4c-1.5,0.1-2.8-0.9-2.9-2.4s0.9-2.8,2.4-2.9c1.5-0.1,2.8,0.9,2.9,2.4
					C110.3,72.9,109.2,74.2,107.7,74.4z M107.3,69.9c-1,0.1-1.7,1-1.6,2c0.1,1,1,1.7,2,1.6c1-0.1,1.7-1,1.6-2
					C109.1,70.5,108.2,69.8,107.3,69.9z"/>
			</g>
			<g>
				<path fill="#E3A425" d="M15.9,80.3c-0.7,0-1.3-0.5-1.4-1.2c0-0.4,0.1-0.7,0.3-1s0.6-0.5,0.9-0.5l17.7-1.9c0,0,0.1,0,0.1,0
					c0.7,0,1.3,0.5,1.4,1.2c0,0.4-0.1,0.7-0.3,1c-0.2,0.3-0.6,0.5-0.9,0.5l-17.7,1.9C16.1,80.3,16,80.3,15.9,80.3z"/>
				<path fill="#FFFFFF" d="M33.6,76.4c0.3,0,0.6,0.2,0.6,0.6c0,0.3-0.2,0.6-0.6,0.7L16,79.6c0,0,0,0-0.1,0c-0.3,0-0.6-0.2-0.6-0.6
					c0-0.3,0.2-0.6,0.6-0.7L33.6,76.4C33.6,76.4,33.6,76.4,33.6,76.4 M33.6,74.9c-0.1,0-0.1,0-0.2,0l-17.7,1.9
					c-1.2,0.1-2,1.2-1.9,2.3c0.1,1.1,1,1.9,2.1,1.9c0.1,0,0.1,0,0.2,0l17.7-1.9c1.2-0.1,2-1.2,1.9-2.3
					C35.6,75.7,34.7,74.9,33.6,74.9L33.6,74.9z"/>
			</g>
			<g>
				<path fill="#E3A425" d="M16.8,70.6c-0.7,0-1.3-0.5-1.4-1.2c-0.1-0.8,0.5-1.4,1.2-1.5l17.7-1.9c0,0,0.1,0,0.1,0
					c0.7,0,1.3,0.5,1.4,1.2c0.1,0.8-0.5,1.4-1.2,1.5L17,70.6C16.9,70.6,16.9,70.6,16.8,70.6z"/>
				<path fill="#FFFFFF" d="M34.5,66.7c0.3,0,0.6,0.2,0.6,0.6c0,0.3-0.2,0.6-0.6,0.7l-17.7,1.9c0,0,0,0-0.1,0
					c-0.3,0-0.6-0.2-0.6-0.6c0-0.3,0.2-0.6,0.6-0.7L34.5,66.7C34.5,66.7,34.5,66.7,34.5,66.7 M34.5,65.2c-0.1,0-0.1,0-0.2,0
					l-17.7,1.9c-1.2,0.1-2,1.2-1.9,2.3c0.1,1.1,1,1.9,2.1,1.9c0.1,0,0.1,0,0.2,0l17.7-1.9c0.6-0.1,1.1-0.3,1.4-0.8
					c0.4-0.4,0.5-1,0.5-1.6C36.5,66,35.6,65.2,34.5,65.2L34.5,65.2z"/>
			</g>
			<g>
				<path fill="#E3A425" d="M22.1,60.2c-0.7,0-1.3-0.5-1.4-1.2c-0.1-0.8,0.5-1.4,1.2-1.5L34.7,56c0,0,0.1,0,0.1,0
					c0.7,0,1.3,0.5,1.4,1.2c0,0.4-0.1,0.7-0.3,1c-0.2,0.3-0.6,0.5-0.9,0.5l-12.8,1.4C22.2,60.2,22.1,60.2,22.1,60.2z"/>
				<path fill="#FFFFFF" d="M34.9,56.8c0.3,0,0.6,0.2,0.6,0.6c0,0.3-0.2,0.6-0.6,0.7l-12.8,1.4c0,0,0,0-0.1,0
					c-0.3,0-0.6-0.2-0.6-0.6c0-0.3,0.2-0.6,0.6-0.7L34.9,56.8C34.8,56.8,34.9,56.8,34.9,56.8 M34.9,55.3c-0.1,0-0.1,0-0.2,0
					l-12.8,1.4c-0.5,0.1-1.1,0.3-1.4,0.8c-0.4,0.4-0.5,1-0.5,1.6c0.1,1.1,1,1.9,2.1,1.9c0.1,0,0.1,0,0.2,0l12.8-1.4
					c1.1-0.1,2-1.2,1.9-2.3C36.9,56.1,36,55.3,34.9,55.3L34.9,55.3z"/>
			</g>
		</g>
	</g>
</g>
</svg>
