<svg id="Navigation" xmlns="http://www.w3.org/2000/svg" xmlns:xlink="http://www.w3.org/1999/xlink" viewBox="0 0 34.1 34.35"><defs><style>.cls-1,.cls-2,.cls-3{fill:#fff;}.cls-1{clip-rule:evenodd;}.cls-3{fill-rule:evenodd;}.cls-4{clip-path:url(#clip-path);}.cls-5{clip-path:url(#clip-path-2);}.cls-6{clip-path:url(#clip-path-3);}</style><clipPath id="clip-path" transform="translate(0.48 0.04)"><path class="cls-1" d="M10.44,28.61a1,1,0,1,0-1-1A1,1,0,0,0,10.44,28.61Zm4-.43a1,1,0,1,0-1-1A1,1,0,0,0,14.48,28.18ZM12,25a1,1,0,1,0-1-1A1,1,0,0,0,12,25Zm4-1a1,1,0,1,0-1-1A1,1,0,0,0,16,24Zm4.23-1c0-4.85-2.77-7.14-8-7.38,0,0-2.45.9-2.5,0.88l-0.11,0a2.34,2.34,0,0,0-.81-0.85c-5,0-7.37,3-7.37,8.05s4.64,8.72,10.05,8.72C16.56,32.35,20.25,28,20.25,23Z"/></clipPath><clipPath id="clip-path-2" transform="translate(0.48 0.04)"><path class="cls-2" d="M7.32,14.54a8.8,8.8,0,0,0-3.38,1.07A8.71,8.71,0,0,1,2.78,13C2.3,11,4.21,9.32,5.44,7.88l0.2-.23,0.28-.12L6,7.5a8.37,8.37,0,0,0-2.16,0l-0.32,0A1.34,1.34,0,0,1,3,4.9l0.54-.08A10.64,10.64,0,0,1,8,5.22L8,5,8.1,4.69l0.18-.23C9.62,2.68,12.19,1.66,13.35,2a9.59,9.59,0,0,1,4.93,3.76l0.34,0.53L19.5,7.69,20,8.47a1,1,0,0,0-.16.37,2.37,2.37,0,0,1-.23.46,8.36,8.36,0,0,1-1.54,1.8A1,1,0,0,0,18,12.52c0.38,0.41.62,0,1-.33A10.35,10.35,0,0,0,20.93,10l1.27,2,0.07,0.11,0.31,0.49a1,1,0,0,0-.14.34,2.38,2.38,0,0,1-.23.46,8.36,8.36,0,0,1-1.54,1.8,1,1,0,0,0-.06,1.42c0.38,0.41.62,0,1-.33A10.4,10.4,0,0,0,23.53,14l0.8,1.25c0.28,0.44.57,0.9,0.85,1.38a1,1,0,0,0-.12.31,2.37,2.37,0,0,1-.23.46,8.36,8.36,0,0,1-1.54,1.8,1,1,0,0,0-.06,1.42c0.38,0.41.62,0,1-.33a10.64,10.64,0,0,0,1.82-2.1c2.59,4.66,4.95,10.18,5.22,11.88,0.45,2.36.54,1.17,0,1.72s-1.39.05-1.71,0a4.3,4.3,0,0,1-1-.31C28,31.26,27.13,30.83,26,30.23c-1.41-.76-3.2-1.78-5.31-3a11.48,11.48,0,0,0,.68-3.9c0-5.28-3-8.15-8.1-8.75A7.66,7.66,0,0,0,13,13.31a5.29,5.29,0,0,0-.55-1.22A2.87,2.87,0,0,0,7.32,14.54Z"/></clipPath><clipPath id="clip-path-3" transform="translate(0.48 0.04)"><path class="cls-1" d="M10.23,15.06c0.15,0.45-.54.54-0.9,1.08a3.17,3.17,0,0,0-.13,1,1.34,1.34,0,1,0,2.66.35,8.4,8.4,0,0,0-.25-3.66,1.07,1.07,0,0,0-.81-1,2.32,2.32,0,0,0-1.46-.41,1,1,0,0,0-.39.74C8.87,13.79,10.16,14.85,10.23,15.06Z"/></clipPath></defs><title>Market</title><path class="cls-3" d="M10.44,28.61a1,1,0,1,0-1-1A1,1,0,0,0,10.44,28.61Zm4-.43a1,1,0,1,0-1-1A1,1,0,0,0,14.48,28.18ZM12,25a1,1,0,1,0-1-1A1,1,0,0,0,12,25Zm4-1a1,1,0,1,0-1-1A1,1,0,0,0,16,24Zm4.23-1c0-4.85-2.77-7.14-8-7.38,0,0-2.45.9-2.5,0.88l-0.11,0a2.34,2.34,0,0,0-.81-0.85c-5,0-7.37,3-7.37,8.05s4.64,8.72,10.05,8.72C16.56,32.35,20.25,28,20.25,23Z" transform="translate(0.48 0.04)"/><g class="cls-4"><rect class="cls-2" y="13.65" width="22.69" height="20.7"/></g><path class="cls-2" d="M7.32,14.54a8.8,8.8,0,0,0-3.38,1.07A8.71,8.71,0,0,1,2.78,13C2.3,11,4.21,9.32,5.44,7.88l0.2-.23,0.28-.12L6,7.5a8.37,8.37,0,0,0-2.16,0l-0.32,0A1.34,1.34,0,0,1,3,4.9l0.54-.08A10.64,10.64,0,0,1,8,5.22L8,5,8.1,4.69l0.18-.23C9.62,2.68,12.19,1.66,13.35,2a9.59,9.59,0,0,1,4.93,3.76l0.34,0.53L19.5,7.69,20,8.47a1,1,0,0,0-.16.37,2.37,2.37,0,0,1-.23.46,8.36,8.36,0,0,1-1.54,1.8A1,1,0,0,0,18,12.52c0.38,0.41.62,0,1-.33A10.35,10.35,0,0,0,20.93,10l1.27,2,0.07,0.11,0.31,0.49a1,1,0,0,0-.14.34,2.38,2.38,0,0,1-.23.46,8.36,8.36,0,0,1-1.54,1.8,1,1,0,0,0-.06,1.42c0.38,0.41.62,0,1-.33A10.4,10.4,0,0,0,23.53,14l0.8,1.25c0.28,0.44.57,0.9,0.85,1.38a1,1,0,0,0-.12.31,2.37,2.37,0,0,1-.23.46,8.36,8.36,0,0,1-1.54,1.8,1,1,0,0,0-.06,1.42c0.38,0.41.62,0,1-.33a10.64,10.64,0,0,0,1.82-2.1c2.59,4.66,4.95,10.18,5.22,11.88,0.45,2.36.54,1.17,0,1.72s-1.39.05-1.71,0a4.3,4.3,0,0,1-1-.31C28,31.26,27.13,30.83,26,30.23c-1.41-.76-3.2-1.78-5.31-3a11.48,11.48,0,0,0,.68-3.9c0-5.28-3-8.15-8.1-8.75A7.66,7.66,0,0,0,13,13.31a5.29,5.29,0,0,0-.55-1.22A2.87,2.87,0,0,0,7.32,14.54Z" transform="translate(0.48 0.04)"/><g class="cls-5"><rect class="cls-2" x="0.4" width="33.7" height="34.08"/></g><path class="cls-3" d="M10.23,15.06c0.15,0.45-.54.54-0.9,1.08a3.17,3.17,0,0,0-.13,1,1.34,1.34,0,1,0,2.66.35,8.4,8.4,0,0,0-.25-3.66,1.07,1.07,0,0,0-.81-1,2.32,2.32,0,0,0-1.46-.41,1,1,0,0,0-.39.74C8.87,13.79,10.16,14.85,10.23,15.06Z" transform="translate(0.48 0.04)"/><g class="cls-6"><rect class="cls-2" x="7.45" y="10.55" width="6.93" height="10.13"/></g></svg>