<svg id="Navigation" xmlns="http://www.w3.org/2000/svg" xmlns:xlink="http://www.w3.org/1999/xlink" viewBox="0 0 32.51 34.57"><defs><style>.cls-1,.cls-2,.cls-4{fill:#fff;}.cls-1{clip-rule:evenodd;}.cls-2{fill-rule:evenodd;}.cls-3{clip-path:url(#clip-path);}</style><clipPath id="clip-path" transform="translate(2.83 -1.57)"><path class="cls-1" d="M24.4,12.08a1.79,1.79,0,0,1,1.83,2,144,144,0,0,0-1.13,17.21,1.56,1.56,0,0,1-1.38,1.38C15.66,32.52,11.63,31.92,3.78,32A2.11,2.11,0,0,1,1.71,30,151.1,151.1,0,0,0,.62,14.12a1.79,1.79,0,0,1,1.83-2s6.52,0,11,0C17.13,12.09,24.4,12.08,24.4,12.08Z"/></clipPath></defs><title>My_Bag</title><path class="cls-2" d="M24.4,12.08a1.79,1.79,0,0,1,1.83,2,144,144,0,0,0-1.13,17.21,1.56,1.56,0,0,1-1.38,1.38C15.66,32.52,11.63,31.92,3.78,32A2.11,2.11,0,0,1,1.71,30,151.1,151.1,0,0,0,.62,14.12a1.79,1.79,0,0,1,1.83-2s6.52,0,11,0C17.13,12.09,24.4,12.08,24.4,12.08Z" transform="translate(2.83 -1.57)"/><g class="cls-3"><rect class="cls-4" y="7.07" width="32.51" height="27.51"/></g><polygon class="cls-4" points="19.42 0 13.16 0 10.41 3.08 22.17 3.08 19.42 0"/><rect class="cls-4" x="10.41" y="3.84" width="2.77" height="5.34"/><rect class="cls-4" x="19.4" y="3.84" width="2.77" height="5.34"/></svg>