<?xml version="1.0" encoding="utf-8"?>
<!-- Generator: Adobe Illustrator 18.1.1, SVG Export Plug-In . SVG Version: 6.00 Build 0)  -->
<svg version="1.1" id="Layer_1" xmlns="http://www.w3.org/2000/svg" xmlns:xlink="http://www.w3.org/1999/xlink" x="0px" y="0px"
	 viewBox="0 0 169.5 144.8" enable-background="new 0 0 169.5 144.8" xml:space="preserve">
<g>
	<g>
		<polygon fill="#EEECED" points="169.5,118.7 48,118.4 48,130.7 169.3,130.7 		"/>
	</g>
	<g>
		<polygon fill="#EEECED" points="0.4,130.6 45.2,130.6 44.8,117.9 0.4,117.9 		"/>
	</g>
	<g>
		<g>
			<g>
				<path fill-rule="evenodd" clip-rule="evenodd" fill="#EEECED" d="M32.5,91.8L32.5,91.8c2.9,0,5.3-2.4,5.3-5.3l0,0l-4.5,0l0,0
					c-2.9,0-5.3,2.4-5.3,5.3l0,0L32.5,91.8z"/>
			</g>
			<g>
				<path fill-rule="evenodd" clip-rule="evenodd" fill="#EEECED" d="M21.2,97.9L21.2,97.9c-2.9,0-5.3-2.4-5.3-5.3l0,0l6.8,0l0,0
					c2.9,0,5.3,2.4,5.3,5.3l0,0L21.2,97.9z"/>
			</g>
			<g>
				<path fill-rule="evenodd" clip-rule="evenodd" fill="#EEECED" d="M34.8,103.8L34.8,103.8c2.9,0,5.3-2.4,5.3-5.3l0,0l-6.8,0l0,0
					c-2.9,0-5.3,2.4-5.3,5.3l0,0L34.8,103.8z"/>
			</g>
			<g>
				<rect x="27.5" y="72.8" fill="#EEECED" width="1" height="38.9"/>
			</g>
		</g>
		<g>
			<g>
				<path fill-rule="evenodd" clip-rule="evenodd" fill="#EEECED" d="M23.9,72.8L23.9,72.8c-2.9,0-5.3-2.4-5.3-5.3l0,0l4.5,0l0,0
					c2.9,0,5.3,2.4,5.3,5.3l0,0L23.9,72.8z"/>
			</g>
			<g>
				<path fill-rule="evenodd" clip-rule="evenodd" fill="#EEECED" d="M34.8,78.9L34.8,78.9c2.9,0,5.3-2.4,5.3-5.3l0,0l-6.8,0l0,0
					c-2.9,0-5.3,2.4-5.3,5.3l0,0L34.8,78.9z"/>
			</g>
			<g>
				<path fill-rule="evenodd" clip-rule="evenodd" fill="#EEECED" d="M21.2,84.7L21.2,84.7c-2.9,0-5.3-2.4-5.3-5.3l0,0l6.8,0l0,0
					c2.9,0,5.3,2.4,5.3,5.3l0,0L21.2,84.7z"/>
			</g>
			<g>
				<line fill-rule="evenodd" clip-rule="evenodd" fill="#EEECED" x1="28" y1="72.8" x2="28" y2="92.7"/>
			</g>
		</g>
	</g>
	<g>
		<g>
			<g>
				<path fill-rule="evenodd" clip-rule="evenodd" fill="#EEECED" d="M57.7,91.9L57.7,91.9c2.9,0,5.3-2.4,5.3-5.3l0,0l-4.5,0l0,0
					c-2.9,0-5.3,2.4-5.3,5.3l0,0L57.7,91.9z"/>
			</g>
			<g>
				<path fill-rule="evenodd" clip-rule="evenodd" fill="#EEECED" d="M46.8,97.9L46.8,97.9c-2.9,0-5.3-2.4-5.3-5.3l0,0l6.8,0l0,0
					c2.9,0,5.3,2.4,5.3,5.3l0,0L46.8,97.9z"/>
			</g>
			<g>
				<path fill-rule="evenodd" clip-rule="evenodd" fill="#EEECED" d="M60.5,103.8L60.5,103.8c2.9,0,5.3-2.4,5.3-5.3l0,0l-6.8,0l0,0
					c-2.9,0-5.3,2.4-5.3,5.3l0,0L60.5,103.8z"/>
			</g>
			<g>
				<rect x="53.2" y="91.8" fill="#EEECED" width="1" height="19.9"/>
			</g>
		</g>
	</g>
	<g>
		<polygon fill="#EEECED" points="99.7,133.9 0,133.4 0,144.8 99,144.8 		"/>
	</g>
	<g>
		<polygon fill="#EEECED" points="169.2,133.6 104.5,133.6 104.5,144.6 169.2,143.9 		"/>
	</g>
	<g>
		<path fill="#EEECED" d="M138.1,60.3l-27.6,0.9l-0.6,26.7C124.9,87.3,137.5,75.3,138.1,60.3z"/>
	</g>
	<g>
		<path fill="#EEECED" d="M108.4,97.7V59.9L71,60.3C71.6,80.7,88.1,97.2,108.4,97.7z"/>
	</g>
	<g>
		<path fill="#EEECED" d="M129.7,29.3c-16.1-0.3-29.5,12.3-30.4,28.2l59.6,1.1C158.8,42.7,145.8,29.6,129.7,29.3z"/>
	</g>
	<g>
		<polygon fill="#EEECED" points="67.8,25.7 75.2,30.8 70.4,37.2 76.4,36.7 78.5,25.4 78.5,24.8 		"/>
	</g>
	<g>
		<path fill="#EEECED" d="M78.8,33.3L78.8,33.3L78.8,33.3v3.1v1v1h-1.4l0,0l0,0l-5.2,19.6H97l-0.3-33l-15.6-0.3L78.8,33.3z
			 M85.5,28.2c1,0,1.8,0.8,1.8,1.8c0,1-0.8,1.8-1.8,1.8c-1,0-1.8-0.8-1.8-1.8C83.8,29,84.6,28.2,85.5,28.2z"/>
	</g>
	<g>
		<polygon fill="#EEECED" points="78.8,33.3 78,36.5 78.8,36.5 		"/>
	</g>
	<g>
		<rect x="78.8" y="33.3" fill="#EEECED" width="0" height="3.1"/>
	</g>
	<g>
		<polygon fill="#EEECED" points="78.8,37.5 77.7,37.5 77.4,38.5 78.8,38.5 		"/>
	</g>
	<g>
		<polygon fill="#EEECED" points="78.8,38.5 78.8,37.5 78.8,37.5 78.8,38.5 77.4,38.5 77.4,38.5 		"/>
	</g>
	<g>
		<polygon fill="#EEECED" points="78.8,36.5 78.8,36.5 78,36.5 77.7,37.5 78.8,37.5 		"/>
	</g>
	<g>
		<polygon fill="#EEECED" points="78.8,36.5 78.8,37.5 78.8,37.5 78.8,36.5 78.8,36.5 		"/>
	</g>
	<g>
		<polygon fill="#EEECED" points="108.4,100.5 96.4,112.5 109.2,112.5 		"/>
	</g>
	<g>
		<path fill="#EEECED" d="M105.6,13.9l-12.5,0.5c-4.9,0.2-8.7,4-9.1,8.8l12.5-0.5C101.4,22.5,105.3,18.6,105.6,13.9z"/>
	</g>
	<g>
		<path fill="#EEECED" d="M64.1,48.6c0,2.2,1.8,4,4,4.1l0.1,0c1.8,0,3.5-1.3,4-3l0.3-1.2l0.1,0l1.8-6l-6.2,1.8l0,0l-1.1,0.3
			C65.4,45.1,64.1,46.7,64.1,48.6z"/>
	</g>
	<g>
		<g>
			<polygon fill="#EEECED" points="53.7,0 33.6,0.8 54.5,20.1 			"/>
		</g>
	</g>
</g>
</svg>
