<?xml version="1.0" encoding="utf-8"?>
<!-- Generator: Adobe Illustrator 18.1.1, SVG Export Plug-In . SVG Version: 6.00 Build 0)  -->
<svg version="1.1" id="Layer_1" xmlns="http://www.w3.org/2000/svg" xmlns:xlink="http://www.w3.org/1999/xlink" x="0px" y="0px"
	 viewBox="0 0 23.4 23.4" enable-background="new 0 0 23.4 23.4" xml:space="preserve">
<path fill="#FFFFFF" d="M10,8.3l-9,9c0,0,0,0,0,0c-1.4,1.4-1.4,3.7,0,5.1c1.4,1.4,3.7,1.4,5.1,0l9-9c2.2,0.5,4.6-0.1,6.3-1.8
	c2-2,2.5-4.8,1.5-7.3l-4.7,4.7c-0.3,0.3-0.7,0.3-0.9,0l-2.9-2.9c-0.3-0.3-0.3-0.7,0-0.9l4.7-4.7c-2.4-1-5.3-0.5-7.3,1.5
	C10.1,3.7,9.5,6.1,10,8.3z M2.3,18.5c0.7-0.7,1.8-0.7,2.5,0c0.7,0.7,0.7,1.8,0,2.5c-0.7,0.7-1.8,0.7-2.5,0
	C1.6,20.4,1.6,19.2,2.3,18.5z"/>
</svg>
