<?xml version="1.0" encoding="utf-8"?>
<!-- Generator: Adobe Illustrator 19.1.0, SVG Export Plug-In . SVG Version: 6.00 Build 0)  -->
<svg version="1.1" xmlns="http://www.w3.org/2000/svg" xmlns:xlink="http://www.w3.org/1999/xlink" x="0px" y="0px"
	 viewBox="0 0 51 50" style="enable-background:new 0 0 51 50;" xml:space="preserve">
<style type="text/css">
	.st0{fill:#FFFFFF;}
</style>
<g id="Layer_1">
</g>
<g id="Product_Cards">
	<path class="st0" d="M34.5,6.9H17.2c-0.8,0-1.5,0.7-1.5,1.5v33c0,0.8,0.7,1.5,1.5,1.5h17.3c0.8,0,1.5-0.7,1.5-1.5v-33
		C36,7.6,35.4,6.9,34.5,6.9z M23.5,9H28c0.4,0,0.6,0.3,0.6,0.6c0,0.4-0.3,0.6-0.6,0.6h-4.5c-0.4,0-0.6-0.3-0.6-0.6
		C22.9,9.3,23.1,9,23.5,9z M25.9,40.5c-0.9,0-1.6-0.7-1.6-1.6c0-0.9,0.7-1.6,1.6-1.6s1.6,0.7,1.6,1.6C27.5,39.8,26.8,40.5,25.9,40.5
		z M35,35.6H16.7V12.3H35V35.6z"/>
</g>
</svg>
