<?xml version="1.0" encoding="utf-8"?>
<!-- Generator: Adobe Illustrator 18.1.1, SVG Export Plug-In . SVG Version: 6.00 Build 0)  -->
<svg version="1.1" id="Layer_1" xmlns="http://www.w3.org/2000/svg" xmlns:xlink="http://www.w3.org/1999/xlink" x="0px" y="0px"
	 viewBox="0 0 34 36" enable-background="new 0 0 34 36" xml:space="preserve">
<g>
	<defs>
		<path id="SVGID_1_" d="M7,15c0-5.2,2.7-9,7-9c6.7,0,10,3.3,10,8c0,5.4-3.2,9-8,9C10.8,23,7,19.9,7,15z M27,23c2-2.5,2.6-4.9,3-8
			C29.6,6.7,23,0,15,0C6.6,0,0,6.7,0,15c0,8.2,6.6,14.9,15,15c2.1-0.1,3.5-0.3,5-1c0,0,7,5,8,5.7c1,0.7,1.5,1.3,2,1.3
			c1.5,0,1.9-0.6,3-1c1.1-1.8,1.6-3.9,0-5L27,23z"/>
	</defs>
	<use xlink:href="#SVGID_1_"  overflow="visible" fill-rule="evenodd" clip-rule="evenodd" fill="#555655"/>
	<clipPath id="SVGID_2_">
		<use xlink:href="#SVGID_1_"  overflow="visible"/>
	</clipPath>
</g>
</svg>
