<?xml version="1.0" encoding="utf-8"?>
<!-- Generator: Adobe Illustrator 19.1.0, SVG Export Plug-In . SVG Version: 6.00 Build 0)  -->
<svg version="1.1" xmlns="http://www.w3.org/2000/svg" xmlns:xlink="http://www.w3.org/1999/xlink" x="0px" y="0px"
	 viewBox="0 0 210 51" style="enable-background:new 0 0 210 51;" xml:space="preserve">
<style type="text/css">
	.st0{fill:#136AA8;}
</style>
<g id="Layer_1">
	<g id="Page_content">
		<g>
			<polyline class="st0" points="47,14.1 58.4,14.1 60.7,26.1 63.3,14.1 74.2,14.1 74.2,18.5 72.3,18.5 72.3,31 74.2,31 74.2,35.3 
				64.7,35.3 64.7,31 66.4,31 66.4,18.7 62.2,35.3 57.4,35.3 53.4,18.5 53.4,31 55,31 55,35.3 47,35.3 47,31 49,31 49,18.5 47,18.5 
				47,14.1 			"/>
			<path class="st0" d="M107.2,31h1.3v4.4h-6.9v-10c0-1.2-0.6-1.8-1.4-1.8c-1,0-1.8,1-1.9,2.4V31h1.6v4.4h-8.4V31h1.3v-7h-1.3v-4.4
				h6.3v3c1.1-1.9,2.9-3.3,5.3-3.3c3,0,4.2,1.8,4.2,4.5V31"/>
			<path class="st0" d="M80.4,27.4c0,1,0,4.1,2.2,4.1c2.2,0,2.2-3,2.2-4.1s0-4.1-2.2-4.1C80.4,23.4,80.4,26.4,80.4,27.4L80.4,27.4z
				 M74.7,27.4c0-5.1,2.6-8.3,7.9-8.3c5.4,0,7.9,3.2,7.9,8.3s-2.6,8.3-7.9,8.3C77.3,35.7,74.7,32.4,74.7,27.4"/>
			<path class="st0" d="M132.4,19.4v4.4h-1.3l2.1,6.8l2-6.8h-1.3v-4.4h7.6v4.4h-1.3L136,35.6c-1.8,5.1-3.8,6.5-7.4,6.5
				c-1.5,0-2.4-0.3-3.2-0.5v-4.3c0.8,0.2,1.7,0.4,2.4,0.4c1,0,1.8-0.3,2.3-1.3c0.1-0.3,0.1-0.2,0.2-0.5l-4.4-11.9h-1.3v-4.4
				L132.4,19.4"/>
			<path class="st0" d="M118.5,25.6c0.1-1.2-0.4-2.6-1.9-2.6c-1.8,0-1.8,1.9-1.8,2.6H118.5L118.5,25.6z M123.9,29.8
				c-0.6,3.9-3.2,5.8-7.2,5.8c-4.2,0-7.8-2.1-7.8-8.3c0-4,1.8-8.3,7.6-8.3c5.8,0,7.9,4.1,7.7,9.3h-9.5c0,1.2,0.2,3.4,2.1,3.4
				c1.7,0,2-1.4,2.1-2L123.9,29.8"/>
			<path class="st0" d="M3.5,24.7c0,3.3,2.2,6.9,7.2,6.9h6.2c0.3,0,0.5-0.2,0.5-0.5V18.2c0-0.7,0.4-1.4,1-1.6
				c0.6-0.2,1.3,0.1,1.7,0.6l8.7,14.2c0.1,0.2,0.2,0.2,0.3,0.2c0.1,0,0.2-0.2,0.2-0.5v-13c0-0.7,0.4-1.4,1-1.6
				c0.6-0.2,1.3,0.1,1.7,0.6c1.8,2.9,8.7,14.1,8.7,14.2c0.1,0.1,0.2,0.2,0.3,0.2s0.2-0.2,0.2-0.5V14.1h-2.4v10.1
				c0,0-1.6-2.7-4.2-7.5c-2.7-4.6-7.7-2.7-7.7,1.3v6.2c0,0-1.6-2.7-4.2-7.4c-2.7-4.6-7.7-2.7-7.7,1.3v10.6c0,0.4-0.3,0.7-0.6,0.7
				h-3.2c-7.1,0-6.5-9.1-0.5-9.2c2.7,0,3.6,0,3.6,0v-2.5h-3.7C5.7,17.7,3.5,21.4,3.5,24.7"/>
			<path class="st0" d="M42.2,14.1v17.2c0,0.7-0.4,1.4-1,1.6c-0.6,0.2-1.2-0.1-1.7-0.6c-0.1-0.1-7-11.3-8.7-14.2
				c-0.1-0.2-0.3-0.2-0.4-0.2c-0.1,0-0.2,0.2-0.2,0.5v13c0,0.9-0.5,1.4-1,1.6c-0.6,0.2-1.2-0.1-1.6-0.6l-8.7-14.2
				c-0.1-0.2-0.3-0.2-0.4-0.2c-0.1,0-0.2,0.2-0.2,0.5v12.9c0,0.9-0.7,1.7-1.7,1.7h-6.2c-5.7,0-8.3-4.2-8.4-8.1
				c0-4.1,2.8-8.2,8.1-8.2h3.8v-2.4h-3.2c-14.7,0-14.6,21.2,0.2,21.2h5.7c2.5,0,4.1-1.5,4.1-4.2v-5.4c0,0,3.2,5.4,4.5,7.6
				c2.1,3.6,7.4,3,7.4-1.7v-5.9c0,0,3.2,5.4,4.5,7.6c2.1,3.6,7.4,3,7.4-1.7V14.1L42.2,14.1"/>
		</g>
	</g>
</g>
<g id="svg2">
</g>
<g id="svg6895">
</g>
</svg>
