<?xml version="1.0" encoding="utf-8"?>
<!-- Generator: Adobe Illustrator 19.1.0, SVG Export Plug-In . SVG Version: 6.00 Build 0)  -->
<svg version="1.1" id="Layer_1" xmlns="http://www.w3.org/2000/svg" xmlns:xlink="http://www.w3.org/1999/xlink" x="0px" y="0px"
	 viewBox="0 0 210 51" style="enable-background:new 0 0 210 51;" xml:space="preserve">
<style type="text/css">
	.st0{fill:#D71F28;}
</style>
<g transform="matrix(1.2470709,0,0,-1.2470709,-28.601861,1011.2423)">
	<g transform="translate(-216,-15084)">
		<path class="st0" d="M264.1,15888.5c-2.5-0.2-4.6-2.3-4.6-5.2v-14.1c0-0.5-0.4-0.9-0.9-0.9h-4.4c-9.5,0-8.7,12.1-0.6,12.1h4.9v3.5
			h-5c-3.2,0-5.6-1.2-7.2-3c-1.6-1.8-2.4-4.2-2.4-6.6s0.8-4.8,2.4-6.6s4.1-3,7.6-3h8.3c0.5,0,1,0.5,1,1v17.1c0,0.9,0.5,1.6,1.1,1.8
			s1.4-0.1,1.9-0.7l0,0c2.4-3.8,11.7-18.8,11.7-18.9c0.3-0.4,0.6-0.4,0.8-0.4c0.2,0.1,0.4,0.3,0.4,0.9v17.3c0,0.9,0.5,1.6,1.1,1.8
			s1.4-0.1,1.8-0.7l0,0l0,0c2.4-3.8,11.7-18.8,11.7-18.9c0.3-0.4,0.5-0.4,0.8-0.4c0.2,0.1,0.5,0.3,0.5,0.9v22.8h-3.5v-13.3
			c0,0-2.1,3.6-5.7,9.8c-3.6,6.1-10.3,3.6-10.3-1.7v-8.2c0,0-2.1,3.6-5.7,9.8C268.2,15887.6,266,15888.7,264.1,15888.5
			L264.1,15888.5z M254,15888.4c-19.8,0-19.6-28.1,0.3-28.2h7.8c3.3,0,5.5,2,5.5,5.6v7.1c0,0,4.4-7.2,6.1-10
			c2.9-4.8,9.9-3.8,9.9,2.1v7.9c0,0,4.3-7.2,6-10c2.9-4.8,9.9-3.8,9.9,2.1v23.3H296v-22.8c0-0.9-0.5-1.5-1.1-1.7s-1.4,0.1-1.8,0.7
			l0,0l0,0c0,0-9.3,15-11.7,18.8l0,0l0,0c-0.2,0.3-0.6,0.4-0.8,0.3c-0.3-0.1-0.5-0.3-0.5-0.9v-17.3c0-0.9-0.4-1.6-1.1-1.8
			c-0.6-0.2-1.3,0.1-1.8,0.7l0,0l0,0c0,0-9.4,15-11.7,18.9c-0.2,0.4-0.6,0.4-0.8,0.4c-0.3-0.1-0.5-0.3-0.5-0.9l0,0v-17.1
			c0-1-0.9-1.9-1.9-1.9H254c-3.6,0-6.4,1.3-8.2,3.3s-2.7,4.6-2.7,7.2c0,2.6,0.9,5.2,2.7,7.2s4.4,3.3,7.9,3.3h5v3.6L254,15888.4
			L254,15888.4z"/>
	</g>
</g>
</svg>
