<?xml version="1.0" encoding="utf-8"?>
<!-- Generator: Adobe Illustrator 19.1.0, SVG Export Plug-In . SVG Version: 6.00 Build 0)  -->
<svg version="1.1" id="Layer_1" xmlns="http://www.w3.org/2000/svg" xmlns:xlink="http://www.w3.org/1999/xlink" x="0px" y="0px"
	 viewBox="0 0 210 51" style="enable-background:new 0 0 210 51;" xml:space="preserve">
<style type="text/css">
	.st0{fill:#010101;}
</style>
<g>
	<path class="st0" d="M84.8,20c0,3.6-0.4,14.7-0.4,14.7c0,2.1,0.7,3.1,2.7,3.1v1h-8v-1c2,0,3.1-1,3.1-3.1l0.7-18.1
		c-0.6-1.4-1.2-1.9-2.7-2v-0.8h6.2l6.4,16.9l6.6-16.9h5.5v0.8c-1.5,0-2.4,0.7-2.4,2.4l0.7,17.5c0,2.6,0.5,3.3,2.6,3.3v1h-9.2v-1
		c1.8,0,2.6-0.6,2.5-3.3c0,0-0.4-12.3-0.5-14.4l-4.4,12.1c-0.6,1.5-1.2,3.3-1.7,5.2l-1.4,0.1c-0.4-1.3-1.3-3.7-1.3-3.7
		S86.1,23.4,84.8,20L84.8,20z"/>
	<path class="st0" d="M77.3,38.8c-0.5-0.1-1-0.1-1.4-0.1c-1,0-2.6,0.5-4.6,0.5c-7.7,0-13.5-4.6-13.5-13.2c0-7.3,5.4-12.9,13.6-12.9
		c1.9,0,4,0.4,5.8,1.1c0.4-0.4,0.5-0.6,0.8-1h0.7c-0.1,1.3-0.6,5.6-0.6,5.6h-0.7c-0.5-2.5-1.8-4.2-6-4.2c-5,0-9.5,3.9-9.5,11.2
		c0,8.2,4.6,11.8,9.8,11.8c3.3,0,5.4-1.9,6.7-4.3l0.8,0.4L77.3,38.8L77.3,38.8z"/>
	<path class="st0" d="M54.8,18.3H54c-0.1-2.3-0.8-3-2.6-3h-3.5V34c0,3.1,0.6,3.7,2.6,3.7v1h-8.9v-1c2,0,2.6-0.6,2.6-3.8V15.3h-3.5
		c-2.3,0-2.6,0.6-3.2,3h-0.8l0.6-5.4l0.6,0.1c0.2,0.6,0.7,0.6,2.1,0.6h11.6c2.1,0,2.6,0,3.1-0.7h0.7L54.8,18.3L54.8,18.3z"/>
	<path class="st0" d="M29.5,39.3c-1.7,0-3-0.2-3.9-0.6c-1-0.2-1.7-0.6-2-0.8c-0.5,0.5-0.8,1.1-0.8,1.1l-0.7-0.2l0.6-5.6l0.8,0.1
		c0.5,2.6,2.3,4.5,6,4.5c2.9,0,4.8-2.4,4.8-5c0-2.1-0.8-3.2-3.7-5.4c-1-0.6-1.8-1.1-2.5-1.7c-2.7-1.7-4.4-3.6-4.4-6.7
		c0-3.6,3-6,6.9-6c2.3,0,3.7,0.7,4.2,1l0.8-1l0.6,0.1l-0.6,5.1l-0.8-0.1c0-2.4-1.4-3.5-3.8-3.5c-2.3,0-3.9,1.2-3.9,3.5
		c0,2,1.5,3.3,3.3,4.5c1,0.6,1.7,1.1,2.4,1.5c4.2,3,5.1,4.9,5.1,7.7C37.9,36.2,34.7,39.3,29.5,39.3L29.5,39.3z"/>
	<path class="st0" d="M16,18.3h-1c0-2.1-1-3-2.9-3H6.7v9.4h3.5c1.8,0,2.1-1,2.4-2.5h0.8v6.7h-0.8c-0.2-1.8-0.6-2.5-2.5-2.5H6.8v8
		c0,3,0.7,3.3,2.6,3.3v1h-9v-1c2.3,0,2.6-0.6,2.6-3.3V16.9c0-1.7-0.7-2.4-2.6-2.4v-0.8h12.4c2.1,0,2.6-0.1,3-0.8h0.8L16,18.3
		L16,18.3z"/>
	<path class="st0" d="M144.5,19.7V34c0,3.1,0.7,3.7,2.6,3.7v1H133v-1c1.1,0,2-0.4,2-1.1c0-0.5-0.1-1.3-0.4-2.1l-1.1-3.5h-7.9
		c-0.1,0.5-1.5,4.4-1.5,5.5c0,1,1.1,1.2,1.8,1.2v1h-6.6v-1c1.2,0,2.1-0.1,3-2.6l6.1-19.4c-0.4-0.8-0.8-1.1-1.7-1.2v-0.8h5.4
		l6.4,20.4c0.6,2.1,1.2,3.2,2.1,3.7c1.4-0.5,1.8-1,1.8-3.7V16.9c-1.1-1.4-1.2-2.4-3.2-2.4v-0.8h6.1l10,17v-13c0-2.6-0.6-3.2-2.6-3.2
		v-0.8H166v0.8c-0.8,0-1.5,0.4-1.5,1.2c0,0.6,0.2,1.2,0.5,1.9l3.8,8.2l3.7-8c0.6-1.1,0.7-1.7,0.7-2.3c0-0.7-0.5-1.1-1.5-1.1v-0.8
		h6.3v0.8c-1.5,0-2.5,1.4-3.2,3.1l-4.9,10v6.6c0,2.9,0.7,3.6,2.6,3.6v1h-9.1v-1c1.9,0,2.6-0.7,2.6-3.6v-5.6l-5.2-11.1
		c-1-2.1-1.3-2.6-1.9-3c-1.2,0.5-1.5,1.3-1.5,3.2v18.3c0,0,0.1,1.4,0.2,3.1l-1.5,0.1L144.5,19.7L144.5,19.7z M129.6,18.6l-3.3,10.8
		h6.9L129.6,18.6L129.6,18.6z"/>
	<path class="st0" d="M114.8,29.4c0,0-1.1,0-1.8,0v5.1c0,2.6,0.7,3.2,2.7,3.2v1h-9.2v-1c1.9,0,2.6-0.7,2.6-3.3V17.6
		c0-2.6-0.7-3.1-2.6-3.1v-0.8h6.9c6.7,0,10.6,2,10.6,7.5C124.1,26.9,119.3,29.4,114.8,29.4L114.8,29.4z M113.6,15.3H113v12.3h1.1
		c3.9,0,6-1.8,6-6.3S118.3,15.3,113.6,15.3L113.6,15.3z"/>
	<path class="st0" d="M73.2,33.9c-4.5,0-7.6-3.2-7.6-7.9c0-4.4,3.2-7.9,7.6-7.9c4.3,0,7.5,3.3,7.5,7.9
		C80.8,30.5,77.4,33.9,73.2,33.9L73.2,33.9z M73.2,19.6c-3.1,0-4.2,3-4.2,6.4c0,3.2,1,6.4,4.2,6.4c3.1,0,4-3.2,4-6.6
		C77.3,22.7,76.1,19.6,73.2,19.6L73.2,19.6z"/>
	<path class="st0" d="M20.8,32.5v-0.8c1.2,0,1.4-0.4,1.4-0.7c0-0.5-0.1-0.8-0.2-1.2c0,0-0.2-1-0.5-1.7h-4.6l-0.5,1.5
		c-0.1,0.4-0.2,0.7-0.2,1.2s0.5,0.8,1.2,0.8v0.8h-4.6v-0.8c1.2,0,1.7-0.4,2.1-1.7l3.6-10.7c-0.1-0.5-0.5-0.8-1.2-0.8v-0.8h3.8
		C24.2,26.7,25,29,25,29c0.6,2,1.2,2.6,2.1,2.6v0.8L20.8,32.5L20.8,32.5z M19.2,20.9l-1.8,5.9h3.7L19.2,20.9L19.2,20.9z"/>
</g>
</svg>
