<?xml version="1.0" encoding="utf-8"?>
<!-- Generator: Adobe Illustrator 19.1.0, SVG Export Plug-In . SVG Version: 6.00 Build 0)  -->
<svg version="1.1" id="Layer_1" xmlns="http://www.w3.org/2000/svg" xmlns:xlink="http://www.w3.org/1999/xlink" x="0px" y="0px"
	 viewBox="0 0 210 51" style="enable-background:new 0 0 210 51;" xml:space="preserve">
<style type="text/css">
	.st0{fill:#35639B;}
</style>
<g>
	<path class="st0" d="M54.5,12.9c0,2.7,0,5.4,0,8c0.5-0.2,1-0.5,1.6-0.6c2.1-0.6,4.2-0.5,6.1,1c1.4,1.2,2.3,2.7,2.7,4.5
		c0.5,2.8,0.2,5.5-1.3,8.1c-1.2,1.8-2.8,2.9-4.9,3.5c-1.3,0.3-2.6,0.4-3.9,0.3c-1.6-0.1-3.1-0.3-4.7-0.7c-0.3-0.1-0.3-0.2-0.3-0.5
		c0.1-5.5,0.1-11,0.1-16.4c0-1.1-0.1-2.2-0.2-3.3c-0.1-1-0.6-1.7-1.8-1.8c-0.2,0-0.4-0.1-0.4-0.4s0.2-0.3,0.4-0.3
		c2.1-0.4,4.3-0.8,6.4-1.2C54.2,13,54.4,12.9,54.5,12.9z M54.4,29.2L54.4,29.2c0,1.2,0,2.4,0.1,3.6c0,1.1,0.1,2.2,0.1,3.2
		c0,0.1,0.1,0.3,0.2,0.3c0.9,0.2,1.7,0.2,2.5-0.3c0.9-0.6,1.3-1.4,1.7-2.4c0.8-2,1-4,0.9-6.1c-0.1-1.4-0.3-2.9-1.1-4.2
		c-0.8-1.4-2.1-2-3.6-1.6c-0.7,0.2-0.7,0.2-0.8,0.9c0,0.1,0,0.2,0,0.3C54.4,25.1,54.4,27.1,54.4,29.2z"/>
	<path class="st0" d="M0.3,37.2c0-0.2,0-0.5,0-0.6c0-0.1,0.1-0.2,0.2-0.2c0.3-0.1,0.6-0.2,0.9-0.2c0.9-0.1,1.5-0.5,1.7-1.3
		c0.2-0.8,0.4-1.6,0.5-2.4c0.1-2.1,0.2-4.2,0.2-6.2c0-2.3,0-4.5-0.1-6.7c0-1-0.1-2-0.3-2.9c-0.3-1.4-0.9-2-2.4-2.1
		c-0.8-0.2-0.8-0.2-0.8-0.9c0-0.1,0-0.1,0-0.2c6.4,0,12.8,0,19.3,0c0,0.7,0,1.3,0,2c0,1.4,0.1,2.9,0.1,4.3c0,0.2-0.1,0.3-0.3,0.5
		c-0.8,0.2-0.7,0.2-1-0.5c-0.3-0.8-0.6-1.6-1.1-2.3c-0.9-1.6-2.4-2.4-4.3-2.4c-1.2,0-2.3,0-3.5,0c-0.3,0-0.4,0.1-0.4,0.4
		c-0.1,1.4-0.1,2.9-0.1,4.3c-0.1,1.6-0.1,3.1-0.1,4.7c0,0.3,0.1,0.4,0.4,0.4c0.9-0.1,1.7-0.1,2.5-0.1c0.8-0.1,1.4-0.5,1.8-1.3
		c0.3-0.5,0.5-1.1,0.6-1.7c0.1-0.3,0.2-0.4,0.5-0.3c0.2,0,0.3,0,0.6,0c0,2.7,0,5.4,0,8.1c-0.2,0-0.5,0-0.8,0c-0.1,0-0.2-0.2-0.2-0.3
		c-0.2-0.8-0.3-1.4-0.8-2.1c-0.5-0.6-1-0.9-1.8-1c-0.8,0-1.6-0.1-2.4-0.1c-0.3,0-0.3,0.1-0.3,0.3c0.1,2.3,0.2,4.6,0.3,6.9
		c0.1,0.6,0.2,1.2,0.5,1.8c0.3,0.7,0.9,1,1.6,1.2c0.4,0.1,0.8,0.1,1.2,0.2c0.4,0.1,0.2,0.4,0.2,0.6c0.1,0.2-0.1,0.2-0.3,0.2
		c-4,0-8,0-11.9,0C0.5,37.2,0.5,37.2,0.3,37.2z"/>
	<path class="st0" d="M17.4,28.7c0-2.3,0.6-4.4,2.1-6.2c1.3-1.6,3.1-2.5,5.2-2.7c1.4-0.2,2.7-0.1,4,0.3c2.3,0.7,3.8,2.3,4.7,4.4
		c1,2.6,1,5.3,0.1,7.8c-1.2,3.1-3.5,4.8-6.8,5.1c-1.4,0.2-2.9,0.1-4.3-0.5c-2.3-0.8-3.7-2.5-4.5-4.7C17.5,31.2,17.4,30,17.4,28.7z
		 M29,29.2c0-2-0.1-3.7-0.6-5.4c-0.2-0.8-0.5-1.5-1-2.1c-1-1.2-2.7-1.2-3.5,0.1c-0.3,0.5-0.6,1-0.7,1.5c-0.2,1-0.4,2.1-0.5,3.2
		c-0.2,2.3-0.1,4.6,0.5,6.9c0.2,0.9,0.6,1.8,1.3,2.6c0.8,0.9,2.1,0.9,3,0.1c0.7-0.6,1-1.4,1.2-2.3C28.9,32.2,29,30.5,29,29.2z"/>
	<path class="st0" d="M83.4,31.5c0.2,0.5,0.4,1,0.7,1.5c0.3,0.8,0.8,1.4,1.4,2c1.1,1,2.8,1.4,4,0.8c1.6-0.7,2.1-3.2,0.5-4.3
		c-0.9-0.6-1.9-1-2.9-1.4s-2.1-0.9-2.9-1.7c-0.8-0.8-1.1-1.7-1.2-2.7c-0.3-3,1.7-5,4-5.7c1.2-0.3,2.4-0.4,3.6-0.3
		c1.2,0.1,2.4,0.3,3.6,0.7c0.3,0.1,0.4,0.2,0.4,0.5c0,1.2,0.1,2.4,0.1,3.5c0,0.5,0,0.5-0.5,0.6c-0.1,0-0.1,0.1-0.2,0.1
		c-0.2-0.6-0.5-1.2-0.8-1.8c-0.6-1.1-1.3-2-2.6-2.4c-1.4-0.4-2.6,0.1-3.1,1.4c-0.4,1-0.2,2.1,0.7,2.8s1.8,1.1,2.8,1.6
		c0.9,0.4,1.8,0.8,2.7,1.4c1.6,1,2,2.5,1.8,4.3c-0.2,2.6-2,4.3-4.3,4.9c-1.4,0.4-2.9,0.5-4.4,0.2c-1.2-0.2-2.4-0.5-3.6-0.8
		c-0.3-0.1-0.5-0.3-0.5-0.6c0-1.3-0.1-2.6-0.1-3.9C82.7,31.6,82.7,31.6,83.4,31.5z"/>
	<path class="st0" d="M41.5,23.5c0.1-0.1,0.1-0.2,0.2-0.3c0.6-1.3,1.4-2.4,2.8-3.1c1.2-0.6,2.5-0.8,3.7-0.1c0.1,0,0.1,0.1,0.2,0.1
		c-0.6,1.6-1.2,3.1-1.7,4.5c-0.8-0.2-1.4-0.5-2.1-0.7c-0.9-0.2-1.8-0.1-2.7,0.5c-0.3,0.2-0.4,0.3-0.4,0.7c0,2.4,0,4.7,0,7
		c0,0.9,0.1,1.7,0.2,2.6c0.1,1,0.6,1.4,1.6,1.4c0.3,0,0.6,0.1,0.9,0.1c0.2,0,0.3,0.1,0.3,0.3c0,0.2,0,0.3,0,0.5c-0.1,0-0.2,0-0.3,0
		c-3.2,0-6.3,0-9.5,0c-0.2,0-0.4,0.1-0.3-0.2c0.1-0.2-0.2-0.6,0.3-0.6c0.1,0,0.1,0,0.1,0c1.4-0.1,1.8-1,1.8-2
		c0.1-2.9,0.1-5.8,0.1-8.7c0-0.6-0.1-1.3-0.1-2c-0.2-1.3-0.6-1.6-1.8-1.7c-0.3-0.1-0.4-0.1-0.4-0.5c0-0.2,0.1-0.3,0.3-0.3
		c2-0.4,4-0.8,5.9-1.2c0.3-0.1,0.6-0.1,1-0.2C41.4,21,41.4,22.2,41.5,23.5L41.5,23.5z"/>
	<path class="st0" d="M71.8,27.9c3.1,0,6.2,0,9.3,0c0.1,0,0.2,0,0.4,0c0-0.1,0-0.2,0-0.3c0-1-0.2-2.1-0.5-3.1
		c-0.9-3-3.1-4.8-6.3-4.7c-3.5,0-6.1,1.6-7.5,4.7c-0.8,1.7-1,3.6-0.9,5.5c0.2,2,0.9,3.8,2.3,5.2c2,2.1,4.6,2.8,7.4,2.4
		c1.9-0.3,3.5-1.2,4.8-2.6c0.4-0.5,0.4-0.5-0.1-0.9c0,0-0.1,0-0.1-0.1c-1.3,1-2.8,1.3-4.4,1.2c-1.5-0.2-2.8-0.8-3.7-2
		c-1.1-1.4-1.4-3.1-1.4-4.8C71.4,27.9,71.4,27.9,71.8,27.9z M71.4,26.4c0.1-1.5,0.4-2.9,1.2-4.3c0.3-0.6,0.8-1,1.4-1.2
		c0.6-0.2,1.2,0.1,1.6,0.6c0.5,0.6,0.7,1.3,0.8,2.1c0.1,0.9,0.2,1.8,0.2,2.8c0,0.3-0.1,0.3-0.3,0.3c-0.8,0-1.6,0-2.3,0
		c0,0.1,0,0.1,0,0.1c-0.8,0-1.5,0-2.3,0C71.6,26.7,71.4,26.6,71.4,26.4z"/>
</g>
</svg>
