<?xml version="1.0" encoding="utf-8"?>
<!-- Generator: Adobe Illustrator 19.1.0, SVG Export Plug-In . SVG Version: 6.00 Build 0)  -->
<svg version="1.1" id="Layer_1" xmlns="http://www.w3.org/2000/svg" xmlns:xlink="http://www.w3.org/1999/xlink" x="0px" y="0px"
	 viewBox="0 0 210 51" style="enable-background:new 0 0 210 51;" xml:space="preserve">
<style type="text/css">
	.st0{fill:#020202;}
</style>
<g>
	<path class="st0" d="M39,25.2c1,1,1.6,2.4,1.6,3.8s-0.6,2.8-1.6,3.8c-1.3,1.3-3.2,2-5.5,2c-2.4,0-4.3-0.7-5.6-2
		c-1.1-1-1.6-2.2-1.6-3.6c0-3.5,2.9-5.9,7.1-5.9C35.9,23.3,37.8,24,39,25.2 M30.3,29.2c0,1,0.3,2.3,0.7,2.9c0.6,0.9,1.4,1.4,2.5,1.4
		c0.8,0,1.6-0.3,2.1-0.8c0.7-0.7,0.9-1.8,0.9-3.5c0-2.1-0.5-3.5-1.5-4c-0.5-0.3-0.9-0.4-1.5-0.4C31.4,24.6,30.3,26.1,30.3,29.2z"/>
	<path class="st0" d="M52.5,22.5c0-0.7,0-1.4,0-1.6c-0.1-0.6-0.4-0.8-1.1-0.9c-0.3,0-0.4-0.1-0.4-0.3v-0.6c0-0.1,0.1-0.2,0.2-0.2
		h4.9V32c0,0.8,0.3,1.3,1.1,1.4c0.3,0,0.4,0.1,0.4,0.4v0.6c0,0.1-0.1,0.3-0.3,0.3h-4.9v-1.2c-1.9,0.9-2.9,1.3-4.2,1.3
		c-3.2,0-5.6-2.3-5.6-5.5c0-1.5,0.5-2.7,1.5-3.7c1.2-1.2,2.8-1.9,4.6-1.9c1.2,0,2.5,0.3,3.6,0.9L52.5,22.5 M52.5,26
		c-1-0.6-1.9-0.7-2.7-0.7c-1.9,0-3.2,1.5-3.2,3.8c0,2.1,1.2,3.6,3.1,3.6c0.9,0,1.7-0.3,2.8-1.1V26z"/>
	<path class="st0" d="M63.7,29c0,1.1,0.2,1.8,0.7,2.4c0.7,0.9,1.7,1.4,3.1,1.4c1.6,0,3.2-0.6,4.3-1.6c0.2-0.2,0.4-0.3,0.5-0.3
		c0,0,0.2,0.1,0.4,0.4c0,0,0,0,0.1,0.1c0,0.1,0.1,0.1,0.1,0.1c0.2,0.3,0.4,0.5,0.4,0.5c0,0.2-0.7,0.8-1.4,1.3c-1.5,1-3.1,1.5-5,1.5
		c-2.2,0-4.1-0.7-5.3-1.9c-0.9-0.9-1.5-2.3-1.5-3.8c0-2,1-3.9,2.7-4.9c1-0.7,2.3-0.9,3.8-0.9c2.6,0,4.6,0.9,5.7,2.7
		c0.6,0.8,0.7,1.6,0.9,2.9L63.7,29 M68.8,27.5c-0.1-1.7-1-2.6-2.5-2.6c-1.5,0-2.4,0.9-2.5,2.6H68.8z"/>
	<path class="st0" d="M79.7,26.7L79.7,26.7c0.7-1.2,1.2-1.9,1.9-2.5c0.8-0.8,1.7-1.3,2.5-1.3c1.1,0,2,0.9,2,2.1c0,1.1-0.7,2-1.8,2
		c-0.7,0-1.4-0.5-1.8-1.3c-0.1-0.2-0.1-0.3-0.2-0.3s-0.6,0.4-0.9,0.8c-0.9,1.1-1.4,2.6-1.4,4v1.9c0,0.7,0.4,1,1.1,1.1
		c0.4,0,0.5,0.1,0.5,0.4v0.5c0,0.2-0.1,0.3-0.3,0.3h-6.3c-0.1,0-0.2-0.1-0.2-0.2v-0.5c0-0.2,0.1-0.3,0.5-0.4
		c0.3-0.1,0.5-0.2,0.7-0.3c0.2-0.2,0.3-0.5,0.3-0.8v-5.9c0-0.8-0.3-1.2-1.1-1.3c-0.3,0-0.5-0.1-0.5-0.3v-0.6c0-0.2,0.1-0.3,0.4-0.3
		h4.7V26.7"/>
	<path class="st0" d="M93.3,25c1.8-1,3.1-1.4,4.8-1.4c2.6,0,4.1,1.2,4.1,3.3v5.2c0,0.7,0.4,1.1,1,1.3c0.3,0,0.3,0.1,0.3,0.4v0.5
		c0,0.1-0.1,0.2-0.3,0.2h-6c-0.2,0-0.3-0.1-0.3-0.2v-0.6c0-0.1,0.1-0.2,0.4-0.3c0.3-0.1,0.5-0.2,0.7-0.4s0.3-0.5,0.3-0.9v-4.5
		c0-1.3-0.7-2.1-2.2-2.1c-1,0-1.9,0.3-2.9,0.9v5.7c0,0.7,0.3,1,0.9,1.2c0.3,0.1,0.5,0.2,0.5,0.4v0.5c0,0.2,0,0.3-0.2,0.3h-6.1
		c-0.2,0-0.3-0.1-0.3-0.3v-0.6c0-0.2,0.1-0.2,0.4-0.3c0.4,0,0.6-0.1,0.7-0.4c0.2-0.3,0.3-0.5,0.3-0.8V26c0-0.3-0.1-0.6-0.3-0.7l0,0
		c-0.2-0.2-0.5-0.3-0.8-0.3c-0.3,0-0.4-0.1-0.4-0.3v-0.7c0-0.2,0.2-0.3,0.6-0.3h4.7v1.2"/>
	<path class="st0" d="M123.1,23.7c0.3,0,0.4,0.1,0.4,0.4v1.1c0,0.2-0.1,0.3-0.3,0.3h-3.5V32c0,0.7,0.4,1.2,1.1,1.3
		c0.4,0,0.5,0.1,0.5,0.3v0.6c0,0.1-0.1,0.2-0.3,0.2h-6.2c-0.1,0-0.2-0.1-0.2-0.2v-0.7c0-0.2,0.1-0.3,0.4-0.3c0.4,0,0.6-0.1,0.7-0.3
		c0.4-0.3,0.4-0.4,0.4-0.7v-6.7h-1.5c-0.1,0-0.2-0.1-0.2-0.3v-0.7c0-0.2,0.1-0.3,0.6-0.4c0.4-0.1,0.7-0.3,0.8-0.5
		c0.3-0.4,0.5-0.7,0.7-1.4c0.9-2.6,2.3-3.6,4.6-3.6c1.6,0,2.5,0.7,2.5,1.9c0,0.8-0.6,1.5-1.4,1.5s-1.4-0.6-1.7-1.6
		c-0.1-0.4-0.2-0.6-0.4-0.6c-0.3,0-0.5,0.3-0.5,0.8v3.2h3.4"/>
	<path class="st0" d="M139.2,34.1c-0.7,0.5-1.3,0.7-2.1,0.7c-1.6,0-2.5-0.6-3.2-1.7c-0.6,0.6-0.9,0.8-1.6,1.1
		c-0.9,0.4-1.9,0.6-3,0.6c-2.7,0-4.6-1.3-4.6-3.3c0-1.1,0.7-2.1,1.8-2.7c1.4-0.8,3.5-1.2,7.2-1.3c0-2-1-2.9-3.2-2.9
		c-0.7,0-0.9,0-1,0.6c-0.1,0.4-0.2,0.6-0.5,0.8c-0.5,0.5-1.1,0.7-1.9,0.7c-0.9,0-1.6-0.5-1.6-1.3c0-1.3,2-2.1,5.2-2.1
		c4.6,0,6.6,1.2,6.6,3.8v4.8c0,0.7,0.6,1.1,1.1,1.1c0.2,0,0.5,0,0.7-0.1L139.2,34.1 M133.6,28.8c-1.8,0-2.7,0.1-3.5,0.4
		c-1,0.4-1.7,1.3-1.7,2.1c0,0.9,0.7,1.6,1.8,1.6c1.9,0,3.3-1.3,3.3-3L133.6,28.8L133.6,28.8z"/>
	<path class="st0" d="M145.9,26.7L145.9,26.7c0.7-1.2,1.2-1.9,1.9-2.5c0.8-0.8,1.7-1.3,2.5-1.3c1.1,0,2,0.9,2,2.1c0,1.1-0.7,2-1.8,2
		c-0.7,0-1.4-0.5-1.8-1.3c-0.1-0.2-0.1-0.3-0.2-0.3c-0.1,0-0.6,0.4-0.9,0.8c-0.9,1.1-1.4,2.6-1.4,4v1.9c0,0.7,0.4,1,1.1,1.1
		c0.4,0,0.5,0.1,0.5,0.4v0.5c0,0.2-0.1,0.3-0.3,0.3h-6.3c-0.1,0-0.2-0.1-0.2-0.2v-0.5c0-0.2,0.1-0.3,0.5-0.4
		c0.3-0.1,0.5-0.2,0.7-0.3c0.2-0.2,0.3-0.5,0.3-0.8v-5.9c0-0.8-0.3-1.2-1.1-1.3c-0.3,0-0.5-0.1-0.5-0.3v-0.6c0-0.2,0.1-0.3,0.4-0.3
		h4.7L145.9,26.7"/>
	<path class="st0" d="M159.1,25c1.7-1,3.4-1.5,5-1.5c1.7,0,2.9,0.6,3.7,1.7c2.1-1.3,3.5-1.7,5.3-1.7c1.5,0,2.7,0.4,3.4,1.1
		c0.6,0.6,0.8,1.5,0.8,2.9V32c0,0.7,0.3,1.1,1,1.3c0.3,0.1,0.4,0.1,0.4,0.4v0.6c0,0.2-0.1,0.3-0.3,0.3h-5.8c-0.3,0-0.4-0.1-0.4-0.2
		v-0.7c0-0.1,0.1-0.2,0.5-0.3c0.7-0.1,0.9-0.6,0.9-1.3v-4.6c0-1.2-0.9-2-2.4-2c-1,0-1.9,0.3-3.1,0.9v5.7c0,0.7,0.3,1,1,1.2
		c0.3,0.1,0.4,0.2,0.4,0.4v0.6c0,0.1-0.1,0.2-0.3,0.2h-6.1c-0.1,0-0.2-0.1-0.2-0.3v-0.5c0-0.2,0.1-0.3,0.4-0.4
		c0.3-0.1,0.5-0.1,0.7-0.3c0.3-0.3,0.4-0.6,0.4-1.1v-4.4c0-1.3-0.8-2.1-2.2-2.1c-1,0-2,0.3-3.2,1v5.6c0,0.7,0.4,1.2,1.1,1.3
		c0.3,0,0.3,0.1,0.3,0.3v0.5c0,0.2-0.1,0.3-0.3,0.3H154c-0.1,0-0.2-0.1-0.2-0.3v-0.5c0-0.2,0.1-0.2,0.4-0.3c0.4,0,0.6-0.1,0.7-0.4
		c0.2-0.2,0.3-0.5,0.3-0.8v-6.1c0-0.7-0.4-1-1-1.2c-0.3,0-0.4-0.1-0.4-0.3v-0.6c0-0.2,0-0.3,0.2-0.3h4.9L159.1,25"/>
	<path class="st0" d="M184.5,29c0,1.1,0.2,1.8,0.7,2.4c0.7,0.9,1.7,1.4,3.1,1.4c1.6,0,3.2-0.6,4.3-1.6c0.2-0.2,0.4-0.3,0.5-0.3
		c0,0,0.2,0.1,0.4,0.4c0,0,0,0,0,0.1s0.1,0.1,0.1,0.1c0.2,0.3,0.4,0.5,0.4,0.5c0,0.2-0.7,0.8-1.4,1.3c-1.5,1-3.1,1.5-5,1.5
		c-2.2,0-4.1-0.7-5.3-1.9c-0.9-0.9-1.5-2.3-1.5-3.8c0-2,1-3.9,2.7-4.9c1-0.7,2.3-0.9,3.8-0.9c2.6,0,4.6,0.9,5.7,2.7
		c0.6,0.8,0.7,1.6,0.9,2.9L184.5,29 M189.6,27.5c-0.1-1.7-1-2.6-2.5-2.6c-1.5,0-2.4,0.9-2.5,2.6H189.6z"/>
	<path class="st0" d="M200.5,26.7L200.5,26.7c0.7-1.2,1.2-1.9,1.9-2.5c0.8-0.8,1.7-1.3,2.5-1.3c1.1,0,2,0.9,2,2.1c0,1.1-0.7,2-1.8,2
		c-0.7,0-1.4-0.5-1.8-1.3c-0.1-0.2-0.1-0.3-0.2-0.3c-0.1,0-0.6,0.4-0.9,0.8c-0.9,1.1-1.4,2.6-1.4,4v1.9c0,0.7,0.4,1,1.1,1.1
		c0.4,0,0.5,0.1,0.5,0.4v0.5c0,0.2-0.1,0.3-0.3,0.3h-6.3c-0.1,0-0.2-0.1-0.2-0.2v-0.5c0-0.2,0.1-0.3,0.5-0.4
		c0.3-0.1,0.5-0.2,0.7-0.3c0.2-0.2,0.3-0.5,0.3-0.8v-5.9c0-0.8-0.3-1.2-1.1-1.3c-0.3,0-0.5-0.1-0.5-0.3v-0.6c0-0.2,0.1-0.3,0.4-0.3
		h4.7L200.5,26.7"/>
	<path class="st0" d="M5.1,25.1c1.7-1,3.4-1.5,5-1.5s2.9,0.6,3.7,1.7c2.1-1.3,3.5-1.7,5.3-1.7c1.5,0,2.7,0.4,3.4,1.1
		c0.6,0.6,0.8,1.5,0.8,2.9v4.5c0,0.7,0.3,1.1,1,1.3c0.3,0.1,0.4,0.1,0.4,0.4v0.6c0,0.2-0.1,0.3-0.3,0.3h-5.9c-0.3,0-0.4-0.1-0.4-0.2
		v-0.7c0-0.1,0.1-0.2,0.5-0.3c0.7-0.1,0.9-0.6,0.9-1.3v-4.6c0-1.2-0.9-2-2.4-2c-1,0-1.9,0.3-3.1,0.9v5.7c0,0.7,0.3,1,1,1.2
		c0.3,0.1,0.4,0.2,0.4,0.4v0.6c0,0.1-0.1,0.2-0.3,0.2h-6c-0.1,0-0.2-0.1-0.2-0.3v-0.5c0-0.2,0.1-0.3,0.4-0.4
		c0.3-0.1,0.5-0.1,0.7-0.3c0.3-0.3,0.4-0.6,0.4-1.1v-4.4c0-1.3-0.8-2.1-2.2-2.1c-1,0-2,0.3-3.2,1v5.6c0,0.7,0.4,1.2,1.1,1.3
		c0.3,0,0.3,0.1,0.3,0.3v0.5c0,0.2-0.1,0.3-0.3,0.3h-6C0,34.5,0,34.5,0,34.3v-0.5c0-0.2,0.1-0.2,0.4-0.3c0.4,0,0.6-0.1,0.7-0.4
		c0.2-0.2,0.3-0.5,0.3-0.8v-6.1c0-0.7-0.4-1-1-1.2C0.1,25,0,24.9,0,24.7v-0.6c0-0.2,0-0.3,0.2-0.3H5L5.1,25.1"/>
</g>
</svg>
