<?xml version="1.0" encoding="utf-8"?>
<!-- Generator: Adobe Illustrator 19.1.0, SVG Export Plug-In . SVG Version: 6.00 Build 0)  -->
<svg version="1.1" xmlns="http://www.w3.org/2000/svg" xmlns:xlink="http://www.w3.org/1999/xlink" x="0px" y="0px"
	 viewBox="-26.9 -0.1 210 51" style="enable-background:new -26.9 -0.1 210 51;" xml:space="preserve">
<style type="text/css">
	.st0{fill:#FFFFFF;}
</style>
<g id="svg2" xmlns:svg="http://www.w3.org/2000/svg">
</g>
<g id="Layer_1">
	<g>
		<path d="M157.3,12.6c0.5-0.2,0.9-0.6,1.4-0.9c3.9,0,9-0.1,14.3-0.1c-0.3,1.8-0.8,3.5-1.3,5.1c-1.6,1.5-3.3,3-5,4.4
			c-1.3,5-2.7,9.9-4,14.9c-2.1,1.5-4.1,3.1-6.1,4.7c-2.2-0.1-4.2,0-6.5,0c0.1-1.2,0.6-2.4,0.8-3.7c-0.7,0.3-1.3,0.7-1.9,1.1
			c-0.6,0.4-1.2,0.7-1.8,1.1c-2.2,1.2-4.7,2.1-8.2,1.6c-2.3-0.3-3.6-1.5-4.9-3c-2.7,2.1-8.1,4-12.5,2.7c-2.8-0.9-4.4-3.5-3.7-7.2
			c-0.9,0-2,0.3-3.2,0.3c-0.4,0.7-0.6,1.8-0.9,2.6c-1.5,1.1-3,2.4-4.6,3.6c-0.5,0.4-1.1,1-1.6,1.2c-1.1,0.3-2.3-0.1-3.4-0.1
			c-1.2,0-2.2,0.1-3.4,0c1.8-6.8,3.7-14.4,5.8-21.6c0.2-0.9,0.4-2.2,0.8-3c0.2-0.4,0.9-0.8,1.3-1.2c1.4-1.2,2.9-2.2,4.2-3.3
			c1.9,0,4,0,6.1,0c2.1,0,4.2-0.2,6,0c0.7,0.1,1.3,0.5,1.8,0.8c0.4,0.6,0.8,1.1,1.2,1.7c1.3-0.7,2.5-1.7,4.3-2.3
			c1.7-0.6,3.7-0.7,5.6-0.6c2.4,0.1,4.7,1,5.4,3c1.8-1.4,3.8-2.9,6.8-3.1C152.9,11,155.5,11.4,157.3,12.6z M156.5,13.3
			c-1.3-0.9-3.1-1.2-5-1.3c-1.2,0-2,0.4-3,0.6c-2,0.4-3.6,1.6-4.6,2.9c-0.7,1-1.4,3.7-0.9,5c0.4,1.4,1.5,2.3,2.3,3.5
			c0.9,1.2,2,2.2,2.7,3.2c0.2,0.3,0.6,0.8,0.7,1.2c0.4,1.4-0.3,3.2-2.1,3.1c-0.2,0-0.2-0.1-0.3-0.2c-0.1,0-0.2,0.1-0.3,0
			c-1.4-0.7-0.8-2-0.6-3.5c-1.6,0-3.7,0-5.2,0.1c-0.3,1.5-0.9,2.5-0.9,4.1c0.1,2.8,2.9,4,5.7,4c2.5,0,4.3-0.5,5.9-1.5
			c0.9-0.6,1.8-1.1,2.3-1.8c1-1.3,1.8-3.5,1.6-5.5c-0.2-2.1-1.6-3.5-2.8-4.7c-1-1-2.3-2-2.9-3c-0.5-0.7-0.6-1.7-0.3-2.4
			c0.2-0.6,1.3-1,2-0.9c1.8,0.3,1.2,2.7,0.9,3.9c1.5,0.1,3.4,0,4.8,0.1C157.3,18.2,158.3,14.8,156.5,13.3z M130.6,13.7
			c-0.6,0.4-0.9,0.7-1.4,1.2c-0.4,0.4-0.8,0.8-0.9,1c-0.3,0.6-0.3,1.3-0.5,1.9c-1.1,3.8-2.2,7.7-3.2,11.4c-0.2,0.6-0.4,1.3-0.5,2
			c-0.3,2.3,1.2,4,3.1,4.5c3.7,0.9,7.9-0.1,9.9-2.2c0.5-0.5,1.2-1.4,1.4-2.1c0.4-1,0.7-2.4,1-3.7c0.7-2.4,1.5-5,2.1-7.4
			c0.3-1.3,0.8-2.7,0.9-3.8c0.1-1,0.1-2.1-0.5-2.8c-0.4-0.6-1.7-1.2-2.7-1.4c-1.2-0.3-3.2-0.3-4-0.2C133.6,12.4,131.7,13,130.6,13.7
			z M159.4,12.8c-0.3,1.2-0.7,2.3-0.9,3.7c1.1,0,2.3-0.1,3.3,0.1c-1.5,6.3-3.3,12.2-4.8,18.5c1.5,0.1,3.4,0.1,4.9,0
			c1.8-6.1,3.3-12.2,5-18.3c1.1,0,2.5,0.1,3.7-0.1c0.3-1.3,0.8-2.7,1-3.8C166.9,12.7,163.3,12.7,159.4,12.8z M123.6,26.6
			c0.8-0.7,1-1.8,1.5-3c0.7-1.7,1.1-3.2,1.5-5.2c0.2-0.9,0.5-1.9,0.5-2.7c0-1.5-0.7-2.7-2-3c-0.8-0.1-1.9,0-2.8,0
			c-2.9,0-5.7,0-8.6,0.1c-2,7.4-4,14.8-5.9,22.1c1.3,0.1,3.7,0.1,5,0c0.7-2.3,1.3-4.6,2-6.8C118.6,28.5,121.6,28.5,123.6,26.6z"/>
		<path class="st0" d="M63.6,11.9c3.5-0.3,6.9-0.1,7.5,2.8c0.1,0.3,0.1,1,0,1.5c-0.1,1.2-0.6,2.7-0.9,3.9c-0.7,2.4-1.3,5-2,7.5
			c-0.4,1.4-0.7,2.8-1,3.7c-0.5,1.2-1.8,2.5-2.9,3.2c-2,1.3-6.2,2.1-9,1c-0.7-0.2-2.2-1.1-2.5-2c-0.5-2,0.5-4.2,0.9-6
			c0.7-2.9,1.6-6.2,2.4-9.1c0.3-1.4,0.6-2.2,1.3-3.2C58.7,13.5,60.7,12.2,63.6,11.9z M63.6,24.2c0.4-1.6,1-3.5,1.4-5.2
			c0.1-0.6,0.4-1.4,0.3-1.8c-0.2-1.4-2.9-0.9-3.4,0c-0.2,0.3-0.3,1.1-0.5,1.6c-0.8,2.8-1.4,5.4-2.3,8.3c-0.3,1.2-1.3,3.2-0.5,4.1
			c0.8,0.5,2.4,0.3,3-0.3C62.5,28.9,63.1,26.6,63.6,24.2z"/>
		<path class="st0" d="M55.3,12c0.1,0,0.1,0.1,0.2,0.1c0,0.1,0,0.2,0,0.3c-0.1,0-0.1,0.1-0.2,0.1C55.2,12.3,55.2,12.1,55.3,12z"/>
		<path class="st0" d="M156.6,20.2c-1.4-0.1-3.3,0.1-4.8-0.1c0.3-1.2,0.9-3.7-0.9-3.9c-0.7-0.1-1.8,0.3-2,0.9
			c-0.2,0.7-0.1,1.6,0.3,2.4c0.6,1,1.9,2,2.9,3c1.2,1.2,2.7,2.5,2.8,4.7c0.2,2.1-0.6,4.2-1.6,5.5c-0.5,0.7-1.4,1.2-2.3,1.8
			c-1.6,1-3.3,1.5-5.9,1.5c-2.9,0-5.6-1.2-5.7-4c-0.1-1.6,0.5-2.7,0.9-4.1c1.5-0.1,3.6,0,5.2-0.1c-0.2,1.5-0.8,2.8,0.6,3.5
			c0.1,0.1,0.2,0,0.3,0c0.1,0,0.1,0.2,0.3,0.2c1.8,0.1,2.5-1.6,2.1-3.1c-0.1-0.4-0.5-0.9-0.7-1.2c-0.7-1-1.8-2-2.7-3.2
			c-0.8-1.1-1.9-2.1-2.3-3.5c-0.4-1.4,0.2-4,0.9-5c1-1.3,2.6-2.5,4.6-2.9c0.9-0.2,1.7-0.6,3-0.6c1.9,0,3.7,0.3,5,1.3
			C158.3,14.8,157.3,18.2,156.6,20.2z"/>
		<path class="st0" d="M135.4,12.2c0.8-0.1,2.8-0.1,4,0.2c1,0.3,2.3,0.9,2.7,1.4c0.5,0.7,0.6,1.8,0.5,2.8c-0.1,1.2-0.6,2.5-0.9,3.8
			c-0.6,2.4-1.4,4.9-2.1,7.4c-0.4,1.3-0.6,2.7-1,3.7c-0.3,0.7-1,1.6-1.4,2.1c-2,2.1-6.2,3.1-9.9,2.2c-2-0.5-3.5-2.2-3.1-4.5
			c0.1-0.7,0.3-1.3,0.5-2c1-3.7,2.1-7.6,3.2-11.4c0.2-0.6,0.2-1.4,0.5-1.9c0.1-0.3,0.6-0.7,0.9-1c0.5-0.6,0.8-0.8,1.4-1.2
			C131.7,13,133.6,12.4,135.4,12.2z M133.2,31c0.1-0.1,0.4-0.8,0.5-1c0.3-0.9,0.5-2,0.8-3.1c0.7-2.6,1.4-5.2,2-7.8
			c0.1-0.6,0.4-1.2,0.3-1.6c-0.1-1.4-2.3-1.3-3.2-0.6c-0.6,0.5-1,2-1.3,3c-0.7,2.4-1.3,4.5-1.8,6.7c-0.4,1.4-0.9,2.7-0.9,4.2
			c0.1,0.1,0.2,0.3,0.2,0.5C130.8,32,132.6,31.8,133.2,31z"/>
		<path class="st0" d="M20,12.7c-0.2,3.6-0.6,7.4-0.9,10.9c0.4-0.3,0.6-0.8,0.8-1.3c1.5-3.1,3-6.4,4.5-9.6c1.5,0,3.3,0,4.9,0.1
			c-0.2,3.8-0.7,7.4-0.9,11.1c2-3.6,3.6-7.4,5.4-11.1c1.3,0.1,2.9-0.1,4.5,0.1c-3.5,7.4-6.9,14.9-10.5,22.3c-1.7,0-3.2,0.2-4.8-0.1
			c0.3-4.3,0.8-8.2,1.1-12.6c-0.7,0.9-1.1,2.1-1.6,3.1c-1.5,3.1-2.9,6.4-4.3,9.6c-1.4-0.1-3-0.1-4.9-0.1c0.1-6.2,0.7-12.5,1-18.4
			c-1.9-0.1-4.4,0-6.6-0.1C7,18.2,6.6,20.1,6,21.7c1.7,0.1,4,0,6,0.1c-0.2,1.2-0.7,2.5-1,3.8c-1.7,0-3.7,0.1-6,0.1
			c-0.6,1.8-1,3.8-1.6,5.7c2.2,0,4.5-0.1,6.5,0.1c-0.4,1.3-0.8,2.5-1.3,3.8c-3.8,0-8,0-11.4-0.1c1.8-7.5,3.8-14.9,5.8-22.3
			C8.4,12.7,14.3,12.7,20,12.7z"/>
		<path class="st0" d="M-13.8,12.7c1.9,0,3.9-0.1,5.7,0.1c0.5,3.6,0.8,7.2,1.3,10.7c1.2-3.5,2.1-7.3,3.2-10.8
			c1.4,0.1,3.3-0.1,4.3,0.1c-2,7.5-3.9,14.8-6.1,22.2c-1.6,0-3.3,0-4.9,0c-0.6-4.2-0.9-8.4-1.6-12.5c-1.3,4-2.3,8.5-3.7,12.5
			c-1.4,0-2.9,0.1-4.2-0.1c1.8-7.5,3.8-14.7,5.6-22.1C-14,12.8-13.9,12.7-13.8,12.7z"/>
		<path class="st0" d="M47.6,12.8c0.2,2.6,0.5,5.4,0.6,8c1.7-2.4,3.3-5.4,5-8c1.5,0,3.4-0.1,5,0.1c-2.4,3.9-5.2,7.7-7.7,11.8
			c-0.4,0.6-0.9,1.2-1.1,1.7c-0.3,0.7-0.4,1.5-0.6,2.3c-0.6,2.1-1.2,4.3-1.9,6.5c-1.7-0.1-3.5,0.1-4.9-0.1c0.5-2.9,1.6-5.9,2.2-8.8
			c0.1-0.7-0.1-1.3-0.2-2.1c-0.5-3.8-1-7.6-1.6-11.4C44.3,12.7,45.5,12.7,47.6,12.8z"/>
		<path class="st0" d="M171.6,12.7c-0.2,1.2-0.7,2.6-1,3.8c-1.2,0.2-2.6,0.1-3.7,0.1c-1.7,6.2-3.2,12.2-5,18.3
			c-1.5,0.1-3.4,0.1-4.9,0c1.5-6.2,3.3-12.2,4.8-18.5c-1-0.1-2.2,0-3.3-0.1c0.2-1.3,0.5-2.5,0.9-3.7
			C163.3,12.7,166.9,12.7,171.6,12.7z"/>
		<path class="st0" d="M83.3,24.1c0.9,0.5,1.9,0.6,1.8,2c0,0.6-0.3,1.5-0.6,2.3c-0.6,2-1.4,4.8-1.8,6.7c-1.8,0-3.2,0.1-5.3-0.1
			c0.2-1.8,0.9-4.2,1.4-6.3c0.2-0.7,0.6-1.6,0.4-2.1c-0.3-1-2.2-0.5-3.3-0.6c-1,2.9-1.7,6.1-2.7,9.1c-1.7-0.1-3.5,0-5.1-0.1
			c0.8-3.8,2-7.5,2.9-11.2c0.9-3.7,1.8-7.4,3-11.1c2.8,0.1,5.6-0.1,8.2-0.1c1.5,0,3.9-0.1,4.8,0.5c1.7,1.3,0.6,3.7,0.1,5.7
			c-0.3,1.1-0.6,2.2-0.8,2.8C85.8,23,84.4,23.5,83.3,24.1z M80.8,21.5c0.2-0.9,0.9-2.2,1-3.2c0.3-2.3-1.8-1.4-3.2-1.6
			c-0.7,1.6-1.1,3.6-1.7,5.4C78.1,22.1,80.2,22.3,80.8,21.5z"/>
		<path class="st0" d="M95.7,12.9c-0.6,2.5-1.3,4.8-1.8,7.2c0.7-0.4,1.1-1.1,1.7-1.7c1.6-1.7,3.3-3.7,4.9-5.5c1.5-0.1,3.4-0.1,4.8,0
			c-1.1,1.8-2.4,3.3-3.7,5c-1.3,1.6-2.5,3.2-3.8,4.8c0.9,4.2,1.8,8.1,2.6,12.3c-2.3,0.1-4,0.1-5.9,0.1c-0.6-3.3-1.3-6.6-1.9-9.8
			c-1.2,3.1-2,6.6-3,9.8c-1.8,0-3.5,0-5.5,0c0.3-1.8,0.9-3.7,1.4-5.5c0.6-1.8,1-3.7,1.5-5.5c0.6-1.8,1.2-3.7,1.6-5.5
			c0.5-1.9,1.1-3.8,1.6-5.6C92.1,12.7,94,12.8,95.7,12.9z"/>
		<path class="st0" d="M114.9,28.3c-0.7,2.2-1.3,4.5-2,6.8c-1.4,0.1-3.7,0.1-5,0c1.8-7.4,3.9-14.8,5.9-22.1c2.9-0.1,5.6-0.1,8.6-0.1
			c1,0,2.1-0.1,2.8,0c1.2,0.2,2,1.5,2,3c0,0.8-0.3,1.8-0.5,2.7c-0.5,2-0.8,3.5-1.5,5.2c-0.5,1.1-0.7,2.2-1.5,3
			C121.6,28.5,118.6,28.5,114.9,28.3z M119.7,23.7c0.7-1.1,1.4-3.4,1.7-5c0.1-0.5,0.2-0.9,0.1-1.2c-0.2-1.2-2.2-1-3.3-0.8
			c-0.7,2.4-1.4,4.9-2,7.4C117.2,24.6,118.8,24.3,119.7,23.7z"/>
		<path d="M129.9,31.3c0-0.2-0.1-0.4-0.2-0.5c0-1.5,0.5-2.8,0.9-4.2c0.6-2.2,1.2-4.3,1.8-6.7c0.3-1,0.7-2.5,1.3-3
			c0.9-0.7,3.1-0.8,3.2,0.6c0,0.4-0.2,1-0.3,1.6c-0.6,2.6-1.3,5.2-2,7.8c-0.3,1-0.5,2.1-0.8,3.1c-0.1,0.3-0.4,0.9-0.5,1
			C132.6,31.8,130.8,32,129.9,31.3z"/>
		<path d="M61.7,30.9c-0.6,0.6-2.1,0.8-3,0.3c-0.7-0.9,0.2-2.9,0.5-4.1c0.8-2.9,1.5-5.5,2.3-8.3c0.1-0.6,0.2-1.3,0.5-1.6
			c0.5-0.9,3.2-1.4,3.4,0c0.1,0.5-0.2,1.3-0.3,1.8c-0.3,1.7-1,3.6-1.4,5.2C63.1,26.6,62.5,28.9,61.7,30.9z"/>
		<path d="M116.1,24.1c0.7-2.5,1.3-4.9,2-7.4c1.2-0.3,3.2-0.4,3.3,0.8c0,0.3,0,0.8-0.1,1.2c-0.3,1.6-1,3.8-1.7,5
			C118.8,24.3,117.2,24.6,116.1,24.1z"/>
		<path d="M77,22.1c0.6-1.8,0.9-3.8,1.7-5.4c1.4,0.2,3.5-0.7,3.2,1.6c-0.1,1-0.8,2.3-1,3.2C80.2,22.3,78.1,22.1,77,22.1z"/>
		<path d="M71.5,13.2c0.6-0.4,1.1-0.8,1.6-1.3c3.2-0.1,6.9,0,10.2,0c1,0,2.1-0.2,3.1,0.1c0.6,0.1,1.1,0.7,1.7,1
			c0.6-0.2,0.9-0.7,1.4-1.1c2.5,0,5.1,0,7.6,0c-0.1,0.8-0.3,1.5-0.4,2.3c0.6-0.2,1.1-0.7,1.6-1c0.5-0.4,1-0.8,1.5-1.2
			c2.2,0,5.2,0,7.6,0c0.1,0.3-0.2,0.5-0.3,0.7c-2.7,3.3-5.4,7-8.1,10.4c0.9,4.5,1.9,8.9,3,13.3c-2.1,1.6-4.1,3.3-6.1,4.9
			c-2.6,0-5.2,0-7.7,0c-0.2-0.7-0.4-1.5-0.8-2.1c-0.6,0.1-1,0.7-1.6,1c-0.5,0.3-1.1,0.9-1.6,1c-1,0.2-2.4,0-3.7,0
			c-3.5,0-7.2,0-10.4-0.1c0-0.6,0.3-0.9,0.3-1.6c-0.9,0.4-1.6,1.1-2.5,1.6c-2.2,0-4.4,0-6.6,0c0.1-0.9,0.3-1.7,0.4-2.6
			c-0.9,0.3-1.7,0.9-2.7,1.4c-1.8,0.9-4,1.7-6.8,1.4c-3-0.2-4.5-1.6-5.7-3.7c-1.6,1-3,2.4-4.6,3.5c-2.5,0-4.9,0.1-7,0
			c0.7-2.5,1.4-5.1,2.1-7.7c0.2-0.8,0.6-1.7,0.7-2.5c0.1-0.8-0.2-1.7-0.3-2.5c-0.3-2.5-0.6-5.1-1-7.7c-0.6,0.5-0.7,1.3-1,1.9
			c-2.2,4.4-4.4,9.2-6.5,13.8c-1.4,1.2-3.2,2.4-4.8,3.7c-0.5,0.4-1.1,1.1-1.6,1.2c-0.9,0.2-2.2,0-3.3,0s-2.2,0-3-0.1
			c0.1-0.9,0.4-1.6,0.5-2.4c-0.7,0.1-1.3,0.7-1.9,1.2C13.9,40.1,13,41,12.3,41c-0.3,0-0.6,0-0.9-0.1C9.9,40.9,8,41,6.3,41
			c-0.1-0.5,0.2-1.1,0.2-1.8c-0.6,0.1-0.9,0.6-1.4,0.9c-0.4,0.3-0.9,0.8-1.3,0.9c-0.6,0.2-1.7,0-2.6,0.1c-2.6,0.1-6.5-0.2-9.9,0
			c-0.2-0.3-0.3-0.7-0.6-0.9c-0.5,0.1-0.7,0.8-1.2,0.9c-0.4,0.1-1,0-1.5,0c-1.5,0-3.2,0-4.7,0c-0.2-0.8-0.2-1.7-0.4-2.4
			c-1.3,0.7-2.2,1.6-3.3,2.4c-2.1,0-4.3,0-6.4,0c1.2-5.6,3.1-11.8,4.5-17.7c0.4-1.6,0.8-3,1.2-4.6c0.2-0.7,0.2-1.5,0.5-2.1
			c0.3-0.6,0.9-0.8,1.5-1.3c1.5-1.3,2.9-2.6,4.5-3.7c2.4,0,4.8,0,7.2,0c0.2,0.5,0.2,1,0.3,1.6c0.8-0.1,1.6-1.4,2.4-1.6
			c0.6-0.1,1.4,0.1,2.1,0.1c7.2-0.3,16.7,0,23.3-0.1c0.1,0.5,0.1,1.1,0.2,1.5c0.8-0.1,1.4-1.2,2.1-1.4c0.9-0.2,2.2,0,3.3,0
			c1.2,0,2.3,0,3.4,0c0.2,0.5,0.1,1.3,0.2,1.8c1.1-0.5,1.8-1.3,2.7-1.8c2.3,0,4.5,0,6.8,0c0,0.4-0.3,0.6-0.3,1c0.7-0.2,1-0.7,1.6-1
			c2.5,0,5.1,0,7.6,0c0.2,0.7,0.1,1.9,0.2,2.5c1.3-0.7,2.2-1.7,3.3-2.5c2.5,0,4.9,0,7.5,0c0.3-0.1,0.1,0.3,0.4,0.2
			C63.4,10.8,69.1,10.8,71.5,13.2z M57.3,15.4c-0.7,1-1,1.8-1.3,3.2c-0.8,3-1.7,6.2-2.4,9.1c-0.4,1.8-1.4,4-0.9,6
			c0.2,1,1.8,1.8,2.5,2c2.8,1,7,0.3,9-1c1.1-0.7,2.4-2,2.9-3.2c0.4-0.9,0.7-2.3,1-3.7c0.7-2.5,1.4-5.1,2-7.5
			c0.3-1.2,0.8-2.7,0.9-3.9c0.1-0.5,0.1-1.2,0-1.5c-0.6-2.9-4-3.1-7.5-2.8C60.7,12.2,58.7,13.5,57.3,15.4z M3,12.7
			c-2,7.4-4,14.8-5.8,22.3c3.5,0.1,7.6,0,11.4,0.1c0.4-1.3,0.9-2.5,1.3-3.8c-2.1-0.1-4.4,0-6.5-0.1c0.6-1.9,1-3.9,1.6-5.7
			c2.3,0,4.3,0,6-0.1c0.3-1.3,0.8-2.6,1-3.8c-2,0-4.3,0-6-0.1c0.6-1.6,1-3.5,1.7-5.1c2.2,0,4.7,0,6.6,0.1c-0.3,6-0.9,12.2-1,18.4
			c2,0,3.5,0,4.9,0.1c1.5-3.2,2.9-6.4,4.3-9.6c0.5-1,0.9-2.2,1.6-3.1c-0.3,4.3-0.8,8.3-1.1,12.6c1.6,0.2,3.1,0,4.8,0.1
			c3.5-7.4,7-14.8,10.5-22.3c-1.6-0.1-3.2,0-4.5-0.1c-1.8,3.7-3.5,7.5-5.4,11.1c0.2-3.7,0.7-7.3,0.9-11.1c-1.6-0.1-3.4-0.1-4.9-0.1
			c-1.5,3.2-3,6.5-4.5,9.6c-0.2,0.4-0.3,1-0.8,1.3c0.3-3.5,0.7-7.3,0.9-10.9C14.3,12.7,8.4,12.7,3,12.7z M-14,12.9
			c-1.8,7.4-3.8,14.6-5.6,22.1c1.3,0.1,2.8,0,4.2,0.1c1.4-4,2.3-8.4,3.7-12.5c0.7,4.1,0.9,8.3,1.6,12.5c1.6,0,3.3,0,4.9,0
			c2.1-7.4,4.1-14.7,6.1-22.2c-1-0.2-2.9-0.1-4.3-0.1c-1.2,3.5-2.1,7.3-3.2,10.8c-0.5-3.5-0.9-7.2-1.3-10.7c-1.8-0.1-3.8,0-5.7-0.1
			C-13.9,12.7-14,12.8-14,12.9z M42.4,12.8c0.5,3.8,1.1,7.6,1.6,11.4c0.1,0.8,0.4,1.4,0.2,2.1c-0.6,2.9-1.7,5.9-2.2,8.8
			c1.5,0.1,3.2,0,4.9,0.1c0.7-2.3,1.4-4.5,1.9-6.5c0.2-0.8,0.3-1.6,0.6-2.3c0.2-0.5,0.7-1.1,1.1-1.7c2.5-4,5.3-7.8,7.7-11.8
			c-1.6-0.1-3.6,0-5-0.1c-1.7,2.6-3.3,5.6-5,8c-0.1-2.6-0.4-5.4-0.6-8C45.5,12.7,44.3,12.7,42.4,12.8z M86.3,21.8
			c0.2-0.6,0.5-1.8,0.8-2.8c0.5-2,1.6-4.4-0.1-5.7c-0.9-0.7-3.3-0.5-4.8-0.5c-2.7,0-5.4,0.1-8.2,0.1c-1.1,3.6-2,7.4-3,11.1
			c-0.9,3.7-2.1,7.4-2.9,11.2c1.6,0.1,3.4,0,5.1,0.1c0.9-3,1.6-6.2,2.7-9.1c1.1,0.1,3-0.3,3.3,0.6c0.2,0.5-0.2,1.4-0.4,2.1
			c-0.5,2.1-1.2,4.5-1.4,6.3c2.1,0.1,3.5,0.1,5.3,0.1c0.5-1.8,1.3-4.6,1.8-6.7c0.2-0.8,0.5-1.7,0.6-2.3c0.1-1.4-0.9-1.6-1.8-2
			C84.4,23.5,85.8,23,86.3,21.8z M90.4,12.9c-0.6,1.7-1.2,3.7-1.6,5.6c-0.5,1.8-1.1,3.7-1.6,5.5c-0.6,1.8-0.9,3.7-1.5,5.5
			c-0.6,1.8-1.1,3.7-1.4,5.5c2,0,3.7,0,5.5,0c1-3.3,1.8-6.7,3-9.8c0.7,3.3,1.3,6.6,1.9,9.8c1.8,0,3.5,0.1,5.9-0.1
			c-0.8-4.2-1.7-8.1-2.6-12.3c1.3-1.6,2.5-3.2,3.8-4.8c1.3-1.6,2.6-3.2,3.7-5c-1.5-0.1-3.4-0.1-4.8,0c-1.6,1.8-3.3,3.7-4.9,5.5
			c-0.6,0.6-1,1.3-1.7,1.7c0.6-2.4,1.3-4.7,1.8-7.2C94,12.8,92.1,12.7,90.4,12.9z"/>
	</g>
</g>
</svg>
