<?xml version="1.0" encoding="utf-8"?>
<!-- Generator: Adobe Illustrator 19.1.0, SVG Export Plug-In . SVG Version: 6.00 Build 0)  -->
<svg version="1.1" id="Layer_1" xmlns="http://www.w3.org/2000/svg" xmlns:xlink="http://www.w3.org/1999/xlink" x="0px" y="0px"
	 viewBox="0 0 210 51" style="enable-background:new 0 0 210 51;" xml:space="preserve">
<style type="text/css">
	.st0{fill:#020202;}
</style>
<g>
	<path id="path6_5_" class="st0" d="M12.9,12.6c-0.2,0-0.4,0.1-0.6,0.2c0.8,0.2,1.6,0.3,2.1,1c0.3,0.3,0.2,0.7-0.1,0.9
		c-0.5,0.6-1.2,0.7-1.9,0.6c-2.3-0.6-4.4-1.5-6.7-1.8c-1.2-0.2-2.5,0.5-3.3,1.3c-0.8,0.8-1.1,2-1,3.1c0.2,0.9,0.9,1.7,1.7,1.9
		C2.5,19.1,2.4,18,3,17.4c0.3-0.4,0.9-0.5,1.3-0.4c1.8,0.4,3.5,0.9,5.4,1.2c1.1,0.3,2,0.6,3.1,0.8c0,1.2,0,2.5,0,3.7
		c-0.7,0.5-1.3,1.1-1.9,1.5c0.7,0.5,1.2,1,1.9,1.3c0,1.7,0,3.4,0,5.2c-1.1,0.9-2.5,1-3.8,0.8c-1.3-0.1-2.6-0.9-3.5-1.9
		c1.5-0.8,3.1-1.5,4.6-2.3c0.1-2.8,0-5.5,0-8.2c-1.9,0.9-3.8,1.7-5.8,2.5c0.6-1.4,1.7-2.6,3.1-3.3c-0.4,0-0.8,0-1.1,0.2
		c-2.6,1.1-4.7,3.2-5.5,5.8c-0.6,1.6-0.4,3.5,0.2,5.2c0.7,1.8,2,3.4,3.7,4.3c1,0.5,2,1,3.2,1c2.3,0.2,4.8-0.7,6.3-2.4
		c0.7-0.8,1.1-1.7,1.3-2.6c0.3-1,0.5-1.9,0.4-2.9c-0.8,1.5-1.7,2.9-3.2,3.8c0-1.7,0-3.4,0-5.2c0.6-0.5,1.1-0.9,1.7-1.3
		c-0.6-0.5-1.1-1.1-1.7-1.5c0-1.2,0-2.4,0-3.6c1.3-0.1,2.9-0.8,3.3-2.2c0.3-0.9,0.4-2-0.2-2.8c-0.5-0.6-1.1-1.1-1.9-1.2
		C13.7,12.8,13.3,12.6,12.9,12.6z M6.6,20.9c0,2.7,0,5.3,0,7.9c-0.5,0.2-0.9,0.4-1.3,0.6c-0.8-1.1-1.3-2.5-1.5-3.9
		C3.7,24.3,4,23.1,4.4,22C5.1,21.7,5.9,21.3,6.6,20.9z"/>
	<path id="path8_5_" class="st0" d="M158.8,12.6c-0.2,0-0.4,0-0.6,0.2c0.5,0.1,1,0.2,1.3,0.4c0.4,0.2,0.6,0.6,0.8,1
		c0.1,0.4-0.2,0.8-0.6,1c-0.7,0.3-1.4,0.2-2.1,0c-1.6-0.5-3.2-1.1-4.8-1.5c-0.9-0.2-1.7-0.4-2.6-0.1c-1,0.3-1.8,0.7-2.4,1.5
		c-0.7,0.9-0.8,2.1-0.5,3.2c0.3,0.7,0.9,1.4,1.6,1.5c-0.3-0.4-0.7-0.7-0.6-1.1c0.1-0.5,0.3-1,0.7-1.2c0.4-0.3,0.9-0.3,1.3-0.2
		c1.6,0.3,3.2,0.8,4.8,1.1c1.1,0.2,2.1,0.7,3.3,0.9c0,1.2,0,2.5,0,3.6c-0.6,0.5-1.1,1.1-1.7,1.5c0.6,0.5,1.1,1,1.7,1.3
		c0,1.7,0,3.4,0,5.3c-1.1,0.8-2.4,1-3.6,0.8c-1.3-0.1-2.6-1-3.5-1.9c0.4-0.3,0.8-0.4,1.2-0.7c1.1-0.6,2.3-1.1,3.4-1.7
		c0-2.8,0-5.5,0-8.2c-1.9,0.9-3.8,1.7-5.8,2.5c0.5-1.1,1.1-2,2.1-2.7c0.3-0.3,0.6-0.6,1-0.7c-0.4,0-0.8,0-1.1,0.2
		c-2.8,1.1-5.1,3.5-5.5,6.5c-0.2,1.5-0.1,3.1,0.5,4.5c0.7,1.6,1.8,3.2,3.4,4.1c0.8,0.5,1.5,0.8,2.4,1.1c2,0.3,4.1,0,5.8-1.1
		c1.1-0.8,2.2-1.8,2.7-3.2c0.5-1.1,0.8-2.4,0.8-3.6c-0.2,0.3-0.4,0.7-0.6,1.1c-0.7,1.1-1.5,2.1-2.6,2.9c0-1.7,0-3.4,0-5.2
		c0.6-0.4,1.1-0.9,1.7-1.3c-0.6-0.6-1.1-1.1-1.7-1.6c0-1.2,0-2.4,0-3.6c1.1-0.1,2.3-0.6,2.9-1.6c0.7-1.1,0.7-2.4,0-3.4
		c-0.5-0.7-1.2-1.1-2-1.1C159.5,12.8,159.1,12.6,158.8,12.6L158.8,12.6z M152.5,20.9c0,2.7,0,5.3,0,7.9c-0.5,0.2-0.9,0.4-1.3,0.6
		c-0.7-1-1.1-1.9-1.4-3.1c-0.3-1.4-0.2-3,0.5-4.3C150.9,21.7,151.7,21.3,152.5,20.9L152.5,20.9z"/>
	<path id="path10_5_" class="st0" d="M59.9,13.4c0.8,1.3,0.3,3.1-0.9,4c-0.7,0.5-1.4,0.7-2.2,1c0,5.4,0,10.6,0,16
		c0.1,0.3-0.2,0.5-0.4,0.4c-0.5,0-0.6-0.5-0.8-0.9c-2.8-5.1-5.5-10.2-8.3-15.3c-0.1,3.6-0.1,7.5-0.1,11.2c1.3,0.3,2.6,0.9,3.4,1.9
		c0.4-0.3,0.7-0.9,1.1-1c-0.1,0.2-0.3,0.5-0.5,0.7c-1,1.1-2,2.2-3,3.3c-0.5-0.6-1.1-1.1-1.8-1.2c-0.5,0-1.1,0-1.4,0.4
		c-0.4,0.4-0.7,1.1-0.4,1.5c0.4,0.8,1.2,1,2,1.1c-1,0.2-2,0.1-2.8-0.6c-0.6-0.5-1.1-1.1-1.3-2c-0.2-1.1,0.1-2.3,1-3.2
		c0.9-0.9,2.2-1.2,3.4-1.1c0-1.6,0-3.3,0-4.9c-0.6-0.1-1.4,0-1.7,0.6c-0.2,0.5,0.2,1,0.6,1.2c-0.5-0.1-1-0.2-1.3-0.6
		c-0.4-0.5-0.7-1.1-0.9-1.7c-0.1-0.8,0.1-1.7,0.8-2.3c0.7-0.6,1.6-0.6,2.5-0.6c0-1.1,0-2.3,0-3.4c-0.3-0.5-0.6-1.1-1.1-1.2
		c-0.4-0.2-0.8-0.2-1.1,0.1c-0.4,0.4-0.5,1-0.7,1.4c-0.2-1.2,0-2.6,0.8-3.5c1.1-1.3,3.2-1.3,4.3-0.2c0.5,0.5,0.9,1.1,1.1,1.7
		c2.1,3.6,4.1,7.4,6.2,11.1c0-3.1,0-6.1,0-9.1c-0.4-0.1-0.8-0.1-1.1-0.3c-0.7-0.2-1.2-0.6-1.7-1.1c-0.3,0.4-0.7,0.8-1,1.1
		c-0.1,0-0.2-0.1-0.3-0.2c1.1-1.3,2.2-2.7,3.3-3.9c0.6,0.6,1.3,1.1,2.2,1.1C59,15.1,59.8,14.4,59.9,13.4L59.9,13.4z"/>
	<path id="path12_5_" class="st0" d="M129.4,16.4c1.5-1,3-1.9,4.5-3c0,5.7,0,11.5,0,17.2c0.3,0.5,0.8,0.8,1.1,1.1
		c0.3-0.3,0.5-0.5,0.8-0.8c0.1,0.1,0.2,0.2,0.3,0.2c-1.2,1.1-2.4,2.1-3.5,3.2c-0.8-0.8-1.5-1.5-2.3-2.3c-0.4,0.3-0.7,0.7-1,1
		c-0.1-0.1-0.2-0.2-0.3-0.2c0.6-0.6,1.1-1.1,1.7-1.6c0-4.4,0-8.7,0-13C130.8,17.4,130.3,16.5,129.4,16.4z"/>
	<path id="path14_5_" class="st0" d="M17.8,16.6c1.2-1,2.6-1.9,3.8-2.9c0,3.2,0,6.3,0,9.5c1.1-0.9,2.2-1.8,3.3-2.7
		c0.9,0.9,1.6,1.8,2.6,2.7c0.4-0.3,0.8-0.6,1.1-0.8c-0.1,0.5-0.7,0.7-1,1.1c0,1.7,0,3.4,0,5.2c0,1.3-0.2,2.6-0.2,3.8
		c-0.1,1.4-0.6,2.9-1.7,3.7c-0.9,0.8-2.1,1.1-3.3,1.1l-0.1,0.1v-0.1c-0.4,0-0.8,0-1.2,0c0.5-0.3,1.1-0.4,1.4-0.9
		c0.5-0.5,1-1,1.2-1.6c0.5-1,0.5-2.1,0.5-3.2c0-2.4,0-4.8,0-7.1c-0.6-0.7-1.1-1.3-1.7-1.9c-0.3,0.3-0.7,0.6-1,1c0,2.5,0,4.9,0,7.4
		c0.3,0.3,0.7,0.7,1,1c0.3-0.3,0.5-0.5,0.8-0.8c0.1,0.1,0.2,0.2,0.2,0.2c-1.2,1-2.5,2-3.7,3c-0.8-0.7-1.5-1.4-2.3-2.1
		c-0.3,0.2-0.5,0.4-0.8,0.6c-0.1-0.1-0.2-0.2-0.2-0.2c0.6-0.4,1.1-0.8,1.8-1.1c0-4.3,0-8.7,0-13c0-0.3,0-0.7-0.2-1
		c-0.1-0.2-0.4-0.3-0.6-0.5C17.6,16.7,17.7,16.7,17.8,16.6L17.8,16.6z"/>
	<path id="path16_5_" class="st0" d="M103.6,14.3c-1.1,1-2.3,1.9-3.4,2.9c0-0.9,0-1.8,0-2.7c-0.2,0-0.3,0.1-0.2,0.3
		c0,6.4,0,12.8,0,19.2c-0.7-0.1-1.2-0.3-1.9-0.4c0-5.4,0-10.8,0-16.2c0-0.7-0.2-1.3-0.7-1.9c-0.6-0.7-1.4-1-2.3-1.1
		c-1,0-1.9,0.5-2.6,1.1c-0.7,0.6-1,1.5-0.8,2.4c0.1-0.6,0.3-1.1,0.8-1.4c0.6-0.2,1.2,0,1.6,0.5c0.3,0.4,0.3,1,0.3,1.4
		c0,1.4,0,3,0,4.4c-1,0-2.1,0.2-2.7,1.1c-0.6,0.7-0.8,1.7-0.4,2.5c0.3,0.9,1.1,1.2,1.9,1.3c-0.5-0.3-0.9-0.8-0.7-1.3
		c0.4-0.6,1.1-0.7,1.7-0.5c0,2.6,0,5.2,0,7.8c-0.9,0.3-1.7,0.9-2.2,1.7c-0.4,0.6-0.4,1.3-0.3,2c0.1,1.1,0.9,2.2,1.9,2.8
		c0.8,0.4,1.6,0.4,2.5,0.4c2.4-0.1,4.7-1.1,7.1-1.1c0.7-0.1,1.1,0.8,1,1.3c-0.1,0.6-0.6,1-1.1,1.2c0.9-0.2,1.7-0.5,2.4-1.1
		c0.8-0.7,1.1-1.6,1.1-2.6c-0.1-1-0.9-1.6-1.6-2.1c-1.1-0.6-2.3-0.5-3.4-0.4c-2.2,0.3-4.3,1-6.4,1c-0.8,0.1-1.4-0.5-1.5-1.2
		c-0.2-0.7,0.4-1.3,1-1.6c1.2-0.6,2.7-0.4,3.9-0.1c1.5,0.2,2.9,0.8,4.4,1c0.9,0.1,1.7-0.1,2.5-0.6c0.8-0.5,1.1-1.3,1.1-2.1
		c0-5.1,0-10.2,0-15.3c0.5-0.4,1-0.8,1.3-1.2c-0.6,0.1-1,0.7-1.4,1C105.4,15.8,104.5,15.1,103.6,14.3L103.6,14.3z M101.1,16.9
		c0.5,0.5,1.1,0.9,1.5,1.3c0,1.6,0,3.3,0,4.8c-0.3,0.3-0.5,0.5-0.9,0.6c-0.6,0.1-1.1-0.2-1.6-0.6c0-1.9,0-3.7,0-5.6
		C100.4,17.3,100.7,17.1,101.1,16.9L101.1,16.9z M100.1,23.5c0.8,0.4,1.7,0.5,2.5,0c0,0.8,0,1.4,0,2.2c-0.3-0.3-0.7-0.6-1.1-0.5
		c-0.5,0-1,0.2-1.3,0.5C100.1,24.9,100.1,24.2,100.1,23.5L100.1,23.5z M101.5,25.4c0.5,0,0.9,0.4,1.1,0.8c0,2,0,4.1,0,6.1
		c0,0.7-0.4,1.1-0.9,1.5c-0.5,0.4-1.1,0.4-1.6,0.4c0-2.7,0-5.4,0-7.9C100.5,25.8,100.9,25.4,101.5,25.4z"/>
	<path id="path18_5_" class="st0" d="M162.8,17.5c0.8-0.7,1.5-1.4,2.4-2.2c0.7,0.8,1.4,1.4,2.1,2.2c-0.9,0.8-1.7,1.6-2.6,2.4
		C164.1,19.2,163.4,18.4,162.8,17.5L162.8,17.5z"/>
	<path id="path22_5_" class="st0" d="M69.6,18.3c0.5-0.4,1.1-0.3,1.7-0.4c-0.5,0.4-1,0.8-1,1.3c-0.1,0.6,0.3,1.1,0.7,1.3
		c0.8,0.6,1.6,0.9,2.2,1.6c0.3,0.4,0.5,0.8,0.5,1.2c0,2.4,0,4.8,0,7.3c0.7,0.5,1.2,1.1,1.9,1.5c0.2-0.1,0.4-0.3,0.6-0.4
		c0-2.7,0-5.3,0-7.9c-0.3-0.4-0.8-0.7-1.1-1.1c1-0.9,1.8-1.7,2.8-2.6c0.9,0.8,1.7,1.5,2.5,2.4c-0.3,0.4-0.7,0.7-1,1c0,2.3,0,4.6,0,7
		c0.9,0.7,1.7,1.3,2.5,1.9c0.1-0.1,0.3-0.1,0.4-0.2c0-2.9,0-5.6,0-8.5c-0.4-0.3-0.8-0.7-1.1-1c0.9-0.9,1.8-1.7,2.8-2.6
		c1,0.7,1.8,1.4,2.7,2.1c0.3-0.4,0.7-0.7,1-1c0,0.1,0.1,0.2,0.2,0.3c-0.8,0.7-1.5,1.4-2.3,2.1c-0.1,2.3,0,4.5,0,6.8
		c-2,1.3-4,2.5-6,3.7c-1.1-0.8-2.1-1.5-3.2-2.3c-1,0.8-1.9,1.5-2.8,2.2c-0.1,0.2-0.3-0.1-0.4-0.1c-0.9-0.7-1.7-1.4-2.7-2.1
		c-0.4,0.3-0.8,0.7-1.1,1c-0.1-0.1-0.2-0.2-0.2-0.2c0.5-0.3,0.9-0.7,1.3-1c0-2.2,0-4.4,0-6.6c0-0.6-0.2-1.1-0.6-1.6
		c-0.5-0.5-1.1-0.8-1.3-1.3c-0.4-0.7-0.4-1.4-0.3-2.2C68.3,19.4,68.9,18.8,69.6,18.3L69.6,18.3z"/>
	<path id="path24_5_" class="st0" d="M208.3,19.9c0.1,0.2,0.1,0.5,0,0.7c-0.3,0.7-1.1,0.9-1.6,0.9c-0.7-0.1-1.1-0.6-1.6-1
		c-0.8,0.5-1.5,1.1-2.3,1.5c-0.9,0.6-1.8,1.1-2.8,1.4c0,1.2,0,2.5,0,3.7c0.7,0.6,1.4,1.1,2.1,1.7c-0.6,0.6-1.1,1.1-1.5,1.7
		c-0.5,0.6-1,1.3-1.1,2.2c0,1,0.4,2,1.2,2.5c0.4,0.2,0.9,0.4,1.2,0.3c-0.6-0.2-1.1-0.6-1.1-1.2c0.2-0.6,0.9-1.1,1.5-0.9
		c0.7,0.2,1.1,0.7,1.5,1.1c1.6-1.1,3.3-2.2,5.1-3.2c0-1.5,0-3.2,0-4.7c-0.8-0.6-1.5-1.1-2.3-1.7c0.9-1.1,1.6-2.1,2-3.4
		C208.6,21,208.6,20.3,208.3,19.9L208.3,19.9z M203,22.2c0.5,0.8,1.2,1.5,2.2,1.6c1,0.2,1.8-0.3,2.5-1c-0.9,1.5-2.2,2.9-3.5,3.9
		c-0.4-0.4-0.8-0.8-1.1-1.1C203,24.5,203,23.4,203,22.2L203,22.2z M204.3,26.9c0.4,0.4,0.8,0.7,1.2,1.1c0.2,0.1,0.1,0.4,0.1,0.5
		c0,1.3,0,2.7,0,4c-0.3-0.7-0.8-1.3-1.4-1.7c-1-0.6-2.2-0.7-3.2-0.1c-0.5,0.3-0.8,0.6-1.1,1c0.5-1,1.2-1.6,1.9-2.4
		C202.7,28.5,203.6,27.8,204.3,26.9z"/>
	<path id="path26_5_" class="st0" d="M36.2,20.5c-1.1,0.7-2.1,1.3-3.2,1.9c-0.9,0.5-1.8,0.9-2.7,1.3c0,2.5,0,5.1,0,7.6
		c-0.4,0.3-0.9,0.5-1.1,0.9c0.1,0,0.2,0.1,0.3,0.2c0.3-0.3,0.6-0.5,1-0.8c1.1,1,2.2,1.9,3.3,2.9c0.1,0,0.2-0.1,0.2-0.1
		c1.9-1.4,3.8-2.9,5.6-4.4l-0.2-0.2c-1.1,0.9-2.1,1.7-3.1,2.5c-0.9-0.8-1.7-1.5-2.6-2.4c-0.3-0.2-0.1-0.6-0.2-1
		c1.7-1.2,3.5-2.6,5.3-3.9C37.9,23.6,37.1,22,36.2,20.5z M33.5,22.3c0.9,1.4,1.8,2.9,2.7,4.4c-0.9,0.7-1.8,1.2-2.7,1.9
		C33.5,26.5,33.5,24.4,33.5,22.3L33.5,22.3z"/>
	<path id="path28_5_" class="st0" d="M65.3,20.5c-0.8,0.5-1.5,1-2.3,1.4c-1.1,0.7-2.4,1.2-3.5,1.8c0,2.5,0,5.1,0,7.6
		c-0.4,0.3-0.8,0.5-1.1,0.8c0,0.1,0.1,0.2,0.2,0.3c0.4-0.3,0.8-0.6,1.1-0.8c1.1,1,2,1.9,3.1,2.9c1.9-1.4,3.8-2.9,5.7-4.4
		c0.3-0.1,0-0.5-0.1-0.3c-1.1,0.8-2,1.6-3.1,2.5c-0.8-0.8-1.6-1.6-2.4-2.4c-0.3-0.2-0.1-0.6-0.1-0.9c1.7-1.2,3.3-2.6,5.1-3.8
		C67.1,23.6,66.2,22,65.3,20.5z M62.8,22.4c0.9,1.4,1.6,2.9,2.5,4.3c-0.9,0.6-1.6,1.2-2.5,1.9C62.8,26.5,62.8,24.4,62.8,22.4z"/>
	<path id="path30_5_" class="st0" d="M114.5,20.5c-0.9,0.5-1.6,1-2.5,1.5c-1,0.6-2,1-3,1.4c0,2.7,0,5.3,0,7.9
		c-0.4,0.4-0.7,0.7-1.1,1.1c0.1,0,0.2,0,0.3,0c0.2-0.3,0.5-0.5,0.8-0.8c1.1,1,2.2,1.9,3.3,2.8c0.2,0.2,0.4-0.1,0.6-0.2
		c1.8-1,3.5-2.2,5.4-3.1c0-2.5,0-4.9,0-7.4c0.4-0.4,0.7-0.7,1.1-1.1c-0.1,0-0.2,0-0.3,0c-0.3,0.3-0.7,0.5-1,0.8
		C116.9,22.5,115.7,21.5,114.5,20.5L114.5,20.5z M112.4,22.3c0.9,0.9,1.8,1.6,2.7,2.5c0,2.6,0,5.3,0,7.8c-1-0.8-1.8-1.6-2.7-2.5
		V22.3L112.4,22.3z"/>
	<path id="path32_5_" class="st0" d="M134,26.3c1.2-2,2.6-3.9,3.9-5.8c0.6,0.5,1.2,0.8,2,0.9c0.8,0,1.3-0.5,1.9-0.9
		c-0.1,1.1-0.5,2.2-1.3,2.9c-0.7,0.7-1.8,0.8-2.7,0.5c-0.6-0.2-1.1-0.5-1.4-0.8c-0.1,0.2-0.1,0.4-0.2,0.6c1.8,2.8,3.6,5.5,5.4,8.2
		c0.4-0.3,0.8-0.6,1.1-1c0.1,0,0.2,0.1,0.3,0.2c-1.2,1.1-2.6,2.2-3.9,3.3C137.5,31.8,135.7,29,134,26.3L134,26.3z"/>
	<path id="path34_5_" class="st0" d="M195.6,20.5c-0.8,0.5-1.6,1-2.4,1.4c-1.1,0.8-2.3,1.2-3.4,1.8c0,2.5,0,5.1,0,7.6
		c-0.4,0.3-0.8,0.6-1.1,0.8c0.1,0.1,0.2,0.2,0.2,0.3c0.4-0.3,0.7-0.6,1.1-0.8c1.1,1,2.1,1.8,3.2,2.8c0.1,0.2,0.3,0,0.4-0.1
		c1.9-1.4,3.7-2.9,5.6-4.3c-0.2-0.4-0.5,0-0.7,0.2c-0.9,0.8-1.7,1.4-2.7,2.1c-0.9-0.9-1.8-1.7-2.7-2.5c0-0.3,0-0.5,0-0.8
		c1.7-1.2,3.5-2.6,5.3-3.9C197.4,23.6,196.5,22,195.6,20.5L195.6,20.5z M192.9,22.3c1,1.4,1.8,2.9,2.7,4.3c-0.9,0.6-1.8,1.2-2.7,1.9
		C193,26.5,192.9,24.4,192.9,22.3L192.9,22.3z"/>
	<path id="path36_5_" class="st0" d="M123,20.7c0.7,0.7,1.3,1.4,2,2.1c0.8-0.7,1.4-1.4,2.1-2.1c0.5,0.3,1.1,0.8,1.7,0.7
		c0.5,0,0.7-0.5,1.1-0.7c0,1-0.2,1.9-0.9,2.7c-0.8,0.9-2.1,1.1-3.1,0.5c-0.4-0.2-0.6-0.6-1-0.8c0,2.6,0,5.2,0,7.8
		c0.5,0.4,1.1,0.8,1.5,1.1c0.4-0.3,0.7-0.7,1.1-0.8c-1.1,1.1-2.3,2.1-3.5,3.2c-0.9-0.9-1.8-1.6-2.7-2.5c-0.4,0.3-0.7,0.7-1,1
		c-0.1-0.1-0.2-0.2-0.2-0.3c0.5-0.5,1-1,1.3-1.3c0-2.2,0-4.5,0-6.7c-0.2-0.6-0.7-1.1-1-1.6c-0.4,0.3-0.7,0.8-1.2,0.8
		C120.6,22.7,121.9,21.8,123,20.7L123,20.7z"/>
	<path id="path38_5_" class="st0" d="M169.1,23.5c1.1-1,2.1-1.9,3.2-2.8c0.8,0.9,1.5,1.6,2.3,2.5c1.1-0.8,2.2-1.7,3.3-2.5
		c0.8,0.9,1.5,1.7,2.3,2.5c1.1-0.9,2.2-1.7,3.3-2.5c0.8,0.9,1.5,1.6,2.3,2.5c0.5-0.3,0.9-0.7,1.3-1c0,0.3-0.2,0.4-0.4,0.6
		c-0.3,0.2-0.5,0.4-0.8,0.7c0,2.3,0,4.6,0,7c0.5,0.5,0.9,0.9,1.3,1.3c0.3-0.3,0.5-0.5,0.8-0.8c0.1,0,0.2,0.1,0.3,0.2
		c-1.1,1.1-2.4,2.3-3.5,3.3c-0.9-1-1.7-1.9-2.6-3c0.2-0.2,0.4-0.4,0.6-0.6c0-2,0-4,0-6c-0.7-0.7-1.2-1.4-1.9-2.1
		c-0.2,0.2-0.4,0.4-0.6,0.6c0,2.5,0,5,0,7.5c0.3,0.4,0.7,0.7,1,1.1c-0.9,0.8-1.7,1.5-2.6,2.3c-0.8-0.9-1.6-1.7-2.4-2.6
		c0.2-0.3,0.7-0.5,0.6-0.9c0-1.9,0-3.9,0-5.8c-0.6-0.8-1.1-1.4-1.7-2.1c-0.2,0.2-0.4,0.4-0.6,0.6c0,2.4,0,4.9,0,7.3
		c0.3,0.5,0.7,0.8,1,1.2c-0.9,0.9-1.7,1.7-2.6,2.6c-0.9-1-1.7-1.9-2.5-3c0.3-0.2,0.5-0.4,0.8-0.6c0-2,0-4.1,0-6.1
		c-0.5-0.6-1.1-1.1-1.5-1.7c-0.4,0.3-0.7,0.6-1.1,0.8C168.8,23.7,169,23.6,169.1,23.5z"/>
	<path id="path40_5_" class="st0" d="M161.8,23.7c1.1-1,2.2-2,3.3-3c0.8,0.9,1.5,1.8,2.3,2.7c0.4-0.3,0.8-0.7,1.2-1
		c0,0.1-0.1,0.3-0.2,0.4c-0.4,0.3-0.7,0.6-1.1,0.9c0,2.3,0,4.7,0,7c0.5,0.5,0.9,1,1.3,1.5c0.4-0.2,0.7-0.5,1-0.8
		c0.1,0,0.2,0.1,0.3,0.2c-1.1,1.1-2.2,2-3.3,3c-0.8-1-1.5-1.8-2.3-2.7c-0.4,0.3-0.6,0.7-1,1c-0.1-0.1-0.2-0.2-0.2-0.2
		c0.3-0.3,0.7-0.7,1-1c0-2.1,0-4.2,0-6.3c0-0.3,0.1-0.7-0.2-0.9c-0.4-0.5-0.8-1.1-1.2-1.5C162.4,23.1,162.1,23.4,161.8,23.7
		L161.8,23.7z"/>
</g>
</svg>
