<?xml version="1.0" encoding="utf-8"?>
<!-- Generator: Adobe Illustrator 19.1.0, SVG Export Plug-In . SVG Version: 6.00 Build 0)  -->
<svg version="1.1" id="Layer_1" xmlns="http://www.w3.org/2000/svg" xmlns:xlink="http://www.w3.org/1999/xlink" x="0px" y="0px"
	 viewBox="0 0 210 51" style="enable-background:new 0 0 210 51;" xml:space="preserve">
<style type="text/css">
	.st0{fill:#362B58;}
</style>
<g>
	<path class="st0" d="M20.1,5.6C9,5.6-0.1,14.6-0.1,25.8S8.9,46,20.1,46s20.2-9,20.2-20.2S31.2,5.6,20.1,5.6z M29.9,36
		c-0.3,0.3-6.3,4.1-9.8,3.6s-6.2-1.1-7.1-1.7c-0.9-0.6-3.1-2.6-3.1-2.6s-0.1-1.4,0.8-2.9c0.9-1.4,1-1.9,1.3-2.4s0.6-1,1.1-1.8
		s1.8-2.5,1.8-2.5s0.4-1.1,0.5-1.4s0.3-0.2-0.2-0.7s-1.6-2.8-1.6-3.4s-0.9-4-0.3-4.9c0.5-0.9,1.3-1.8,1.9-2.2s1-1.1,1.3-1.4
		c0.3-0.3,0.7-0.2,0.9-0.2c0.2,0,1.2-0.6,1.4-0.5c0.2,0.1,0.5-0.2,1,0s0.7,0.5,1,0.5s0.7-0.3,1.2-0.1c0.5,0.2,0.5,0.5,0.8,0.5
		c0.3,0.1,0.1,0.1,0.7,0.2c0.6,0.1,1.1,0.3,1.3,0.6s0.6,0.6,0.6,1.1s-0.5,0.9-0.6,1c0,0.2,0.6,1.4,0.6,1.6s0.4,0.8,0.3,1
		c-0.1,0.2-0.3,0.4-0.2,0.8c0.1,0.5,1.3,2.2,1.3,2.4c0,0.2,0.2,0.4,0,0.5s-0.8,0.2-0.9,0.2c-0.1,0-0.2,0-0.2,0.3s0.1,0.4,0,0.7
		c0,0.3-0.1,0.6-0.3,0.7l0.1,1c0.2,0.3,0.5,0.3,0.5,0.9s0.3,0.2,0,0.6s-0.3,0.2-0.6,0.5s-0.6,0.1-1,0.1s-0.6-0.1-0.8,0.2
		c-0.2,0.3,0,0.2-0.2,0.5s-0.7,0.2-0.6,0.6c0.1,0.4,0.4,0.7,0.7,0.9c0.3,0.1,1,0.6,1,0.8c0,0.2-0.2,0.4-0.2,0.5s5.7,5.6,6.2,6
		C30.6,35.6,30.3,35.7,29.9,36z"/>
	<g>
		<path class="st0" d="M51.7,20.3H50V25c0,0.7,0.2,1.2,1,1.2c0.3,0,0.6-0.1,0.8-0.2v0.7c-0.2,0.1-0.7,0.2-1.1,0.2
			c-1.6,0-1.7-1.1-1.7-2.4v-4.3h-1.4v-0.8H49v-1.7l0.9-0.3v2.1h1.7L51.7,20.3L51.7,20.3z"/>
		<path class="st0" d="M53.3,16.1h0.9v4.6l0,0c0.4-0.8,1.2-1.4,2.2-1.4c1.9,0,2.4,1.3,2.4,3.1v4.3h-0.9v-4.3c0-1.2-0.2-2.3-1.7-2.3
			c-1.6,0-2.1,1.5-2.1,2.7v3.9h-0.9L53.3,16.1L53.3,16.1z"/>
		<path class="st0" d="M65.9,26.5c-0.6,0.2-1.4,0.4-2.1,0.4c-2.4,0-3.3-1.6-3.3-3.8s1.2-3.8,3-3.8c2,0,2.9,1.7,2.9,3.6v0.5h-4.9
			c0,1.5,0.8,2.7,2.4,2.7c0.7,0,1.6-0.3,2-0.5V26.5L65.9,26.5z M65.5,22.6c0-1.3-0.5-2.5-1.9-2.5c-1.3,0-2.1,1.3-2.1,2.5H65.5z"/>
	</g>
	<path class="st0" d="M48.8,38.5v-9.6H52c0.5,0,1,0,1.5,0.1c0.5,0.1,0.9,0.3,1.2,0.5s0.6,0.5,0.8,0.9c0.2,0.4,0.3,0.8,0.3,1.3
		s-0.1,1-0.3,1.4c-0.2,0.4-0.5,0.7-0.9,0.9c-0.3,0.2-0.7,0.4-1.2,0.5s-0.9,0.1-1.4,0.1h-1v3.8L48.8,38.5L48.8,38.5z M51.8,32.8
		c0.2,0,0.5,0,0.7,0s0.4-0.1,0.6-0.2c0.2-0.1,0.3-0.2,0.4-0.3c0.1-0.1,0.1-0.3,0.1-0.5s0-0.4-0.1-0.5s-0.2-0.2-0.4-0.3
		s-0.3-0.1-0.5-0.2c-0.2,0-0.5,0-0.7,0h-1v2.1L51.8,32.8L51.8,32.8z M63.4,38.5v-1.9h-4.6v-2.1H63v-1.9h-4.2v-1.8h4.4v-1.9h-6.5v9.6
		H63.4L63.4,38.5z M73.6,38.5v-9.6h-2.1v6.3l-3.9-6.3h-2.5v9.6h2.1V32l4,6.5H73.6z M83.6,38.5v-9.6h-2.1v6.3l-3.9-6.3h-2.5v9.6h2.1
		V32l4,6.5H83.6z M89.5,38.5v-4.1l3.6-5.5h-2.5l-2.2,3.6l-2.2-3.6h-2.6l3.6,5.5v4.1H89.5z M96,28.7h1v4.4h5v-4.4h1v9.9h-1V34h-5v4.7
		h-1V28.7z M109.3,28.6c3,0,4.4,2.4,4.4,5.1c0,3.1-1.5,5.1-4.4,5.1s-4.3-2.1-4.4-5.1C105,31,106.4,28.6,109.3,28.6z M105.9,33.7
		c0,2.1,1,4.3,3.4,4.3s3.4-2.2,3.4-4.3s-1-4.3-3.4-4.3C107,29.4,105.9,31.6,105.9,33.7z M118.7,28.7h1.1l3.9,9.9h-1l-1.1-2.6h-5
		l-1.1,2.6h-1L118.7,28.7z M119.2,29.7l-2.2,5.5h4.3L119.2,29.7z M125.2,28.7h2.6c1.8,0,2.9,0.7,2.9,2.6c0,1.3-1,2.2-2.2,2.3l0,0
		c0.8,0.1,1,0.5,1.3,1.2l1.7,3.9h-1.1l-1.4-3.4c-0.6-1.3-1-1.3-1.9-1.3h-0.9v4.7h-1V28.7z M126.2,33.1h1c1.2,0,2.5-0.5,2.5-1.8
		c0-1.6-1.2-1.7-2.5-1.7h-1V33.1z M133.1,28.7h2.5c3.6,0,5,2.1,5,5c0,3.6-2.4,5-5.7,5h-1.7v-10H133.1z M134.1,37.8h0.8
		c2.8,0,4.6-1.1,4.6-4.2c0-3-1.8-4.1-4-4.1h-1.4L134.1,37.8L134.1,37.8z M142.7,28.7h4.9v0.9h-3.9v3.6h3.7V34h-3.7v3.9h4.1v0.9h-5.1
		V28.7L142.7,28.7z M149.8,28.7h2.6c1.8,0,2.9,0.7,2.9,2.6c0,1.3-1,2.2-2.2,2.3l0,0c0.8,0.1,1,0.5,1.3,1.2l1.7,3.9H155l-1.4-3.4
		c-0.6-1.3-1-1.3-1.9-1.3h-0.8v4.7h-1C149.8,38.7,149.8,28.7,149.8,28.7z M150.8,33.1h1c1.2,0,2.5-0.5,2.5-1.8
		c0-1.6-1.2-1.7-2.5-1.7h-1V33.1z"/>
</g>
</svg>
