<?xml version="1.0" encoding="utf-8"?>
<!-- Generator: Adobe Illustrator 19.1.0, SVG Export Plug-In . SVG Version: 6.00 Build 0)  -->
<svg version="1.1" id="Layer_1" xmlns="http://www.w3.org/2000/svg" xmlns:xlink="http://www.w3.org/1999/xlink" x="0px" y="0px"
	 viewBox="0 0 210 51" style="enable-background:new 0 0 210 51;" xml:space="preserve">
<style type="text/css">
	.st0{fill:#010101;}
</style>
<g id="layer1_9_" transform="translate(-197.56958,-377.86556)">
	<g id="g5289_4_" transform="matrix(3.5351745,0,0,3.5351745,-497.33005,-1229.1214)">
		<g id="g4465_4_" transform="matrix(1.25,0,0,-1.25,226.69658,466.19517)">
			<path id="path4467_4_" class="st0" d="M-18.7,4.2c0.1-0.1,0.2-0.2,0.2-0.4V2.7c0-0.2,0.2-0.4,0.4-0.5l0.1,0.1
				c-0.2,0.1-0.4,0.2-0.4,0.5v1.1c0,0.3-0.1,0.4-0.3,0.5L-18.7,4.2z M-17.6,4.2c0.1-0.1,0.3-0.2,0.3-0.4V2.8c0-0.3,0.2-0.5,0.5-0.7
				l0.1,0.1c-0.2,0.1-0.4,0.3-0.4,0.6v0.9c0,0.3-0.2,0.4-0.3,0.5L-17.6,4.2z M-18.2,4.6c0.2-0.1,0.5-0.3,0.5-0.6l0.6,0.6
				c0,0,0.2-0.1,0.3-0.3c0.1-0.1,0.2-0.3,0.2-0.5v-1c0-0.2,0.2-0.3,0.2-0.3L-17,2.1c0,0-0.2,0.1-0.3,0.3c-0.1,0.1-0.2,0.3-0.2,0.5
				v0.9c0,0.3-0.2,0.4-0.3,0.4l-0.1-0.1V2.8c0-0.2,0.1-0.3,0.2-0.3l-0.5-0.5c0,0-0.5,0.3-0.5,0.6v1.1c0,0.3-0.1,0.3-0.2,0.4
				L-18.2,4.6z"/>
		</g>
		<g id="g4469_4_" transform="matrix(1.25,0,0,-1.25,217.54908,466.38267)">
			<path id="path4471_4_" class="st0" d="M-13.1,4.3c-0.1,0-0.2,0.1-0.2,0.1l-0.1-0.1C-13.3,4.2-13.2,4.2-13.1,4.3
				c0.1-0.1,0.2,0,0.3,0l0,0C-12.8,4.2-12.9,4.3-13.1,4.3 M-12.5,4.4c0.1-0.1,0.1-0.2,0.1-0.4V2.9c0-0.2,0.2-0.4,0.4-0.6l0.1,0.1
				c-0.2,0.1-0.4,0.2-0.4,0.5v1C-12.3,4.2-12.3,4.4-12.5,4.4L-12.5,4.4z M-13.4,3.4c0-0.1,0-0.2,0-0.3c0-0.5,0.4-0.8,0.5-0.9
				l0.1,0.1c-0.1,0.1-0.3,0.3-0.4,0.4C-13.3,2.9-13.4,3.2-13.4,3.4L-13.4,3.4z M-12.4,2.9v0.9c-0.1,0-0.3,0-0.4,0
				C-12.9,3.7-13,3.6-13,3.3C-12.9,3-12.6,2.9-12.4,2.9L-12.4,2.9z M-13,2.2c-0.2,0.2-0.5,0.4-0.5,0.9c0,0.4,0.4,0.9,1,0.8h0.1
				c0,0.1,0,0.4-0.1,0.4c0,0-0.2-0.2-0.5-0.2c-0.3,0-0.4,0.1-0.4,0.2l0.6,0.6c0.1-0.2,0.2-0.3,0.4-0.3c0.1,0,0.2,0.1,0.4,0.3
				c0,0,0.4-0.1,0.4-0.8V3.1c0-0.2,0.2-0.3,0.3-0.4l-0.5-0.5c0,0-0.5,0.3-0.5,0.6l0,0L-13,2.2z"/>
		</g>
		<g id="g4473_4_" transform="matrix(1.25,0,0,-1.25,271.34158,468.1773)">
			<path id="path4475_4_" class="st0" d="M-45.9,5.4L-45.9,5.4l-0.2,0.5l-0.1-0.1L-45.9,5.4z M-47.2,5.8c0.1-0.1,0.2-0.2,0.2-0.4
				V4.3c0-0.2,0.3-0.4,0.5-0.5l0.1,0.1c-0.2,0.1-0.4,0.2-0.4,0.5v1.1c0,0.3-0.1,0.4-0.3,0.5L-47.2,5.8z M-46.3,5.6v-1
				c0-0.2,0.2-0.3,0.3-0.4l-0.5-0.5c0,0-0.5,0.3-0.5,0.6v1.1c0,0.2-0.1,0.3-0.2,0.4l0.5,0.6c0.2-0.1,0.4-0.3,0.5-0.5l0.5,0.5
				l0.4-0.5l-0.6-0.6L-46.3,5.6z"/>
		</g>
		<g id="g4477_4_" transform="matrix(1.25,0,0,-1.25,303.37833,465.8188)">
			<path id="path4479_4_" class="st0" d="M-65.6,4V3.8c0.1,0,0.1,0,0.2,0s0.2,0.1,0.3,0.1l0,0c-0.1,0-0.2,0-0.3,0S-65.6,3.9-65.6,4
				 M-66.3,3.6c0.1-0.1,0.1-0.2,0.1-0.2V2.5c0-0.3,0.2-0.5,0.5-0.7l0.1,0.1c-0.2,0.1-0.5,0.3-0.5,0.6v0.9
				C-66.1,3.5-66.1,3.7-66.3,3.6L-66.3,3.6z M-65.5,4.3c0.1-0.1,0.2-0.2,0.4-0.2c0.1,0,0.2,0,0.3,0.1l0,0c0-0.2-0.2-0.4-0.3-0.5
				c-0.1-0.1-0.3-0.1-0.5,0V2.5c0-0.1,0.1-0.2,0.2-0.2s0.2,0.1,0.3,0.2l0,0l-0.7-0.7c0,0-0.2,0.1-0.4,0.3c-0.1,0.1-0.2,0.3-0.2,0.5
				v0.9c0,0.1,0,0.2-0.1,0.2l0,0l0.3,0.3C-66.1,3.9-65.7,3.9-65.5,4.3"/>
		</g>
		<g id="g4481_4_" transform="matrix(1.25,0,0,-1.25,248.80008,458.93205)">
			<path id="path4483_4_" class="st0" d="M-32.2-0.3c0.1,0,0.2,0.1,0.3,0.1c0.3,0,0.6-0.1,0.9-0.1c0.3,0,0.5,0.1,0.6,0.1l0,0
				c-0.2,0-0.3,0-0.6,0c-0.3,0.1-0.7,0.1-0.8,0.1C-32,0-32.1-0.1-32.2-0.3L-32.2-0.3z M-29.8,0.3C-30-0.1-30.5-0.4-31-0.4
				s-0.6,0.1-0.9,0.1c-0.3,0-0.5-0.2-0.5-0.4l0,0c-0.1,0.1-0.1,0.2-0.1,0.4c0,0.3,0.3,0.6,0.8,0.6c0.4,0,1-0.1,1.4-0.1
				C-30.1,0.2-29.9,0.2-29.8,0.3L-29.8,0.3z"/>
		</g>
		<g id="g4485_4_" transform="matrix(1.25,0,0,-1.25,261.12508,466.82555)">
			<path id="path4487_4_" class="st0" d="M-39.7,4.6L-39.7,4.6l0.3,0.2h-0.3V4.6z M-42.5,2.8L-42.5,2.8C-42.3,3-42,3-41.9,3
				c0.5,0,1-0.4,1.1-0.5l0.2,0.1c-0.3,0.3-0.7,0.6-1.3,0.6C-42,3.1-42.4,3-42.5,2.8 M-39.6,6.2L-39.6,6.2l-0.1-0.3
				c0.1,0,0.3-0.1,0.4,0c0.2,0,0.3,0.1,0.4,0.1l0,0C-39.2,6-39.4,6.1-39.6,6.2 M-40.3,5.8l-0.2-0.2V3.3c0,0,0.1,0,0.1-0.1l0.1-0.1
				L-40.3,5.8L-40.3,5.8z M-38.4,6.7c-0.1-0.5-0.5-0.7-0.9-0.8c-0.1,0-0.3,0-0.4,0V5.2h0.9l-0.8-0.8h-0.1V3.9c0-0.2-0.1-0.6-0.3-0.9
				c-0.2-0.3-0.5-0.5-0.7-0.7c0,0-0.6,0.6-1.1,0.6c-0.3,0-0.8-0.2-0.8-0.6s0.4-0.7,0.9-0.7c0.4,0,0.6,0.1,0.7,0.2l0,0
				c-0.1-0.1-0.4-0.2-0.8-0.2c-0.7,0-1.1,0.4-1.1,0.9c0,0.7,0.7,1.1,1.3,1.1c0.3,0,0.5,0,0.9-0.3v2.3l0.3,0.3c0.1,0,0.3,0.1,0.5,0.2
				c0.2,0.2,0.3,0.4,0.3,0.4c0.1-0.1,0.4-0.2,0.5-0.2C-38.6,6.4-38.6,6.5-38.4,6.7L-38.4,6.7z"/>
		</g>
		<g id="g4489_4_" transform="matrix(1.25,0,0,-1.25,308.09296,466.2593)">
			<path id="path4491_4_" class="st0" d="M-68.4,4.2c0.1-0.1,0.2-0.2,0.2-0.4V2.7c0-0.2,0.3-0.4,0.5-0.5l0.1,0.1
				c-0.2,0.1-0.4,0.2-0.4,0.5v1C-68.1,4.1-68.1,4.2-68.4,4.2L-68.4,4.2z M-67.6,2.9c0-0.2,0.2-0.3,0.3-0.4l-0.5-0.5
				c0,0-0.5,0.2-0.5,0.6v1.1c0,0.2-0.1,0.3-0.2,0.4l0.5,0.6c0.2-0.1,0.5-0.3,0.5-0.6L-67.6,2.9L-67.6,2.9z"/>
		</g>
		<g id="g4493_4_" transform="matrix(1.25,0,0,-1.25,320.79558,473.93018)">
			<path id="path4495_4_" class="st0" d="M-76.3,8.9C-76.2,8.9-76.2,8.9-76.3,8.9l0.1,0.7v0.1l0,0h-0.1V8.9C-76.4,9-76.3,9-76.3,8.9
				 M-77.3,10.2c0.1,0,0.1-0.1,0.1-0.2V9.7c0-0.1,0-0.2,0-0.2c0.1-0.1,0.3,0,0.3,0C-77,9.6-77,9.6-77,9.8v0.4
				C-77,10.2-77,10.3-77.3,10.2L-77.3,10.2z M-76.5,10.5v-0.2c0.1,0,0.2,0,0.3,0c0.1,0,0.2,0,0.3,0.1l0,0c-0.1,0-0.2,0-0.4,0
				C-76.4,10.4-76.5,10.5-76.5,10.5 M-76.5,8.4L-76.5,8.4C-76.5,8.5-76.5,8.5-76.5,8.4c0,0.2-0.1,0.3-0.3,0.3
				c-0.2,0-0.3-0.1-0.3-0.1l0,0c0.1,0.1,0.3,0,0.4,0C-76.7,8.5-76.6,8.4-76.5,8.4 M-76.5,8.3L-76.5,8.3c-0.1,0.1-0.2,0.2-0.4,0.2
				c-0.1,0-0.3,0-0.4-0.2l0,0c-0.1,0.3,0.2,0.6,0.4,0.7c0.3,0.1,0.6,0,0.6,0v0.7c-0.3-0.1-0.6-0.3-0.8-0.2c-0.1,0-0.2,0.1-0.2,0.2
				v0.5v0.1h-0.1l0,0l0.3,0.3c0,0,0.5,0,0.8,0.4c0.1-0.1,0.2-0.2,0.4-0.2c0.1,0,0.3,0,0.3,0.1l0,0c0-0.2-0.3-0.5-0.5-0.5
				c-0.3-0.1-0.6,0-0.6,0V9.8c0.3,0.1,0.7,0.3,0.8,0.2c0.1,0,0.1-0.1,0.1-0.2V9.1V9c0,0-0.1,0-0.2,0c-0.1,0-0.1-0.1-0.3-0.1
				C-76.4,8.6-76.5,8.3-76.5,8.3"/>
		</g>
		<g id="g4497_4_" transform="matrix(1.25,0,0,-1.25,308.91145,460.22192)">
			<path id="path4499_4_" class="st0" d="M-68.9,0.5l0.3-0.3l0.1,0.1L-68.9,0.5L-68.9,0.5z M-68.5,1.1l0.4-0.4l-0.6-0.6L-69,0.5
				L-68.5,1.1z"/>
		</g>
		<g id="g4501_4_" transform="matrix(1.25,0,0,-1.25,286.0547,466.19517)">
			<path id="path4503_4_" class="st0" d="M-55,4.2c0.1-0.1,0.2-0.2,0.2-0.4V2.7c0-0.2,0.2-0.4,0.4-0.5l0.1,0.1
				c-0.2,0.1-0.4,0.2-0.4,0.5v1.1c0,0.3-0.1,0.4-0.3,0.5V4.2z M-54,4.2c0.1-0.1,0.3-0.2,0.3-0.4V2.8c0-0.3,0.2-0.5,0.5-0.7l0.1,0.1
				c-0.2,0.1-0.4,0.3-0.4,0.6v0.9c0,0.3-0.2,0.4-0.3,0.5L-54,4.2z M-54.5,4.6c0.2-0.1,0.5-0.3,0.5-0.6l0.6,0.6c0,0,0.2-0.1,0.3-0.3
				c0.1-0.1,0.2-0.3,0.2-0.5v-1c0-0.2,0.2-0.3,0.2-0.3l-0.5-0.5c0,0-0.2,0.1-0.3,0.3c-0.1,0.1-0.2,0.3-0.2,0.5v0.9
				c0,0.3-0.2,0.4-0.3,0.4l-0.1-0.1V2.8c0-0.2,0.1-0.3,0.2-0.3l-0.5-0.5c0,0-0.5,0.3-0.5,0.6v1.1c0,0.3-0.1,0.3-0.2,0.4L-54.5,4.6z"
				/>
		</g>
		<g id="g4505_4_" transform="matrix(1.25,0,0,-1.25,276.9062,466.38267)">
			<path id="path4507_4_" class="st0" d="M-49.4,4.3c-0.1,0-0.2,0.1-0.2,0.1l-0.1-0.1C-49.7,4.2-49.5,4.2-49.4,4.3
				c0.1-0.1,0.2,0,0.3,0l0,0C-49.1,4.2-49.3,4.3-49.4,4.3 M-48.8,4.4c0.1-0.1,0.1-0.2,0.1-0.4V2.9c0-0.2,0.2-0.4,0.4-0.6l0.1,0.1
				c-0.2,0.1-0.4,0.2-0.4,0.5v1C-48.6,4.2-48.6,4.4-48.8,4.4L-48.8,4.4z M-49.8,3.4c0-0.1-0.1-0.2-0.1-0.3c0-0.5,0.4-0.8,0.5-0.9
				l0.1,0.1c-0.1,0.1-0.3,0.3-0.4,0.4C-49.7,2.9-49.8,3.2-49.8,3.4L-49.8,3.4z M-48.7,2.9v0.9c-0.1,0-0.3,0-0.4,0
				c-0.1-0.1-0.2-0.2-0.2-0.5C-49.2,3-48.9,2.9-48.7,2.9L-48.7,2.9z M-49.3,2.2c-0.2,0.2-0.5,0.4-0.5,0.9c0,0.4,0.4,0.9,1,0.8h0.1
				c0,0.1,0,0.4-0.1,0.4c0,0-0.2-0.2-0.5-0.2s-0.4,0.1-0.4,0.2l0.6,0.6c0.1-0.2,0.2-0.3,0.4-0.3c0.1,0,0.2,0.1,0.4,0.3
				c0,0,0.4-0.1,0.4-0.8V3.1c0-0.2,0.2-0.3,0.3-0.4l-0.5-0.5c0,0-0.5,0.3-0.5,0.6l0,0L-49.3,2.2z"/>
		</g>
		<g id="g4509_4_" transform="matrix(1.25,0,0,-1.25,371.78733,461.0073)">
			<path id="path4511_4_" class="st0" d="M-107.5,1c0.1-0.1,0.2-0.2,0.2-0.4v-2.1c0-0.2,0.2-0.4,0.4-0.5l0.1,0.1
				c-0.2,0.1-0.4,0.2-0.4,0.5v2C-107.2,0.9-107.3,1.1-107.5,1L-107.5,1z M-106.5,0c0.1-0.1,0.3-0.2,0.3-0.5v-2.2
				c0-0.3,0-0.4-0.1-0.5l0,0c0.1,0.1,0.2,0.2,0.2,0.6v2.1C-106.1-0.2-106.3,0-106.5,0L-106.5,0z M-107,1.5c0.2-0.1,0.4-0.4,0.4-0.7
				V0l0.6,0.6c0,0,0.2-0.1,0.3-0.3c0.1-0.1,0.2-0.3,0.2-0.5V-2c0-0.1,0-1.2-0.9-1.2c-0.4,0-0.5,0.3-0.5,0.3l0,0c0,0,0.1-0.2,0.4-0.2
				c0.3,0,0.3,0.4,0.3,0.6v2.2c0,0.3-0.2,0.4-0.3,0.4l-0.1-0.1v-1.2c0-0.2,0.1-0.3,0.2-0.3l-0.5-0.5c0,0-0.5,0.3-0.5,0.6v2.1
				c0,0.2-0.1,0.4-0.2,0.4L-107,1.5z"/>
		</g>
		<g id="g4513_4_" transform="matrix(1.25,0,0,-1.25,360.6262,461.0073)">
			<path id="path4515_4_" class="st0" d="M-100.6,1C-100.6,1-100.6,0.9-100.6,1c0-0.2,0-0.2,0-0.2v-1.2c-0.1,0-0.1-0.1-0.2-0.1
				c-0.1-0.1-0.1-0.2-0.1-0.3l0,0c0,0,0.1,0.2,0.3,0.2c0.1,0,0.2,0.1,0.2,0.1v1.3C-100.4,0.9-100.4,0.9-100.6,1L-100.6,1L-100.6,1z
				 M-99.8,1.2c0,0,0.1,0,0.3,0c0.2,0,0.4,0.1,0.5,0.1l0,0c-0.1,0-0.3,0-0.4,0.1c-0.1,0-0.2,0.1-0.3,0.1l-0.1-0.1V1.2z M-101.6,1.2
				L-101.6,1.2c-0.4-0.3-0.6-0.9-0.6-1.5c0-0.9,0.6-1.7,1.3-1.9c0.6-0.2,1-0.1,1.1,0l0,0c-0.3,0-0.9,0-1.2,0.2
				c-0.5,0.3-0.7,0.5-0.9,0.9c-0.2,0.4-0.2,0.9-0.1,1.2C-101.9,0.9-101.6,1.2-101.6,1.2 M-99.7,1.9L-99.7,1.9
				c-0.3,0-0.6-0.1-0.9-0.3c-0.5-0.3-0.8-0.9-0.8-1.5c0-0.9,0.5-1.4,0.6-1.4c-0.1,0.1-0.1,0.3-0.1,0.5c0,0.3,0.2,0.5,0.3,0.5v1.1
				c0,0.1,0,0.1,0,0.2s-0.1,0.1-0.1,0.1l0,0l0.3,0.4c0.2,0,0.5,0,0.6,0.1c0.2,0.1,0.4,0.5,0.4,0.5c0.2-0.2,0.3-0.2,0.6-0.3
				c0.2,0,0.4,0.2,0.5,0.3l0,0c-0.1-0.4-0.3-0.7-0.7-0.8c-0.5-0.2-0.8,0-0.8,0v-1.8c0-0.1,0-0.2,0-0.2c-0.1-0.1-0.3,0-0.5,0
				c-0.2-0.1-0.5-0.3-0.4-0.5c0,0,0.3-0.3,0.9-0.3c0.5,0,0.8,0.2,1,0.4l0,0c-0.3-0.8-0.9-1.1-1.6-1.1c-1,0-2,0.9-2,2.1
				c0,1.1,0.8,2,1.7,2.2C-100,2-99.7,1.9-99.7,1.9"/>
		</g>
		<g id="g4517_4_" transform="matrix(1.25,0,0,-1.25,338.11558,465.8188)">
			<path id="path4519_4_" class="st0" d="M-86.8,4V3.8c0.1,0,0.1-0.1,0.2-0.1c0.1-0.1,0.1-0.2,0.1-0.3V2.5l0.1-0.1l0,0v1
				c0,0.2-0.1,0.3-0.2,0.4C-86.7,3.9-86.8,4-86.8,4 M-87.6,3.6c0.1,0,0.1-0.2,0.1-0.2V2.5c0-0.3,0.4-0.6,0.7-0.8l0.1,0.1
				c-0.2,0.1-0.7,0.4-0.7,0.7v0.9C-87.4,3.5-87.4,3.6-87.6,3.6L-87.6,3.6z M-86.6,2.5v0.9c0,0.2-0.1,0.3-0.3,0.4V2.8
				C-86.8,2.7-86.8,2.6-86.6,2.5C-86.7,2.5-86.7,2.5-86.6,2.5 M-85.8,2.6c0,0-0.4-0.2-0.6-0.4c-0.2-0.2-0.5-0.5-0.5-0.5
				s-0.4,0.2-0.5,0.4c-0.1,0.1-0.2,0.3-0.2,0.5v0.8c0,0.1,0,0.2-0.1,0.2l0,0l0.3,0.3c0,0,0.5,0.1,0.9,0.5c0.1-0.1,0.2-0.1,0.3-0.2
				c0.1-0.1,0.4-0.2,0.4-0.5L-85.8,2.6L-85.8,2.6z"/>
		</g>
		<g id="g4521_4_" transform="matrix(1.25,0,0,-1.25,329.78583,465.8188)">
			<path id="path4523_4_" class="st0" d="M-81.8,4V3.8c0.1,0,0.1,0,0.2,0s0.2,0.1,0.3,0.1l0,0c-0.1,0-0.2,0-0.3,0
				C-81.7,3.9-81.7,3.9-81.8,4 M-82.5,3.6c0.1-0.1,0.1-0.2,0.1-0.2V2.5c0-0.3,0.2-0.5,0.5-0.7l0.1,0.1c-0.2,0.1-0.5,0.3-0.5,0.6v0.9
				C-82.3,3.5-82.3,3.7-82.5,3.6L-82.5,3.6z M-81.6,4.3c0.1-0.1,0.2-0.2,0.4-0.2c0.1,0,0.2,0,0.3,0.1l0,0c0-0.2-0.2-0.4-0.3-0.5
				c-0.1-0.1-0.3-0.1-0.5,0V2.5c0-0.1,0.1-0.2,0.2-0.2s0.2,0.1,0.3,0.2l0,0l-0.7-0.7c0,0-0.2,0.1-0.4,0.3c-0.1,0.1-0.2,0.3-0.2,0.5
				v0.9c0,0.1,0,0.2-0.1,0.2l0,0l0.3,0.3C-82.3,3.9-81.9,3.9-81.6,4.3"/>
		</g>
		<g id="g4525_4_" transform="matrix(1.25,0,0,-1.25,390.11583,468.02005)">
			<path id="path4527_4_" class="st0" d="M-118.7,5.3L-118.7,5.3l-0.2,0.5l-0.1-0.1L-118.7,5.3z M-119.9,5.7
				c0.1-0.1,0.2-0.2,0.2-0.4V4.2c0-0.2,0.3-0.4,0.5-0.5l0.1,0.1c-0.2,0.1-0.4,0.2-0.4,0.5v1.1C-119.6,5.6-119.6,5.7-119.9,5.7
				L-119.9,5.7z M-119,5.5v-1c0-0.2,0.2-0.3,0.3-0.4l-0.5-0.5c0,0-0.5,0.3-0.5,0.6v1.1c0,0.2-0.1,0.3-0.2,0.4l0.5,0.6
				c0.2-0.1,0.4-0.3,0.5-0.5l0.5,0.5l0.4-0.5l-0.6-0.6L-119,5.5z"/>
		</g>
		<g id="g4529_4_" transform="matrix(1.25,0,0,-1.25,396.96971,465.75467)">
			<path id="path4531_4_" class="st0" d="M-122.9,3.9V3.7c0.1,0,0.1-0.1,0.2-0.1c0.1-0.1,0.1-0.2,0.1-0.3V2.4l0.1-0.1l0,0v1
				c0,0.2-0.1,0.3-0.2,0.4C-122.7,3.9-122.9,3.9-122.9,3.9 M-123.6,3.6c0.1,0,0.1-0.2,0.1-0.2V2.5c0-0.3,0.4-0.6,0.7-0.8l0.1,0.1
				c-0.2,0.1-0.7,0.4-0.7,0.7v0.9C-123.4,3.5-123.4,3.6-123.6,3.6L-123.6,3.6z M-122.6,2.4v0.9c0,0.2-0.1,0.3-0.3,0.4V2.7
				C-122.9,2.6-122.8,2.5-122.6,2.4C-122.7,2.4-122.7,2.4-122.6,2.4 M-121.8,2.5c0,0-0.4-0.2-0.6-0.4c-0.2-0.2-0.5-0.5-0.5-0.5
				s-0.4,0.2-0.5,0.4c-0.1,0.1-0.2,0.3-0.2,0.5v0.8c0,0.1,0,0.2-0.1,0.2l0,0l0.3,0.3c0,0,0.5,0.1,0.9,0.5c0.1-0.1,0.2-0.1,0.3-0.2
				c0.1-0.1,0.4-0.2,0.4-0.5L-121.8,2.5L-121.8,2.5z"/>
		</g>
		<g id="g4533_4_" transform="matrix(1.25,0,0,-1.25,432.3317,461.0388)">
			<path id="path4535_4_" class="st0" d="M-144.6,1c0.1-0.1,0.2-0.2,0.2-0.4v-2.1c0-0.2,0.2-0.4,0.5-0.5l0.1,0.1
				c-0.2,0.1-0.4,0.2-0.4,0.5v2C-144.3,0.9-144.3,1-144.6,1L-144.6,1z M-143.7-1.2c0-0.3,0.2-0.3,0.3-0.4l-0.5-0.5
				c0,0-0.5,0.3-0.5,0.6v2.1c0,0.2-0.1,0.3-0.2,0.4l0.5,0.6c0.2-0.1,0.4-0.4,0.4-0.6V-1.2z"/>
		</g>
		<g id="g4537_4_" transform="matrix(1.25,0,0,-1.25,443.42845,465.85017)">
			<path id="path4539_4_" class="st0" d="M-151.4,4V3.7l0.3-0.4l0.1,0.1L-151.4,4L-151.4,4z M-152.1,3.6c0.1-0.1,0.1-0.2,0.1-0.2
				V2.5c0-0.3,0.2-0.5,0.5-0.7l0.1,0.1c-0.2,0.1-0.5,0.2-0.5,0.6v0.9C-151.8,3.5-151.9,3.7-152.1,3.6L-152.1,3.6z M-151.1,3.3
				l-0.2,0.3V3.2L-151.1,3.3z M-151.4,3.1V2.6c0-0.1,0.1-0.2,0.2-0.2c0.1,0,0.2,0.1,0.3,0.2l0.1-0.1l-0.7-0.7c0,0-0.2,0.1-0.4,0.3
				c-0.1,0.1-0.2,0.3-0.2,0.5v0.9c0,0.1,0,0.2-0.1,0.2l0,0l0.3,0.3c0,0,0.6,0,0.9,0.5c0,0,0.1-0.1,0.3-0.3c0.1-0.1,0.3-0.3,0.4-0.4
				C-150.4,3.8-151.2,3.2-151.4,3.1"/>
		</g>
		<g id="g4541_4_" transform="matrix(1.25,0,0,-1.25,427.7097,465.8188)">
			<path id="path4543_4_" class="st0" d="M-141.7,4V3.8c0.1,0,0.1,0,0.2,0c0.1,0,0.2,0.1,0.3,0.1l0,0c-0.1,0-0.2,0-0.3,0
				S-141.7,3.9-141.7,4 M-142.5,3.6c0.1-0.1,0.1-0.2,0.1-0.2V2.5c0-0.3,0.2-0.5,0.5-0.7l0.1,0.1c-0.2,0.1-0.5,0.3-0.5,0.6v0.9
				c0,0.1,0,0.2-0.2,0.3L-142.5,3.6z M-141.6,4.3c0.1-0.1,0.2-0.2,0.4-0.2c0.1,0,0.2,0,0.3,0.1l0,0c0-0.2-0.2-0.4-0.3-0.5
				c-0.1-0.1-0.3-0.1-0.5,0V2.5c0-0.1,0.1-0.2,0.2-0.2c0.1,0,0.2,0.1,0.3,0.2l0,0l-0.7-0.7c0,0-0.2,0.1-0.4,0.3
				c-0.1,0.1-0.2,0.3-0.2,0.5v0.9c0,0.1,0,0.2-0.1,0.2l0,0l0.3,0.2C-142.3,3.9-141.8,3.9-141.6,4.3"/>
		</g>
		<g id="g4545_4_" transform="matrix(1.25,0,0,-1.25,416.33046,466.2593)">
			<path id="path4547_4_" class="st0" d="M-134.8,4.2c0.1-0.1,0.2-0.2,0.2-0.4V2.7c0-0.2,0.3-0.4,0.5-0.5l0.1,0.1
				c-0.2,0.1-0.4,0.2-0.4,0.5v1C-134.4,4.1-134.5,4.2-134.8,4.2L-134.8,4.2z M-133.8,2.9c0-0.2,0.2-0.3,0.3-0.4l-0.5-0.5
				c0,0-0.5,0.2-0.5,0.6v1.1c0,0.2-0.1,0.3-0.2,0.4l0.5,0.6c0.2-0.1,0.5-0.3,0.5-0.6L-133.8,2.9L-133.8,2.9z"/>
		</g>
		<g id="g4549_4_" transform="matrix(1.25,0,0,-1.25,417.14695,460.22192)">
			<path id="path4551_4_" class="st0" d="M-135.3,0.5l0.3-0.3l0.1,0.1L-135.3,0.5L-135.3,0.5z M-134.7,1.1l0.4-0.4l-0.6-0.6
				l-0.4,0.4L-134.7,1.1z"/>
		</g>
		<g id="g4553_4_" transform="matrix(1.25,0,0,-1.25,404.00445,466.19517)">
			<path id="path4555_4_" class="st0" d="M-127.2,4.2c0.1-0.1,0.2-0.2,0.2-0.4V2.7c0-0.2,0.2-0.4,0.4-0.5l0.1,0.1
				c-0.2,0.1-0.4,0.2-0.4,0.5v1.1c0,0.3-0.1,0.4-0.3,0.5L-127.2,4.2z M-126.2,4.2c0.1-0.1,0.3-0.2,0.3-0.4V2.8
				c0-0.3,0.2-0.5,0.5-0.7l0.1,0.1c-0.2,0.1-0.4,0.3-0.4,0.6v0.9c0,0.3-0.2,0.4-0.3,0.5L-126.2,4.2z M-126.8,4.6
				c0.2-0.1,0.5-0.3,0.5-0.6l0.6,0.6c0,0,0.2-0.1,0.3-0.3c0.1-0.1,0.2-0.3,0.2-0.5v-1c0-0.2,0.2-0.3,0.2-0.3l-0.5-0.5
				c0,0-0.2,0.1-0.3,0.3c-0.1,0.1-0.2,0.3-0.2,0.5v0.9c0,0.3-0.2,0.4-0.3,0.4l-0.1-0.1V2.8c0-0.2,0.1-0.3,0.2-0.3l-0.5-0.5
				c0,0-0.5,0.3-0.5,0.6v1.1c0,0.3-0.1,0.3-0.2,0.4L-126.8,4.6z"/>
		</g>
		<g id="g4557_4_" transform="matrix(1.25,0,0,-1.25,250.36696,466.77605)">
			<path id="path4559_4_" class="st0" d="M-33.1,4.5c0.1,0,0.2,0,0.4,0V3.8h0.1h0.1v0.9h-0.2c-0.1,0-0.2,0-0.2,0
				C-33.1,4.7-33.1,4.6-33.1,4.5L-33.1,4.5z M-32.7,5.4V5.2h0.2v0.4L-32.7,5.4z M-32.6,5.7h0.6v-1c0-0.6-0.3-0.9-0.8-0.9v0.8H-33
				c-0.2,0-0.2-0.1-0.2-0.2l0,0c-0.1,0-0.2,0.2-0.2,0.3c0,0.3,0.3,0.6,0.6,0.6v0.3L-32.6,5.7z"/>
		</g>
		<g id="g4561_4_" transform="matrix(1.25,0,0,-1.25,199.92196,465.25243)">
			<path id="path4563_4_" class="st0" d="M-2.3,3.6c0-0.1,0-0.3,0.1-0.5c0.1-0.2,0.6-0.4,0.9-0.4c0.4-0.1,0.8-0.1,0.9-0.2
				c0.1-0.1,0.2-0.2,0.2-0.3l0,0C0,2.2,0,2.5-0.3,2.7c-0.2,0.1-0.6,0.1-0.9,0.2c-0.2,0-0.4,0.1-0.7,0.2C-2,3.2-2.2,3.3-2.3,3.6
				L-2.3,3.6z M-2.1,3.8c0.3-0.3,0.7-0.4,1.1-0.5c0.6-0.1,1.1-0.2,1.1-0.9C0.2,2.2,0,2-0.1,2l0,0V2c-0.3,0.8-2.3,0.3-2.2,1.4
				C-2.3,3.7-2.2,3.8-2.1,3.8C-2.2,3.9-2.1,3.8-2.1,3.8"/>
		</g>
		<g id="g4565_4_" transform="matrix(1.25,0,0,-1.25,204.75583,457.62618)">
			<path id="path4567_4_" class="st0" d="M-5.2-1.1c0.2,0,0.4-0.1,0.6-0.1c0.2-0.1,0.4-0.2,0.5-0.3l0.1,0.2C-4.2-1.2-4.5-1.1-4.7-1
				C-4.8-1-5-1-5.2-1.1L-5.2-1.1z M-6.2-4.5L-6.2-4.5c0,0.1,0.3,0.2,0.6,0.2c0.7,0,0.9-0.4,1.1-0.6l0.2,0.2
				c-0.3,0.3-0.7,0.6-1.1,0.6C-5.9-4.2-6.1-4.3-6.2-4.5 M-6-1.4c0.2,0.6,0.9,0.8,1.2,0.8c0.4,0,0.9-0.3,1-0.4l-0.4-0.6
				c-0.1,0.1-0.7,0.5-1.1,0.5C-5.6-1.1-5.9-1.2-6-1.4c0.1-0.5,1-0.5,1.4-0.6c1.1-0.3,1.2-0.8,1.1-1.2c0-0.9-0.8-1.5-1.1-1.8
				c0,0-0.5,0.6-1.1,0.6c-0.3,0-0.7-0.2-0.7-0.5c0-0.5,0.5-0.8,0.9-0.8c0.3,0,0.6,0.1,0.6,0.2v-0.1C-5-5.7-5.2-5.8-5.5-5.8
				c-0.5,0-1,0.3-1,0.9c0,0.8,0.8,1.1,1.2,1.1c0.9,0,1.1-0.5,1.2-0.6c0,0,0.4,0.3,0.5,0.7c0.1,0.9-0.9,0.9-1.2,0.9
				C-5.3-2.4-6.4-2.3-6-1.4"/>
		</g>
	</g>
</g>
</svg>
