<?xml version="1.0" encoding="utf-8"?>
<!-- Generator: Adobe Illustrator 19.1.0, SVG Export Plug-In . SVG Version: 6.00 Build 0)  -->
<svg version="1.1" id="svg2" xmlns:svg="http://www.w3.org/2000/svg"
	 xmlns="http://www.w3.org/2000/svg" xmlns:xlink="http://www.w3.org/1999/xlink" x="0px" y="0px" viewBox="-26.9 -0.1 210 51"
	 style="enable-background:new -26.9 -0.1 210 51;" xml:space="preserve">
<style type="text/css">
	.st0{fill:#CD2027;}
</style>
<g transform="translate(-49.7621,-328.64334)">
	<path class="st0" d="M23.9,337.8h28v6.4h-0.5l0-4.1h-11V369h3.2v0.9h-11l0-0.9h3v-28.9H24.4v4.1h-0.5V337.8z"/>
	<path class="st0" d="M53.3,337.8h11v0.9h-3.2V369h3.2v0.9h-11l0-0.9h3.2v-30.3h-3.2V337.8z"/>
	<path class="st0" d="M74,337.7h2.1l10.3,24.8l10.2-24.8h2.1l5.7,31.2h2.9v1H95.9l0-1h3l-3.6-20l-9.1,20.9h-2.1l-9-20.9l-3.8,20h2.8
		l-0.1,1h-8.4l0-1h2.6L74,337.7z"/>
	<path class="st0" d="M108.3,337.8h24.3l0.1,6.3l-0.4,0l-0.2-3.9l-15.9-0.2v12.7h13.5l0.4-3h0.6c-0.2,2.7-0.2,5.3,0,8H130l-0.4-3.1
		h-13.5v13.1l16.4,0l0.1-4.3l0.5,0v6.4h-24.8V369l3.2,0v-30.2l-3.2-0.1V337.8z"/>
</g>
</svg>
