<?xml version="1.0" encoding="utf-8"?>
<!-- Generator: Adobe Illustrator 19.1.0, SVG Export Plug-In . SVG Version: 6.00 Build 0)  -->
<svg version="1.1" xmlns="http://www.w3.org/2000/svg" xmlns:xlink="http://www.w3.org/1999/xlink" x="0px" y="0px"
	 viewBox="0 0 210 51" style="enable-background:new 0 0 210 51;" xml:space="preserve">
<style type="text/css">
	.st0{fill:#323231;}
	.st1{fill:#F26A24;}
</style>
<g id="Layer_1">
	<g>
		<g>
			<path class="st0" d="M64.8,20.8h-6.3v-5h18.3v5h-6.2v17.3h-5.8V20.8z"/>
			<path class="st0" d="M89.7,15.4c6.8,0,11.9,4.8,11.9,11.6s-5.1,11.6-11.9,11.6s-12-4.8-12-11.6S82.8,15.4,89.7,15.4z M89.7,20.5
				c-3.7,0-6.1,2.8-6.1,6.5c0,3.6,2.4,6.5,6.1,6.5s6.1-2.9,6.1-6.5C95.7,23.3,93.4,20.5,89.7,20.5z"/>
			<path class="st0" d="M104.5,15.8h9.4c7,0,12.1,4.2,12.1,11.2s-5.1,11.2-12.1,11.2h-9.4V15.8z M113.9,33.1c3.9,0,6.2-2.9,6.2-6.2
				c0-3.5-2.1-6.1-6.2-6.1h-3.7v12.3H113.9z"/>
			<path class="st0" d="M141.9,34.9h-8.8l-1.1,3.2h-6.5l8.4-22.4h7.2l8.5,22.4h-6.5L141.9,34.9z M134.7,29.9h5.7l-2.9-8.4
				L134.7,29.9z"/>
			<path class="st0" d="M155,29.1l-8.5-13.3h6.5l4.9,8.3l4.8-8.3h6.5l-8.5,13.4v9h-5.8v-9.1H155z"/>
		</g>
		<path class="st1" d="M27.3,18.8c10.7,0,19.3,8.7,19.3,19.3h6.5c0-14.3-11.6-25.8-25.8-25.8S1.5,23.9,1.5,38.1H8
			C7.9,27.5,16.6,18.8,27.3,18.8z"/>
		<path class="st1" d="M16.5,38.1c0.1-5.9,4.8-10.6,10.7-10.6s10.6,4.7,10.7,10.6h6.9c-0.2-9.5-7.9-17.2-17.5-17.2S10,28.6,9.8,38.1
			H16.5z"/>
		<path class="st1" d="M33.2,38.1c-0.1-3.4-2.9-6.2-6.3-6.2s-6.3,2.8-6.4,6.2H33.2z"/>
	</g>
</g>
<g id="svg2">
</g>
</svg>
