<?xml version="1.0" encoding="utf-8"?>
<!-- Generator: Adobe Illustrator 19.1.0, SVG Export Plug-In . SVG Version: 6.00 Build 0)  -->
<svg version="1.1" xmlns="http://www.w3.org/2000/svg" xmlns:xlink="http://www.w3.org/1999/xlink" x="0px" y="0px"
	 viewBox="0 0 210 51" style="enable-background:new 0 0 210 51;" xml:space="preserve">
<style type="text/css">
	.st0{fill:#1C1C21;}
</style>
<g id="Layer_1">
</g>
<g id="svg23413">
	<path id="path13406" class="st0" d="M207.4,31.9c-0.6,0-1.1,0.5-1.1,1.2c0,0.7,0.5,1.2,1.1,1.2c0.6,0,1.1-0.5,1.1-1.2
		C208.5,32.4,208,31.9,207.4,31.9 M167.4,34.2h5.1v-0.5l-0.6-0.1c-0.5-0.1-0.7-0.4-0.7-1.1v-6.8h1.2c0.7,0,1.1,0.2,1.2,1.7l0.1,3.2
		c0.1,2.9,0.9,3.7,2.3,3.7c1.4,0,1.8-1,1.8-2.4v-0.6h-0.5v0.4c0,0.9-0.1,1.6-0.5,1.6c-0.3,0-0.4-0.3-0.4-1.4l-0.2-2.2
		c-0.2-3-0.6-4-2.8-4.4c2.1-0.6,3.4-2.1,3.4-4.3c0-2.8-2.2-4.2-4.4-4.2h-8.6v0.5l0.5,0.1c0.9,0.2,0.9,0.7,0.9,2.7v10
		c0,2.2-0.6,3.3-2.1,3.3c-1.3,0-2-0.6-2-3.1V18.5c0-0.7,0.2-0.9,0.8-1l0.7-0.2v-0.5h-5.3v0.5l0.6,0.2c0.5,0.2,0.7,0.4,0.7,1.1v11.7
		c0,2.6,1.5,4.1,3.9,4.1c2.3,0,3.5-1.5,3.5-4.2V19.2c0-1.4,0.3-1.8,1.4-1.8c0.9,0,1.3,0.3,1.3,1.1v14c0,0.7-0.2,1-0.7,1.1l-0.6,0.2
		L167.4,34.2L167.4,34.2z M201.1,18.5c0-0.7,0.2-0.9,0.7-1l0.7-0.2v-0.5h-5.2v0.5l0.6,0.2c0.5,0.2,0.7,0.4,0.7,1.1v14.1
		c0,0.7-0.3,1.1-1.1,1.1c-0.9,0-1-0.3-1.4-1.8l-3.2-15.1h-1l-3.1,14.6c-0.4,1.6-0.5,2-1.2,2.2l-0.4,0.1v0.5h3.6v-0.5l-0.5-0.1
		c-0.8-0.2-1-0.6-0.6-2.5l1.8-9.3l2,9.9c0.3,1.4,0.3,1.7-0.8,1.9l-0.5,0.1v0.5h13.3v-5.7H205c-0.3,2.6-0.8,5.1-2.9,5.1h-1
		L201.1,18.5L201.1,18.5z M193.3,29.5v-0.7h-3.4l-0.1,0.7H193.3z M179.2,18.8v12c0,1.8,0,2.7-0.9,2.8l-0.5,0.1v0.5h3.7v-0.5
		c-1.6-0.2-1.6-0.8-1.6-2.7V19.6l-0.6-0.6l6.2,15.2h1.1v-14c0-2.1,0-2.5,1-2.8l0.4-0.1v-0.5h-3.8v0.5l0.4,0.1
		c1.3,0.2,1.3,0.7,1.3,2.6v8.8l0.3-0.1l-4.7-11.9h-3.6v0.5l0.4,0.1C178.6,17.5,178.8,18,179.2,18.8 M171.1,17.4h1
		c1,0,1.9,0.7,1.9,3.9c0,3.3-0.7,3.7-2.1,3.7h-0.8V17.4z M154.4,25.3c0,7.3-0.6,8.3-1.9,8.3c-1.3,0-1.9-1-1.9-8.3c0-7,0.6-8,1.9-8
		C153.8,17.4,154.4,18.4,154.4,25.3 M157.1,25.5c0-4.8-1.5-8.8-4.7-8.8c-3.1,0-4.6,4-4.6,8.8c0,4.8,1.5,8.8,4.6,8.8
		C155.7,34.3,157.1,30.3,157.1,25.5 M146.4,18.5c0-0.7,0.2-0.9,0.7-1.1l0.6-0.2v-0.5h-5.2v0.5l0.6,0.2c0.5,0.1,0.8,0.3,0.8,1v12.1
		c0,1.7-0.2,3-1.4,3c-0.8,0-1.4-0.6-1.4-1.1c0.1-0.8,1.4-0.7,1.5-2c0.1-0.9-0.5-1.3-1-1.4c-0.8-0.1-1.7,0.6-1.8,1.9
		c0,1.7,1.1,3.2,3,3.2c2.1,0,3.7-1.4,3.7-4.1L146.4,18.5L146.4,18.5z M62.4,18.5c0-0.7,0.2-0.9,0.7-1l0.7-0.2v-0.5h-5.2v0.5l0.6,0.2
		c0.5,0.2,0.7,0.4,0.7,1.1v14.1c0,0.7-0.3,1.1-1.1,1.1c-0.9,0-1.1-0.3-1.4-1.8l-3.2-15.1h-1l-3.1,14.6c-0.4,1.6-0.5,2-1.2,2.2
		l-0.4,0.1v0.5H52v-0.5l-0.5-0.1c-0.8-0.2-1-0.6-0.6-2.5l1.8-9.4l2,9.9c0.3,1.4,0.3,1.7-0.8,1.9l-0.5,0.1v0.5h13.4v-5.7h-0.5
		c-0.3,2.6-0.8,5.1-2.9,5.1h-1V18.5z M132.4,17.4h0.6c1.6,0,2.1,2.5,2.3,5.1h0.5v-5.7h-9.1v5.7h0.5c0.2-2.6,0.7-5.1,2.3-5.1h0.6v15
		c0,0.7-0.2,1-0.7,1.1l-0.7,0.2v0.5h5.4v-0.5l-0.8-0.2c-0.5-0.1-0.7-0.3-0.7-1.1L132.4,17.4L132.4,17.4z M120.9,25.5l0.8,0
		c1.1,0,1.5,0.5,1.7,3.2h0.5v-7h-0.5c-0.3,2.2-0.6,3.1-1.7,3.1l-0.8,0v-7.4h1.7c1.9,0,2.4,2.4,2.6,5.1h0.5v-5.7h-8.7v0.5l0.6,0.2
		c0.6,0.2,0.7,0.5,0.7,1.1v14c0,0.7-0.2,1-0.7,1.1l-0.6,0.2v0.5h8.9v-5.7h-0.5c-0.3,2.6-0.6,5.1-2.9,5.1h-1.7L120.9,25.5L120.9,25.5
		z M111.4,25.5l0.8,0c1.1,0,1.5,0.5,1.7,3.2h0.5v-7h-0.5c-0.3,2.2-0.6,3.1-1.7,3.1l-0.8,0v-7.4h1.7c1.9,0,2.4,2.5,2.6,5.1h0.5v-5.7
		h-8.9v0.5l0.8,0.2c0.6,0.2,0.7,0.5,0.7,1.1v14c0,0.7-0.2,1-0.7,1.1l-0.6,0.2v0.5h8.9v-5.7H116c-0.3,2.6-0.6,5.1-2.9,5.1h-1.7V25.5
		L111.4,25.5z M101.1,17.4h0.8c1,0,1.9,0.7,1.9,3.9c0,3.3-0.7,3.7-2.1,3.7h-0.6V17.4z M97.3,34.2h5.1v-0.5l-0.6-0.1
		c-0.5-0.1-0.7-0.4-0.7-1.1v-6.8h0.9c0.7,0,1.1,0.3,1.2,1.7l0.1,3.2c0.1,2.9,0.9,3.7,2.3,3.7c1.4,0,1.8-1,1.8-2.4v-0.6h-0.5v0.4
		c0,0.9-0.1,1.6-0.5,1.6c-0.3,0-0.4-0.3-0.4-1.4l-0.2-2.2c-0.2-3-0.6-4-2.8-4.4c2.1-0.6,3.4-2.1,3.4-4.3c0-2.8-2.2-4.2-4.4-4.2h-4.8
		v0.5l0.6,0.2c0.5,0.2,0.7,0.4,0.7,1.1v14c0,0.7-0.2,1-0.7,1.1l-0.6,0.2L97.3,34.2L97.3,34.2z M93.4,17.4H94c1.6,0,2.1,2.5,2.3,5.1
		h0.5v-5.7h-9.1v5.7h0.5c0.2-2.6,0.7-5.1,2.3-5.1h0.6v15c0,0.7-0.2,1-0.7,1.1l-0.7,0.2v0.5h5.3v-0.5l-0.7-0.2
		c-0.7-0.2-0.7-0.7-0.7-1.1V17.4z M87.6,29.7c0-5.2-5.7-6.5-5.7-10.3c0-0.8,0.3-2,1.6-2c1.8,0,2.5,2.3,2.8,5.2h0.5v-5.7h-0.3
		c-0.1,0.6-0.4,0.8-0.7,0.8c-0.6,0-0.9-0.9-2.3-0.9c-2.1,0-3.6,1.8-3.6,4.1c0,4.3,5.7,6,5.7,10c0,1.8-0.8,2.8-2,2.8
		c-1.7,0-2.8-2-3.1-5.2h-0.5v5.7h0.3c0.3-0.8,0.6-0.9,0.9-0.9c0.5,0,1,1,2.4,1C85.9,34.3,87.6,32.3,87.6,29.7 M71.1,18.5
		c0-0.7,0.2-0.9,0.7-1l0.7-0.2v-0.5h-5.2v0.5l0.6,0.2c0.5,0.2,0.7,0.4,0.7,1.1v14c0,0.7-0.2,1-0.7,1.1l-0.6,0.2v0.5h8.2v-5.7h-0.5
		c-0.3,2.6-0.8,5.1-2.9,5.1h-1V18.5z M54.5,29.5v-0.7h-3.4L51,29.5H54.5L54.5,29.5z M39.9,34.2h1l2.3-12.4H43l2.6,12.4h0.9l3.1-14.6
		c0.3-1.5,0.5-2.1,1.1-2.2l0.5-0.1v-0.5h-3.5v0.5l0.5,0.1c0.8,0.2,0.9,0.6,0.6,2.5l-2,9.8H47l-2-10.3c-0.2-1-0.3-1.8,0.5-1.9
		l0.6-0.1v-0.5h-4.9v0.5l0.3,0.1c0.5,0.1,0.6,0.4,0.8,1.4l0.8,3.7l-0.2-2.3l-1.7,9.2h0.2l-2-10.1c-0.2-1-0.3-1.8,0.5-2l0.4-0.1v-0.5
		h-5v0.5l0.5,0.1c0.5,0.1,0.7,0.4,1,1.7L39.9,34.2L39.9,34.2z M26.5,25.5l0.8,0c1.1,0,1.5,0.5,1.7,3.2h0.5v-7H29
		c-0.3,2.2-0.6,3.1-1.7,3.1l-0.8,0v-7.4h1.7c1.9,0,2.4,2.5,2.6,5.1h0.5v-5.7h-8.7v0.5l0.6,0.2c0.6,0.2,0.7,0.5,0.7,1.1v14
		c0,0.7-0.2,1-0.7,1.1l-0.6,0.2v0.5h8.9v-5.7h-0.5c-0.3,2.6-0.6,5.1-2.9,5.1h-1.7V25.5L26.5,25.5z M10.7,34.2h5.2v-0.5l-0.6-0.1
		c-0.5-0.1-0.8-0.4-0.8-1.1v-6.9h3.8v6.9c0,0.7-0.3,1-0.8,1.1L17,33.7v0.5h5.2v-0.5l-0.6-0.2c-0.5-0.1-0.7-0.4-0.7-1.1v-14
		c0-0.7,0.2-0.9,0.7-1.1l0.6-0.2v-0.5H17v0.5l0.6,0.2c0.4,0.1,0.8,0.3,0.8,1v6.5h-3.8v-6.5c0-0.7,0.3-0.9,0.8-1l0.6-0.2v-0.5h-5.2
		v0.5l0.6,0.2c0.5,0.2,0.7,0.4,0.7,1.1v14c0,0.7-0.2,1-0.7,1.1l-0.6,0.2L10.7,34.2L10.7,34.2z M6.8,17.4h0.6c1.6,0,2.1,2.5,2.3,5.1
		h0.5v-5.7H1v5.7h0.5c0.2-2.6,0.7-5.1,2.3-5.1h0.6v15c0,0.7-0.2,1-0.7,1.1l-0.7,0.2v0.5h5.4v-0.5l-0.8-0.2c-0.5-0.1-0.7-0.3-0.7-1.1
		L6.8,17.4L6.8,17.4z"/>
</g>
</svg>
