<?xml version="1.0" encoding="utf-8"?>
<!-- Generator: Adobe Illustrator 19.2.1, SVG Export Plug-In . SVG Version: 6.00 Build 0)  -->
<svg version="1.1" xmlns="http://www.w3.org/2000/svg" xmlns:xlink="http://www.w3.org/1999/xlink" x="0px" y="0px"
	 viewBox="0 0 152 152" style="enable-background:new 0 0 152 152;" xml:space="preserve">
<style type="text/css">
	.st0{fill:#98AF57;}
	.st1{font-family:'BrandonText-Black';}
	.st2{font-size:25.6484px;}
</style>
<g id="Layer_1">
	<g>
		<g>
			<path class="st0" d="M484.5,41.8h8.6c1.6,0,2.9-1.3,2.9-2.9v-2.4c0-1.6-1.3-2.9-2.9-2.9h-8.6c-1.6,0-2.9,1.3-2.9,2.9v2.4
				C481.6,40.5,482.9,41.8,484.5,41.8z"/>
			<path class="st0" d="M521.3,69.6c-11.5-5.4-11.7-20.1-11.7-20.2c0-1.5-1.3-2.7-2.8-2.7h0c-1.3,0-2.3,0.8-2.7,1.9h-8.3l-0.1-0.6
				c-0.4-2.4-2.5-4.1-4.9-4.1h-4c-2.4,0-4.5,1.7-4.9,4.1l-0.1,0.6h-12.5c-1.5,0-2.8,1.2-2.8,2.8c0,1.5,1.3,2.8,2.8,2.8h11.6
				l-1.8,10.6c-4.5,3.1-7.5,8.3-7.5,14.2v32.2c0,3.2,2.6,5.8,5.8,5.8h22.9c3.2,0,5.8-2.6,5.8-5.8V78.9c0-5.9-3-11.2-7.6-14.2
				l-1.8-10.5h7.8c1,5.9,4.3,15.7,14.5,20.4c0.4,0.2,0.8,0.3,1.2,0.3c1.1,0,2.1-0.6,2.5-1.6C523.3,71.9,522.7,70.2,521.3,69.6z
				 M502.4,78.9v32.2c0,1.1-0.9,2.1-2.1,2.1h-22.9c-1.1,0-2.1-1-2.1-2.1V78.9c0-7.4,6-13.4,13.4-13.4h0.3
				C496.4,65.5,502.4,71.5,502.4,78.9z"/>
		</g>
	</g>
	<path class="st0" d="M489.1,73.5c-3.2,0-5.8,2-5.8,5.2c0,1.5,0.7,1.5,0.7,2.3c0,0.7,0,1.3,0.7,1.3c0.4,0,0,0,0.7,0
		c0.9,0,0.5,2.9,1.5,2.9c0.1,0,0.3,0,0.4,0v-1c0-0.2,0.1-0.3,0.3-0.3s0.3,0.1,0.3,0.3v1c0.4,0,0.8,0,1.1,0c0.3,0,0.7,0,1.1,0v-1
		c0-0.2,0.1-0.3,0.3-0.3l0,0c0.2,0,0.3,0.1,0.3,0.3v1c0.2,0,0.3,0,0.4,0c1,0,0.5-2.9,1.5-2.9c0.7,0,0.3,0,0.7,0
		c0.7,0,0.7-0.5,0.7-1.3c0-0.7,0.7-0.8,0.7-2.3C494.9,75.5,492.3,73.5,489.1,73.5z M486.9,80.8c-0.8,0-1.5-0.7-1.5-1.5
		c0-0.8,0.7-1.5,1.5-1.5c0.8,0,1.5,0.7,1.5,1.5C488.3,80.2,487.7,80.8,486.9,80.8z M489.1,82.3c0,0-1.1,0-1.1-0.4
		c0-0.4,0.4-1.8,1.1-1.8c0.7,0,1.1,1.5,1.1,1.8C490.2,82.3,489.1,82.3,489.1,82.3z M491.3,80.8c-0.8,0-1.5-0.7-1.5-1.5
		c0-0.8,0.7-1.5,1.5-1.5s1.5,0.7,1.5,1.5C492.7,80.2,492.1,80.8,491.3,80.8z"/>
	<g>
		<path class="st0" d="M491.5,1c-41.4,0-75,33.6-75,75s33.6,75,75,75s75-33.6,75-75S532.9,1,491.5,1z M491.5,141.2
			c-16.8,0-32.1-6.4-43.7-16.8l0-0.1l14.1-13.7l-7-7l-14,13.5l0,0.1c-9.2-11.2-14.7-25.6-14.7-41.3c0-36,29.2-65.2,65.2-65.2
			c15.7,0,30.1,5.5,41.3,14.8h-0.2l-15.2,15.3l7,7l15.4-15.5l0.1,0c10.4,11.6,16.8,26.9,16.8,43.7
			C556.7,112,527.5,141.2,491.5,141.2z"/>
	</g>
	<path class="st0" d="M76,1C34.6,1,1,34.6,1,76s33.6,75,75,75s75-33.6,75-75S117.4,1,76,1z M125.7,28.5
		c11.8,12.3,19.1,29.1,19.1,47.5c0,38-30.8,68.8-68.8,68.8c-18.4,0-35.2-7.3-47.5-19.1l-4.3-4.5c-10.6-12.1-17-27.9-17-45.2
		C7.2,38,38,7.2,76,7.2c17.3,0,33.1,6.4,45.2,17"/>
</g>
<g id="Isolation_Mode">
	<path class="st0" d="M497.4,89c-0.8,0-1.5,0.6-1.7,1.3l-3.6-1.5l3.7-1.6c0.3,0.6,0.9,1,1.6,1c1,0,1.8-0.8,1.8-1.8
		c0-0.6-0.3-1.2-0.9-1.5c0.1-0.2,0.1-0.4,0.1-0.6c0-1-0.8-1.8-1.8-1.8s-1.8,0.8-1.8,1.8c0,0.3,0.1,0.5,0.2,0.8l-6,2.5l-6-2.5
		c0.1-0.2,0.2-0.5,0.2-0.8c0-1-0.8-1.8-1.8-1.8s-1.8,0.8-1.8,1.8c0,0.2,0,0.4,0.1,0.6c-0.5,0.3-0.9,0.9-0.9,1.5c0,1,0.8,1.8,1.8,1.8
		c0.7,0,1.3-0.4,1.6-1l3.7,1.6l-3.6,1.5c-0.2-0.8-0.9-1.3-1.7-1.3c-1,0-1.8,0.8-1.8,1.8c0,0.6,0.3,1.2,0.9,1.5
		c-0.1,0.2-0.1,0.4-0.1,0.6c0,1,0.8,1.8,1.8,1.8s1.8-0.8,1.8-1.8c0-0.2,0-0.3-0.1-0.5l5.9-2.5l5.9,2.5c0,0.2-0.1,0.3-0.1,0.5
		c0,1,0.8,1.8,1.8,1.8s1.8-0.8,1.8-1.8c0-0.2,0-0.4-0.1-0.6c0.5-0.3,0.9-0.9,0.9-1.5C499.2,89.9,498.4,89,497.4,89z"/>
	<path class="st0" d="M323.7,52.4c-0.5-0.5-13.8-13.8-29.6-12.1c-7,0.7-9.4,1.7-11.3,2.5c-1.5,0.6-2.8,1.1-7.6,1.3
		c0.5-4.6,0.4-8.9-0.3-12.8c4.9,1.8,9.6,2.8,14.1,2.8c24,0,33.3-26.7,33.3-28.6c0-1.5-1.1-2.8-2.6-3.1c-20.8-3.3-35.7-0.5-44,8.3
		c-2.3,2.5-3.8,5.1-4.7,7.5c-4.2-9.1-9.8-14.4-10.2-14.8c-1.3-1.2-3.2-1.1-4.4,0.2c-1.2,1.2-1.1,3.2,0.2,4.4
		c0.2,0.1,15.1,14.5,12.4,36.2c-5.1-0.2-6.4-0.7-7.9-1.3c-1.9-0.8-4.3-1.8-11.3-2.5C234,38.6,220.7,51.9,220,52.6
		c-9,10.6-12.6,23.1-10.8,37c3.6,27.3,27.1,51.3,35.3,56.9c4.3,3,9.1,4.5,14.2,4.5c5.7,0,10.4-1.8,13.1-3.2
		c2.7,1.3,7.5,3.2,13.1,3.2c5.1,0,9.9-1.5,14.2-4.5c8.2-5.6,31.7-29.6,35.3-56.9C336.5,75.7,332.9,63.2,323.7,52.4z M299.6,69.5
		l-25.9,55.6c-0.2,0.5-0.7,0.9-1.4,0.9h-0.8c-0.7,0-1.2-0.4-1.4-0.9l-25.8-55.6c-0.5-1.1,0.2-2.1,1.4-2.1h11c0.7,0,1.2,0.5,1.4,0.9
		l13.6,30.2h0.5l13.6-30.2c0.2-0.4,0.7-0.9,1.4-0.9h11C299.5,67.4,300.1,68.5,299.6,69.5z"/>
	<text transform="matrix(1 0 0 1 16.8545 69.1743)" class="st0 st1 st2">ORGANIC</text>
	<path class="st0" d="M140.8,76c0,35.8-29,64.8-64.8,64.8c-17.4,0-33.2-6.8-44.8-18l-4-4.2c-10-11.4-16-26.3-16-42.6"/>
</g>
</svg>
