<?xml version="1.0" encoding="utf-8"?>
<!-- Generator: Adobe Illustrator 19.2.1, SVG Export Plug-In . SVG Version: 6.00 Build 0)  -->
<svg version="1.1" xmlns="http://www.w3.org/2000/svg" xmlns:xlink="http://www.w3.org/1999/xlink" x="0px" y="0px"
	 viewBox="0 0 152 152" style="enable-background:new 0 0 152 152;" xml:space="preserve">
<style type="text/css">
	.st0{fill:#98AF57;}
</style>
<g id="Layer_1">
	<g>
		<path class="st0" d="M55.6,100.8c0,0,8.7,11.5,20.2,11.8c0,0,7.1,1.4,20.6-10.5c0,0-5.8-10.1-18.9-11
			C77.4,91.2,67.4,90.6,55.6,100.8z"/>
		<path class="st0" d="M75.9,41.6c0,0,12.3,7.5,13.7,18.9c0,0,2,7-8.4,21.5c0,0-10.6-4.8-12.7-17.8C68.4,64.2,66.9,54.3,75.9,41.6z"
			/>
		<path class="st0" d="M97.3,59.2c0,0,11.5,8.7,11.8,20.2c0,0,1.4,7.1-10.5,20.6c0,0-10.1-5.8-11-18.9C87.7,81,87.1,71,97.3,59.2z"
			/>
		<path class="st0" d="M58.5,44.4c-8.6-8.8-24-7.2-24-7.2c0.6,16.6,8.4,24.1,8.4,24.1c10.3,9.7,22.4,6.9,22.4,6.9
			C64.8,49,58.5,44.4,58.5,44.4z M45,47.2c-1.4,1.4-3.8,1.2-5.5-0.5c-1.6-1.6-1.9-4.1-0.5-5.5s3.8-1.2,5.5,0.5
			C46.2,43.3,46.4,45.8,45,47.2z"/>
		<path class="st0" d="M117.8,75.4c-11.6,13.5-11,25-11,25c0.7,9.6,5.6,15.8,9.1,19l-0.2,0.2c-3.2-3.5-9.4-8.4-19-9.1
			c0,0-11.5-0.6-25,11c0,0,6.8,9,16.6,12.3c2.1,0.7,4.2,1.1,6.5,1.2c0,0,7.5,1.4,21.6-10.3l12.3,12.3l4.5-4.5l-12.3-12.3
			c11.9-14.2,10.4-21.8,10.4-21.8C131,85.3,117.8,75.4,117.8,75.4z"/>
		<path class="st0" d="M60.6,72c0,0-9.9-1.5-22.6,7.4c0,0,7.5,12.3,18.9,13.7c0,0,7,2,21.5-8.4C78.4,84.7,73.6,74.1,60.6,72z
			 M56.8,84.4c-1.6,1.6-4.1,1.9-5.5,0.5c-1.4-1.4-1.2-3.8,0.5-5.5c1.6-1.6,4.1-1.9,5.5-0.5C58.7,80.3,58.4,82.7,56.8,84.4z"/>
	</g>
	<path class="st0" d="M77,1C35.6,1,2,34.6,2,76s33.6,75,75,75c17.3,0,33.2-5.9,45.9-15.7l-7.2-6.9c-10.8,8-24.2,12.8-38.7,12.8
		c-16.8,0-32.1-6.4-43.6-16.8l17.2-17.2l-7-7l-17,17C17.4,106,11.9,91.6,11.9,76C11.9,40,41,10.9,77,10.9c15.6,0,30,5.5,41.2,14.7
		L97.4,46.4l7,7l21-21c10.4,11.6,16.8,26.9,16.8,43.6c0,17-6.5,32.5-17.2,44.1l7,7C144.4,113.7,152,95.8,152,76
		C152,34.6,118.4,1,77,1z"/>
</g>
<g id="Isolation_Mode">
</g>
</svg>
