<?xml version="1.0" encoding="utf-8"?>
<!-- Generator: Adobe Illustrator 19.2.1, SVG Export Plug-In . SVG Version: 6.00 Build 0)  -->
<svg version="1.1" xmlns="http://www.w3.org/2000/svg" xmlns:xlink="http://www.w3.org/1999/xlink" x="0px" y="0px"
	 viewBox="0 0 152 152" style="enable-background:new 0 0 152 152;" xml:space="preserve">
<style type="text/css">
	.st0{fill:#98AF57;}
	.st1{fill:#98AD55;}
</style>
<g id="Layer_1">
	<g>
		<g>
			<path class="st0" d="M484.5,41.8h8.6c1.6,0,2.9-1.3,2.9-2.9v-2.4c0-1.6-1.3-2.9-2.9-2.9h-8.6c-1.6,0-2.9,1.3-2.9,2.9v2.4
				C481.6,40.5,482.9,41.8,484.5,41.8z"/>
			<path class="st0" d="M521.3,69.6c-11.5-5.4-11.7-20.1-11.7-20.2c0-1.5-1.3-2.7-2.8-2.7h0c-1.3,0-2.3,0.8-2.7,1.9h-8.3l-0.1-0.6
				c-0.4-2.4-2.5-4.1-4.9-4.1h-4c-2.4,0-4.5,1.7-4.9,4.1l-0.1,0.6h-12.5c-1.5,0-2.8,1.2-2.8,2.8c0,1.5,1.3,2.8,2.8,2.8h11.6
				l-1.8,10.6c-4.5,3.1-7.5,8.3-7.5,14.2v32.2c0,3.2,2.6,5.8,5.8,5.8h22.9c3.2,0,5.8-2.6,5.8-5.8V78.9c0-5.9-3-11.2-7.6-14.2
				l-1.8-10.5h7.8c1,5.9,4.3,15.7,14.5,20.4c0.4,0.2,0.8,0.3,1.2,0.3c1.1,0,2.1-0.6,2.5-1.6C523.3,71.9,522.7,70.2,521.3,69.6z
				 M502.4,78.9v32.2c0,1.1-0.9,2.1-2.1,2.1h-22.9c-1.1,0-2.1-1-2.1-2.1V78.9c0-7.4,6-13.4,13.4-13.4h0.3
				C496.4,65.5,502.4,71.5,502.4,78.9z"/>
		</g>
	</g>
	<path class="st0" d="M489.1,73.5c-3.2,0-5.8,2-5.8,5.2c0,1.5,0.7,1.5,0.7,2.3c0,0.7,0,1.3,0.7,1.3c0.4,0,0,0,0.7,0
		c0.9,0,0.5,2.9,1.5,2.9c0.1,0,0.3,0,0.4,0v-1c0-0.2,0.1-0.3,0.3-0.3s0.3,0.1,0.3,0.3v1c0.4,0,0.8,0,1.1,0c0.3,0,0.7,0,1.1,0v-1
		c0-0.2,0.1-0.3,0.3-0.3l0,0c0.2,0,0.3,0.1,0.3,0.3v1c0.2,0,0.3,0,0.4,0c1,0,0.5-2.9,1.5-2.9c0.7,0,0.3,0,0.7,0
		c0.7,0,0.7-0.5,0.7-1.3c0-0.7,0.7-0.8,0.7-2.3C494.9,75.5,492.3,73.5,489.1,73.5z M486.9,80.8c-0.8,0-1.5-0.7-1.5-1.5
		c0-0.8,0.7-1.5,1.5-1.5c0.8,0,1.5,0.7,1.5,1.5C488.3,80.2,487.7,80.8,486.9,80.8z M489.1,82.3c0,0-1.1,0-1.1-0.4
		c0-0.4,0.4-1.8,1.1-1.8c0.7,0,1.1,1.5,1.1,1.8C490.2,82.3,489.1,82.3,489.1,82.3z M491.3,80.8c-0.8,0-1.5-0.7-1.5-1.5
		c0-0.8,0.7-1.5,1.5-1.5s1.5,0.7,1.5,1.5C492.7,80.2,492.1,80.8,491.3,80.8z"/>
</g>
<g id="Isolation_Mode">
	<path class="st0" d="M497.4,89c-0.8,0-1.5,0.6-1.7,1.3l-3.6-1.5l3.7-1.6c0.3,0.6,0.9,1,1.6,1c1,0,1.8-0.8,1.8-1.8
		c0-0.6-0.3-1.2-0.9-1.5c0.1-0.2,0.1-0.4,0.1-0.6c0-1-0.8-1.8-1.8-1.8s-1.8,0.8-1.8,1.8c0,0.3,0.1,0.5,0.2,0.8l-6,2.5l-6-2.5
		c0.1-0.2,0.2-0.5,0.2-0.8c0-1-0.8-1.8-1.8-1.8s-1.8,0.8-1.8,1.8c0,0.2,0,0.4,0.1,0.6c-0.5,0.3-0.9,0.9-0.9,1.5c0,1,0.8,1.8,1.8,1.8
		c0.7,0,1.3-0.4,1.6-1l3.7,1.6l-3.6,1.5c-0.2-0.8-0.9-1.3-1.7-1.3c-1,0-1.8,0.8-1.8,1.8c0,0.6,0.3,1.2,0.9,1.5
		c-0.1,0.2-0.1,0.4-0.1,0.6c0,1,0.8,1.8,1.8,1.8s1.8-0.8,1.8-1.8c0-0.2,0-0.3-0.1-0.5l5.9-2.5l5.9,2.5c0,0.2-0.1,0.3-0.1,0.5
		c0,1,0.8,1.8,1.8,1.8s1.8-0.8,1.8-1.8c0-0.2,0-0.4-0.1-0.6c0.5-0.3,0.9-0.9,0.9-1.5C499.2,89.9,498.4,89,497.4,89z"/>
	<g>
		<path class="st1" d="M1,57.1c29.5,31.3,34.6,68.9,35.5,80.5c6.5,3.6,13.5,6.3,20.9,8.1C50.3,71.7,1,57.1,1,57.1z"/>
		<path class="st1" d="M26,7.8c37.6,38.4,39.8,121.8,39.8,139.4c3.6,0.5,7.4,0.7,11.1,0.7c3.3,0,6.6-0.2,9.8-0.6
			C86.8,35.1,26,7.8,26,7.8z"/>
		<path class="st1" d="M86.7,75c5.2,10.5,7.2,24.9,7.2,24.9c7.2-47,34.2-71.5,34.2-71.5C103.2,34.4,86.7,75,86.7,75z"/>
		<path class="st1" d="M100.7,144.6c8.2-2.4,15.9-6.1,22.9-10.7c6.1-55.7,27.4-78.5,27.4-78.5C110.8,78.3,102.2,131.1,100.7,144.6z"
			/>
	</g>
</g>
</svg>
