<?xml version="1.0" encoding="utf-8"?>
<!-- Generator: Adobe Illustrator 19.2.1, SVG Export Plug-In . SVG Version: 6.00 Build 0)  -->
<svg version="1.1" xmlns="http://www.w3.org/2000/svg" xmlns:xlink="http://www.w3.org/1999/xlink" x="0px" y="0px"
	 viewBox="0 0 152 152" style="enable-background:new 0 0 152 152;" xml:space="preserve">
<style type="text/css">
	.st0{fill:#98AF57;}
</style>
<g id="Layer_1">
</g>
<g id="Isolation_Mode">
	<g>
		<path class="st0" d="M76.5,151c41.4,0,75-33.6,75-75c0-1,0-1.9-0.1-2.9C129.4,70,109.6,61,95,47.3C78.2,58.4,56.5,65.1,32.9,65.1
			c-10.5,0-20.5-1.3-29.9-3.7C2,66.1,1.5,71,1.5,76C1.5,117.4,35.1,151,76.5,151z M107.1,77.7c2.9,0,5.2,2.3,5.2,5.2
			s-2.3,5.2-5.2,5.2c-2.9,0-5.2-2.3-5.2-5.2S104.3,77.7,107.1,77.7z M91.2,112.2c-1.7,6.5-7.6,11.3-14.7,11.3s-12.9-4.8-14.7-11.3
			H91.2z M45.9,77.7c2.9,0,5.2,2.3,5.2,5.2s-2.3,5.2-5.2,5.2s-5.2-2.3-5.2-5.2S43,77.7,45.9,77.7z"/>
		<path class="st0" d="M100.1,43.7c13.2,12,31,20.1,50.8,23.1c-2.5-20.2-13-37.9-28.3-49.9C117.7,27.1,109.9,36.2,100.1,43.7z"/>
		<path class="st0" d="M117.6,13.3c-8.7-5.7-18.7-9.7-29.5-11.4c-0.3,0-0.6-0.1-0.9-0.1c-1.3-0.2-2.6-0.3-3.9-0.4
			C81.1,1.2,78.8,1,76.5,1c-2.4,0-4.7,0.2-7.1,0.4C67.7,1.5,66,1.7,64.3,2c-0.2,0-0.3,0-0.5,0.1C35.2,7,12.2,28,4.4,55.4
			c9,2.3,18.5,3.6,28.5,3.6C71.9,59,105.2,39.9,117.6,13.3z"/>
	</g>
</g>
<g id="Content">
</g>
</svg>
