<?xml version="1.0" encoding="utf-8"?>
<!-- Generator: Adobe Illustrator 19.2.1, SVG Export Plug-In . SVG Version: 6.00 Build 0)  -->
<svg version="1.1" xmlns="http://www.w3.org/2000/svg" xmlns:xlink="http://www.w3.org/1999/xlink" x="0px" y="0px"
	 viewBox="0 0 152 152" style="enable-background:new 0 0 152 152;" xml:space="preserve">
<style type="text/css">
	.st0{fill:#98AF57;}
</style>
<g id="Layer_1">
	<path class="st0" d="M85.5,66.1c-4-4-6.1-9.2-7-12.4c-0.1-0.7-0.3-1.4-0.6-2c-0.1-0.5-0.2-0.7-0.2-0.7c-1-2.9-2.7-5.6-5-7.9
		c-8.3-8.3-21.7-8.3-30,0s-8.3,21.7,0,30c2.3,2.3,5,4,7.9,5l0,0l0,0c0.7,0.3,1.5,0.5,2.2,0.6c3.3,1,9.4,3.4,13,7
		c3.7,3.7,5.6,8.5,6.8,11.7c0.3,1.2,0.5,2.4,0.9,3.6l0,0l0,0c1,2.9,2.7,5.6,5,7.9c8.3,8.3,21.7,8.3,30,0s8.3-21.7,0-30
		c-2.3-2.3-5-4-7.9-5C100.7,73.9,90.7,71.3,85.5,66.1z M49.6,56c0,3-1.7,5.4-3.9,5.4c-2.1,0-3.9-2.4-3.9-5.4c0-3,1.7-5.4,3.9-5.4
		C47.9,50.6,49.6,53,49.6,56z M60.5,57.7c-1.4,1.4-3.7,1.4-5.1,0c-1.4-1.4-1.4-3.7,0-5.1c1.4-1.4,3.7-1.4,5.1,0
		C61.9,54.1,61.9,56.3,60.5,57.7z M56.6,48.3c-1.7,1.7-4.5,1.7-6.3,0c-1.7-1.7-1.7-4.5,0-6.3c1.7-1.7,4.5-1.7,6.3,0
		C58.4,43.8,58.4,46.6,56.6,48.3z"/>
	<g>
		<path class="st0" d="M86.5,66c-4.1-4.1-6.2-9.4-7.1-12.7c-0.1-0.7-0.4-1.4-0.6-2.1c-0.1-0.5-0.2-0.7-0.2-0.7c-1-3-2.7-5.7-5.1-8.1
			c-8.5-8.5-22.2-8.5-30.7,0s-8.5,22.2,0,30.7c2.4,2.4,5.1,4.1,8.1,5.1l0,0l0,0c0.7,0.3,1.5,0.5,2.3,0.7c3.3,1.1,9.6,3.4,13.3,7.2
			c3.8,3.8,5.8,8.7,6.9,11.9c0.3,1.2,0.5,2.5,0.9,3.7l0,0l0,0c1,3,2.7,5.7,5.1,8.1c8.5,8.5,22.2,8.5,30.7,0s8.5-22.2,0-30.7
			c-2.4-2.4-5.1-4.1-8.1-5.1C102.1,73.9,91.9,71.3,86.5,66z M49.9,55.6c0,3.1-1.8,5.5-3.9,5.5c-2.2,0-3.9-2.5-3.9-5.5
			s1.8-5.5,3.9-5.5C48.1,50.1,49.9,52.6,49.9,55.6z M61.1,57.4c-1.4,1.4-3.7,1.4-5.2,0c-1.4-1.4-1.4-3.7,0-5.2
			c1.4-1.4,3.7-1.4,5.2,0C62.5,53.6,62.5,55.9,61.1,57.4z M57.1,47.8c-1.8,1.8-4.6,1.8-6.4,0c-1.8-1.8-1.8-4.6,0-6.4
			c1.8-1.8,4.6-1.8,6.4,0C58.9,43.1,58.9,46,57.1,47.8z"/>
		<path class="st0" d="M76.5,1c-41.4,0-75,33.6-75,75s33.6,75,75,75s75-33.6,75-75S117.9,1,76.5,1z M76.5,141.2
			c-16.8,0-32.1-6.4-43.7-16.8l0-0.1l25.5-25l-7-7L26,117.2l0,0.1C16.8,106.1,11.3,91.7,11.3,76c0-36,29.2-65.2,65.2-65.2
			c15.7,0,30.1,5.5,41.3,14.8h-0.2L92.1,51.3l7,7l25.8-25.9l0.1,0c10.4,11.6,16.8,26.9,16.8,43.7C141.7,112,112.5,141.2,76.5,141.2z
			"/>
	</g>
</g>
<g id="Isolation_Mode">
</g>
</svg>
