<?xml version="1.0" encoding="utf-8"?>
<!-- Generator: Adobe Illustrator 19.2.1, SVG Export Plug-In . SVG Version: 6.00 Build 0)  -->
<svg version="1.1" xmlns="http://www.w3.org/2000/svg" xmlns:xlink="http://www.w3.org/1999/xlink" x="0px" y="0px"
	 viewBox="0 0 152 152" style="enable-background:new 0 0 152 152;" xml:space="preserve">
<style type="text/css">
	.st0{fill:#98AF57;}
</style>
<g id="Layer_1">
</g>
<g id="Isolation_Mode">
</g>
<g id="Content">
	<g>
		<path class="st0" d="M84.7,82c-1.8,0-3.2,1.4-3.2,3.2c0,1.8,1.4,3.2,3.2,3.2c1.7,0,3.2-1.4,3.2-3.2C87.9,83.5,86.4,82,84.7,82z"/>
		<path class="st0" d="M66.3,55.6c0-1.7-1.4-3.2-3.2-3.2c-1.8,0-3.2,1.4-3.2,3.2c0,1.8,1.4,3.2,3.2,3.2
			C64.8,58.8,66.3,57.4,66.3,55.6z"/>
		<path class="st0" d="M150.2,87.3L84,21.1l-9.5-9.5l-7.9-7.9c-1.5-1.5-3.4-2.3-5.5-2.3H21.6c-11.1,0-20.1,9-20.1,20.1v39.5
			c0,2.1,0.8,4,2.3,5.5l70.7,70.7l9.5,9.5l3.3,3.3c1.8,1.8,4.7,1.8,6.5,0l56.4-56.4C151.9,92,151.9,89.1,150.2,87.3z M34,34
			c-3.2,3.2-8.4,3.2-11.6,0c-3.2-3.2-3.2-8.4,0-11.6c3.2-3.2,8.4-3.2,11.6,0C37.2,25.6,37.2,30.8,34,34z M54.2,55.6
			c0-4.9,3.9-8.9,8.9-8.9c4.9,0,8.9,3.9,8.9,8.9c0,4.9-4,8.9-8.9,8.9C58.2,64.5,54.2,60.6,54.2,55.6z M65,92.7
			c-0.1,0.3-0.6,0.7-1.1,0.7h-3.2c-1,0-1.6-0.9-1.1-1.8l22.5-43.6c0.2-0.4,0.6-0.7,1.1-0.7h3.3c1,0,1.6,0.9,1.1,1.8L65,92.7z
			 M84.7,94.1c-4.9,0-8.9-3.9-8.9-8.9s4-8.9,8.9-8.9c4.9,0,8.9,3.9,8.9,8.9S89.6,94.1,84.7,94.1z"/>
	</g>
</g>
</svg>
