<?xml version="1.0" encoding="utf-8"?>
<!-- Generator: Adobe Illustrator 18.1.1, SVG Export Plug-In . SVG Version: 6.00 Build 0)  -->
<svg version="1.1" id="Layer_1" xmlns="http://www.w3.org/2000/svg" xmlns:xlink="http://www.w3.org/1999/xlink" x="0px" y="0px"
	 viewBox="0 0 1224 792" enable-background="new 0 0 1224 792" xml:space="preserve">
<g id="Layer_1_1_">
</g>
<g id="Isolation_Mode">
</g>
<g id="Content">
	<g>
		<path fill="#FFFFFF" d="M657.3,427.3c-9.4,0-16.7,7.3-16.7,16.7c0,9.4,7.3,16.7,16.7,16.7c8.9,0,16.7-7.3,16.7-16.7
			C674,435.1,666.2,427.3,657.3,427.3z"/>
		<path fill="#FFFFFF" d="M561.5,289.7c0-8.9-7.3-16.7-16.7-16.7c-9.4,0-16.7,7.3-16.7,16.7s7.3,16.7,16.7,16.7
			C553.6,306.4,561.5,299.1,561.5,289.7z"/>
		<path fill="#FFFFFF" d="M998.6,454.9L653.7,109.9l-49.5-49.5L563,19.3c-7.8-7.8-17.7-12-28.7-12H328.5
			c-57.8,0-104.7,46.9-104.7,104.7v205.8c0,10.9,4.2,20.8,12,28.7l368.4,368.4l49.5,49.5l17.2,17.2c9.4,9.4,24.5,9.4,33.9,0
			l293.9-293.9C1007.5,479.4,1007.5,464.3,998.6,454.9z M393.2,177.2c-16.7,16.7-43.8,16.7-60.4,0s-16.7-43.8,0-60.4
			s43.8-16.7,60.4,0S409.8,160.5,393.2,177.2z M498.4,289.7c0-25.5,20.3-46.4,46.4-46.4c25.5,0,46.4,20.3,46.4,46.4
			c0,25.5-20.8,46.4-46.4,46.4C519.3,336.1,498.4,315.8,498.4,289.7z M554.7,483c-0.5,1.6-3.1,3.6-5.7,3.6h-16.7
			c-5.2,0-8.3-4.7-5.7-9.4l117.2-227.2c1-2.1,3.1-3.6,5.7-3.6h17.2c5.2,0,8.3,4.7,5.7,9.4L554.7,483z M657.3,490.3
			c-25.5,0-46.4-20.3-46.4-46.4c0-26.1,20.8-46.4,46.4-46.4c25.5,0,46.4,20.3,46.4,46.4C703.7,470,682.9,490.3,657.3,490.3z"/>
	</g>
</g>
</svg>
