<?xml version="1.0" encoding="utf-8"?>
<!-- Generator: Adobe Illustrator 19.2.1, SVG Export Plug-In . SVG Version: 6.00 Build 0)  -->
<svg version="1.1" xmlns="http://www.w3.org/2000/svg" xmlns:xlink="http://www.w3.org/1999/xlink" x="0px" y="0px"
	 viewBox="0 0 152 152" style="enable-background:new 0 0 152 152;" xml:space="preserve">
<style type="text/css">
	.st0{fill:#98AD55;}
</style>
<g id="Layer_1">
</g>
<g id="Isolation_Mode">
	<g>
		<path class="st0" d="M151.5,98.6c0,1.5-1.2,2.8-2.8,2.8s-2.8-1.2-2.8-2.8V73.3c0-3.3-2.4-5.6-4.7-5.6H137c-0.6,0-1.1,0.4-1.2,1
			l-7.3,49c-1.3,4.7-5.7,8-10.6,8H95.4c-5.2,0-9.7-3.7-10.8-8.7c-0.1-0.3-0.1-0.7-0.2-1.1h3.3c0.7,0,1.2-0.5,1.2-1.2
			c0-0.7-0.5-1.2-1.2-1.2h-3.7l-0.9-6.7h4.6c0.7,0,1.2-0.5,1.2-1.2c0-0.7-0.5-1.2-1.2-1.2h-5l-0.9-6.7h5.9c0.7,0,1.2-0.5,1.2-1.2
			c0-0.7-0.5-1.2-1.2-1.2h-6.3l-0.9-6.7h7.2c0.7,0,1.2-0.5,1.2-1.2c0-0.7-0.5-1.2-1.2-1.2h-7.5l-0.9-6.7h8.5c0.7,0,1.2-0.5,1.2-1.2
			c0-0.7-0.5-1.2-1.2-1.2h-8.8l-0.5-3.9c0-0.2-0.1-0.4-0.3-0.6l-6-7.4c0-0.1-0.1-0.1-0.1-0.1c-0.2-0.1-0.3-0.3-0.4-0.5c0,0,0,0,0,0
			c-0.1-0.3-0.2-0.5-0.2-0.8c0-0.9,0.8-1.7,1.7-1.7h68.1c2.6,0,5.2,1.1,7.1,3.1c2,2.1,3.1,4.9,3.1,8V98.6z"/>
		<path class="st0" d="M80.7,111.4l-5.3-36.5c-2.3-2.9-3.1-4.2-5-7.4l0,0l-2-3.7c0-2.1,1.7-3.9,3.9-3.8l7.8,0l1.3,0l0,0l1.3,0h0
			v-3.3c0-6-3.8-11.2-9.5-13V39h1.9v-7.2c0-3-2.5-5.5-5.5-5.5H14.5c-3,0-5.5,2.5-5.5,5.5V39H11v4.7c-5.6,1.8-9.5,7-9.5,13v2v36.1
			v6.4c0,11.3,7.7,21,18.7,23.5h37.5C57.8,124.6,72.9,125.2,80.7,111.4z M31.1,101.1l-5.9,5c-1.2,1.2-2.6-1.2-2.1-1.8l5-6.1
			c0.5-0.5,0.7,0.6,1.5,1.4C30.5,100.4,31.7,100.6,31.1,101.1z M29.6,95.3C25.3,91,33.1,81,34.7,80.5c0,0-3.2,2.6-1,8.5
			C36.2,95.6,31.5,97.2,29.6,95.3z M46.1,76.6c2.5,6.6-2.2,8.2-4.1,6.3c-4.2-4.2,3.6-14.2,5.1-14.7C47.1,68.1,43.8,70.7,46.1,76.6z
			 M40,82.7c2.5,6.6-2.2,8.2-4.1,6.3c-4.3-4.2,3.6-14.2,5.1-14.7C41,74.2,37.7,76.8,40,82.7z M34.1,99.8c-1.9-1.9-0.4-6.6,6.3-4.1
			c5.9,2.2,8.5-1,8.5-1C48.4,96.3,38.4,104.1,34.1,99.8z M40.4,93.5c-1.9-1.9-0.3-6.6,6.3-4.1c5.9,2.2,8.5-1,8.5-1
			C54.6,90,44.6,97.8,40.4,93.5z M46.5,87.4c-1.9-1.9-0.4-6.6,6.3-4.1c5.9,2.2,8.5-1,8.5-1C60.8,83.9,50.8,91.7,46.5,87.4z
			 M58.6,70.9c0,0-4.8,14.3-9.4,9.8C44.8,76.2,57.1,71.2,58.6,70.9z M79.6,55.5H4.7c-0.2,0-0.3,0-0.5,0.1c0.5-4.6,3.8-8.5,8.4-9.6
			l1-0.2V39v-2.2h57.1V39v6.7l1,0.2c4.6,1.1,7.9,5,8.4,9.6C79.9,55.5,79.8,55.5,79.6,55.5z"/>
	</g>
</g>
</svg>
