<?xml version="1.0" encoding="utf-8"?>
<!-- Generator: Adobe Illustrator 19.2.1, SVG Export Plug-In . SVG Version: 6.00 Build 0)  -->
<svg version="1.1" id="Layer_1" xmlns="http://www.w3.org/2000/svg" xmlns:xlink="http://www.w3.org/1999/xlink" x="0px" y="0px"
	 viewBox="0 0 612 792" style="enable-background:new 0 0 612 792;" xml:space="preserve">
<style type="text/css">
	.st0{fill:#98AF57;}
	.st1{fill:#97AD56;}
</style>
<g id="Layer_1_1_">
</g>
<g id="Content">
</g>
<g id="Isolation_Mode">
	<path class="st0" d="M328.7,443.9c-2.9,0-5.5,2.2-6.3,4.8l-13.3-5.5l13.6-5.9c1.1,2.2,3.3,3.7,5.9,3.7c3.7,0,6.6-2.9,6.6-6.6
		c0-2.2-1.1-4.4-3.3-5.5c0.4-0.7,0.4-1.5,0.4-2.2c0-3.7-2.9-6.6-6.6-6.6s-6.6,2.9-6.6,6.6c0,1.1,0.4,1.8,0.7,2.9l-22.1,9.2
		l-22.1-9.2c0.4-0.7,0.7-1.8,0.7-2.9c0-3.7-2.9-6.6-6.6-6.6s-6.6,2.9-6.6,6.6c0,0.7,0,1.5,0.4,2.2c-1.8,1.1-3.3,3.3-3.3,5.5
		c0,3.7,2.9,6.6,6.6,6.6c2.6,0,4.8-1.5,5.9-3.7l13.6,5.9l-12.5,5.9c-0.7-2.9-3.3-4.8-6.3-4.8c-3.7,0-6.6,2.9-6.6,6.6
		c0,2.2,1.1,4.4,3.3,5.5c-0.4,0.7-0.4,1.5-0.4,2.2c0,3.7,2.9,6.6,6.6,6.6s6.6-2.9,6.6-6.6c0-0.7,0-1.1-0.4-1.8l21.7-9.2l21.7,9.2
		c0,0.7-0.4,1.1-0.4,1.8c0,3.7,2.9,6.6,6.6,6.6s6.6-2.9,6.6-6.6c0-0.7,0-1.5-0.4-2.2c1.8-1.1,3.3-3.3,3.3-5.5
		C335.7,447.2,332.4,443.9,328.7,443.9z"/>
</g>
<g>
	<path class="st1" d="M101,591c87.1,61.8,245.6,65.1,337.3-26.6C539,463.7,562.6,132.8,562.6,132.8s-68.3,35.6-177.5,45
		C282.2,186.6,186.9,201.1,131,257C44.8,343.2,28.9,477.4,78,564.2C132,479.4,348.4,347,348.4,347S108.6,549,101,591z"/>
</g>
</svg>
