<?xml version="1.0" encoding="utf-8"?>
<!-- Generator: Adobe Illustrator 19.2.1, SVG Export Plug-In . SVG Version: 6.00 Build 0)  -->
<svg version="1.1" xmlns="http://www.w3.org/2000/svg" xmlns:xlink="http://www.w3.org/1999/xlink" x="0px" y="0px"
	 viewBox="0 0 152 152" style="enable-background:new 0 0 152 152;" xml:space="preserve">
<style type="text/css">
	.st0{fill:#98AF57;}
</style>
<g id="Layer_1">
</g>
<g id="Isolation_Mode">
</g>
<g id="Content">
	<g>
		<path class="st0" d="M24.5,8.6c0-2.4,1.7-4.3,4.1-4.7C38.6,2.5,52,1.5,70,1.5c20.8,0,35.6,4,45.5,11.9
			c9.5,7.5,15.9,19.9,15.9,34.5c0,14.6-4.9,27-13.7,35.3c-11.5,10.8-28.5,15.7-48.4,15.7c-4.4,0-8.4-0.2-11.5-0.7v48.5
			c0,2.6-2.1,4.7-4.7,4.7H29.5c-2.8,0-5-2.3-5-5V8.6z M57.9,72.2c2.9,0.7,6.4,0.9,11.3,0.9c17.9,0,28.9-9.1,28.9-24.3
			c0-13.7-9.5-21.9-26.3-21.9c-6.8,0-11.5,0.7-13.9,1.3V72.2z"/>
	</g>
</g>
</svg>
