<?xml version="1.0" encoding="utf-8"?>
<!-- Generator: Adobe Illustrator 19.2.1, SVG Export Plug-In . SVG Version: 6.00 Build 0)  -->
<svg version="1.1" xmlns="http://www.w3.org/2000/svg" xmlns:xlink="http://www.w3.org/1999/xlink" x="0px" y="0px"
	 viewBox="0 0 152 152" style="enable-background:new 0 0 152 152;" xml:space="preserve">
<style type="text/css">
	.st0{fill:#98AF57;}
</style>
<g id="Layer_1">
</g>
<g id="Isolation_Mode">
	<path class="st0" d="M74.8,24c2.8,0,4.6-1.8,4.6-4.6V5.6c0-2.8-1.8-4.6-4.6-4.6c-2.8,0-4.6,1.8-4.6,4.6v13.8
		C70.2,22.2,72.1,24,74.8,24z"/>
	<path class="st0" d="M119.3,64.4c0.5,2.7,2.6,4.2,5.3,3.7l13.6-2.4c2.7-0.5,4.2-2.6,3.7-5.3c-0.5-2.7-2.6-4.2-5.3-3.7L123,59
		C120.3,59.5,118.8,61.7,119.3,64.4z"/>
	<path class="st0" d="M26.5,59.2l-13.6-2.4c-2.7-0.5-4.9,1-5.3,3.7c-0.5,2.7,1,4.9,3.7,5.3l13.6,2.4c2.7,0.5,4.9-1,5.3-3.7
		C30.7,61.8,29.2,59.7,26.5,59.2z"/>
	<path class="st0" d="M111.7,37.8c1.4,0,2.3-0.5,3.2-1.4l9.7-9.7c1.8-1.8,1.8-4.6,0-6.4c-1.8-1.8-4.6-1.8-6.4,0l-9.7,9.7
		c-1.8,1.8-1.8,4.6,0,6.4C109.4,37.3,110.3,37.8,111.7,37.8z"/>
	<path class="st0" d="M42.7,36.4c1.8-1.8,1.8-4.6,0-6.4l-9.7-9.7c-1.8-1.8-4.6-1.8-6.4,0c-1.8,1.8-1.8,4.6,0,6.4l9.7,9.7
		c0.9,0.9,1.8,1.4,3.2,1.4S41.8,37.3,42.7,36.4z"/>
	<path class="st0" d="M3.8,83.2c0,0,0.7,39.3,37.1,58.7c0,0,34.1,21.8,73.8-2.2C114.7,139.8,78.7,87.5,3.8,83.2z M71.6,140.4
		c-0.5,0.5-1.1,0.7-1.7,0.7c-0.7,0-1.4-0.3-1.9-0.8c-11.1-12-35.4-18.4-35.6-18.4c-1.4-0.3-2.2-1.7-1.8-3.1c0.3-1.4,1.7-2.2,3.1-1.8
		c0.3,0.1,6.5,1.7,14.4,4.9c10.6,4.4,18.6,9.4,23.7,15C72.7,137.9,72.7,139.5,71.6,140.4z M98,140.7c-0.5,0.4-1.1,0.6-1.7,0.6
		c-0.7,0-1.4-0.3-1.9-0.9c-6.9-8-15.3-15.2-25-21.2c-7.8-4.9-16.4-9.1-25.7-12.5C28.1,101,16,99.5,15.8,99.5
		c-1.4-0.2-2.4-1.4-2.2-2.8c0.2-1.4,1.4-2.4,2.8-2.2c0.5,0.1,12.8,1.6,29.1,7.6c9.6,3.5,18.5,7.9,26.6,12.9
		c10.1,6.3,18.9,13.8,26.2,22.2C99.2,138.2,99.1,139.8,98,140.7z"/>
	<path class="st0" d="M78.7,94.7c0,0,27.5,13,45.8,38.3c0,0,23.7-17.8,23.7-56.8C148.2,76.2,108.7,72.5,78.7,94.7z M131.7,106.9
		c-0.1,0-1.2,0-2.8,0.5c-1.6,0.4-4,1.3-6.6,3.2c-0.4,0.3-1,0.5-1.5,0.5c-0.8,0-1.5-0.4-2-1c-0.8-1.1-0.6-2.7,0.5-3.5
		c6.4-4.6,12.1-4.7,12.3-4.7c1.4,0,2.5,1.1,2.5,2.5C134.2,105.8,133.1,106.9,131.7,106.9z M139,89.5c-0.2,0-16.6,1.8-33.1,11.6
		c-0.4,0.2-0.8,0.4-1.3,0.4c-0.9,0-1.7-0.4-2.2-1.2c-0.7-1.2-0.3-2.7,0.9-3.4c17.4-10.3,34.4-12.2,35.1-12.3
		c1.4-0.1,2.6,0.9,2.7,2.2C141.4,88.1,140.4,89.3,139,89.5z"/>
	<path class="st0" d="M110.1,69.9c0.1-0.9,0-0.9,0-1.9c0-19.6-15.9-35.4-35.4-35.4S39.4,48.5,39.4,68c0,3.8,0.6,7.4,1.7,10.8
		c5.6,1.7,15.8,4.8,27.9,10C82.7,78.7,101.4,72.4,110.1,69.9z"/>
</g>
</svg>
