<?xml version="1.0" encoding="utf-8"?>
<!-- Generator: Adobe Illustrator 19.2.1, SVG Export Plug-In . SVG Version: 6.00 Build 0)  -->
<svg version="1.1" xmlns="http://www.w3.org/2000/svg" xmlns:xlink="http://www.w3.org/1999/xlink" x="0px" y="0px"
	 viewBox="0 0 152 152" style="enable-background:new 0 0 152 152;" xml:space="preserve">
<style type="text/css">
	.st0{fill:#98AF57;}
</style>
<g id="Layer_1">
	<g>
		<g>
			<path class="st0" d="M69,41.8h8.6c1.6,0,2.9-1.3,2.9-2.9v-2.4c0-1.6-1.3-2.9-2.9-2.9H69c-1.6,0-2.9,1.3-2.9,2.9v2.4
				C66.2,40.5,67.4,41.8,69,41.8z"/>
			<path class="st0" d="M105.8,69.6c-11.5-5.4-11.7-20.1-11.7-20.2c0-1.5-1.3-2.7-2.8-2.7h0c-1.3,0-2.3,0.8-2.7,1.9h-8.3L80.2,48
				c-0.4-2.4-2.5-4.1-4.9-4.1h-4c-2.4,0-4.5,1.7-4.9,4.1l-0.1,0.6H53.8c-1.5,0-2.8,1.2-2.8,2.8c0,1.5,1.3,2.8,2.8,2.8h11.6
				l-1.8,10.6C59,67.8,56,73,56,78.9v32.2c0,3.2,2.6,5.8,5.8,5.8h22.9c3.2,0,5.8-2.6,5.8-5.8V78.9c0-5.9-3-11.2-7.6-14.2l-1.8-10.5
				H89c1,5.9,4.3,15.7,14.5,20.4c0.4,0.2,0.8,0.3,1.2,0.3c1.1,0,2.1-0.6,2.5-1.6C107.8,71.9,107.2,70.2,105.8,69.6z M86.9,78.9v32.2
				c0,1.1-0.9,2.1-2.1,2.1H61.9c-1.1,0-2.1-1-2.1-2.1V78.9c0-7.4,6-13.4,13.4-13.4h0.3C80.9,65.5,86.9,71.5,86.9,78.9z"/>
		</g>
	</g>
	<path class="st0" d="M73.6,73.5c-3.2,0-5.8,2-5.8,5.2c0,1.5,0.7,1.5,0.7,2.3c0,0.7,0,1.3,0.7,1.3c0.4,0,0,0,0.7,0
		c0.9,0,0.5,2.9,1.5,2.9c0.1,0,0.3,0,0.4,0v-1c0-0.2,0.1-0.3,0.3-0.3s0.3,0.1,0.3,0.3v1c0.4,0,0.8,0,1.1,0c0.3,0,0.7,0,1.1,0v-1
		c0-0.2,0.1-0.3,0.3-0.3l0,0c0.2,0,0.3,0.1,0.3,0.3v1c0.2,0,0.3,0,0.4,0c1,0,0.5-2.9,1.5-2.9c0.7,0,0.3,0,0.7,0
		c0.7,0,0.7-0.5,0.7-1.3c0-0.7,0.7-0.8,0.7-2.3C79.4,75.5,76.8,73.5,73.6,73.5z M71.4,80.8c-0.8,0-1.5-0.7-1.5-1.5
		c0-0.8,0.7-1.5,1.5-1.5c0.8,0,1.5,0.7,1.5,1.5C72.9,80.2,72.2,80.8,71.4,80.8z M73.6,82.3c0,0-1.1,0-1.1-0.4c0-0.4,0.4-1.8,1.1-1.8
		s1.1,1.5,1.1,1.8C74.7,82.3,73.6,82.3,73.6,82.3z M75.8,80.8c-0.8,0-1.5-0.7-1.5-1.5c0-0.8,0.7-1.5,1.5-1.5c0.8,0,1.5,0.7,1.5,1.5
		C77.2,80.2,76.6,80.8,75.8,80.8z"/>
	<g>
		<path class="st0" d="M76,1C34.6,1,1,34.6,1,76s33.6,75,75,75s75-33.6,75-75S117.4,1,76,1z M76,141.2c-16.8,0-32.1-6.4-43.7-16.8
			l0-0.1l14.1-13.7l-7-7l-14,13.5l0,0.1C16.3,106.1,10.8,91.7,10.8,76C10.8,40,40,10.8,76,10.8c15.7,0,30.1,5.5,41.3,14.8h-0.2
			L102,40.9l7,7l15.4-15.5l0.1,0c10.4,11.6,16.8,26.9,16.8,43.7C141.2,112,112,141.2,76,141.2z"/>
	</g>
</g>
<g id="Isolation_Mode">
	<path class="st0" d="M81.9,89c-0.8,0-1.5,0.6-1.7,1.3l-3.6-1.5l3.7-1.6c0.3,0.6,0.9,1,1.6,1c1,0,1.8-0.8,1.8-1.8
		c0-0.6-0.3-1.2-0.9-1.5c0.1-0.2,0.1-0.4,0.1-0.6c0-1-0.8-1.8-1.8-1.8c-1,0-1.8,0.8-1.8,1.8c0,0.3,0.1,0.5,0.2,0.8l-6,2.5l-6-2.5
		c0.1-0.2,0.2-0.5,0.2-0.8c0-1-0.8-1.8-1.8-1.8c-1,0-1.8,0.8-1.8,1.8c0,0.2,0,0.4,0.1,0.6c-0.5,0.3-0.9,0.9-0.9,1.5
		c0,1,0.8,1.8,1.8,1.8c0.7,0,1.3-0.4,1.6-1l3.7,1.6L67,90.4c-0.2-0.8-0.9-1.3-1.7-1.3c-1,0-1.8,0.8-1.8,1.8c0,0.6,0.3,1.2,0.9,1.5
		c-0.1,0.2-0.1,0.4-0.1,0.6c0,1,0.8,1.8,1.8,1.8c1,0,1.8-0.8,1.8-1.8c0-0.2,0-0.3-0.1-0.5l5.9-2.5l5.9,2.5c0,0.2-0.1,0.3-0.1,0.5
		c0,1,0.8,1.8,1.8,1.8c1,0,1.8-0.8,1.8-1.8c0-0.2,0-0.4-0.1-0.6c0.5-0.3,0.9-0.9,0.9-1.5C83.8,89.9,82.9,89,81.9,89z"/>
	<path class="st0" d="M-91.8,52.4c-0.5-0.5-13.8-13.8-29.6-12.1c-7,0.7-9.4,1.7-11.3,2.5c-1.5,0.6-2.8,1.1-7.6,1.3
		c0.5-4.6,0.4-8.9-0.3-12.8c4.9,1.8,9.6,2.8,14.1,2.8c24,0,33.3-26.7,33.3-28.6c0-1.5-1.1-2.8-2.6-3.1c-20.8-3.3-35.7-0.5-44,8.3
		c-2.3,2.5-3.8,5.1-4.7,7.5c-4.2-9.1-9.8-14.4-10.2-14.8c-1.3-1.2-3.2-1.1-4.4,0.2c-1.2,1.2-1.1,3.2,0.2,4.4
		c0.2,0.1,15.1,14.5,12.4,36.2c-5.1-0.2-6.4-0.7-7.9-1.3c-1.9-0.8-4.3-1.8-11.3-2.5c-15.8-1.7-29.1,11.6-29.7,12.3
		c-9,10.6-12.6,23.1-10.8,37c3.6,27.3,27.1,51.3,35.3,56.9c4.3,3,9.1,4.5,14.2,4.5c5.7,0,10.4-1.8,13.1-3.2
		c2.7,1.3,7.5,3.2,13.1,3.2c5.1,0,9.9-1.5,14.2-4.5c8.2-5.6,31.7-29.6,35.3-56.9C-79,75.7-82.6,63.2-91.8,52.4z M-115.9,69.5
		l-25.9,55.6c-0.2,0.5-0.7,0.9-1.4,0.9h-0.8c-0.7,0-1.2-0.4-1.4-0.9l-25.8-55.6c-0.5-1.1,0.2-2.1,1.4-2.1h11c0.7,0,1.2,0.5,1.4,0.9
		l13.6,30.2h0.5l13.6-30.2c0.2-0.4,0.7-0.9,1.4-0.9h11C-116,67.4-115.4,68.5-115.9,69.5z"/>
</g>
</svg>
