<?xml version="1.0" encoding="utf-8"?>
<!-- Generator: Adobe Illustrator 19.2.1, SVG Export Plug-In . SVG Version: 6.00 Build 0)  -->
<svg version="1.1" xmlns="http://www.w3.org/2000/svg" xmlns:xlink="http://www.w3.org/1999/xlink" x="0px" y="0px"
	 viewBox="0 0 152 152" style="enable-background:new 0 0 152 152;" xml:space="preserve">
<style type="text/css">
	.st0{fill:#98AF57;}
</style>
<g id="Layer_1">
	<path class="st0" d="M67.4,16.6c0,0,0.8,21.9,3.1,28.6c0,0-6.8-5.1-11.6-10l-2.5,3.4c0,0,8.5,14.5,15.6,18.1c0,0,5,21.7,4.4,44.7
		c0,0-18.7-15.4-26-33l-4.6,1.3l3.1,9.9c0,0-11.7-4.1-14-6.3l-1.6,3.4c0,0,11.2,9.5,19.3,11.2c0,0,10.8,22.4,20.5,27.5l-0.3,1.2
		c0,0-15.6,5.7-24.9-7.4l-5.1-1.3c0,0-11.6,5.1-15.3-5.2c0,0-4.8-11.8,4.7-17.1l-2.6-8.4c0,0-7.2,3.1-9.5-4c0,0-2.8-9.5,8.1-11
		l3.5-6.2c0,0-6-8.1,0.1-15.6c0,0,4.8-6.9,18.7-3.6l4.7-9.7c0,0-11.3-4.5-7-15.2c0,0,3.3-7.4,13.5-2.4C61.7,9.6,66.6,12.6,67.4,16.6
		z"/>
	<g>
		<path class="st0" d="M97.7,69.1c2.6,0,8-0.4,14.1-3l-0.2-0.6c-7.3,2-11.5,1.5-12.7,1.3c3.3-5.8,6.5-13.4,8-22.9l-1.1-0.4
			c-7.1,23.4-20.7,30.1-21,30.3c-0.2-0.4-0.2-0.6-0.4-0.9C75.2,45,73.7,26,73.9,16.1l-2.3-0.4c-1.1,6.5-0.8,17.5,1.6,35.3
			c-3-2-7.8-6-13.6-12.8l-0.7,1.1c5.2,8,11.2,13.4,15.1,16.6c0.7,4.8,1.7,10.2,2.8,16.2C79.1,84,79.3,95,78,105
			c-3.9-2.2-16-10.6-27.7-34.2l-1.3,0.4c1.1,3.9,2.6,7.6,4.1,11.2c-3-0.6-8.7-2.2-16.7-7.1L35.9,76c7.4,5.8,14.7,8.6,18.6,9.9
			c7.4,15.4,17.1,24.9,21.8,28.8c-3.2,15.4-9.3,27.5-13.6,34.6l14.1,1.7c11-19.9,15.8-44.1,10-69C88.8,80.1,93.2,76,97.7,69.1z"/>
		<path class="st0" d="M92.3,31.8c0,0-14.7-9.5-14.7,2.4C80.9,46.3,92.3,31.8,92.3,31.8z"/>
		<path class="st0" d="M83.2,49.1c7.1,3.5,5.2-7.8,5.2-7.8S77.6,43.8,83.2,49.1z"/>
		<path class="st0" d="M98.1,57.2c5.8-5.4-5.8-7.4-5.8-7.4S91.4,60.8,98.1,57.2z"/>
		<path class="st0" d="M100.1,112.1c0,0,11,0.7,7.4-6C102,100.6,100.1,112.1,100.1,112.1z"/>
		<path class="st0" d="M133.8,52.8c7.8,1.5,2.6-9.1,2.6-9.1S126.9,49.4,133.8,52.8z"/>
		<path class="st0" d="M104.9,82.9c-5.6,5.6,6,7.3,6,7.3S111.5,79.2,104.9,82.9z"/>
		<path class="st0" d="M104.8,41.6c11-3.2-2.4-13.4-2.4-13.4S93.8,41.6,104.8,41.6z"/>
		<path class="st0" d="M132.1,18.2c0,0-15.8-0.9-10.6,8.6C129.7,34.7,132.1,18.2,132.1,18.2z"/>
		<path class="st0" d="M112.4,65.6c-3.2,11,12.7,5.2,12.7,5.2S118.1,56.3,112.4,65.6z"/>
		<path class="st0" d="M133.8,98.5c-11-3-4.8,12.7-4.8,12.7S143.3,104.1,133.8,98.5z"/>
		<path class="st0" d="M44.8,113.2c3.5,4.8,8.7,8.2,14.7,9.3c1.7,0.4,3.3,0.6,5,0.6c3.5,0,7.1-0.7,10.4-2.2l1.3-4.7h-0.2
			c-4.7,3.2-10.4,4.1-15.8,3c-5.6-1.1-10.2-4.5-13.4-9.1l-2.4-0.6c-4.5,2.6-9.5,2.6-13.8,0c-4.8-3-8.2-8.7-8-14.3
			c0.2-3.3,1.5-8,7.6-11.2l-1.1-3.3c-2.8,0.6-5.2,0.2-7.1-1.3c-3.5-2.6-4.3-8.2-4.3-8.2c-0.6-5.8,3.7-10.8,9.5-11.3l1.5-2.6
			c-3.7-8.2-3.2-15.3,1.5-19.9s13-6.1,18.8-3.3l0.7-1.7l0.9-1.5c-8.4-5.6-8.7-13.4-6.3-18.8c2.2-7.4,18.7-12.1,27.1,3.7l2.3,0.4
			C76.6,7,51.9-9.6,41.1,10.5c-2,5.2-2.6,12.3,2.2,18.4c-5.8-0.4-11.7,1.7-15.8,5.8c-3.2,3.2-7.8,10.2-3.2,22
			c-6.5,1.7-11,8-10.4,14.9c0,0.4,0.7,7.1,5.8,10.8c1.1,0.9,2.6,1.5,4.1,1.9c-3,3-4.7,6.7-4.8,11c-0.2,6.9,3.7,14,9.9,17.5
			c2.8,1.7,5.6,2.4,8.6,2.4C40,114.9,42.4,114.4,44.8,113.2z"/>
	</g>
</g>
<g id="Isolation_Mode">
</g>
<g id="Content">
</g>
</svg>
