<?xml version="1.0" encoding="utf-8"?>
<!-- Generator: Adobe Illustrator 19.2.1, SVG Export Plug-In . SVG Version: 6.00 Build 0)  -->
<svg version="1.1" xmlns="http://www.w3.org/2000/svg" xmlns:xlink="http://www.w3.org/1999/xlink" x="0px" y="0px"
	 viewBox="0 0 152 152" style="enable-background:new 0 0 152 152;" xml:space="preserve">
<style type="text/css">
	.st0{fill:#98AF57;}
</style>
<g id="Layer_1">
	<g>
		<g>
			<path class="st0" d="M289.6,41.8h8.6c1.6,0,2.9-1.3,2.9-2.9v-2.4c0-1.6-1.3-2.9-2.9-2.9h-8.6c-1.6,0-2.9,1.3-2.9,2.9v2.4
				C286.7,40.5,288,41.8,289.6,41.8z"/>
			<path class="st0" d="M326.3,69.6c-11.5-5.4-11.7-20.1-11.7-20.2c0-1.5-1.3-2.7-2.8-2.7h0c-1.3,0-2.3,0.8-2.7,1.9h-8.3l-0.1-0.6
				c-0.4-2.4-2.5-4.1-4.9-4.1h-4c-2.4,0-4.5,1.7-4.9,4.1l-0.1,0.6h-12.5c-1.5,0-2.8,1.2-2.8,2.8c0,1.5,1.3,2.8,2.8,2.8h11.6
				l-1.8,10.6c-4.5,3.1-7.5,8.3-7.5,14.2v32.2c0,3.2,2.6,5.8,5.8,5.8h22.9c3.2,0,5.8-2.6,5.8-5.8V78.9c0-5.9-3-11.2-7.6-14.2
				l-1.8-10.5h7.8c1,5.9,4.3,15.7,14.5,20.4c0.4,0.2,0.8,0.3,1.2,0.3c1.1,0,2.1-0.6,2.5-1.6C328.4,71.9,327.8,70.2,326.3,69.6z
				 M307.4,78.9v32.2c0,1.1-0.9,2.1-2.1,2.1h-22.9c-1.1,0-2.1-1-2.1-2.1V78.9c0-7.4,6-13.4,13.4-13.4h0.3
				C301.4,65.5,307.4,71.5,307.4,78.9z"/>
		</g>
	</g>
	<path class="st0" d="M294.1,73.5c-3.2,0-5.8,2-5.8,5.2c0,1.5,0.7,1.5,0.7,2.3c0,0.7,0,1.3,0.7,1.3c0.4,0,0,0,0.7,0
		c0.9,0,0.5,2.9,1.5,2.9c0.1,0,0.3,0,0.4,0v-1c0-0.2,0.1-0.3,0.3-0.3s0.3,0.1,0.3,0.3v1c0.4,0,0.8,0,1.1,0s0.7,0,1.1,0v-1
		c0-0.2,0.1-0.3,0.3-0.3l0,0c0.2,0,0.3,0.1,0.3,0.3v1c0.2,0,0.3,0,0.4,0c1,0,0.5-2.9,1.5-2.9c0.7,0,0.3,0,0.7,0
		c0.7,0,0.7-0.5,0.7-1.3c0-0.7,0.7-0.8,0.7-2.3C299.9,75.5,297.3,73.5,294.1,73.5z M291.9,80.8c-0.8,0-1.5-0.7-1.5-1.5
		c0-0.8,0.7-1.5,1.5-1.5s1.5,0.7,1.5,1.5C293.4,80.2,292.7,80.8,291.9,80.8z M294.1,82.3c0,0-1.1,0-1.1-0.4c0-0.4,0.4-1.8,1.1-1.8
		s1.1,1.5,1.1,1.8C295.2,82.3,294.1,82.3,294.1,82.3z M296.3,80.8c-0.8,0-1.5-0.7-1.5-1.5c0-0.8,0.7-1.5,1.5-1.5s1.5,0.7,1.5,1.5
		C297.8,80.2,297.1,80.8,296.3,80.8z"/>
	<g>
		<path class="st0" d="M296.5,1c-41.4,0-75,33.6-75,75s33.6,75,75,75s75-33.6,75-75S338,1,296.5,1z M296.5,141.2
			c-16.8,0-32.1-6.4-43.7-16.8l0-0.1l14.1-13.7l-7-7l-14,13.5l0,0.1c-9.2-11.2-14.7-25.6-14.7-41.3c0-36,29.2-65.2,65.2-65.2
			c15.7,0,30.1,5.5,41.3,14.8h-0.2l-15.2,15.3l7,7l15.4-15.5l0.1,0c10.4,11.6,16.8,26.9,16.8,43.7
			C361.8,112,332.6,141.2,296.5,141.2z"/>
	</g>
</g>
<g id="Isolation_Mode">
	<path class="st0" d="M302.5,89c-0.8,0-1.5,0.6-1.7,1.3l-3.6-1.5l3.7-1.6c0.3,0.6,0.9,1,1.6,1c1,0,1.8-0.8,1.8-1.8
		c0-0.6-0.3-1.2-0.9-1.5c0.1-0.2,0.1-0.4,0.1-0.6c0-1-0.8-1.8-1.8-1.8c-1,0-1.8,0.8-1.8,1.8c0,0.3,0.1,0.5,0.2,0.8l-6,2.5l-6-2.5
		c0.1-0.2,0.2-0.5,0.2-0.8c0-1-0.8-1.8-1.8-1.8s-1.8,0.8-1.8,1.8c0,0.2,0,0.4,0.1,0.6c-0.5,0.3-0.9,0.9-0.9,1.5c0,1,0.8,1.8,1.8,1.8
		c0.7,0,1.3-0.4,1.6-1l3.7,1.6l-3.6,1.5c-0.2-0.8-0.9-1.3-1.7-1.3c-1,0-1.8,0.8-1.8,1.8c0,0.6,0.3,1.2,0.9,1.5
		c-0.1,0.2-0.1,0.4-0.1,0.6c0,1,0.8,1.8,1.8,1.8s1.8-0.8,1.8-1.8c0-0.2,0-0.3-0.1-0.5l5.9-2.5l5.9,2.5c0,0.2-0.1,0.3-0.1,0.5
		c0,1,0.8,1.8,1.8,1.8c1,0,1.8-0.8,1.8-1.8c0-0.2,0-0.4-0.1-0.6c0.5-0.3,0.9-0.9,0.9-1.5C304.3,89.9,303.5,89,302.5,89z"/>
	<path class="st0" d="M127.8,52.4c-0.5-0.5-13.8-13.8-29.6-12.1c-7,0.7-9.4,1.7-11.3,2.5c-1.5,0.6-2.8,1.1-7.6,1.3
		c0.5-4.6,0.4-8.9-0.3-12.8C83.9,33.1,88.6,34,93,34c24,0,33.3-26.7,33.3-28.6c0-1.5-1.1-2.8-2.6-3.1C103-1,88,1.9,79.8,10.7
		c-2.3,2.5-3.8,5.1-4.7,7.5C70.9,9.1,65.2,3.8,64.8,3.4c-1.3-1.2-3.2-1.1-4.4,0.2c-1.2,1.2-1.1,3.2,0.2,4.4
		C60.8,8,75.7,22.4,73,44.1c-5.1-0.2-6.4-0.7-7.9-1.3c-1.9-0.8-4.3-1.8-11.3-2.5C38,38.6,24.8,51.9,24.1,52.6
		c-9,10.6-12.6,23.1-10.8,37c3.6,27.3,27.1,51.3,35.3,56.9c4.3,3,9.1,4.5,14.2,4.5c5.7,0,10.4-1.8,13.1-3.2
		c2.7,1.3,7.5,3.2,13.1,3.2c5.1,0,9.9-1.5,14.2-4.5c8.2-5.6,31.7-29.6,35.3-56.9C140.5,75.7,136.9,63.2,127.8,52.4z M103.7,69.5
		l-25.9,55.6c-0.2,0.5-0.7,0.9-1.4,0.9h-0.8c-0.7,0-1.2-0.4-1.4-0.9L48.3,69.5c-0.5-1.1,0.2-2.1,1.4-2.1h11c0.7,0,1.2,0.5,1.4,0.9
		l13.6,30.2h0.5l13.6-30.2c0.2-0.4,0.7-0.9,1.4-0.9h11C103.5,67.4,104.2,68.5,103.7,69.5z"/>
</g>
</svg>
