<?xml version="1.0" encoding="utf-8"?>
<!-- Generator: Adobe Illustrator 19.1.0, SVG Export Plug-In . SVG Version: 6.00 Build 0)  -->
<svg version="1.1" xmlns="http://www.w3.org/2000/svg" xmlns:xlink="http://www.w3.org/1999/xlink" x="0px" y="0px"
	 viewBox="0 0 49.8 71.6" style="enable-background:new 0 0 49.8 71.6;" xml:space="preserve">
<style type="text/css">
	.st0{fill:#4D4D4F;}
</style>
<g id="Layer_1">
</g>
<g id="Art">
	<g>
		<g>
			<path class="st0" d="M9.2,5C9.1,4.9,9,4.7,8.9,4.6C8.7,4.5,8.5,4.4,8.4,4.3C8.2,4.2,8,4.2,7.7,4.2c-0.4,0-0.7,0.1-1,0.2
				C6.5,4.6,6.3,4.8,6.1,5C6,5.3,5.8,5.6,5.8,5.9c-0.1,0.3-0.1,0.6-0.1,1c0,0.3,0,0.6,0.1,0.9C5.8,8.1,6,8.4,6.1,8.6
				c0.2,0.2,0.4,0.4,0.6,0.6c0.3,0.1,0.6,0.2,1,0.2C8.3,9.4,8.7,9.3,9,9c0.3-0.3,0.5-0.7,0.5-1.3h1.6c0,0.5-0.2,0.9-0.3,1.3
				c-0.2,0.4-0.4,0.7-0.7,1c-0.3,0.3-0.6,0.5-1,0.6c-0.4,0.1-0.8,0.2-1.3,0.2c-0.6,0-1.1-0.1-1.6-0.3C5.7,10.4,5.3,10.1,5,9.7
				C4.6,9.3,4.4,8.9,4.2,8.4C4,8,4,7.4,4,6.9C4,6.3,4,5.8,4.2,5.3C4.4,4.8,4.6,4.3,5,4c0.3-0.4,0.7-0.7,1.2-0.9
				c0.5-0.2,1-0.3,1.6-0.3C8.2,2.8,8.6,2.8,9,3c0.4,0.1,0.7,0.3,1,0.5c0.3,0.2,0.5,0.5,0.7,0.9c0.2,0.3,0.3,0.7,0.4,1.2H9.4
				C9.4,5.4,9.3,5.2,9.2,5z"/>
			<path class="st0" d="M13.8,9.4c0.2,0.2,0.6,0.3,1,0.3c0.3,0,0.6-0.1,0.8-0.2C15.8,9.3,15.9,9.1,16,9h1.4c-0.2,0.7-0.5,1.1-1,1.4
				c-0.4,0.3-1,0.4-1.6,0.4c-0.4,0-0.8-0.1-1.2-0.2c-0.4-0.1-0.7-0.3-0.9-0.6c-0.2-0.3-0.4-0.6-0.6-0.9c-0.1-0.4-0.2-0.8-0.2-1.2
				c0-0.4,0.1-0.8,0.2-1.2c0.1-0.4,0.3-0.7,0.6-0.9s0.6-0.5,0.9-0.6c0.3-0.2,0.7-0.2,1.2-0.2c0.5,0,0.9,0.1,1.2,0.3
				c0.4,0.2,0.6,0.4,0.9,0.7c0.2,0.3,0.4,0.7,0.5,1.1c0.1,0.4,0.1,0.8,0.1,1.2h-4C13.4,8.8,13.6,9.1,13.8,9.4z M15.5,6.4
				c-0.2-0.2-0.5-0.3-0.8-0.3c-0.2,0-0.4,0-0.6,0.1c-0.2,0.1-0.3,0.2-0.4,0.3c-0.1,0.1-0.2,0.3-0.2,0.4c0,0.1-0.1,0.3-0.1,0.4h2.5
				C15.8,6.9,15.7,6.6,15.5,6.4z"/>
			<path class="st0" d="M19.8,5.1v1h0C19.9,6,20,5.8,20.1,5.7c0.1-0.1,0.3-0.3,0.4-0.4C20.7,5.2,20.9,5.1,21,5
				c0.2-0.1,0.4-0.1,0.6-0.1c0.1,0,0.2,0,0.3,0.1v1.4c-0.1,0-0.2,0-0.3,0c-0.1,0-0.2,0-0.3,0c-0.3,0-0.5,0-0.7,0.1
				c-0.2,0.1-0.4,0.2-0.5,0.4C20.1,7.1,20,7.3,20,7.5c-0.1,0.2-0.1,0.5-0.1,0.7v2.5h-1.5V5.1H19.8z"/>
			<path class="st0" d="M25.6,5.1v1h-1.1v2.8c0,0.3,0,0.4,0.1,0.5c0.1,0.1,0.3,0.1,0.5,0.1c0.1,0,0.2,0,0.2,0c0.1,0,0.2,0,0.2,0v1.2
				c-0.1,0-0.3,0-0.4,0c-0.2,0-0.3,0-0.5,0c-0.2,0-0.5,0-0.7,0c-0.2,0-0.4-0.1-0.6-0.2c-0.2-0.1-0.3-0.2-0.4-0.4
				C23,9.9,23,9.7,23,9.4V6.1H22v-1H23V3.4h1.5v1.7H25.6z"/>
			<path class="st0" d="M26.4,4.2V3h1.5v1.3H26.4z M27.9,5.1v5.6h-1.5V5.1H27.9z"/>
			<path class="st0" d="M28.6,6.1v-1h0.9V4.7c0-0.5,0.2-0.9,0.5-1.2C30.3,3.1,30.7,3,31.4,3c0.1,0,0.3,0,0.4,0s0.3,0,0.4,0v1.1
				c-0.2,0-0.4,0-0.6,0c-0.2,0-0.4,0-0.4,0.1C31.1,4.4,31,4.5,31,4.8v0.3h1.1v1H31v4.6h-1.5V6.1H28.6z"/>
			<path class="st0" d="M32.8,4.2V3h1.5v1.3H32.8z M34.3,5.1v5.6h-1.5V5.1H34.3z"/>
			<path class="st0" d="M37.2,9.4c0.2,0.2,0.6,0.3,1,0.3c0.3,0,0.6-0.1,0.8-0.2c0.2-0.2,0.4-0.3,0.4-0.5h1.4c-0.2,0.7-0.5,1.1-1,1.4
				c-0.4,0.3-1,0.4-1.6,0.4c-0.4,0-0.8-0.1-1.2-0.2c-0.4-0.1-0.7-0.3-0.9-0.6c-0.2-0.3-0.4-0.6-0.6-0.9c-0.1-0.4-0.2-0.8-0.2-1.2
				c0-0.4,0.1-0.8,0.2-1.2c0.1-0.4,0.3-0.7,0.6-0.9c0.3-0.3,0.6-0.5,0.9-0.6c0.3-0.2,0.7-0.2,1.2-0.2c0.5,0,0.9,0.1,1.2,0.3
				C39.7,5.4,40,5.7,40.2,6c0.2,0.3,0.4,0.7,0.5,1.1c0.1,0.4,0.1,0.8,0.1,1.2h-4C36.8,8.8,37,9.1,37.2,9.4z M38.9,6.4
				c-0.2-0.2-0.5-0.3-0.8-0.3c-0.2,0-0.4,0-0.6,0.1c-0.2,0.1-0.3,0.2-0.4,0.3c-0.1,0.1-0.2,0.3-0.2,0.4c0,0.1-0.1,0.3-0.1,0.4h2.5
				C39.2,6.9,39.1,6.6,38.9,6.4z"/>
			<path class="st0" d="M45.7,10c-0.2,0.3-0.4,0.5-0.7,0.7c-0.3,0.1-0.6,0.2-1,0.2c-0.4,0-0.8-0.1-1.1-0.2c-0.3-0.2-0.6-0.4-0.8-0.7
				c-0.2-0.3-0.4-0.6-0.5-1c-0.1-0.4-0.2-0.7-0.2-1.1c0-0.4,0.1-0.7,0.2-1.1c0.1-0.3,0.3-0.7,0.5-0.9c0.2-0.3,0.5-0.5,0.8-0.6
				C43.2,5,43.6,4.9,44,4.9c0.3,0,0.6,0.1,0.9,0.2c0.3,0.1,0.5,0.3,0.7,0.6h0V3h1.5v7.7h-1.5L45.7,10L45.7,10z M45.6,7.2
				c0-0.2-0.1-0.4-0.2-0.6c-0.1-0.2-0.2-0.3-0.4-0.4c-0.2-0.1-0.4-0.2-0.6-0.2c-0.3,0-0.5,0.1-0.6,0.2c-0.2,0.1-0.3,0.2-0.4,0.4
				c-0.1,0.2-0.2,0.4-0.2,0.6c0,0.2-0.1,0.4-0.1,0.7c0,0.2,0,0.4,0.1,0.6c0.1,0.2,0.1,0.4,0.2,0.6c0.1,0.2,0.3,0.3,0.4,0.4
				c0.2,0.1,0.4,0.2,0.6,0.2c0.3,0,0.5-0.1,0.6-0.2c0.2-0.1,0.3-0.2,0.4-0.4c0.1-0.2,0.2-0.4,0.2-0.6c0-0.2,0.1-0.4,0.1-0.7
				C45.7,7.6,45.7,7.4,45.6,7.2z"/>
		</g>
		<g>
			<path class="st0" d="M7.3,60c-0.1-0.1-0.2-0.2-0.3-0.3c-0.1-0.1-0.2-0.2-0.4-0.2c-0.1,0-0.3-0.1-0.4-0.1c-0.3,0-0.5,0.1-0.7,0.2
				c-0.2,0.1-0.3,0.2-0.5,0.4c-0.1,0.2-0.2,0.4-0.3,0.6c-0.1,0.2-0.1,0.5-0.1,0.7c0,0.2,0,0.5,0.1,0.7c0.1,0.2,0.1,0.4,0.3,0.6
				c0.1,0.2,0.3,0.3,0.5,0.4c0.2,0.1,0.4,0.2,0.7,0.2c0.4,0,0.7-0.1,0.9-0.3c0.2-0.2,0.3-0.5,0.4-0.9h1.2c0,0.3-0.1,0.7-0.2,0.9
				c-0.1,0.3-0.3,0.5-0.5,0.7c-0.2,0.2-0.5,0.3-0.7,0.4c-0.3,0.1-0.6,0.2-0.9,0.2c-0.4,0-0.8-0.1-1.1-0.2s-0.6-0.3-0.8-0.6
				c-0.2-0.3-0.4-0.6-0.5-0.9s-0.2-0.7-0.2-1.1c0-0.4,0.1-0.8,0.2-1.1c0.1-0.4,0.3-0.7,0.5-0.9c0.2-0.3,0.5-0.5,0.8-0.6
				c0.3-0.1,0.7-0.2,1.1-0.2c0.3,0,0.6,0,0.9,0.1c0.3,0.1,0.5,0.2,0.7,0.4c0.2,0.2,0.4,0.4,0.5,0.6c0.1,0.2,0.2,0.5,0.3,0.8H7.4
				C7.4,60.2,7.4,60.1,7.3,60z"/>
			<path class="st0" d="M9.4,61.2c0.1-0.3,0.2-0.5,0.4-0.7c0.2-0.2,0.4-0.3,0.6-0.4c0.3-0.1,0.5-0.1,0.8-0.1c0.3,0,0.6,0,0.8,0.1
				c0.3,0.1,0.5,0.2,0.6,0.4c0.2,0.2,0.3,0.4,0.4,0.7c0.1,0.3,0.1,0.5,0.1,0.9c0,0.3,0,0.6-0.1,0.9c-0.1,0.3-0.2,0.5-0.4,0.7
				c-0.2,0.2-0.4,0.3-0.6,0.4c-0.3,0.1-0.5,0.1-0.8,0.1c-0.3,0-0.6,0-0.8-0.1c-0.3-0.1-0.5-0.2-0.6-0.4c-0.2-0.2-0.3-0.4-0.4-0.7
				c-0.1-0.3-0.1-0.5-0.1-0.9C9.2,61.7,9.3,61.4,9.4,61.2z M10.3,62.5c0,0.2,0.1,0.3,0.2,0.4c0.1,0.1,0.2,0.2,0.3,0.3
				c0.1,0.1,0.3,0.1,0.5,0.1s0.3,0,0.5-0.1c0.1-0.1,0.2-0.2,0.3-0.3s0.1-0.3,0.2-0.4c0-0.2,0-0.3,0-0.5s0-0.3,0-0.5
				c0-0.2-0.1-0.3-0.2-0.4c-0.1-0.1-0.2-0.2-0.3-0.3c-0.1-0.1-0.3-0.1-0.5-0.1s-0.3,0-0.5,0.1c-0.1,0.1-0.2,0.2-0.3,0.3
				c-0.1,0.1-0.1,0.3-0.2,0.4c0,0.2,0,0.3,0,0.5S10.3,62.4,10.3,62.5z"/>
			<path class="st0" d="M15.1,60.1v0.7h0c0.1-0.1,0.1-0.2,0.2-0.3c0.1-0.1,0.2-0.2,0.3-0.3c0.1-0.1,0.2-0.1,0.4-0.2
				c0.1,0,0.3-0.1,0.4-0.1c0.1,0,0.2,0,0.2,0v1c-0.1,0-0.1,0-0.2,0c-0.1,0-0.1,0-0.2,0c-0.2,0-0.4,0-0.5,0.1
				c-0.1,0.1-0.2,0.2-0.3,0.3c-0.1,0.1-0.1,0.2-0.2,0.4c0,0.2-0.1,0.3-0.1,0.5V64H14v-4H15.1z"/>
			<path class="st0" d="M18.1,60.1v0.5h0c0.1-0.2,0.3-0.4,0.5-0.5s0.4-0.1,0.7-0.1c0.3,0,0.6,0.1,0.8,0.2c0.2,0.1,0.4,0.3,0.6,0.5
				c0.1,0.2,0.3,0.4,0.3,0.7c0.1,0.3,0.1,0.5,0.1,0.8c0,0.3,0,0.5-0.1,0.8c-0.1,0.2-0.2,0.5-0.3,0.7s-0.3,0.3-0.5,0.5
				c-0.2,0.1-0.5,0.2-0.8,0.2c-0.2,0-0.5,0-0.7-0.1c-0.2-0.1-0.4-0.2-0.5-0.4h0v1.9H17v-5.4H18.1z M19.5,63.2
				c0.1-0.1,0.2-0.2,0.3-0.3c0.1-0.1,0.1-0.2,0.2-0.4c0-0.2,0-0.3,0-0.5c0-0.2,0-0.3,0-0.5c0-0.2-0.1-0.3-0.2-0.4
				c-0.1-0.1-0.2-0.2-0.3-0.3c-0.1-0.1-0.3-0.1-0.4-0.1c-0.2,0-0.3,0-0.4,0.1c-0.1,0.1-0.2,0.2-0.3,0.3c-0.1,0.1-0.1,0.3-0.2,0.4
				c0,0.2,0,0.3,0,0.5c0,0.2,0,0.3,0,0.5c0,0.2,0.1,0.3,0.2,0.4c0.1,0.1,0.2,0.2,0.3,0.3s0.3,0.1,0.4,0.1
				C19.2,63.3,19.3,63.3,19.5,63.2z"/>
			<path class="st0" d="M21.7,61.2c0.1-0.3,0.2-0.5,0.4-0.7c0.2-0.2,0.4-0.3,0.6-0.4c0.3-0.1,0.5-0.1,0.8-0.1s0.6,0,0.8,0.1
				c0.3,0.1,0.5,0.2,0.6,0.4c0.2,0.2,0.3,0.4,0.4,0.7c0.1,0.3,0.1,0.5,0.1,0.9c0,0.3,0,0.6-0.1,0.9c-0.1,0.3-0.2,0.5-0.4,0.7
				c-0.2,0.2-0.4,0.3-0.6,0.4c-0.3,0.1-0.5,0.1-0.8,0.1s-0.6,0-0.8-0.1c-0.3-0.1-0.5-0.2-0.6-0.4c-0.2-0.2-0.3-0.4-0.4-0.7
				c-0.1-0.3-0.1-0.5-0.1-0.9C21.6,61.7,21.6,61.4,21.7,61.2z M22.7,62.5c0,0.2,0.1,0.3,0.2,0.4c0.1,0.1,0.2,0.2,0.3,0.3
				c0.1,0.1,0.3,0.1,0.5,0.1c0.2,0,0.3,0,0.5-0.1c0.1-0.1,0.2-0.2,0.3-0.3s0.1-0.3,0.2-0.4c0-0.2,0-0.3,0-0.5s0-0.3,0-0.5
				c0-0.2-0.1-0.3-0.2-0.4c-0.1-0.1-0.2-0.2-0.3-0.3c-0.1-0.1-0.3-0.1-0.5-0.1c-0.2,0-0.3,0-0.5,0.1c-0.1,0.1-0.2,0.2-0.3,0.3
				c-0.1,0.1-0.1,0.3-0.2,0.4c0,0.2,0,0.3,0,0.5S22.7,62.4,22.7,62.5z"/>
			<path class="st0" d="M27.4,60.1v0.7h0c0.1-0.1,0.1-0.2,0.2-0.3s0.2-0.2,0.3-0.3c0.1-0.1,0.2-0.1,0.4-0.2c0.1,0,0.3-0.1,0.4-0.1
				c0.1,0,0.2,0,0.2,0v1c-0.1,0-0.1,0-0.2,0c-0.1,0-0.1,0-0.2,0c-0.2,0-0.4,0-0.5,0.1c-0.1,0.1-0.2,0.2-0.3,0.3
				c-0.1,0.1-0.1,0.2-0.2,0.4c0,0.2-0.1,0.3-0.1,0.5V64h-1.1v-4H27.4z"/>
			<path class="st0" d="M29.3,61.3c0-0.3,0.1-0.5,0.2-0.6c0.1-0.2,0.3-0.3,0.4-0.4c0.2-0.1,0.4-0.2,0.6-0.2c0.2,0,0.4-0.1,0.7-0.1
				c0.2,0,0.4,0,0.6,0c0.2,0,0.4,0.1,0.6,0.2c0.2,0.1,0.3,0.2,0.4,0.3c0.1,0.1,0.2,0.3,0.2,0.6v2.1c0,0.2,0,0.4,0,0.5
				c0,0.2,0.1,0.3,0.1,0.4H32c0-0.1,0-0.1,0-0.2s0-0.1,0-0.2c-0.2,0.2-0.4,0.3-0.6,0.4c-0.2,0.1-0.5,0.1-0.7,0.1
				c-0.2,0-0.4,0-0.5-0.1c-0.2,0-0.3-0.1-0.4-0.2c-0.1-0.1-0.2-0.2-0.3-0.4c-0.1-0.1-0.1-0.3-0.1-0.5c0-0.2,0-0.4,0.1-0.6
				c0.1-0.1,0.2-0.3,0.3-0.3c0.1-0.1,0.3-0.2,0.4-0.2c0.2,0,0.3-0.1,0.5-0.1c0.2,0,0.3,0,0.5-0.1c0.2,0,0.3,0,0.4-0.1
				c0.1,0,0.2-0.1,0.3-0.1c0.1-0.1,0.1-0.1,0.1-0.3c0-0.1,0-0.2-0.1-0.3c0-0.1-0.1-0.1-0.2-0.2c-0.1,0-0.1-0.1-0.2-0.1
				c-0.1,0-0.2,0-0.3,0c-0.2,0-0.4,0-0.5,0.1c-0.1,0.1-0.2,0.2-0.2,0.5H29.3z M31.9,62.1c0,0-0.1,0.1-0.2,0.1c-0.1,0-0.1,0-0.2,0.1
				c-0.1,0-0.2,0-0.2,0c-0.1,0-0.2,0-0.3,0c-0.1,0-0.2,0-0.2,0.1c-0.1,0-0.1,0.1-0.2,0.1c-0.1,0-0.1,0.1-0.1,0.2
				c0,0.1-0.1,0.2-0.1,0.3c0,0.1,0,0.2,0.1,0.2c0,0.1,0.1,0.1,0.1,0.2c0.1,0,0.1,0.1,0.2,0.1c0.1,0,0.2,0,0.3,0c0.2,0,0.4,0,0.5-0.1
				s0.2-0.2,0.3-0.3c0.1-0.1,0.1-0.2,0.1-0.3s0-0.2,0-0.2V62.1z"/>
			<path class="st0" d="M36,60.1v0.7h-0.8v2c0,0.2,0,0.3,0.1,0.4c0.1,0.1,0.2,0.1,0.4,0.1c0.1,0,0.1,0,0.2,0c0.1,0,0.1,0,0.2,0V64
				c-0.1,0-0.2,0-0.3,0c-0.1,0-0.2,0-0.3,0c-0.2,0-0.3,0-0.5,0c-0.2,0-0.3-0.1-0.4-0.1c-0.1-0.1-0.2-0.2-0.3-0.3
				c-0.1-0.1-0.1-0.3-0.1-0.5v-2.3h-0.7v-0.7h0.7v-1.2h1.1v1.2H36z"/>
			<path class="st0" d="M36.5,59.4v-0.9h1.1v0.9H36.5z M37.6,60.1v4h-1.1v-4H37.6z"/>
			<path class="st0" d="M38.5,61.2c0.1-0.3,0.2-0.5,0.4-0.7c0.2-0.2,0.4-0.3,0.6-0.4c0.3-0.1,0.5-0.1,0.8-0.1s0.6,0,0.8,0.1
				c0.3,0.1,0.5,0.2,0.6,0.4c0.2,0.2,0.3,0.4,0.4,0.7c0.1,0.3,0.1,0.5,0.1,0.9c0,0.3,0,0.6-0.1,0.9c-0.1,0.3-0.2,0.5-0.4,0.7
				c-0.2,0.2-0.4,0.3-0.6,0.4c-0.3,0.1-0.5,0.1-0.8,0.1s-0.6,0-0.8-0.1c-0.3-0.1-0.5-0.2-0.6-0.4c-0.2-0.2-0.3-0.4-0.4-0.7
				c-0.1-0.3-0.1-0.5-0.1-0.9C38.3,61.7,38.4,61.4,38.5,61.2z M39.5,62.5c0,0.2,0.1,0.3,0.2,0.4c0.1,0.1,0.2,0.2,0.3,0.3
				s0.3,0.1,0.5,0.1s0.3,0,0.5-0.1c0.1-0.1,0.2-0.2,0.3-0.3c0.1-0.1,0.1-0.3,0.2-0.4c0-0.2,0-0.3,0-0.5s0-0.3,0-0.5
				c0-0.2-0.1-0.3-0.2-0.4c-0.1-0.1-0.2-0.2-0.3-0.3c-0.1-0.1-0.3-0.1-0.5-0.1s-0.3,0-0.5,0.1c-0.1,0.1-0.2,0.2-0.3,0.3
				c-0.1,0.1-0.1,0.3-0.2,0.4c0,0.2,0,0.3,0,0.5S39.5,62.4,39.5,62.5z"/>
			<path class="st0" d="M44.2,60.1v0.6h0c0.1-0.2,0.3-0.4,0.5-0.5c0.2-0.1,0.4-0.2,0.7-0.2c0.3,0,0.5,0,0.7,0.1
				c0.2,0.1,0.3,0.2,0.4,0.3c0.1,0.1,0.2,0.3,0.2,0.5c0,0.2,0.1,0.4,0.1,0.7V64h-1.1v-2.2c0-0.3-0.1-0.6-0.2-0.7
				c-0.1-0.2-0.3-0.2-0.5-0.2c-0.3,0-0.5,0.1-0.6,0.3c-0.1,0.2-0.2,0.5-0.2,0.9V64h-1.1v-4H44.2z"/>
		</g>
		<g>
			<path class="st0" d="M25,22.7c0.5,0,1.1,0,1.7,0c0.6,0,1.2,0,1.8,0.1c0.6,0.1,1.2,0.1,1.7,0.3c0.5,0.1,1,0.3,1.3,0.5
				c0.8,0.5,1.5,1.1,2.1,2c0.6,0.8,0.9,1.9,0.9,3.1c0,1.3-0.3,2.4-1,3.3c-0.6,0.9-1.5,1.6-2.7,2.1v0.1c1.5,0.3,2.7,1,3.5,2
				c0.8,1,1.2,2.3,1.2,3.8c0,0.9-0.2,1.7-0.5,2.6c-0.3,0.8-0.8,1.6-1.4,2.2c-0.6,0.6-1.4,1.2-2.4,1.6c-0.9,0.4-2,0.6-3.2,0.6H16
				V22.7H25z M25.9,33.1c1.9,0,3.2-0.3,4-1c0.8-0.6,1.2-1.6,1.2-2.9c0-0.9-0.1-1.5-0.4-2c-0.3-0.5-0.7-0.9-1.1-1.2
				c-0.5-0.3-1-0.4-1.7-0.5c-0.6-0.1-1.3-0.1-2-0.1h-6.6v7.7H25.9z M27.6,44.1c1.5,0,2.6-0.4,3.4-1.2c0.8-0.8,1.2-1.8,1.2-3.2
				c0-0.8-0.2-1.4-0.5-2c-0.3-0.5-0.7-0.9-1.2-1.2c-0.5-0.3-1.1-0.5-1.7-0.6c-0.6-0.1-1.3-0.2-2-0.2h-7.5v8.4H27.6z"/>
		</g>
		<g>
			<path class="st0" d="M46.9,58.4L46.9,58.4l0.7-0.1v0.1h-0.3v0.8h-0.1v-0.8H46.9z"/>
			<path class="st0" d="M47.8,58.3l0.3,0.7l0.3-0.7h0.2v0.9h-0.1v-0.7h0l-0.3,0.7h-0.1l-0.3-0.7h0v0.7h-0.1v-0.9H47.8z"/>
		</g>
		<rect x="3.5" y="67.2" class="st0" width="43.4" height="2.8"/>
		<path class="st0" d="M25.2,56.7c-5.8,0-11.2-2.3-15.3-6.3S3.5,40.8,3.5,35s2.3-11.2,6.3-15.3s9.5-6.3,15.3-6.3s11.2,2.3,15.3,6.3
			c4.1,4.1,6.3,9.5,6.3,15.3s-2.3,11.2-6.3,15.3C36.4,54.4,31,56.7,25.2,56.7z M25.2,16.4c-5,0-9.7,1.9-13.2,5.5
			C8.5,25.4,6.5,30,6.5,35s1.9,9.7,5.5,13.2c3.5,3.5,8.2,5.5,13.2,5.5c5,0,9.7-1.9,13.2-5.5c3.5-3.5,5.5-8.2,5.5-13.2
			s-1.9-9.7-5.5-13.2C34.8,18.3,30.2,16.4,25.2,16.4z"/>
	</g>
</g>
</svg>
