<?xml version="1.0" encoding="utf-8"?>
<!-- Generator: Adobe Illustrator 19.2.1, SVG Export Plug-In . SVG Version: 6.00 Build 0)  -->
<svg version="1.1" id="Layer_1" xmlns="http://www.w3.org/2000/svg" xmlns:xlink="http://www.w3.org/1999/xlink" x="0px" y="0px"
	 viewBox="0 0 43.8 44.1" style="enable-background:new 0 0 43.8 44.1;" xml:space="preserve">
<style type="text/css">
	.st0{fill:#277313;}
</style>
<g id="Layer_1_1_">
</g>
<g id="Navigation">
	<g>
		<g>
			<path class="st0" d="M21.9,42.8C10.4,42.8,1.1,33.5,1.1,22S10.4,1.2,21.9,1.2S42.7,10.5,42.7,22S33.3,42.8,21.9,42.8z M21.9,3.5
				C11.6,3.5,3.3,11.8,3.3,22s8.3,18.5,18.5,18.5S40.4,32.2,40.4,22S32.1,3.5,21.9,3.5z"/>
		</g>
	</g>
</g>
<path class="st0" d="M18.4,30.4L18.4,30.4c-0.3,0-0.6-0.1-0.8-0.3l-7-7.1c-0.4-0.4-0.4-1.2,0-1.7c0.4-0.4,1.2-0.4,1.7,0l6.1,6.2
	l13.8-13.7c0.4-0.4,1.2-0.4,1.7,0c0.4,0.4,0.4,1.2,0,1.7L19.2,30.1C18.9,30.3,18.7,30.4,18.4,30.4z"/>
</svg>
