<?xml version="1.0" encoding="utf-8"?>
<!-- Generator: Adobe Illustrator 19.1.0, SVG Export Plug-In . SVG Version: 6.00 Build 0)  -->
<svg version="1.1" xmlns="http://www.w3.org/2000/svg" xmlns:xlink="http://www.w3.org/1999/xlink" x="0px" y="0px"
	 viewBox="0 0 40 40" style="enable-background:new 0 0 40 40;" xml:space="preserve">
<style type="text/css">
	.st1{fill:#FFFFFF;}
</style>
<g id="Layer_1">
</g>
<g id="Art">
	<g>
		<path class="st1" d="M9.4,28.5c0-5.8,0-11.5,0-17.3c0,0,0-0.1,0-0.1c0.2-1,0.9-1.7,1.9-1.9c0.1,0,0.1,0,0.2-0.1
			c5.8,0,11.5,0,17.3,0c0,0,0.1,0,0.1,0c0.9,0.2,1.6,0.8,1.9,1.7c0,0.1,0.1,0.3,0.1,0.4c0,5.7,0,11.5,0,17.2c0,0.1,0,0.1,0,0.2
			c-0.2,0.9-0.8,1.6-1.7,1.9c-0.1,0-0.3,0.1-0.4,0.1c-5.7,0-11.5,0-17.2,0c0,0-0.1,0-0.1,0c-1-0.2-1.6-0.8-1.9-1.7
			C9.5,28.8,9.4,28.7,9.4,28.5z M11.9,18.3c0,0.1,0,0.1,0,0.2c0,2.9,0,5.9,0,8.8c0,0.6,0.3,0.9,0.9,0.9c4.9,0,9.8,0,14.7,0
			c0.6,0,0.9-0.3,0.9-0.9c0-2.9,0-5.8,0-8.7c0-0.1,0-0.1,0-0.2c-0.6,0-1.2,0-1.9,0c0.5,2,0.1,3.9-1.1,5.6c-1.2,1.7-2.9,2.6-5,2.7
			c-1.7,0.1-3.3-0.4-4.6-1.6c-2-1.8-2.7-4-2.1-6.7C13.1,18.3,12.5,18.3,11.9,18.3z M16,19.9c0,2.3,1.8,4.1,4.1,4.1
			c2.3,0,4.1-1.8,4.1-4.1c0-2.3-1.8-4.1-4.1-4.1C17.9,15.8,16,17.6,16,19.9z M26.4,15.8c0.4,0,0.8,0,1.2,0c0.5,0,0.9-0.3,0.9-0.9
			c0-0.8,0-1.6,0-2.4c0-0.5-0.3-0.9-0.9-0.9c-0.8,0-1.6,0-2.4,0c-0.5,0-0.8,0.3-0.9,0.9c0,0.8,0,1.6,0,2.4c0,0.5,0.3,0.8,0.9,0.9
			C25.6,15.8,26,15.8,26.4,15.8z"/>
	</g>
</g>
</svg>
