<?xml version="1.0" encoding="utf-8"?>
<!-- Generator: Adobe Illustrator 16.0.0, SVG Export Plug-In . SVG Version: 6.00 Build 0)  -->
<!DOCTYPE svg PUBLIC "-//W3C//DTD SVG 1.1//EN" "http://www.w3.org/Graphics/SVG/1.1/DTD/svg11.dtd">
<svg version="1.1" id="Layer_1" xmlns="http://www.w3.org/2000/svg" xmlns:xlink="http://www.w3.org/1999/xlink" x="0px" y="0px"
	 width="88.315px" height="92.077px" viewBox="0 0 88.315 92.077" enable-background="new 0 0 88.315 92.077" xml:space="preserve">
<g>
	<polygon fill="#FFFFFF" points="87.863,43.647 87.8,29.459 35.055,30.224 35.203,44.133 	"/>
	<polygon fill="#FFFFFF" points="69.842,11.375 70.342,0 19.04,0.37 19.088,11.524 	"/>
	<polygon fill="#FFFFFF" points="33.516,60.129 33.134,91.746 61.158,91.649 61.794,59.94 	"/>
	<polygon fill="#FFFFFF" points="87.778,26.919 87.778,0.369 73.703,0.369 71.643,27.104 	"/>
	<polygon fill="#FFFFFF" points="0,92.077 15.365,92.013 15.881,75.513 0.169,75.786 	"/>
	<polygon fill="#FFFFFF" points="64.91,46.533 63.988,91.694 88.315,91.469 87.966,46.215 	"/>
	<polygon fill="#FFFFFF" points="0.136,72.985 16.126,72.759 16.455,0.375 0.707,0.519 	"/>
</g>
</svg>
