<?xml version="1.0" encoding="UTF-8" standalone="no"?>
<!-- Generator: Adobe Illustrator 16.0.0, SVG Export Plug-In . SVG Version: 6.00 Build 0)  -->

<svg
    xmlns:osb="http://www.openswatchbook.org/uri/2009/osb"
    xmlns:dc="http://purl.org/dc/elements/1.1/"
    xmlns:cc="http://creativecommons.org/ns#"
    xmlns:rdf="http://www.w3.org/1999/02/22-rdf-syntax-ns#"
    xmlns:svg="http://www.w3.org/2000/svg"
    xmlns="http://www.w3.org/2000/svg"
    xmlns:sodipodi="http://sodipodi.sourceforge.net/DTD/sodipodi-0.dtd"
    xmlns:inkscape="http://www.inkscape.org/namespaces/inkscape"
    version="1.1"
    id="Layer_1"
    x="0px"
    y="0px"
    width="745.932px"
    height="147.226px"
    viewBox="0 0 745.932 147.226"
    enable-background="new 0 0 745.932 147.226"
    xml:space="preserve"
    sodipodi:docname="logobb3e.svg"
    inkscape:version="0.92.1 r15371"><metadata
    id="metadata47"><rdf:RDF><cc:Work
    rdf:about=""><dc:format>image/svg+xml</dc:format><dc:type
    rdf:resource="http://purl.org/dc/dcmitype/StillImage" /></cc:Work></rdf:RDF></metadata><defs
    id="defs45"><linearGradient
    id="linearGradient4644"
    osb:paint="solid"><stop
    style="stop-color:#75ffff;stop-opacity:1;"
    offset="0"
    id="stop4642" /></linearGradient></defs><sodipodi:namedview
    pagecolor="#ffffff"
    bordercolor="#666666"
    borderopacity="1"
    objecttolerance="10"
    gridtolerance="10"
    guidetolerance="10"
    inkscape:pageopacity="0"
    inkscape:pageshadow="2"
    inkscape:window-width="1366"
    inkscape:window-height="706"
    id="namedview43"
    showgrid="false"
    inkscape:zoom="1.6087257"
    inkscape:cx="189.45785"
    inkscape:cy="73.612999"
    inkscape:window-x="-8"
    inkscape:window-y="-8"
    inkscape:window-maximized="1"
    inkscape:current-layer="Layer_1" />
<g
    id="g40">
	 


	<g
    id="g38">
 
		<path
    d="m 282.311,110.567 c -0.099,0.255 -0.063,0.552 0.096,0.777 0.149,0.23 0.411,0.36 0.688,0.36"
    id="path30"
    inkscape:connector-curvature="0"
    style="fill:#de7509"
    sodipodi:nodetypes="ccc" />
                
	</g>
</g>
<g
    transform="translate(80.266433,-342.95201)"
    id="g29"><path
    id="path11"
    d="m -24.313,395.972 c -11.945,0 -19.965,8.281 -19.965,20.592 0,12.259 8.019,20.49 19.965,20.49 11.939,0 19.96,-8.231 19.96,-20.49 -0.001,-12.311 -8.021,-20.592 -19.96,-20.592 z"
    inkscape:connector-curvature="0" /><path
    id="path13"
    d="m -61.566,429.264 v 18.921 h 13.834 c -6.499,-4.545 -11.331,-11.07 -13.834,-18.921 z"
    inkscape:connector-curvature="0" /><path
    id="path15"
    d="M 7.16,392.689 H 31.138 V 361.111 H 3.913 v 27.857 c 1.167,1.162 2.25,2.407 3.247,3.721 z"
    inkscape:connector-curvature="0" /><path
    id="path17"
    d="m -24.313,455.22 c -6.604,0 -12.676,-1.383 -17.975,-3.884 h -19.277 v 20.683 H 0.76 v -25.065 c -6.654,5.239 -15.282,8.266 -25.073,8.266 z"
    inkscape:connector-curvature="0" /><path
    id="path19"
    d="m 9.306,395.843 c 3.118,5.15 5.029,11.205 5.456,17.867 h 16.375 v -17.867 z"
    inkscape:connector-curvature="0" /><path
    id="path21"
    d="m -24.313,377.91 c 9.792,0 18.42,3.03 25.073,8.268 V 361.11 h -62.326 v 42.759 c 4.971,-15.584 19.122,-25.959 37.253,-25.959 z"
    inkscape:connector-curvature="0" /><path
    id="path23"
    d="m 3.913,444.165 v 27.856 H 31.138 V 416.865 H 14.857 c -0.073,11.004 -4.128,20.506 -10.944,27.3 z"
    inkscape:connector-curvature="0" /><rect
    id="rect25"
    height="20.683001"
    width="15.683"
    y="451.336"
    x="-79.771004" /><rect
    id="rect27"
    height="87.075996"
    width="15.683"
    y="361.10901"
    x="-79.771004" /></g><g
    transform="translate(80.266433,-342.95201)"
    id="g51"><path
    id="path31"
    d="m 100.844,448.706 c -4.258,0 -8.228,-0.763 -11.909,-2.287 -3.682,-1.523 -6.875,-3.624 -9.579,-6.299 -2.705,-2.676 -4.833,-5.825 -6.386,-9.449 -1.553,-3.625 -2.33,-7.536 -2.33,-11.736 0,-4.257 0.777,-8.211 2.33,-11.866 1.553,-3.652 3.681,-6.831 6.386,-9.535 2.704,-2.704 5.896,-4.818 9.579,-6.343 3.681,-1.523 7.65,-2.287 11.909,-2.287 4.314,0 8.327,0.776 12.038,2.33 3.71,1.553 6.932,3.667 9.665,6.343 2.732,2.675 4.889,5.84 6.472,9.492 1.582,3.654 2.373,7.581 2.373,11.779 0,4.201 -0.792,8.112 -2.373,11.736 -1.583,3.625 -3.74,6.774 -6.472,9.449 -2.733,2.676 -5.954,4.79 -9.665,6.343 -3.711,1.553 -7.724,2.33 -12.038,2.33 z m 0.172,-46.858 c -2.244,0 -4.33,0.432 -6.256,1.294 -1.928,0.863 -3.581,2.043 -4.962,3.538 -1.38,1.497 -2.474,3.266 -3.279,5.307 -0.806,2.042 -1.208,4.271 -1.208,6.688 0,2.417 0.402,4.675 1.208,6.775 0.805,2.101 1.912,3.912 3.323,5.437 1.409,1.524 3.091,2.718 5.048,3.581 1.955,0.862 4.056,1.294 6.3,1.294 2.186,0 4.228,-0.432 6.126,-1.294 1.898,-0.863 3.538,-2.042 4.919,-3.538 1.381,-1.495 2.473,-3.279 3.279,-5.351 0.805,-2.071 1.208,-4.285 1.208,-6.645 0,-2.417 -0.403,-4.66 -1.208,-6.731 -0.807,-2.071 -1.914,-3.883 -3.322,-5.437 -1.411,-1.553 -3.063,-2.762 -4.962,-3.625 -1.899,-0.863 -3.97,-1.293 -6.214,-1.293 z"
    inkscape:connector-curvature="0"
    sodipodi:nodetypes="scccscccscccsccssscccscccscccsccss" /><path
    id="path33"
    d="m 406.726,447.583 v -57.558 h 14.67 V 416 l 16.396,-25.975 h 15.447 l -19.157,28.736 20.365,28.822 H 437.188 L 421.396,422.73 v 24.853 z"
    inkscape:connector-curvature="0"
    sodipodi:nodetypes="cccccccccccc" /><path
    id="path35"
    d="m 140.761,447.583 v -57.558 h 18.208 c 2.416,0 4.516,0.073 6.299,0.216 1.783,0.144 3.365,0.375 4.746,0.69 1.381,0.317 2.589,0.733 3.625,1.251 1.035,0.518 2.041,1.18 3.021,1.985 2.186,1.842 3.911,4.142 5.178,6.904 1.265,2.761 1.898,5.725 1.898,8.888 0,4.776 -1.295,8.789 -3.884,12.038 -2.589,3.251 -6.07,5.25 -10.441,5.997 l 13.619,19.589 h -14.827 l -13.375,-18.64 v 18.64 z m 14.066,-28.649 h 5.177 c 3.107,0 5.48,-0.704 7.12,-2.114 1.639,-1.409 2.459,-3.409 2.459,-5.998 0,-2.589 -0.806,-4.544 -2.416,-5.868 -1.611,-1.323 -3.941,-1.984 -6.99,-1.984 h -5.35 z"
    inkscape:connector-curvature="0"
    sodipodi:nodetypes="ccscccccsccccccccscscscc" /><path
    id="path37"
    d="m 489.02899,435.761 c 6.155,0 10.787,-3.221 13.894,-9.665 h 15.36 c -0.807,3.396 -2.114,6.473 -3.927,9.233 -1.813,2.762 -3.999,5.135 -6.559,7.12 -2.561,1.984 -5.423,3.524 -8.586,4.616 -3.164,1.092 -6.502,1.64 -10.01,1.64 -4.259,0 -8.228,-0.776 -11.909,-2.33 -3.682,-1.553 -6.875,-3.681 -9.578,-6.386 -2.705,-2.703 -4.848,-5.881 -6.429,-9.535 -1.583,-3.653 -2.373,-7.579 -2.373,-11.78 0,-4.142 0.776,-8.025 2.329,-11.649 1.554,-3.625 3.682,-6.774 6.386,-9.449 2.704,-2.675 5.882,-4.79 9.536,-6.343 3.652,-1.553 7.607,-2.33 11.865,-2.33 5.407,0 10.313,1.194 14.713,3.581 4.401,2.388 8.011,5.825 10.83,10.312 0.633,0.979 1.15,1.827 1.554,2.546 0.401,0.72 0.733,1.41 0.992,2.071 0.259,0.662 0.475,1.353 0.647,2.071 0.172,0.72 0.345,1.54 0.518,2.459 h -15.36 c -1.151,-3.107 -2.978,-5.566 -5.479,-7.378 -2.503,-1.812 -5.337,-2.718 -8.5,-2.718 -2.188,0 -4.215,0.432 -6.084,1.294 -1.87,0.863 -3.495,2.043 -4.876,3.538 -1.381,1.497 -2.459,3.266 -3.235,5.307 -0.777,2.042 -1.165,4.271 -1.165,6.688 0,2.417 0.401,4.661 1.208,6.731 0.805,2.071 1.898,3.884 3.279,5.437 1.38,1.554 3.005,2.762 4.875,3.625 1.869,0.863 3.897,1.294 6.084,1.294 z"
    inkscape:connector-curvature="0"
    sodipodi:nodetypes="scccccscccscscsccccccccscccscccs" /><path
    id="path39"
    d="m 294.425,439.213 h -20.021 l -3.02,8.37 h -15.792 l 23.04,-57.558 h 11.65 l 22.867,57.558 h -15.964 z m -15.964,-11.649 h 11.994 l -5.954,-19.676 z"
    inkscape:connector-curvature="0"
    sodipodi:nodetypes="ccccccccccccc" /><path
    id="path41"
    d="m 321.724,447.583 v -57.558 h 12.599 l 22.437,36.244 -0.604,-36.244 h 14.066 v 57.558 h -12.771 l -22.264,-34.949 0.604,34.949 z"
    inkscape:connector-curvature="0"
    sodipodi:nodetypes="ccccccccccc" /><path
    id="path43"
    d="m 382.058,447.583 v -57.558 h 14.67 v 57.558 z"
    inkscape:connector-curvature="0"
    sodipodi:nodetypes="ccccc" /><path
    id="path47"
    d="m 528.813,447.583 v -57.558 h 14.67 v 21.574 h 18.812 v -21.574 h 14.67 v 57.558 h -14.67 v -23.04 h -18.812 v 23.04 z"
    inkscape:connector-curvature="0"
    sodipodi:nodetypes="ccccccccccccc" /><path
    sodipodi:nodetypes="ccccc"
    inkscape:connector-curvature="0"
    d="m 586.05799,447.583 v -57.558 h 14.67 v 57.558 z"
    id="path93" /><path
    sodipodi:nodetypes="scccccscccscscsccccccccscccscccs"
    inkscape:connector-curvature="0"
    d="m 641.02899,435.761 c 6.155,0 10.787,-3.221 13.894,-9.665 h 15.36 c -0.807,3.396 -2.114,6.473 -3.927,9.233 -1.813,2.762 -3.999,5.135 -6.559,7.12 -2.561,1.984 -5.423,3.524 -8.586,4.616 -3.164,1.092 -6.502,1.64 -10.01,1.64 -4.259,0 -8.228,-0.776 -11.909,-2.33 -3.682,-1.553 -6.875,-3.681 -9.578,-6.386 -2.705,-2.703 -4.848,-5.881 -6.429,-9.535 -1.583,-3.653 -2.373,-7.579 -2.373,-11.78 0,-4.142 0.776,-8.025 2.329,-11.649 1.554,-3.625 3.682,-6.774 6.386,-9.449 2.704,-2.675 5.882,-4.79 9.536,-6.343 3.652,-1.553 7.607,-2.33 11.865,-2.33 5.407,0 10.313,1.194 14.713,3.581 4.401,2.388 8.011,5.825 10.83,10.312 0.633,0.979 1.15,1.827 1.554,2.546 0.401,0.72 0.733,1.41 0.992,2.071 0.259,0.662 0.475,1.353 0.647,2.071 0.172,0.72 0.345,1.54 0.518,2.459 h -15.36 c -1.151,-3.107 -2.978,-5.566 -5.479,-7.378 -2.503,-1.812 -5.337,-2.718 -8.5,-2.718 -2.188,0 -4.215,0.432 -6.084,1.294 -1.87,0.863 -3.495,2.043 -4.876,3.538 -1.381,1.497 -2.459,3.266 -3.235,5.307 -0.777,2.042 -1.165,4.271 -1.165,6.688 0,2.417 0.401,4.661 1.208,6.731 0.805,2.071 1.898,3.884 3.279,5.437 1.38,1.554 3.005,2.762 4.875,3.625 1.869,0.863 3.897,1.294 6.084,1.294 z"
    id="path104" /></g><path
    d="m 325.87186,71.73485 h -25.38 c -0.337,0 -0.607,0.279 -0.607,0.626 v 12.433 c 0,0.348 0.271,0.631 0.607,0.631 h 12.845 v 1.782 c -1.545,2.052 -5.877,5.319 -13.001,5.319 -9.153,0 -15.063,-6.162 -15.063,-15.698 0,-9.445002 5.467,-15.783002 13.611,-15.783002 7.327,0 10.866,4.252 12.323,6.785 0.143,0.241 0.414,0.366 0.681,0.285 l 12.69,-3.586 c 0.165,-0.047 0.304,-0.164 0.384,-0.327 0.076,-0.159 0.085,-0.348 0.021,-0.516 -3.792,-10.023 -13.798,-16.495 -25.487,-16.495 -16.432,0 -28.363,12.433 -28.363,29.554002 0,16.941 12.097,29.707 28.131,29.707 6.021,0 11.441,-2.127 14.564,-4.443 -0.02,0.55 -0.033,1.383 -0.033,2.698 0,0.351 0.27,0.633 0.61,0.633 h 11.466 c 0.332,0 0.608,-0.282 0.608,-0.633 v -32.347 c 0,-0.345 -0.275,-0.625 -0.607,-0.625"
    inkscape:connector-curvature="0"
    id="path34_1_"
    sodipodi:nodetypes="cssssccssscccccssscsssssc" /></svg>