<?xml version="1.0" encoding="utf-8"?>
<!-- Generator: Adobe Illustrator 16.0.0, SVG Export Plug-In . SVG Version: 6.00 Build 0)  -->
<!DOCTYPE svg PUBLIC "-//W3C//DTD SVG 1.1//EN" "http://www.w3.org/Graphics/SVG/1.1/DTD/svg11.dtd">
<svg version="1.1" id="Layer_1" xmlns="http://www.w3.org/2000/svg" xmlns:xlink="http://www.w3.org/1999/xlink" x="0px" y="0px"
	 width="745.932px" height="147.226px" viewBox="0 0 745.932 147.226" enable-background="new 0 0 745.932 147.226"
	 xml:space="preserve">
<g>
	<polygon fill="#DE7509" points="140.489,69.79 140.387,47.103 56.05,48.326 56.287,70.565 	"/>
	<polygon fill="#DE7509" points="111.672,18.188 112.473,0 30.443,0.592 30.521,18.426 	"/>
	<polygon fill="#DE7509" points="53.59,96.143 52.98,146.696 97.789,146.542 98.805,95.841 	"/>
	<polygon fill="#DE7509" points="140.353,43.042 140.353,0.59 117.847,0.59 114.552,43.337 	"/>
	<polygon fill="#DE7509" points="0,147.226 24.568,147.123 25.393,120.74 0.27,121.178 	"/>
	<polygon fill="#DE7509" points="103.787,74.402 102.314,146.614 141.211,146.253 140.652,73.895 	"/>
	<polygon fill="#DE7509" points="0.217,116.699 25.785,116.337 26.31,0.6 1.13,0.83 	"/>
	<g>
		<path fill="#DE7509" d="M282.552,36.928c0-0.461-0.381-0.831-0.841-0.831h-52.919c-0.458,0-0.84,0.369-0.84,0.831v73.938
			c0,0.468,0.381,0.838,0.84,0.838h17.752c0.461,0,0.834-0.37,0.834-0.838V84.877h26.521c0.46,0,0.834-0.376,0.834-0.843V67.559
			c0-0.456-0.374-0.832-0.834-0.832h-26.521V54.247h34.333c0.46,0,0.841-0.375,0.841-0.841V36.928z"/>
		<path fill="#DE7509" d="M331.79,36.098h-20.179c-0.348,0-0.657,0.211-0.778,0.535l-28.522,73.934
			c-0.099,0.255-0.063,0.552,0.096,0.777c0.149,0.23,0.411,0.36,0.688,0.36h18.696c0.348,0,0.664-0.223,0.78-0.553l4.243-11.699
			h29.556l4.238,11.699c0.122,0.33,0.438,0.553,0.79,0.553h19.011c0.277,0,0.535-0.13,0.694-0.365
			c0.15-0.221,0.185-0.518,0.087-0.772l-28.62-73.94C332.444,36.309,332.132,36.098,331.79,36.098 M322.592,61.426
			c0.674,1.817,1.53,4.099,2.487,6.629l4.887,13.561h-16.743l4.875-13.654l1.729-4.564c0.688-1.827,1.323-3.505,1.761-4.646
			C321.861,59.48,322.213,60.42,322.592,61.426"/>
		<path fill="#DE7509" d="M416.253,83.39c8.751-3.664,13.557-11.236,13.557-21.428c0-15.958-11.615-25.864-30.305-25.864h-28.102
			c-0.46,0-0.838,0.369-0.838,0.831v73.938c0,0.462,0.378,0.838,0.838,0.838h17.747c0.462,0,0.841-0.376,0.841-0.838V87.302h6.591
			l13.597,23.981c0.145,0.255,0.424,0.421,0.729,0.421h21.021c0.305,0,0.577-0.166,0.724-0.429c0.15-0.261,0.144-0.58-0.013-0.841
			L416.253,83.39z M409.963,62.806c0,5.754-3.131,8.67-9.297,8.67h-10.675V53.826h10.569
			C406.709,53.826,409.963,56.929,409.963,62.806"/>
		<path fill="#DE7509" d="M521.292,36.098h-18.062c-0.302,0-0.575,0.16-0.728,0.421l-18.12,32.047l-18.023-32.047
			c-0.147-0.261-0.43-0.421-0.729-0.421h-18.803c-0.462,0-0.84,0.369-0.84,0.831v73.938c0,0.462,0.378,0.838,0.84,0.838h17.746
			c0.462,0,0.832-0.376,0.832-0.838V92.81c0-11.49-0.086-19.199-0.154-23.504c1.368,2.545,3.637,6.752,5.985,10.921l7.184,12.78
			c0.149,0.262,0.427,0.428,0.729,0.428h9.929c0.3,0,0.588-0.172,0.734-0.436l7.175-12.983c2.143-3.775,4.274-7.658,5.68-10.208
			c0.068-0.126,0.141-0.25,0.205-0.37c-0.07,4.247-0.164,11.933-0.164,23.372v18.057c0,0.462,0.378,0.838,0.84,0.838h17.746
			c0.461,0,0.84-0.376,0.84-0.838V36.928C522.132,36.467,521.753,36.098,521.292,36.098"/>
		<path fill="#DE7509" d="M562.243,36.098h-17.746c-0.461,0-0.84,0.369-0.84,0.831v73.938c0,0.462,0.379,0.838,0.84,0.838h17.746
			c0.46,0,0.84-0.376,0.84-0.838V36.928C563.083,36.467,562.703,36.098,562.243,36.098"/>
		<path fill="#DE7509" d="M654.881,67.148h-35.062c-0.466,0-0.839,0.371-0.839,0.831v16.482c0,0.46,0.373,0.837,0.839,0.837h17.746
			v2.362c-2.134,2.721-8.12,7.054-17.962,7.054c-12.645,0-20.811-8.171-20.811-20.814c0-12.52,7.553-20.923,18.805-20.923
			c10.122,0,15.012,5.637,17.025,8.994c0.196,0.32,0.572,0.486,0.94,0.378l17.533-4.754c0.228-0.063,0.419-0.218,0.53-0.433
			c0.105-0.211,0.117-0.462,0.028-0.684c-5.24-13.289-19.062-21.868-35.211-21.868c-22.702,0-39.185,16.483-39.185,39.181
			c0,22.461,16.712,39.386,38.863,39.386c8.319,0,15.806-2.821,20.122-5.892c-0.028,0.729-0.046,1.833-0.046,3.58
			c0,0.462,0.373,0.838,0.843,0.838h15.84c0.459,0,0.84-0.376,0.84-0.838V67.979C655.721,67.52,655.34,67.148,654.881,67.148"/>
		<path fill="#DE7509" d="M706.122,34.617c-23.07,0-39.816,16.522-39.816,39.277c0,22.769,16.746,39.283,39.816,39.283
			c23.066,0,39.81-16.515,39.81-39.283C745.932,51.139,729.188,34.617,706.122,34.617 M706.122,94.715
			c-12.138,0-20.288-8.362-20.288-20.82c0-12.509,8.15-20.924,20.288-20.924c12.131,0,20.282,8.415,20.282,20.924
			C726.404,86.353,718.253,94.715,706.122,94.715"/>
	</g>
</g>
</svg>
