<?xml version="1.0" encoding="utf-8"?>
<!-- Generator: Adobe Illustrator 19.1.0, SVG Export Plug-In . SVG Version: 6.00 Build 0)  -->
<svg version="1.1" xmlns="http://www.w3.org/2000/svg" xmlns:xlink="http://www.w3.org/1999/xlink" x="0px" y="0px"
	 viewBox="0 0 40 40" style="enable-background:new 0 0 40 40;" xml:space="preserve">
<style type="text/css">
	.st1{fill:#FFFFFF;}
</style>
<g id="Layer_1">
</g>
<g id="Art">
	<g>
		<g>
			<path class="st1" d="M20,9.2C14,9.2,9.2,14,9.2,19.9c0,4.6,2.8,8.5,6.8,10c-0.1-0.9-0.2-2.2,0-3.1c0.2-0.8,1.3-5.4,1.3-5.4
				S17,20.9,17,19.9c0-1.5,0.9-2.6,2-2.6c0.9,0,1.4,0.7,1.4,1.5c0,0.9-0.6,2.3-0.9,3.6c-0.3,1.1,0.5,1.9,1.6,1.9
				c1.9,0,3.4-2,3.4-4.9c0-2.6-1.9-4.4-4.5-4.4c-3.1,0-4.9,2.3-4.9,4.7c0,0.9,0.4,1.9,0.8,2.5c0.1,0.1,0.1,0.2,0.1,0.3
				c-0.1,0.3-0.3,1.1-0.3,1.2c0,0.2-0.2,0.2-0.4,0.1c-1.3-0.6-2.2-2.6-2.2-4.2c0-3.4,2.5-6.5,7.1-6.5c3.7,0,6.6,2.7,6.6,6.2
				c0,3.7-2.3,6.7-5.6,6.7c-1.1,0-2.1-0.6-2.5-1.2c0,0-0.5,2.1-0.7,2.6c-0.2,0.9-0.9,2.1-1.3,2.8c1,0.3,2.1,0.5,3.2,0.5
				c6,0,10.8-4.8,10.8-10.8C30.8,14,25.9,9.2,20,9.2z"/>
		</g>
	</g>
</g>
</svg>
