<?xml version="1.0" encoding="utf-8"?>
<!-- Generator: Adobe Illustrator 18.1.1, SVG Export Plug-In . SVG Version: 6.00 Build 0)  -->
<svg version="1.1" id="Layer_1" xmlns="http://www.w3.org/2000/svg" xmlns:xlink="http://www.w3.org/1999/xlink" x="0px" y="0px"
	 viewBox="369.6 0 788.5 792" enable-background="new 369.6 0 788.5 792" xml:space="preserve">
<g>
	<path fill="#de750a" d="M484.9,117.4c-153.6,153.6-153.6,402.8,0,556.4s402.8,153.6,556.4,0c153.6-153.6,153.6-402.8,0-556.4
		C887.6-36.3,638.5-36.3,484.9,117.4z M1010.6,643.2c-136.7,136.7-358.4,136.7-495.1,0c-136.7-136.7-136.7-358.4,0-495.1
		c136.7-136.7,358.4-136.7,495.1,0C1147.3,284.8,1147.3,506.4,1010.6,643.2z"/>
	<g>
		<path fill="#de750a" d="M625.4,238.2c0-21.6,15.7-31.1,34.8-21l304.1,160.1c19.1,10.1,19.1,26.6,0,36.6L660.2,574
			c-19.1,10.1-34.8,0.6-34.8-21L625.4,238.2z"/>
	</g>
</g>
</svg>
