<?xml version="1.0" encoding="utf-8"?>
<!-- Generator: Adobe Illustrator 18.1.1, SVG Export Plug-In . SVG Version: 6.00 Build 0)  -->
<svg version="1.1" id="Layer_1" xmlns="http://www.w3.org/2000/svg" xmlns:xlink="http://www.w3.org/1999/xlink" x="0px" y="0px"
	 viewBox="0 0 1013 474.6" enable-background="new 0 0 1013 474.6" xml:space="preserve">
<polygon fill="#FFFFFF" points="229.4,315.9 243.7,293.2 278.2,272.6 302.8,262.5 326.7,254.8 335.6,257.3 341.1,254.8 354.1,260.7 
	369.6,259.5 378.2,264.3 416.2,290.1 447.2,302.2 504.7,331.5 206.8,331.5 "/>
<polygon fill="none" stroke="#9ABAC7" stroke-width="3" stroke-linecap="round" stroke-miterlimit="10" points="229.4,315.9 
	243.7,293.2 278.2,272.6 302.8,262.5 326.7,254.8 335.6,255.3 343.1,253.8 354.1,255.7 369.6,259.5 378.2,264.3 416.2,290.1 
	447.2,302.2 504.7,331.5 206.8,331.5 "/>
<polyline fill="none" stroke="#9ABAC7" stroke-width="2" stroke-linecap="round" stroke-linejoin="round" stroke-miterlimit="10" points="
	306.8,308 306.8,305 319.8,289.7 "/>
<polyline fill="none" stroke="#9ABAC7" stroke-width="2" stroke-linecap="round" stroke-linejoin="round" stroke-miterlimit="10" points="
	371.6,309.5 378.6,311 377.8,319.4 381.3,321.4 "/>
<polyline fill="none" stroke="#9ABAC7" stroke-width="2" stroke-linecap="round" stroke-linejoin="round" stroke-miterlimit="10" points="
	397.8,305 407.8,305 410.2,310.9 "/>
<polyline fill="none" stroke="#9ABAC7" stroke-width="2" stroke-linecap="round" stroke-linejoin="round" stroke-miterlimit="10" points="
	279.9,312 270.1,313 263.7,324.1 255.6,323.6 "/>
<polyline fill="none" stroke="#9ABAC7" stroke-width="2" stroke-linecap="round" stroke-linejoin="round" stroke-miterlimit="10" points="
	250.7,305.2 258.9,297.1 268.4,296.1 274.6,289.2 "/>
<polyline fill="none" stroke="#9ABAC7" stroke-width="2" stroke-linecap="round" stroke-linejoin="round" stroke-miterlimit="10" points="
	391.3,273.2 383.6,277.5 383.9,284 381.4,284 370.7,284 363.2,275.5 361.4,290.5 355.8,281.5 344.7,274.5 342,292.6 330.7,285.5 
	329.5,279.6 325.1,279.5 321.1,278.6 311.3,285.5 312.9,274.7 298.6,273.4 300.3,265.5 300.6,263.4 "/>
<polyline fill="none" stroke="#B3CFDD" stroke-width="2" stroke-linecap="round" stroke-linejoin="round" stroke-miterlimit="10" points="
	713.8,332 728.7,322.2 737.7,306.8 763.6,295.7 780.1,283.2 791.4,281.9 797.2,283.5 800.7,281.9 809.2,285.7 "/>
<path fill="none" stroke="#B3CFDD" stroke-width="2" stroke-linecap="round" stroke-linejoin="round" stroke-miterlimit="10" d="
	M713.8,332"/>
<g>
	<path fill="none" stroke="#9ABAC7" stroke-width="3" stroke-miterlimit="10" d="M646.9,323c2.7-15.8,19.1-27.9,38.9-27.9
		c18.3,0,33.7,10.4,38,24.4"/>
	<polygon fill="#9ABAC7" points="690.3,296 691.9,321.9 693.8,321.9 692.1,295.5 	"/>
	<polygon fill="#9ABAC7" points="713.9,305.4 715.3,320.8 717.1,320.8 715.7,305.1 	"/>
	<polygon fill="#9ABAC7" points="655,306.1 656.6,322.8 658.3,322.8 656.7,305.7 	"/>
	<polygon fill="#9ABAC7" points="666.7,299.8 668.4,323.1 670.3,323.1 668.6,299.3 	"/>
	<polygon fill="#9ABAC7" points="678.5,296 680.2,322.1 682,322.1 680.3,295.5 	"/>
	<polygon fill="#9ABAC7" points="702.1,298.6 703.7,321 705.5,321 703.9,298.1 	"/>
	<rect x="4.1" y="267.4" fill="#FFFFFF" width="43.2" height="91.7"/>
	
		<rect x="4.1" y="267.4" fill="none" stroke="#9ABAC7" stroke-width="3" stroke-linecap="round" stroke-linejoin="round" stroke-miterlimit="10" width="43.2" height="91.7"/>
	<polygon fill="#FFFFFF" points="70.3,333 28.3,333 28.3,234 70.3,265 	"/>
	
		<polygon fill="none" stroke="#A9C4D2" stroke-width="3" stroke-linecap="round" stroke-linejoin="bevel" stroke-miterlimit="10" points="
		70.3,333 28.3,333 28.3,234 70.3,265 	"/>
	
		<polyline fill="none" stroke="#B3CFDD" stroke-width="2" stroke-linecap="round" stroke-linejoin="round" stroke-miterlimit="10" points="
		825.8,294 817.8,274.5 862.6,263.4 896.7,241.2 918.6,223.3 939.3,220.9 947.7,223.3 952.9,220.9 965.2,226.5 984,234.7 
		992.3,241.3 	"/>
	<path fill="#F3F3F3" d="M335.5,24.3c-1.2,0-2.3,0.2-3.2,0.9c-1.6-3.6-5.2-6.2-9.4-6.2c-3.9,0-7.2,2.1-9,5.2c-1.4-1.5-3.3-2-5.5-2
		c-4.1,0-7.5,3.8-7.5,7.8h11.6h3.4h14.3h3h7.6C340.8,28,338.4,24.3,335.5,24.3"/>
	<polygon fill="#B3CFDD" points="427.1,404.2 423.8,415 408.1,426.6 343.4,426.6 335.7,404.8 	"/>
	<polygon fill="none" stroke="#B3CFDD" stroke-width="3" stroke-linejoin="round" stroke-miterlimit="10" points="427.1,404.2 
		423.8,415 408.1,426.6 343.4,426.6 335.7,404.8 	"/>
	<line fill="none" stroke="#9ABAC7" stroke-width="3" stroke-miterlimit="10" x1="559.8" y1="395.5" x2="572.8" y2="395.5"/>
	<polygon fill="#FFFFFF" points="415.6,438.2 325.7,438.2 335.7,424.1 425.6,424.1 	"/>
	<line fill="none" stroke="#9ABAC7" stroke-width="3" stroke-miterlimit="10" x1="550.8" y1="422.5" x2="524.8" y2="422.5"/>
	<line fill="none" stroke="#9ABAC7" stroke-width="3" stroke-miterlimit="10" x1="334.7" y1="422.5" x2="318.7" y2="422.5"/>
	<line fill="none" stroke="#9ABAC7" stroke-width="3" stroke-miterlimit="10" x1="250.8" y1="387.5" x2="265.8" y2="387.5"/>
	<line fill="none" stroke="#9ABAC7" stroke-width="3" stroke-miterlimit="10" x1="381.8" y1="447.5" x2="407.8" y2="447.5"/>
	<line fill="none" stroke="#9ABAC7" stroke-width="3" stroke-miterlimit="10" x1="577.8" y1="457.5" x2="592.8" y2="457.5"/>
	<line fill="none" stroke="#9ABAC7" stroke-width="3" stroke-miterlimit="10" x1="627.8" y1="361.5" x2="653.8" y2="361.5"/>
	<line fill="none" stroke="#9ABAC7" stroke-width="3" stroke-miterlimit="10" x1="355.8" y1="357.5" x2="405.8" y2="357.5"/>
	<line fill="none" stroke="#9ABAC7" stroke-width="3" stroke-miterlimit="10" x1="519.8" y1="353.5" x2="540.8" y2="353.5"/>
	<line fill="none" stroke="#9ABAC7" stroke-width="3" stroke-miterlimit="10" x1="660.8" y1="428.5" x2="710.8" y2="428.5"/>
	<line fill="none" stroke="#9ABAC7" stroke-width="3" stroke-miterlimit="10" x1="194.8" y1="448.5" x2="244.8" y2="448.5"/>
	<path fill="#F3F3F3" d="M660.1,53.1c-3.7,0-7,2-9.1,4.8c-0.9-0.4-2-1-3.1-1c-4.1,0-7.4,4.1-7.4,7.1h8.3h6.5h16
		C671.4,59,666.3,53.1,660.1,53.1"/>
	<path fill="#F3F3F3" d="M931.9,68.1c3.7,0,7,2,9.1,4.8c0.9-0.4,2-1,3.1-1c4.1,0,7.4,4.1,7.4,7.1h-8.3h-6.5h-16
		C920.6,74,925.6,68.1,931.9,68.1"/>
	<path fill="#F3F3F3" d="M57.9,118.1c3.7,0,7,2,9.1,4.8c0.9-0.4,2-1,3.1-1c4.1,0,7.4,4.1,7.4,7.1h-8.3h-6.5h-16
		C46.6,124,51.6,118.1,57.9,118.1"/>
	
		<line fill="none" stroke="#9ABAC7" stroke-linecap="round" stroke-linejoin="round" stroke-miterlimit="10" x1="195.8" y1="273.5" x2="203.8" y2="273.5"/>
	<line fill="none" stroke="#9ABAC7" stroke-width="3" stroke-miterlimit="10" x1="165.8" y1="273.5" x2="195.8" y2="273.5"/>
	<g>
		<path fill="#9ABAC7" d="M190.8,130h-12c-0.8,0-1.5-0.7-1.5-1.5s0.7-1.5,1.5-1.5h12c0.8,0,1.5,0.7,1.5,1.5S191.6,130,190.8,130z"/>
	</g>
	<g>
		<rect x="176.3" y="126.3" fill="#9ABAC7" width="16.4" height="5.6"/>
	</g>
	<g>
		<rect x="152.9" y="144.5" fill="#FFFFFF" width="62.6" height="5.3"/>
	</g>
	
		<polyline fill="none" stroke="#9ABAC7" stroke-width="3" stroke-linecap="round" stroke-linejoin="round" stroke-miterlimit="10" points="
		164.4,158.3 159,148.5 210.6,148.5 205.7,158.2 	"/>
	<rect x="158" y="157.1" fill="#FFFFFF" width="54.2" height="4.6"/>
	<path fill="none" stroke="#9ABAC7" stroke-width="3" stroke-miterlimit="10" d="M171.1,160.8c0,0,7.6,25.7,7.6,44.2
		c0,26.5-18.6,93.1-18.6,93.1"/>
	<path fill="none" stroke="#9ABAC7" stroke-width="3" stroke-miterlimit="10" d="M201.7,160.8c0,0-7.6,25.7-7.6,44.2
		c0,26.5,18.6,93.1,18.6,93.1"/>
	<line fill="none" stroke="#9ABAC7" stroke-width="3" stroke-miterlimit="10" x1="178.8" y1="205.5" x2="186.8" y2="205.5"/>
	<polyline fill="none" stroke="#9ABAC7" stroke-width="3" stroke-miterlimit="10" points="184.5,160.8 187.1,205.2 194.4,260.3 
		200,300.5 	"/>
	
		<line fill="none" stroke="#9ABAC7" stroke-linecap="round" stroke-linejoin="round" stroke-miterlimit="10" x1="191.8" y1="240.5" x2="197.8" y2="240.5"/>
	<line fill="none" stroke="#9ABAC7" stroke-width="3" stroke-miterlimit="10" x1="173.8" y1="240.5" x2="191.8" y2="240.5"/>
	
		<line fill="none" stroke="#9ABAC7" stroke-linecap="round" stroke-linejoin="round" stroke-miterlimit="10" x1="201.8" y1="259.5" x2="194.8" y2="259.5"/>
	
		<line fill="none" stroke="#9ABAC7" stroke-linecap="round" stroke-linejoin="round" stroke-miterlimit="10" x1="194.8" y1="226.5" x2="189.8" y2="226.5"/>
	<g>
		<path fill="#9ABAC7" d="M158.2,145.1c-0.2,0-0.5-0.1-0.7-0.2c-0.7-0.4-1-1.3-0.7-2l4-8.1l11.9-0.1V129h23v6h11.4l4.7,7.8
			c0.4,0.7,0.2,1.6-0.5,2.1c-0.7,0.4-1.6,0.2-2.1-0.5l-3.8-6.3h-12.7v-6h-17v5.7l-13.1,0.1l-3.2,6.4
			C159.3,144.8,158.7,145.1,158.2,145.1z"/>
	</g>
	<rect x="151.5" y="304.3" fill="#FFFFFF" width="70.9" height="27.9"/>
	<polyline fill="none" stroke="#9ABAC7" stroke-width="3" stroke-miterlimit="10" points="723.9,319.5 606.8,325.5 503.3,331.3 
		208.8,331.5 	"/>
	<line fill="none" stroke="#9ABAC7" stroke-width="3" stroke-miterlimit="10" x1="606.8" y1="331.5" x2="208.8" y2="331.5"/>
	<polygon fill="#FFFFFF" points="103.3,242.5 103.3,219.5 92.3,219.5 92.3,191.1 69.3,188.2 69.3,329.5 92.3,329.5 103,329.5 
		117.3,329.5 117.3,242.5 	"/>
	<polygon fill="none" stroke="#B3CFDD" stroke-width="3" stroke-linecap="round" stroke-miterlimit="10" points="103.3,242.5 
		103.3,219.5 92.3,219.5 92.3,191.1 69.3,188.2 69.3,329.5 92.3,329.5 103,329.5 117.3,329.5 117.3,242.5 	"/>
	<line fill="none" stroke="#B3CFDD" stroke-linecap="square" stroke-miterlimit="10" x1="68.8" y1="199.5" x2="85.8" y2="199.5"/>
	<line fill="none" stroke="#B3CFDD" stroke-linecap="square" stroke-miterlimit="10" x1="68.8" y1="208.5" x2="85.8" y2="208.5"/>
	<line fill="none" stroke="#B3CFDD" stroke-linecap="square" stroke-miterlimit="10" x1="68.8" y1="216.5" x2="85.8" y2="216.5"/>
	<line fill="none" stroke="#B3CFDD" stroke-linecap="square" stroke-miterlimit="10" x1="68.8" y1="233.5" x2="96.8" y2="233.5"/>
	<line fill="none" stroke="#B3CFDD" stroke-linecap="square" stroke-miterlimit="10" x1="68.8" y1="251.5" x2="108.8" y2="251.5"/>
	<line fill="none" stroke="#B3CFDD" stroke-linecap="square" stroke-miterlimit="10" x1="68.8" y1="225.5" x2="96.8" y2="225.5"/>
	<line fill="none" stroke="#B3CFDD" stroke-linecap="square" stroke-miterlimit="10" x1="68.8" y1="242.5" x2="96.8" y2="242.5"/>
	<line fill="none" stroke="#B3CFDD" stroke-linecap="square" stroke-miterlimit="10" x1="68.8" y1="259.5" x2="108.8" y2="259.5"/>
	<line fill="none" stroke="#B3CFDD" stroke-linecap="square" stroke-miterlimit="10" x1="68.8" y1="268.5" x2="108.8" y2="268.5"/>
	<line fill="none" stroke="#B3CFDD" stroke-linecap="square" stroke-miterlimit="10" x1="68.8" y1="277.5" x2="108.8" y2="277.5"/>
	<line fill="none" stroke="#B3CFDD" stroke-linecap="square" stroke-miterlimit="10" x1="68.8" y1="285.5" x2="108.8" y2="285.5"/>
	<line fill="none" stroke="#B3CFDD" stroke-linecap="square" stroke-miterlimit="10" x1="68.8" y1="311.5" x2="108.8" y2="311.5"/>
	<line fill="none" stroke="#B3CFDD" stroke-linecap="square" stroke-miterlimit="10" x1="68.8" y1="294.5" x2="108.8" y2="294.5"/>
	<line fill="none" stroke="#B3CFDD" stroke-linecap="square" stroke-miterlimit="10" x1="68.8" y1="302.5" x2="108.8" y2="302.5"/>
	<polygon fill="#9ABAC7" points="273,248.5 205.2,248.6 205.1,246.5 272.8,246.5 	"/>
	<polygon fill="none" stroke="#9ABAC7" stroke-linecap="round" stroke-miterlimit="10" points="273,248.5 205.2,248.6 205.1,246.5 
		272.8,246.5 	"/>
	<polygon fill="#9ABAC7" points="272.9,275.6 205.3,275.6 205.1,273.5 273,273.5 	"/>
	<polygon fill="none" stroke="#9ABAC7" stroke-linecap="round" stroke-miterlimit="10" points="272.9,275.6 205.3,275.6 
		205.1,273.5 273,273.5 	"/>
	<polygon fill="#9ABAC7" points="273,279 205.1,279 205.2,278 272.9,278 	"/>
	<polygon fill="none" stroke="#9ABAC7" stroke-linecap="round" stroke-miterlimit="10" points="273,279 205.1,279 205.2,278 
		272.9,278 	"/>
	<polygon fill="#9ABAC7" points="272.8,265.4 205.1,265.4 205.2,264.3 273,264.3 	"/>
	<polygon fill="none" stroke="#9ABAC7" stroke-linecap="round" stroke-miterlimit="10" points="272.8,265.4 205.1,265.4 
		205.2,264.3 273,264.3 	"/>
	<polygon fill="#9ABAC7" points="273,257.7 205.1,257.7 205.2,256.6 272.9,256.6 	"/>
	<polygon fill="none" stroke="#9ABAC7" stroke-linecap="round" stroke-miterlimit="10" points="273,257.7 205.1,257.7 205.2,256.6 
		272.9,256.6 	"/>
	<polygon fill="#9ABAC7" points="210.9,291.2 210,291.2 210,247.3 210.9,247.3 	"/>
	<polygon fill="none" stroke="#9ABAC7" stroke-linecap="round" stroke-linejoin="round" stroke-miterlimit="10" points="
		210.9,291.2 210,291.2 210,247.3 210.9,247.3 	"/>
	<polygon fill="#9ABAC7" points="228.3,274.4 228.1,247.3 229,247.3 229,291.3 228,291.3 	"/>
	<polyline fill="none" stroke="#9ABAC7" stroke-linecap="round" stroke-linejoin="round" stroke-miterlimit="10" points="
		228.3,274.4 228.1,247.3 229,247.3 229,291.3 228,291.3 228.3,274.4 	"/>
	<polygon fill="#9ABAC7" points="250.2,291.3 249.2,291.3 249.2,247.3 250.1,247.3 	"/>
	<polygon fill="none" stroke="#9ABAC7" stroke-linecap="round" stroke-linejoin="round" stroke-miterlimit="10" points="
		250.2,291.3 249.2,291.3 249.2,247.3 250.1,247.3 	"/>
	<polygon fill="#9ABAC7" points="269.5,291.3 268.5,291.3 268.6,247.3 269.5,247.3 	"/>
	<polygon fill="none" stroke="#9ABAC7" stroke-linecap="round" stroke-linejoin="round" stroke-miterlimit="10" points="
		269.5,291.3 268.5,291.3 268.6,247.3 269.5,247.3 	"/>
	<polygon fill="#FFFFFF" points="207.4,290.1 282.5,290.3 283,302.2 207.4,302.2 	"/>
	<polygon fill="none" stroke="#B3CFDD" stroke-width="3" stroke-linecap="round" stroke-miterlimit="10" points="207.4,290.1 
		282.5,290.3 283,302.2 207.4,302.2 	"/>
	<polygon fill="#9ABAC7" points="208.7,161.8 160.7,161.8 160.8,159.4 208.5,159.4 	"/>
	<polygon fill="none" stroke="#9ABAC7" stroke-linecap="round" stroke-miterlimit="10" points="208.7,161.8 160.7,161.8 
		160.8,159.4 208.5,159.4 	"/>
	<g>
		<polygon fill="#9ABAC7" points="216.7,143 152,143 152.1,145 216.4,145 		"/>
	</g>
	<g>
		<path fill="#9ABAC7" d="M216.9,145.5h-65.2l-0.1-3h65.8L216.9,145.5z M152.6,144.5H216l0.1-1h-63.6L152.6,144.5z"/>
	</g>
	<g>
		<polygon fill="#9ABAC7" points="183.4,115.3 183.4,128.1 185.4,128.1 185.4,115.4 		"/>
	</g>
	<g>
		<path fill="#9ABAC7" d="M182.9,128.6v-13.8l3,0.1v13.7L182.9,128.6z M183.9,115.8v11.8l1,0v-11.8L183.9,115.8z"/>
	</g>
	<path fill="#FFFFFF" d="M290.5,269.2c0,8.4-6.8,15.2-15.2,15.2s-15.2-6.8-15.2-15.2c0-8.4,6.8-15.2,15.2-15.2
		S290.5,260.8,290.5,269.2"/>
	<circle fill="none" stroke="#B3CFDD" stroke-width="2" stroke-miterlimit="10" cx="275.3" cy="269.2" r="15.2"/>
	<path fill="#B3CFDD" d="M285.4,265.9c-1.3-1.1-4.4-2.1-7.2-1.8l1.4,8.2c2.8-1,5.2-2.1,6.2-4.4l-3.4,0.5L285.4,265.9 M281.5,266.8
		c-0.3,0.1-0.7-0.2-0.8-0.5c-0.1-0.4,0.2-0.7,0.5-0.8c0.4-0.1,0.7,0.2,0.8,0.5C282.1,266.4,281.9,266.7,281.5,266.8"/>
	<path fill="#B3CFDD" d="M267.8,269.7c0.9-2.1,5.3-5.8,9.3-5.6l1.5,8.4c-4.5,1.5-9.2,0.1-10.6-2.1c-0.3,0.9-1.5,2.7-2.4,2.9
		l-0.5-2.8l-0.5-2.8C265.5,267.6,267.2,269,267.8,269.7"/>
	<line fill="#FFFFFF" x1="274.8" y1="284" x2="274.8" y2="290"/>
	
		<line fill="none" stroke="#B3CFDD" stroke-width="2" stroke-linejoin="round" stroke-miterlimit="10" x1="274.8" y1="284" x2="274.8" y2="290"/>
	<polyline fill="#FFFFFF" points="118.5,224 157.4,224 157.4,331.9 113.1,331.9 113.1,226 	"/>
	
		<polyline fill="none" stroke="#9ABAC7" stroke-width="3" stroke-linecap="round" stroke-linejoin="round" stroke-miterlimit="10" points="
		118.5,224 157.4,224 157.4,331.9 113.1,331.9 113.1,226 	"/>
	<line fill="#FFFFFF" x1="113.1" y1="224" x2="113.9" y2="224"/>
	
		<line fill="none" stroke="#9ABAC7" stroke-width="3" stroke-linecap="round" stroke-linejoin="round" stroke-miterlimit="10" x1="113.1" y1="224" x2="113.9" y2="224"/>
	<rect x="151.7" y="251.6" fill="#FFFFFF" width="11.2" height="80.3"/>
	
		<rect x="151.7" y="251.6" fill="none" stroke="#9ABAC7" stroke-width="3" stroke-linecap="round" stroke-miterlimit="10" width="11.2" height="80.3"/>
	<rect x="154.3" y="224" fill="#FFFFFF" width="5.9" height="27.6"/>
	
		<rect x="154.3" y="224" fill="none" stroke="#9ABAC7" stroke-width="3" stroke-linecap="round" stroke-miterlimit="10" width="5.9" height="27.6"/>
	<polygon fill="#FFFFFF" points="120.3,331.9 109.1,331.9 109.4,251.6 120.3,251.6 	"/>
	<polygon fill="none" stroke="#9ABAC7" stroke-width="3" stroke-linecap="round" stroke-miterlimit="10" points="120.3,331.9 
		109.1,331.9 109.4,251.6 120.3,251.6 	"/>
	<polygon fill="#FFFFFF" points="117.7,251.6 111.7,251.6 111.5,224 117.7,224 	"/>
	<polygon fill="none" stroke="#9ABAC7" stroke-width="3" stroke-linecap="round" stroke-miterlimit="10" points="117.7,251.6 
		111.7,251.6 111.5,224 117.7,224 	"/>
	<path fill="#FFFFFF" d="M144.4,237.6c0,4.4-3.4,7.9-7.7,7.9c-4.3,0-7.7-3.5-7.7-7.9c0-4.4,3.4-7.9,7.7-7.9
		C140.9,229.7,144.4,233.2,144.4,237.6"/>
	<ellipse fill="none" stroke="#9ABAC7" stroke-width="2" stroke-miterlimit="10" cx="136.7" cy="237.6" rx="7.7" ry="7.9"/>
	<polyline fill="none" stroke="#9ABAC7" stroke-linecap="round" stroke-linejoin="round" points="136.1,233.7 136.1,238.3 
		139.8,238.3 	"/>
	<polygon fill="none" stroke="#9ABAC7" stroke-width="2" stroke-linecap="round" stroke-miterlimit="10" points="133.8,264.3 
		128.1,264.5 128,256.4 133.8,256.4 	"/>
	<polygon fill="none" stroke="#9ABAC7" stroke-width="2" stroke-linecap="round" stroke-miterlimit="10" points="144.7,264.5 
		139.1,264.5 139,256.4 144.8,256.4 	"/>
	<polygon fill="none" stroke="#9ABAC7" stroke-width="2" stroke-linecap="round" stroke-miterlimit="10" points="133.8,276.6 
		128.3,276.6 128.1,268.5 133.8,268.6 	"/>
	<polygon fill="none" stroke="#9ABAC7" stroke-width="2" stroke-linecap="round" stroke-miterlimit="10" points="144.8,276.6 
		139.2,276.6 139.1,268.5 144.9,268.5 	"/>
	<polygon fill="none" stroke="#9ABAC7" stroke-width="2" stroke-linecap="round" stroke-miterlimit="10" points="133.8,288.6 
		128.1,288.7 128.1,280.8 133.8,280.6 	"/>
	<polygon fill="none" stroke="#9ABAC7" stroke-width="2" stroke-linecap="round" stroke-miterlimit="10" points="144.8,288.7 
		139.1,288.6 139,280.6 144.8,280.6 	"/>
	<polygon fill="none" stroke="#9ABAC7" stroke-width="2" stroke-linecap="round" stroke-miterlimit="10" points="133.8,300.6 
		128.1,300.8 128.1,292.8 133.8,292.7 	"/>
	<polygon fill="none" stroke="#9ABAC7" stroke-width="2" stroke-linecap="round" stroke-miterlimit="10" points="144.7,300.8 
		139.1,300.8 139.1,292.8 144.8,292.7 	"/>
	<polygon fill="none" stroke="#9ABAC7" stroke-width="2" stroke-linecap="round" stroke-miterlimit="10" points="133.8,312.9 
		128.3,312.9 128.1,304.8 133.9,304.8 	"/>
	<polygon fill="none" stroke="#9ABAC7" stroke-width="2" stroke-linecap="round" stroke-miterlimit="10" points="144.8,312.9 
		139.1,312.7 139.1,304.8 144.8,304.9 	"/>
	<path fill="#9ABAC7" d="M389.6,414c0,1.6-1.3,2.8-2.8,2.8c-1.6,0-2.8-1.3-2.8-2.8c0-1.6,1.3-2.8,2.8-2.8
		C388.4,411.2,389.6,412.5,389.6,414"/>
	<path fill="#9ABAC7" d="M400.6,414c0,1.6-1.3,2.8-2.8,2.8c-1.6,0-2.8-1.3-2.8-2.8c0-1.6,1.3-2.8,2.8-2.8
		C399.4,411.2,400.6,412.5,400.6,414"/>
	<path fill="#9ABAC7" d="M411.6,414c0,1.6-1.3,2.8-2.8,2.8c-1.6,0-2.8-1.3-2.8-2.8c0-1.6,1.3-2.8,2.8-2.8
		C410.4,411.2,411.6,412.5,411.6,414"/>
	<rect x="222.9" y="301.9" fill="#FFFFFF" width="61.1" height="29.2"/>
	
		<rect x="222.9" y="301.9" fill="none" stroke="#B3CFDD" stroke-width="3" stroke-linecap="round" stroke-miterlimit="10" width="61.1" height="29.2"/>
	<polygon fill="#B3CFDD" points="346.9,411 385.2,409.1 376.1,390.3 346.9,390.3 	"/>
	<polygon fill="none" stroke="#B3CFDD" stroke-linejoin="round" stroke-miterlimit="10" points="346.9,411 385.2,409.1 376.1,390.3 
		346.9,390.3 	"/>
	<path fill="#FFFFFF" d="M364.3,401.9h8.7c0.7,0,1.2-0.5,1.2-1.2v-4.4c0-0.7-0.5-1.2-1.2-1.2h-8.7c-0.7,0-1.2,0.5-1.2,1.2v4.4
		C363.1,401.4,363.7,401.9,364.3,401.9"/>
	<path fill="#FFFFFF" d="M352,401.9h5.6c0.7,0,1.2-0.5,1.2-1.2v-4.4c0-0.7-0.5-1.2-1.2-1.2H352c-0.7,0-1.2,0.5-1.2,1.2v4.4
		C350.8,401.4,351.3,401.9,352,401.9"/>
	<rect x="352" y="384.2" fill="#B3CFDD" width="2.3" height="9.1"/>
	<rect x="352" y="384.2" fill="none" stroke="#B3CFDD" stroke-linejoin="round" stroke-miterlimit="10" width="2.3" height="9.1"/>
	<line fill="none" stroke="#FFFFFF" stroke-miterlimit="10" x1="429.1" y1="407.5" x2="331.1" y2="407.5"/>
	<path fill="#FFFFFF" d="M265.6,329.2c0-18.9,16.3-34.3,36.4-34.3s36.4,15.3,36.4,34.3"/>
	<path fill="none" stroke="#9ABAC7" stroke-width="3" stroke-miterlimit="10" d="M265.6,329.2c0-18.9,16.3-34.3,36.4-34.3
		s36.4,15.3,36.4,34.3"/>
	<polygon fill="#9ABAC7" points="306.7,296 302.8,329.1 304,329.1 307.9,295.5 	"/>
	<polygon fill="#9ABAC7" points="274,306.6 270.1,329.1 271.1,329.1 275.1,306.2 	"/>
	<polygon fill="#9ABAC7" points="284.9,299.5 280.9,329.1 282.1,329.1 286,299.5 	"/>
	<polygon fill="#9ABAC7" points="295.8,296 291.9,329.1 293,329.1 297,295.5 	"/>
	<polygon fill="#9ABAC7" points="317.7,298.7 313.7,329.1 314.9,329.1 318.8,298.2 	"/>
	<polyline fill="#9ABAC7" points="297.3,296 301.2,329.1 300,329.1 296.1,295.5 	"/>
	<polyline fill="#9ABAC7" points="275.3,306.2 278.8,329.1 277.7,329.1 274.2,307.4 	"/>
	<polyline fill="#9ABAC7" points="319.1,299.5 323.1,329.1 321.9,329.1 317.7,298.2 	"/>
	<polyline fill="#9ABAC7" points="308.2,296 312.1,329.1 311,329.1 307,295.5 	"/>
	<polyline fill="#9ABAC7" points="286.3,298.7 290.3,329.1 289.1,329.1 285.2,298.7 	"/>
	<path fill="#FFFFFF" d="M273.5,331.9c0-21.1,18.2-38.1,40.6-38.1c22.4,0,40.6,17.1,40.6,38.1"/>
	<path fill="none" stroke="#9ABAC7" stroke-width="3" stroke-miterlimit="10" d="M273.5,331.9c0-21.1,18.2-38.1,40.6-38.1
		c22.4,0,40.6,17.1,40.6,38.1"/>
	<polygon fill="#9ABAC7" points="319.3,294.9 314.9,331.8 316.2,331.8 320.6,294.4 	"/>
	<polygon fill="#9ABAC7" points="282.8,306.7 278.4,331.8 279.6,331.8 284,306.3 	"/>
	<polygon fill="#9ABAC7" points="295,298.8 290.6,331.8 291.9,331.8 296.2,298.8 	"/>
	<polygon fill="#9ABAC7" points="307.1,294.9 302.7,331.8 304,331.8 308.4,294.4 	"/>
	<polygon fill="#9ABAC7" points="331.4,297.9 327.1,331.8 328.4,331.8 332.7,297.4 	"/>
	<polyline fill="#9ABAC7" points="308.7,294.9 313.1,331.8 311.8,331.8 307.4,294.4 	"/>
	<polyline fill="#9ABAC7" points="284.3,306.3 288.2,331.8 286.9,331.8 283.1,307.6 	"/>
	<polyline fill="#9ABAC7" points="333,298.8 337.4,331.8 336.1,331.8 331.5,297.4 	"/>
	<polyline fill="#9ABAC7" points="320.9,294.9 325.3,331.8 324,331.8 319.6,294.4 	"/>
	<polyline fill="#9ABAC7" points="296.6,297.9 300.9,331.8 299.6,331.8 295.3,297.9 	"/>
	<polygon fill="#9ABAC7" points="343.6,305.9 339.2,331.8 340.5,331.8 344.7,306.5 	"/>
	<polyline fill="#9ABAC7" points="344.9,306.7 349.2,331.8 348,331.8 343.6,306.3 	"/>
	<polygon fill="#FFFFFF" points="346.1,331.6 262.7,331.6 262.7,316.9 346.1,316.2 	"/>
	<polygon fill="none" stroke="#A9C4D2" stroke-width="3" stroke-linecap="round" stroke-miterlimit="10" points="346.1,331.6 
		262.7,331.6 262.7,316.9 346.1,316.2 	"/>
	<rect x="274" y="315.7" fill="#FFFFFF" width="83.4" height="15.4"/>
	
		<rect x="274" y="315.7" fill="none" stroke="#A9C4D2" stroke-width="3" stroke-linecap="round" stroke-miterlimit="10" width="83.4" height="15.4"/>
	<polyline fill="#FFFFFF" points="713.8,332 728.7,322.2 737.7,306.8 	"/>
	
		<polyline fill="none" stroke="#B3CFDD" stroke-width="2" stroke-linecap="round" stroke-linejoin="round" stroke-miterlimit="10" points="
		713.8,332 728.7,322.2 737.7,306.8 	"/>
	<line fill="none" stroke="#9ABAC7" stroke-width="3" stroke-miterlimit="10" x1="754.3" y1="316.4" x2="723.4" y2="319.5"/>
	<line fill="none" stroke="#9ABAC7" stroke-width="3" stroke-miterlimit="10" x1="744.8" y1="331.5" x2="606.8" y2="331.5"/>
	<line fill="#FFFFFF" x1="135.8" y1="204" x2="135.8" y2="223"/>
	<line fill="none" stroke="#9ABAC7" stroke-width="2" stroke-miterlimit="10" x1="135.8" y1="204" x2="135.8" y2="223"/>
	<rect x="142.1" y="208.3" fill="#FFFFFF" width="7.6" height="10"/>
	
		<rect x="142.1" y="208.3" fill="none" stroke="#9ABAC7" stroke-width="2" stroke-linecap="round" stroke-miterlimit="10" width="7.6" height="10"/>
	<rect x="136.3" y="206.7" fill="#FFFFFF" width="9.6" height="10"/>
	
		<rect x="136.3" y="206.7" fill="none" stroke="#9ABAC7" stroke-width="2" stroke-linecap="round" stroke-miterlimit="10" width="9.6" height="10"/>
	<rect x="142.3" y="216.7" fill="#9ABAC7" width="4.1" height="1.9"/>
</g>
<text transform="matrix(1 0 0 1 138.3571 213.5001)"><tspan x="0" y="0" fill="#9ABAC7" font-family="'BrandonText-Bold'" font-size="6">1</tspan><tspan x="2.4" y="0" fill="#9ABAC7" font-family="'BrandonText-Bold'" font-size="6">2</tspan></text>
<g>
	
		<polyline fill="none" stroke="#9ABAC7" stroke-width="2" stroke-linecap="round" stroke-linejoin="round" stroke-miterlimit="10" points="
		337.3,262.5 335.8,268 329.9,270.7 	"/>
	
		<polyline fill="none" stroke="#9ABAC7" stroke-width="2" stroke-linecap="round" stroke-linejoin="round" stroke-miterlimit="10" points="
		358.9,265.8 361.4,268.5 363.2,275.7 	"/>
</g>
<g>
	<path fill="none" stroke="#A9C4D2" stroke-width="3" stroke-linecap="round" stroke-linejoin="round" stroke-miterlimit="10" d="
		M846.9,335.7c0-37,39.1-67.1,87.4-67.1c21.7,0,41.6,6.1,56.9,16.2"/>
	<path fill="none" d="M744.9,332.1c9.7-25.8,44-46.3,83.4-46.3c46.6,0,84.4,20.1,84.4,59.9"/>
	<path fill="none" stroke="#A9C4D2" stroke-width="3" stroke-linecap="round" stroke-linejoin="round" stroke-miterlimit="10" d="
		M744.9,332.1c9.7-25.8,44-46.3,83.4-46.3c14.5,0,28.2,2,40.1,5.8"/>
	<path fill="none" stroke="#A9C4D2" stroke-width="3" stroke-linecap="round" stroke-linejoin="round" stroke-miterlimit="10" d="
		M835,359.6c18.7-21.4,48.5-35.3,82.2-35.3c40,0,74.6,19.6,91.5,48.1"/>
	<path fill="none" stroke="#A9C4D2" stroke-width="3" stroke-linecap="round" stroke-linejoin="round" stroke-miterlimit="10" d="
		M1008.7,372.4"/>
	<path fill="#FFFFFF" d="M228.5,303c0,21.2-17.5,38.4-39.2,38.4s-39.2-17.2-39.2-38.4c0-21.2,17.5-38.4,39.2-38.4
		S228.5,281.8,228.5,303"/>
	<ellipse fill="none" stroke="#9ABAC7" stroke-width="3" stroke-miterlimit="10" cx="189.4" cy="303" rx="39.2" ry="38.4"/>
	<path fill="#9ABAC7" d="M194.5,303c0,2.8-2.3,5.1-5.1,5.1c-2.8,0-5.1-2.3-5.1-5.1c0-2.8,2.3-5.1,5.1-5.1
		C192.2,297.9,194.5,300.2,194.5,303"/>
	<polygon fill="#9ABAC7" points="188,304.6 160.4,353.5 163.3,354.6 190.2,305.9 	"/>
	<polygon fill="#9ABAC7" points="213.1,354.6 188.8,305.7 191.7,304.6 215.2,353.3 	"/>
	<line fill="none" stroke="#9ABAC7" stroke-width="2" stroke-miterlimit="10" x1="158.9" y1="276.7" x2="219.9" y2="328.1"/>
	<line fill="none" stroke="#9ABAC7" stroke-width="2" stroke-miterlimit="10" x1="189.4" y1="262.5" x2="189.3" y2="342.3"/>
	<line fill="none" stroke="#9ABAC7" stroke-width="2" stroke-miterlimit="10" x1="220.8" y1="277.9" x2="157.9" y2="327"/>
	<line fill="none" stroke="#9ABAC7" stroke-width="2" stroke-miterlimit="10" x1="229.1" y1="306.3" x2="149.6" y2="298.4"/>
	<path fill="#FFFFFF" d="M189.6,270.7L189.6,270.7c3,0,5.5-2.5,5.5-5.5V264c0-3-2.5-5.5-5.5-5.5c-3,0-5.5,2.5-5.5,5.5v1.2
		C184.1,268.2,186.6,270.7,189.6,270.7"/>
	<path fill="none" stroke="#9ABAC7" stroke-width="2" stroke-miterlimit="10" d="M189.6,270.7L189.6,270.7c3,0,5.5-2.5,5.5-5.5V264
		c0-3-2.5-5.5-5.5-5.5c-3,0-5.5,2.5-5.5,5.5v1.2C184.1,268.2,186.6,270.7,189.6,270.7z"/>
	<path fill="#FFFFFF" d="M149.8,305.1L149.8,305.1c-3,0.1-5.5-2.3-5.6-5.3l0-1.2c-0.1-3,2.3-5.5,5.3-5.6c3-0.1,5.5,2.3,5.6,5.3
		l0,1.2C155.2,302.4,152.8,305,149.8,305.1"/>
	<path fill="none" stroke="#9ABAC7" stroke-width="2" stroke-miterlimit="10" d="M149.8,305.1L149.8,305.1c-3,0.1-5.5-2.3-5.6-5.3
		l0-1.2c-0.1-3,2.3-5.5,5.3-5.6c3-0.1,5.5,2.3,5.6,5.3l0,1.2C155.2,302.4,152.8,305,149.8,305.1z"/>
	<path fill="#FFFFFF" d="M159,281.5L159,281.5c-3,0.1-5.5-2.3-5.6-5.3l0-1.2c-0.1-3,2.3-5.5,5.3-5.6c3-0.1,5.5,2.3,5.6,5.3l0,1.2
		C164.4,279,162,281.5,159,281.5"/>
	<path fill="none" stroke="#9ABAC7" stroke-width="2" stroke-miterlimit="10" d="M159,281.5L159,281.5c-3,0.1-5.5-2.3-5.6-5.3l0-1.2
		c-0.1-3,2.3-5.5,5.3-5.6c3-0.1,5.5,2.3,5.6,5.3l0,1.2C164.4,279,162,281.5,159,281.5z"/>
	<path fill="#FFFFFF" d="M229.2,312.1L229.2,312.1c3-0.1,5.4-2.6,5.3-5.6l0-1.2c-0.1-3-2.6-5.4-5.6-5.3c-3,0.1-5.4,2.6-5.3,5.6
		l0,1.2C223.7,309.8,226.2,312.2,229.2,312.1"/>
	<path fill="none" stroke="#9ABAC7" stroke-width="2" stroke-miterlimit="10" d="M229.2,312.1L229.2,312.1c3-0.1,5.4-2.6,5.3-5.6
		l0-1.2c-0.1-3-2.6-5.4-5.6-5.3c-3,0.1-5.4,2.6-5.3,5.6l0,1.2C223.7,309.8,226.2,312.2,229.2,312.1z"/>
	<path fill="#FFFFFF" d="M219.1,284.7L219.1,284.7c3,0.2,5.6-2.1,5.8-5.1l0.1-1.2c0.2-3-2.1-5.6-5.1-5.8c-3-0.2-5.6,2.1-5.8,5.1
		l-0.1,1.2C213.8,282,216.1,284.6,219.1,284.7"/>
	<path fill="none" stroke="#9ABAC7" stroke-width="2" stroke-miterlimit="10" d="M219.1,284.7L219.1,284.7c3,0.2,5.6-2.1,5.8-5.1
		l0.1-1.2c0.2-3-2.1-5.6-5.1-5.8c-3-0.2-5.6,2.1-5.8,5.1l-0.1,1.2C213.8,282,216.1,284.6,219.1,284.7z"/>
	<path fill="#FFFFFF" d="M158.3,319.8L158.3,319.8c-3-0.2-5.6,2.1-5.8,5.1l-0.1,1.2c-0.2,3,2.1,5.6,5.1,5.8c3,0.2,5.6-2.1,5.8-5.1
		l0.1-1.2C163.6,322.6,161.3,320,158.3,319.8"/>
	<path fill="none" stroke="#9ABAC7" stroke-width="2" stroke-miterlimit="10" d="M152.5,326.1c-0.2,3,2.1,5.6,5.1,5.8
		c3,0.2,5.6-2.1,5.8-5.1l0.1-1.2c0.2-3-2.1-5.6-5.1-5.8l0,0c-3-0.2-5.6,2.1-5.8,5.1L152.5,326.1"/>
	<path fill="#FFFFFF" d="M219.8,322L219.8,322c3-0.1,5.5,2.3,5.6,5.3l0,1.2c0.1,3-2.3,5.5-5.3,5.6c-3,0.1-5.5-2.3-5.6-5.3l0-1.2
		C214.3,324.6,216.7,322.1,219.8,322"/>
	<path fill="none" stroke="#9ABAC7" stroke-width="2" stroke-miterlimit="10" d="M219.8,322L219.8,322c3-0.1,5.5,2.3,5.6,5.3l0,1.2
		c0.1,3-2.3,5.5-5.3,5.6c-3,0.1-5.5-2.3-5.6-5.3l0-1.2C214.3,324.6,216.7,322.1,219.8,322z"/>
	<path fill="#FFFFFF" d="M189.3,335.2L189.3,335.2c3,0,5.5,2.5,5.5,5.5v1.2c0,3-2.5,5.5-5.5,5.5c-3,0-5.5-2.5-5.5-5.5v-1.2
		C183.8,337.7,186.2,335.2,189.3,335.2"/>
	<path fill="none" stroke="#9ABAC7" stroke-width="2" stroke-miterlimit="10" d="M189.3,335.2L189.3,335.2c3,0,5.5,2.5,5.5,5.5v1.2
		c0,3-2.5,5.5-5.5,5.5c-3,0-5.5-2.5-5.5-5.5v-1.2C183.8,337.7,186.2,335.2,189.3,335.2z"/>
	<rect x="160.1" y="351.1" fill="#FFFFFF" width="62" height="16.2"/>
	<line fill="none" stroke="#9ABAC7" stroke-width="3" stroke-miterlimit="10" x1="136.8" y1="351.5" x2="243.8" y2="351.5"/>
	<line fill="#FFFFFF" x1="36.9" y1="252.1" x2="36.3" y2="332.1"/>
	
		<line fill="none" stroke="#A9C4D2" stroke-width="3" stroke-linecap="square" stroke-miterlimit="10" x1="36.9" y1="252.1" x2="36.3" y2="332.1"/>
	<line fill="#FFFFFF" x1="47" y1="258.1" x2="47.3" y2="331.1"/>
	<line fill="none" stroke="#A9C4D2" stroke-width="3" stroke-miterlimit="10" x1="47" y1="258.1" x2="47.3" y2="331.1"/>
	<line fill="#FFFFFF" x1="58.6" y1="266.1" x2="58.3" y2="331.1"/>
	<line fill="none" stroke="#A9C4D2" stroke-width="3" stroke-miterlimit="10" x1="58.6" y1="266.1" x2="58.3" y2="331.1"/>
	<path fill="#98B057" d="M141.7,360.8c1.1-2.9,1.8-6.2,1.8-9.5c0-14.5-11.7-28.4-26.2-28.4c-3.8,0-7.3,0.8-10.6,2.2
		c-3.5-3.3-8.1-5.3-13.3-5.3c-1.5,0-2.9,0.2-4.3,0.5c-4.3-6.1-9.5-10.1-19.4-10.1c-11,0-20.3,9.5-22.9,19.7
		c-2.4-0.6-4.8-0.9-7.4-0.9c-16.7,0-30.3,13.7-30.3,30.4c0,4.1,0.8,8.6,2.3,11.6h126.3L141.7,360.8z"/>
	<polygon fill="#FFFFFF" points="37.4,373.1 37.4,370.2 26.4,359.2 27.5,358.1 37.4,368.1 37.4,349.6 30.9,343 31.9,342 37.4,347.5 
		37.4,339.7 38.9,339.7 38.9,358.7 50.2,347.4 51.3,348.5 38.9,360.8 38.9,373.1 	"/>
	<polyline fill="#FFFFFF" points="96,361 104.2,352.8 105.3,353.9 96,363.2 96,378.5 94.4,378.5 94.4,356.4 88.7,350.7 89.8,349.6 
		94.4,354.1 94.4,338.2 96,338.2 96,348.7 98.2,346.4 99.3,347.6 96,350.9 96,361 96,363.2 	"/>
	<polyline fill="#FFFFFF" points="70.6,332.2 78.7,324 79.9,325.1 70.6,334.4 70.6,339.8 69,339.8 69,327.6 63.2,321.9 64.4,320.8 
		69,325.4 69,315.4 70.6,315.4 70.6,319.9 72.8,317.7 73.9,318.8 70.6,322.1 70.6,332.2 70.6,334.4 	"/>
	<path fill="#FFFFFF" d="M92,348.4c-3.9,0-7-3.1-7-7C88.9,341.5,92,344.6,92,348.4"/>
	<path fill="#FFFFFF" d="M60.9,334.6c-3.9,0-7-3.1-7-7C57.8,327.6,60.9,330.7,60.9,334.6"/>
	<path fill="#9ABAC7" d="M835.6,322.7l-1.7-2.8h-2.4v-1.5l-2.3,1.9l0.3,6.9h7.3l1.1-2.1L835.6,322.7z M832.7,323.1
		c-0.3,0-0.5-0.2-0.5-0.5c0-0.3,0.2-0.5,0.5-0.5c0.3,0,0.5,0.2,0.5,0.5C833.2,322.8,833,323.1,832.7,323.1"/>
	<polygon fill="#A9C4D2" points="816.4,326.7 819.2,322.8 818.6,320.2 808.5,320.2 809.3,324.9 	"/>
	<polygon fill="#9ABAC7" points="804.8,320.1 804.2,320.1 803.5,320.1 802.8,321 802.8,321.8 802.8,326.8 802.1,327.4 802.1,329 
		802.8,330.1 803.5,330.1 803.8,330.1 803.5,321.8 804.2,321.8 804.2,339.1 806.7,339.1 806.1,335.5 807.6,330.9 809.6,339.1 
		811.2,339.1 810.5,335.5 811.6,331.3 821.2,333.4 821.2,339.1 823.4,339.1 823,336.1 823.9,332.8 824.8,339.1 826.6,339.1 826,333 
		828.6,327.2 828.6,320.1 824.1,320.1 	"/>
	<polygon fill="#FFFFFF" points="953.8,261.2 950,280.7 959.5,278.5 963.5,275.4 960.7,261.6 	"/>
	
		<polyline fill="none" stroke="#9ABAC7" stroke-width="1.5" stroke-linecap="round" stroke-linejoin="round" stroke-miterlimit="10" points="
		959.8,257.4 965.9,285.8 951.1,274.9 	"/>
	
		<polyline fill="none" stroke="#9ABAC7" stroke-width="1.5" stroke-linecap="round" stroke-linejoin="round" stroke-miterlimit="10" points="
		954.3,258.8 953.5,262.9 951.4,273.7 948.8,286.5 963.5,274.9 953.5,262.9 	"/>
	<line fill="none" stroke="#9ABAC7" stroke-width="1.5" stroke-miterlimit="10" x1="961.1" y1="263.1" x2="951.1" y2="274.9"/>
	<polygon fill="#9ABAC7" points="951.6,262.4 962.8,262.4 962.7,262.7 951.7,262.7 	"/>
	<polygon fill="none" stroke="#9ABAC7" stroke-linecap="round" stroke-miterlimit="10" points="951.6,262.4 962.8,262.4 
		962.7,262.7 951.7,262.7 	"/>
	<polygon fill="#9ABAC7" points="966.4,274.8 948.1,274.6 948.1,274.9 966.3,275.1 	"/>
	<polygon fill="none" stroke="#9ABAC7" stroke-linecap="round" stroke-miterlimit="10" points="966.4,274.8 948.1,274.6 
		948.1,274.9 966.3,275.1 	"/>
	<rect x="951.3" y="254.7" fill="#FFFFFF" width="12.4" height="4.9"/>
	<polygon fill="#B3CFDD" points="954.3,249.9 947.8,253.4 948.6,254.5 954.5,250.4 	"/>
	<polygon fill="none" stroke="#B3CFDD" stroke-width="0.5" stroke-linecap="round" stroke-miterlimit="10" points="954.3,249.9 
		947.8,253.4 948.6,254.5 954.5,250.4 	"/>
	<polygon fill="#B3CFDD" points="955.4,251 951.1,257 952.3,257.7 955.9,251.4 	"/>
	<polygon fill="none" stroke="#B3CFDD" stroke-width="0.5" stroke-linecap="round" stroke-miterlimit="10" points="955.4,251 
		951.1,257 952.3,257.7 955.9,251.4 	"/>
	<polygon fill="#B3CFDD" points="958.6,250.9 963.2,256.6 962.1,257.3 958.3,251.2 	"/>
	<polygon fill="none" stroke="#B3CFDD" stroke-width="0.5" stroke-linecap="round" stroke-miterlimit="10" points="958.6,250.9 
		963.2,256.6 962.1,257.3 958.3,251.2 	"/>
	<polygon fill="#B3CFDD" points="954,248.4 946.7,248.1 946.7,249.4 954,249 	"/>
	<polygon fill="none" stroke="#B3CFDD" stroke-width="0.5" stroke-linecap="round" stroke-miterlimit="10" points="954,248.4 
		946.7,248.1 946.7,249.4 954,249 	"/>
	<polygon fill="#B3CFDD" points="954.4,246.7 947.7,243.7 947.4,245 954.1,247.3 	"/>
	<polygon fill="none" stroke="#B3CFDD" stroke-width="0.5" stroke-linecap="round" stroke-miterlimit="10" points="954.4,246.7 
		947.7,243.7 947.4,245 954.1,247.3 	"/>
	<polygon fill="#B3CFDD" points="955.6,245.6 951.7,239.7 950.5,240.3 955.1,245.9 	"/>
	<polygon fill="none" stroke="#B3CFDD" stroke-width="0.5" stroke-linecap="round" stroke-miterlimit="10" points="955.6,245.6 
		951.7,239.7 950.5,240.3 955.1,245.9 	"/>
	<polygon fill="#B3CFDD" points="957.4,245.3 957.8,238.2 956.4,238.2 956.8,245.5 	"/>
	<polygon fill="none" stroke="#B3CFDD" stroke-width="0.5" stroke-linecap="round" stroke-miterlimit="10" points="957.4,245.3 
		957.8,238.2 956.4,238.2 956.8,245.5 	"/>
	<polygon fill="#B3CFDD" points="957.4,251.7 957.8,258.7 956.4,258.7 956.8,251.5 	"/>
	<polygon fill="none" stroke="#B3CFDD" stroke-width="0.5" stroke-linecap="round" stroke-miterlimit="10" points="957.4,251.7 
		957.8,258.7 956.4,258.7 956.8,251.5 	"/>
	<polygon fill="#B3CFDD" points="959.6,250 966,253.5 965.3,254.6 959.4,250.3 	"/>
	<polygon fill="none" stroke="#B3CFDD" stroke-width="0.5" stroke-linecap="round" stroke-miterlimit="10" points="959.6,250 
		966,253.5 965.3,254.6 959.4,250.3 	"/>
	<polygon fill="#B3CFDD" points="959.9,248.5 967.2,248.2 967.2,249.5 960,249.1 	"/>
	<polygon fill="none" stroke="#B3CFDD" stroke-width="0.5" stroke-linecap="round" stroke-miterlimit="10" points="959.9,248.5 
		967.2,248.2 967.2,249.5 960,249.1 	"/>
	<polygon fill="#B3CFDD" points="959.7,246.8 966.3,243.7 966.6,245.1 959.9,247.3 	"/>
	<polygon fill="none" stroke="#B3CFDD" stroke-width="0.5" stroke-linecap="round" stroke-miterlimit="10" points="959.7,246.8 
		966.3,243.7 966.6,245.1 959.9,247.3 	"/>
	<polygon fill="#B3CFDD" points="958.4,245.7 962.3,239.8 963.6,240.4 958.9,246 	"/>
	<polygon fill="none" stroke="#B3CFDD" stroke-width="0.5" stroke-linecap="round" stroke-miterlimit="10" points="958.4,245.7 
		962.3,239.8 963.6,240.4 958.9,246 	"/>
	<path fill="#9ABAC7" d="M959,248.5c0,1.2-0.9,2.1-2.1,2.1s-2.1-0.9-2.1-2.1c0-1.2,0.9-2.1,2.1-2.1S959,247.3,959,248.5"/>
	<path fill="none" stroke="#B3CFDD" stroke-width="2" stroke-linecap="round" stroke-linejoin="round" stroke-miterlimit="10" d="
		M837.8,196c0-3.4,2.8-6.2,6.2-6.2c4.2,0,6.2,3.6,6.2,7"/>
	<path fill="none" stroke="#B3CFDD" stroke-width="2" stroke-linecap="round" stroke-linejoin="round" stroke-miterlimit="10" d="
		M850,196.8c0-3.4,2.2-7,6.2-7c3.4,0,6.2,2.8,6.2,6.2"/>
	<path fill="none" stroke="#B3CFDD" stroke-width="2" stroke-linecap="round" stroke-linejoin="round" stroke-miterlimit="10" d="
		M881,179.7c-0.9-2.8,0.6-5.7,3.4-6.6c3.4-1.1,5.9,1.3,6.8,4.1"/>
	<path fill="none" stroke="#B3CFDD" stroke-width="2" stroke-linecap="round" stroke-linejoin="round" stroke-miterlimit="10" d="
		M891,177.2c-0.9-2.8-0.1-6.2,3.1-7.3c2.8-0.9,5.7,0.6,6.6,3.4"/>
	<path fill="#B3CFDD" d="M887.1,366h-0.6h0h-9.3c-0.2,0-0.3-0.1-0.3-0.2v-6.4c0-0.2-0.1-0.4-0.3-0.4h-15.4c-0.2,0-0.3,0.2-0.3,0.4
		v6.4c0,0.2-0.1,0.2-0.3,0.2h-3.4c-0.2,0-0.3,0.2-0.3,0.4v12.4c0,0.2,0.1,0.2,0.3,0.2h28.5h0.8h0.6c0.9,0,1.7-0.5,1.7-1.4v-9.8
		C888.8,366.8,888,366,887.1,366"/>
	<polygon fill="#B3CFDD" points="880.8,366.6 880.8,359 880.5,359 880.5,366.6 	"/>
	<polygon fill="none" stroke="#B3CFDD" stroke-linecap="round" stroke-linejoin="round" stroke-miterlimit="10" points="
		880.8,366.6 880.8,359 880.5,359 880.5,366.6 	"/>
	<path fill="#9ABAC7" d="M872.1,377.3c0,4.5-3.7,8.2-8.2,8.2c-4.5,0-8.2-3.7-8.2-8.2c0-4.5,3.7-8.2,8.2-8.2
		C868.5,369.1,872.1,372.7,872.1,377.3"/>
	
		<circle fill="none" stroke="#FFFFFF" stroke-linecap="round" stroke-linejoin="round" stroke-miterlimit="10" cx="863.9" cy="377.3" r="8.2"/>
	<path fill="#9ABAC7" d="M891.7,379.3c0,3.2-2.6,5.8-5.8,5.8c-3.2,0-5.7-2.6-5.7-5.8c0-3.2,2.6-5.8,5.7-5.8
		C889.1,373.5,891.7,376.1,891.7,379.3"/>
	
		<circle fill="none" stroke="#FFFFFF" stroke-linecap="round" stroke-linejoin="round" stroke-miterlimit="10" cx="885.9" cy="379.3" r="5.7"/>
	<rect x="864.8" y="362.1" fill="#FFFFFF" width="7.8" height="3.6"/>
	<path fill="#FFFFFF" d="M888.8,379.3c0,1.5-1.2,2.8-2.8,2.8s-2.8-1.2-2.8-2.8c0-1.5,1.2-2.8,2.8-2.8S888.8,377.8,888.8,379.3"/>
	<path fill="#FFFFFF" d="M868.5,377.3c0,2.5-2,4.5-4.5,4.5s-4.5-2-4.5-4.5c0-2.5,2-4.5,4.5-4.5S868.5,374.8,868.5,377.3"/>
</g>
<g>
	<path fill="#FFFFFF" d="M744.7,332c5.4,11.9-3.7,16,1.8,27.9c5.4,11.9,14.5,7.7,19.9,19.6c5.4,11.9-3.7,16,1.8,27.9
		c5.4,11.9,14.5,7.7,19.9,19.6c5.4,11.9-3.7,16,1.8,27.9c5.4,11.9,14.5,7.7,19.9,19.6"/>
	<path fill="none" stroke="#9ABAC7" stroke-width="3" stroke-linecap="round" stroke-linejoin="round" stroke-miterlimit="10" d="
		M744.7,332c5.4,11.9-3.7,16,1.8,27.9c5.4,11.9,14.5,7.7,19.9,19.6c5.4,11.9-3.7,16,1.8,27.9c5.4,11.9,14.5,7.7,19.9,19.6
		c5.4,11.9-3.7,16,1.8,27.9c5.4,11.9,14.5,7.7,19.9,19.6"/>
	<path fill="#FFFFFF" d="M182.9,352.6c-4.5,10.2-13.6,6.1-18.1,16.3c-4.5,10.2,4.7,14.2,0.2,24.3c-4.5,10.2-13.6,6.1-18.1,16.3
		c-4.5,10.2,4.7,14.2,0.2,24.3c-4.5,10.2-13.6,6.2-18.1,16.3c-4.5,10.2,4.7,14.2,0.2,24.3"/>
	<path fill="none" stroke="#9ABAC7" stroke-width="3" stroke-linecap="round" stroke-linejoin="round" stroke-miterlimit="10" d="
		M182.9,352.6c-4.5,10.2-13.6,6.1-18.1,16.3c-4.5,10.2,4.7,14.2,0.2,24.3c-4.5,10.2-13.6,6.1-18.1,16.3c-4.5,10.2,4.7,14.2,0.2,24.3
		c-4.5,10.2-13.6,6.2-18.1,16.3c-4.5,10.2,4.7,14.2,0.2,24.3"/>
	<path fill="#FFFFFF" d="M863.8,288.4c0,7.5-6,13.6-13.3,13.6c-7.3,0-13.3-6.1-13.3-13.6c0-7.5,6-13.6,13.3-13.6
		C857.9,274.8,863.8,280.9,863.8,288.4"/>
	<path fill="#98B057" d="M849.9,271.6c-9.6,0-17.4,7.8-17.4,17.4c0,9.3,7.3,16.8,16.4,17.3V292l-6.7-6.7l1.3-1.3l5.4,5.4v-11.6h1.9
		v5.2l2.6-2.6l1.3,1.3l-3.9,3.9v11.8l9.6-9.6l1.3,1.3L850.8,300v6.2c9.2-0.5,16.4-8,16.4-17.3C867.2,279.3,859.5,271.6,849.9,271.6
		 M845.7,297.4c-4.3,0-7.7-3.5-7.7-7.7C842.3,289.7,845.7,293.2,845.7,297.4"/>
	<polygon fill="#98B057" points="849.9,306.3 849.9,306.3 848.9,306.3 848.9,315.9 850.8,315.9 850.8,306.3 849.9,306.3 	"/>
	<path fill="#FFFFFF" d="M804.2,291.5c0,7.1-5.6,12.9-12.6,12.9c-7,0-12.6-5.8-12.6-12.9c0-7.1,5.6-12.9,12.6-12.9
		C798.5,278.6,804.2,284.4,804.2,291.5"/>
	<path fill="#98B057" d="M791,275.6c-9.1,0-16.5,7.4-16.5,16.5c0,8.8,6.9,15.9,15.6,16.4v-13.5l-6.4-6.4l1.3-1.3l5.1,5.1v-11h1.8
		v4.9l2.5-2.5l1.3,1.3l-3.7,3.7V300l9.1-9.1l1.3,1.3l-10.3,10.3v5.9c8.7-0.5,15.6-7.6,15.6-16.4C807.4,282.9,800.1,275.6,791,275.6
		 M787,300.1c-4.1,0-7.3-3.3-7.3-7.3C783.8,292.7,787,296,787,300.1"/>
	<polygon fill="#98B057" points="791,308.5 791,308.5 790.1,308.5 790.1,317.6 791.9,317.6 791.9,308.5 791,308.5 	"/>
	<path fill="#FFFFFF" d="M841.1,277.7c0,10.3-8.3,18.6-18.6,18.6c-10.3,0-18.6-8.3-18.6-18.6c0-10.3,8.3-18.6,18.6-18.6
		C832.8,259.1,841.1,267.5,841.1,277.7"/>
	<path fill="#98B057" d="M821.4,256.5c-11.8,0-21.5,9.6-21.5,21.5c0,11.6,9.2,21,20.6,21.4v-3.3l-12.3-12.3l1.2-1.2l11.1,11.1v-20.5
		l-7.3-7.3l1.2-1.2l6.1,6.1v-8.7h1.7v21.1l12.5-12.5l1.2,1.2l-13.7,13.7v13.7c11.5-0.4,20.6-9.9,20.6-21.4
		C842.9,266.1,833.3,256.5,821.4,256.5 M814.9,278.8c-4.8,0-8.7-3.9-8.7-8.7C811,270.1,814.9,274,814.9,278.8 M825.1,272.1
		c0-3.8,3.1-6.9,6.9-6.9C832,269.1,828.9,272.1,825.1,272.1 M826.3,292.4c0-5.8,4.7-10.5,10.5-10.5
		C836.8,287.7,832.1,292.4,826.3,292.4"/>
	<rect x="820.6" y="299.4" fill="#98B057" width="1.7" height="12.9"/>
	<path fill="#FFFFFF" d="M32.2,355.2c-4.3,0-7.8-3.5-7.8-7.8C28.7,347.3,32.2,350.9,32.2,355.2"/>
	<path fill="#FFFFFF" d="M43.8,344.8c0-3.4,2.8-6.2,6.2-6.2C50,342,47.2,344.8,43.8,344.8"/>
	<path fill="#FFFFFF" d="M45.9,366.9c0-5.2,4.2-9.5,9.5-9.5C55.4,362.7,51.1,366.9,45.9,366.9"/>
	<path fill="#FFFFFF" d="M119.3,337.3c-3.4,0-6.2-2.8-6.2-6.2C116.6,331.1,119.3,333.9,119.3,337.3"/>
	<path fill="#FFFFFF" d="M127.9,342.8c0-3.4,2.8-6.2,6.2-6.2C134.1,340,131.3,342.8,127.9,342.8"/>
	<path fill="#FFFFFF" d="M117.8,355c-5.2,0-9.5-4.2-9.5-9.5C113.6,345.6,117.8,349.8,117.8,355"/>
	<polygon fill="#FFFFFF" points="121.9,371.3 121.9,368.4 110.8,357.4 111.9,356.3 121.9,366.3 121.9,347.8 115.3,341.2 
		116.4,340.2 121.9,345.7 121.9,337.9 123.4,337.9 123.4,356.9 134.7,345.6 135.7,346.7 123.4,359 123.4,371.3 	"/>
	<path fill="#FFFFFF" d="M76.3,348.9c0-5.2,4.2-9.5,9.5-9.5C85.8,344.6,81.5,348.9,76.3,348.9"/>
	<polyline fill="#FFFFFF" points="70.8,348.3 70.8,337.8 80,337.8 80,348.3 	"/>
	
		<polyline fill="none" stroke="#B3CFDD" stroke-width="2" stroke-linecap="round" stroke-linejoin="round" stroke-miterlimit="10" points="
		70.8,348.3 70.8,337.8 80,337.8 80,348.3 	"/>
	<polyline fill="#FFFFFF" points="63.1,348.3 63.1,337.8 70.8,337.8 70.8,348.3 	"/>
	
		<polyline fill="none" stroke="#B3CFDD" stroke-width="2" stroke-linecap="round" stroke-linejoin="round" stroke-miterlimit="10" points="
		63.1,348.3 63.1,337.8 70.8,337.8 70.8,348.3 	"/>
	<polyline fill="#FFFFFF" points="80,348.3 80,337.8 86.8,337.8 86.8,348.3 	"/>
	
		<polyline fill="none" stroke="#B3CFDD" stroke-width="2" stroke-linecap="round" stroke-linejoin="round" stroke-miterlimit="10" points="
		80,348.3 80,337.8 86.8,337.8 86.8,348.3 	"/>
	<polygon fill="#FFFFFF" points="64.1,393.2 6,393.2 6,365.2 64.1,364.9 	"/>
	
		<polygon fill="none" stroke="#B3CFDD" stroke-width="2" stroke-linecap="round" stroke-linejoin="round" stroke-miterlimit="10" points="
		64.1,393.2 6,393.2 6,365.2 64.1,364.9 	"/>
	<rect x="86.8" y="371.4" fill="#FFFFFF" width="34" height="21.8"/>
	
		<rect x="86.8" y="371.4" fill="none" stroke="#B3CFDD" stroke-width="2" stroke-linecap="round" stroke-linejoin="round" stroke-miterlimit="10" width="34" height="21.8"/>
	<polyline fill="#FFFFFF" points="86.8,348.2 86.8,393.2 63.1,393.2 63.1,348.2 	"/>
	
		<polyline fill="none" stroke="#B3CFDD" stroke-width="2" stroke-linecap="round" stroke-linejoin="round" stroke-miterlimit="10" points="
		86.8,348.2 86.8,393.2 63.1,393.2 63.1,348.2 	"/>
	<polygon fill="#FFFFFF" points="73.5,330 61,339 69.6,339 81.6,339 88.9,339 76.7,330 	"/>
	
		<polygon fill="none" stroke="#9ABAC7" stroke-width="2" stroke-linecap="round" stroke-linejoin="round" stroke-miterlimit="10" points="
		73.5,330 61,339 69.6,339 81.6,339 88.9,339 76.7,330 	"/>
	<line fill="#FFFFFF" x1="69.4" y1="338.7" x2="75.6" y2="329.8"/>
	
		<line fill="none" stroke="#9ABAC7" stroke-width="1.5" stroke-linecap="round" stroke-linejoin="round" stroke-miterlimit="10" x1="69.4" y1="338.7" x2="75.6" y2="329.8"/>
	<line fill="#FFFFFF" x1="75.2" y1="330.1" x2="80.8" y2="338.5"/>
	
		<line fill="none" stroke="#9ABAC7" stroke-width="1.5" stroke-linecap="round" stroke-linejoin="round" stroke-miterlimit="10" x1="75.2" y1="330.1" x2="80.8" y2="338.5"/>
	<rect x="73.8" y="327.6" fill="#9ABAC7" width="2.6" height="2.2"/>
	
		<rect x="73.8" y="327.6" fill="none" stroke="#9ABAC7" stroke-width="3" stroke-linecap="round" stroke-linejoin="round" stroke-miterlimit="10" width="2.6" height="2.2"/>
	<polygon fill="#FFFFFF" points="61.2,371.4 6,371.4 6,365.2 61.2,364.9 	"/>
	<polygon fill="none" stroke="#9ABAC7" stroke-width="2" stroke-linecap="round" stroke-miterlimit="10" points="61.2,371.4 
		6,371.4 6,365.2 61.2,364.9 	"/>
	<polygon fill="#FFFFFF" points="120.8,377.8 88.7,377.8 88.7,371.2 120.8,371.4 	"/>
	<polygon fill="none" stroke="#9ABAC7" stroke-width="2" stroke-linecap="round" stroke-miterlimit="10" points="120.8,377.8 
		88.7,377.8 88.7,371.2 120.8,371.4 	"/>
	<line fill="#FFFFFF" x1="83.3" y1="348" x2="83.3" y2="357"/>
	<line fill="none" stroke="#9ABAC7" stroke-miterlimit="10" x1="83.3" y1="348" x2="83.3" y2="357"/>
	<line fill="#FFFFFF" x1="79.3" y1="348" x2="79.3" y2="357"/>
	<line fill="none" stroke="#9ABAC7" stroke-miterlimit="10" x1="79.3" y1="348" x2="79.3" y2="357"/>
	<line fill="#FFFFFF" x1="71.3" y1="348" x2="71.3" y2="357"/>
	<line fill="none" stroke="#9ABAC7" stroke-miterlimit="10" x1="71.3" y1="348" x2="71.3" y2="357"/>
	<line fill="#FFFFFF" x1="67.3" y1="348" x2="67.3" y2="357"/>
	
		<line fill="none" stroke="#9ABAC7" stroke-linecap="round" stroke-linejoin="round" stroke-miterlimit="10" x1="67.3" y1="348" x2="67.3" y2="357"/>
	<polygon fill="#9ABAC7" points="74.9,358.3 74.9,346.3 75.4,346.4 75.4,358.2 	"/>
	
		<polygon fill="none" stroke="#9ABAC7" stroke-width="0.5" stroke-linecap="round" stroke-linejoin="round" stroke-miterlimit="10" points="
		74.9,358.3 74.9,346.3 75.4,346.4 75.4,358.2 	"/>
	<path fill="#9ABAC7" d="M62.1,348.5H58c-0.2,0-0.3-0.1-0.4-0.3l-0.2-0.5c0-0.1,0-0.2,0.1-0.3c0.1-0.1,0.2-0.2,0.3-0.2h4.3"/>
	<line fill="#9ABAC7" x1="87.8" y1="348.5" x2="62.1" y2="348.5"/>
	<path fill="#9ABAC7" d="M87.8,347.3h4.2c0.1,0,0.2,0,0.3,0.1c0.1,0.1,0.1,0.2,0.1,0.3l0,0.5c0,0.2-0.2,0.3-0.4,0.3h-4.1V347.3"/>
	<rect x="62.1" y="347.3" fill="#9ABAC7" width="25.7" height="1.2"/>
	<path fill="#9ABAC7" d="M62.1,357.6h-4.3c-0.1,0-0.2-0.1-0.3-0.2c-0.1-0.1-0.1-0.2-0.1-0.3l0.2-0.5c0.1-0.2,0.2-0.3,0.4-0.3h4.1"/>
	<path fill="#9ABAC7" d="M87.8,357.6h4.2c0.1,0,0.2,0,0.3-0.1c0.1-0.1,0.1-0.2,0.1-0.3l0-0.5c0-0.2-0.2-0.3-0.4-0.3h-4.1"/>
	<polyline fill="#9ABAC7" points="87.8,356.4 62.2,356.4 62.1,357.6 87.8,357.6 	"/>
	<polygon fill="#9ABAC7" points="89.5,358.3 89.5,346.3 90,346.4 90,358.2 	"/>
	
		<polygon fill="none" stroke="#9ABAC7" stroke-width="0.5" stroke-linecap="round" stroke-linejoin="round" stroke-miterlimit="10" points="
		89.5,358.3 89.5,346.3 90,346.4 90,358.2 	"/>
	<polygon fill="#FFFFFF" points="59.5,358.3 59.5,346.3 60,346.4 60,358.2 	"/>
	<polygon fill="none" stroke="#9ABAC7" stroke-linecap="round" stroke-linejoin="round" stroke-miterlimit="10" points="59.5,358.3 
		59.5,346.3 60,346.4 60,358.2 	"/>
	<polygon fill="#9ABAC7" points="74.9,329.9 74.9,320.7 75.6,320.7 75.6,329.8 	"/>
	
		<polygon fill="none" stroke="#9ABAC7" stroke-width="0.5" stroke-linecap="round" stroke-linejoin="round" stroke-miterlimit="10" points="
		74.9,329.9 74.9,320.7 75.6,320.7 75.6,329.8 	"/>
	<rect x="71.5" y="375.2" fill="#FFFFFF" width="7.3" height="17.4"/>
	<rect x="71.5" y="375.2" fill="none" stroke="#B3CFDD" stroke-width="2" stroke-miterlimit="10" width="7.3" height="17.4"/>
	<rect x="32.6" y="377.8" fill="#FFFFFF" width="7.3" height="14.8"/>
	<rect x="32.6" y="377.8" fill="none" stroke="#B3CFDD" stroke-width="2" stroke-miterlimit="10" width="7.3" height="14.8"/>
	<rect x="93.5" y="382.2" fill="#FFFFFF" width="7.3" height="10.4"/>
	<rect x="93.5" y="382.2" fill="none" stroke="#B3CFDD" stroke-width="2" stroke-miterlimit="10" width="7.3" height="10.4"/>
	<rect x="107.2" y="382.2" fill="#FFFFFF" width="7.3" height="10.4"/>
	<rect x="107.2" y="382.2" fill="none" stroke="#B3CFDD" stroke-width="2" stroke-miterlimit="10" width="7.3" height="10.4"/>
	<path fill="#9ABAC7" d="M910.2,403.3c-0.6-0.6-1.7-0.6-2.3,0c-0.3,0.3-0.5,0.7-0.5,1.1c-1-1-2.4-1.7-4-1.7l-10.8,1.6l-1.2,0.6
		c-0.7-1.1-2.2-1.6-3.4-1l1.1,2.5l-2.7,2.3l-2,0.4v2.6l4.1,2.2h2.7l0.9,2.6h0.9v-2.6h0.1l0.9,2.6h0.9v-2.2c0.8,0.4,1.9,0.7,3.2,0.7
		c1.7,0,3.2-0.5,3.8-1.1h0l0.8,1.1l-0.5,1.5h1.4l1.1-2.8c2.4-0.6,4.1-2.8,4.1-5.4c0-1.2-0.4-2.3-1-3.2c-0.1-0.5,0-1,0.3-1.4
		c0.4-0.4,1.1-0.4,1.5,0c0.3,0.3,0.3,0.8,0,1.1c-0.2,0.2-0.6,0.2-0.8,0c-0.1-0.1-0.1-0.2-0.1-0.3c0-0.1,0-0.2,0.1-0.3l-0.4-0.4
		c-0.2,0.2-0.3,0.4-0.3,0.7s0.1,0.5,0.3,0.7c0.4,0.4,1.2,0.4,1.6,0C910.7,404.7,910.7,403.9,910.2,403.3 M888.8,409.5
		c-0.3,0-0.5-0.2-0.5-0.5c0-0.3,0.2-0.5,0.5-0.5c0.3,0,0.5,0.2,0.5,0.5C889.3,409.3,889.1,409.5,888.8,409.5"/>
</g>
<g>
	<path fill="#9ABAC7" stroke="#F3F3F3" stroke-miterlimit="10" d="M592.8,301.9l0.9,0.1l-0.2,0.9l0.7,0.1l0.2-0.9l0.9,0.1
		c1.8,0.3,3.5-0.9,3.8-2.7l-1.2-0.2c-0.7-0.1-1.4,0-2,0.3c0-0.2,0.1-0.3,0.1-0.5c0.2-1.3-0.1-2.5-0.9-3.2c-0.9,0.5-1.7,1.5-1.9,2.8
		c0,0.2,0,0.3-0.1,0.5c-0.5-0.5-1.1-0.8-1.8-0.9l-1.2-0.2C589.8,299.9,591,301.6,592.8,301.9 M594,302C594,302,594,302,594,302
		C594,302,594,302,594,302L594,302C594,302,594,302,594,302C594,302,594,302,594,302"/>
	<path fill="#9ABAC7" stroke="#F3F3F3" stroke-miterlimit="10" d="M589.1,307.6l1.5,11.3c0,0.3,0.3,0.6,0.7,0.7
		c0.3,0.1,0.7-0.1,0.8-0.4l5.2-10.4L589.1,307.6z"/>
	<path fill="#9ABAC7" stroke="#F3F3F3" stroke-miterlimit="10" d="M594.6,303.7l-1.6-0.3c-2.1-0.4-4,1.3-4.1,3.4l8.4,1.4
		C597.9,306.2,596.7,304,594.6,303.7"/>
	<polygon fill="#DD7726" stroke="#F3F3F3" stroke-miterlimit="10" points="593.1,311.8 595.8,311.7 595.5,312.6 593.4,312.6 	"/>
	<path fill="#DD7726" stroke="#F3F3F3" stroke-miterlimit="10" d="M595.4,313l-0.6,1.8c-0.1,0.2-0.2,0.3-0.4,0.3
		c-0.2,0-0.4-0.1-0.4-0.3l-0.5-1.9L595.4,313z"/>
	<path fill="#9ABAC7" stroke="#F3F3F3" stroke-miterlimit="10" d="M583.2,302.6c1,2.5,5,2.8,5.1,5.9c0.1,1.7-1,4.2-4.6,4.4
		c-3.6,0.2-4.9-2.2-5-3.9C578.6,305.9,582.5,305.2,583.2,302.6"/>
</g>
<g>
	<defs>
		<path id="SVGID_1_" d="M578.8,309c0.1,1.7,1.4,4.1,5,3.9c3.6-0.2,4.7-2.7,4.6-4.4c-0.2-3.1-4.1-3.4-5.1-5.9
			C582.5,305.2,578.6,305.9,578.8,309"/>
	</defs>
	<clipPath id="SVGID_2_">
		<use xlink:href="#SVGID_1_"  overflow="visible"/>
	</clipPath>
	<path clip-path="url(#SVGID_2_)" fill="#FFFFFF" d="M585.2,313.9c1-1.3,2.2-3,2.1-4.7c-0.1-1.8-0.6-2.8-1.3-4
		c-0.2-0.3-0.3-0.6-0.5-0.9l-0.2,0.1c0.2,0.3,0.3,0.6,0.5,0.9c0.7,1.2,1.2,2.1,1.3,3.9c0.1,1.6-1.1,3.2-2.1,4.5L585.2,313.9z"/>
	<path clip-path="url(#SVGID_2_)" fill="#FFFFFF" d="M584.2,313.5c0.6-0.6,2-2,1.9-4.2c-0.1-2.3-0.9-4.2-1.9-6.3l-0.2,0.1
		c1,2.1,1.8,4,1.9,6.3c0.1,2.1-1.2,3.3-1.8,4L584.2,313.5z"/>
	<path clip-path="url(#SVGID_2_)" fill="#FFFFFF" d="M583.9,312.9c0-0.1,0.1-0.2,0.1-0.3c0.4-0.8,0.7-1.5,0.6-3.2
		c-0.1-1.8-0.6-4.6-1.3-6.9l-0.2,0.1c0.7,2.3,1.2,5.1,1.3,6.9c0.1,1.7-0.2,2.3-0.6,3.1c0,0.1-0.1,0.2-0.1,0.3L583.9,312.9z"/>
	<path clip-path="url(#SVGID_2_)" fill="#FFFFFF" d="M582.5,314c-1.1-1.2-2.5-2.7-2.6-4.4c-0.1-1.8,0.3-2.8,0.9-4.1
		c0.1-0.3,0.3-0.6,0.4-1l0.2,0.1c-0.1,0.3-0.3,0.7-0.4,1c-0.5,1.2-1,2.2-0.9,4c0.1,1.6,1.4,3.1,2.5,4.3L582.5,314z"/>
	<path clip-path="url(#SVGID_2_)" fill="#FFFFFF" d="M583.4,313.5c-0.7-0.6-2.2-1.7-2.3-3.9c-0.1-2.3,0.5-4.3,1.2-6.5l0.2,0.1
		c-0.7,2.2-1.3,4.2-1.2,6.4c0.1,2.1,1.5,3.2,2.2,3.7L583.4,313.5z"/>
	<path clip-path="url(#SVGID_2_)" fill="#FFFFFF" d="M583.7,313c-0.1-0.1-0.1-0.2-0.2-0.3c-0.4-0.7-0.8-1.4-0.9-3.1
		c-0.1-1.8,0.1-4.7,0.5-7l0.3,0c-0.4,2.4-0.6,5.2-0.5,7c0.1,1.7,0.5,2.3,0.9,3c0.1,0.1,0.1,0.2,0.2,0.3L583.7,313z"/>
</g>
<polygon fill="#FFFFFF" points="597.4,310 577.7,311.1 578.2,320.6 596.8,319.6 "/>
<path fill="#9ABAC7" d="M589.9,320.9c0.1,1.7-1.2,3.2-3,3.3c-1.7,0.1-3.2-1.2-3.3-3c-0.1-1.7,1.2-3.2,3-3.3
	C588.3,317.8,589.8,319.1,589.9,320.9"/>
<path fill="#B3CFDD" d="M577.8,321.5l4.7-0.3c-0.1-2.3,1.6-4.3,3.9-4.4c2.3-0.1,4.3,1.6,4.4,3.9l6.4-0.3l-0.5-8.8l-19.5,1
	L577.8,321.5z"/>
<path fill="#B3CFDD" d="M556.8,322.6l-2.4,0.1l-0.4-6.9c-0.1-1,0.7-1.9,1.8-2l8.1-0.4l3.6-4.9c0.8-0.9,1.9-1.5,3-1.5l5.3-0.3
	c0.7,0,1.2,0.5,1.3,1.1l0.7,13.6l-12.7,0.7c-0.1-2.3-2.1-4.1-4.4-3.9C558.4,318.4,556.7,320.4,556.8,322.6"/>
<line fill="none" stroke="#FFFFFF" stroke-width="0.5" stroke-miterlimit="10" x1="578" y1="321.5" x2="577" y2="303.4"/>
<path fill="#FFFFFF" d="M570,309l4.1-0.2c0.3,0,0.6,0.2,0.6,0.5l0.2,3.6l-9,0.5l2.3-3.4C568.6,309.4,569.3,309,570,309"/>
<line fill="none" stroke="#FFFFFF" stroke-width="0.5" stroke-linecap="round" stroke-miterlimit="10" x1="553.7" y1="321.4" x2="556.9" y2="321.2"/>
<line fill="none" stroke="#FFFFFF" stroke-width="0.5" stroke-linecap="round" stroke-miterlimit="10" x1="591.7" y1="319.4" x2="598" y2="319.1"/>
<line fill="none" stroke="#FFFFFF" stroke-miterlimit="10" x1="575.1" y1="314.9" x2="572.7" y2="315.1"/>
<circle fill="none" stroke="#FFFFFF" stroke-miterlimit="10" cx="586.7" cy="321" r="1.2"/>
<path fill="none" stroke="#FFFFFF" stroke-width="0.5" stroke-miterlimit="10" d="M552.9,315.9l3.6-0.2c0.2,0,0.4,0.2,0.4,0.4l0,0.5
	c0,0.7-0.5,1.3-1.2,1.3l-2.9,0.2"/>
<path fill="#9ABAC7" d="M564.1,322.3c0.1,1.7-1.2,3.2-3,3.3c-1.7,0.1-3.2-1.2-3.3-3c-0.1-1.7,1.2-3.2,3-3.3
	C562.5,319.2,564,320.5,564.1,322.3"/>
<circle fill="none" stroke="#FFFFFF" stroke-miterlimit="10" cx="560.9" cy="322.4" r="1.2"/>
<rect x="594.8" y="313.6" transform="matrix(0.9986 -5.334122e-02 5.334122e-02 0.9986 -15.9305 32.2501)" fill="#FFFFFF" width="2.8" height="1.9"/>
<g>
	<path fill="#E3A325" d="M930.1,237.8h-6l-0.1,5.9C927.2,243.6,930,241,930.1,237.8"/>
	<path fill="#E3A325" d="M924.1,237.8l-8,0.1c0.1,4.4,3.7,7.9,8,8V237.8z"/>
	<path fill="#E3A325" d="M934.5,237.7c-0.1-3.4-2.8-6.3-6.3-6.3c-3.5-0.1-6.4,2.6-6.5,6.1"/>
	<polygon fill="#E3A325" points="916.7,232 915.7,233.4 917,233.3 917.4,230.8 917.4,230.7 915.1,230.9 	"/>
	<path fill="#E3A325" d="M918,230.7l-0.5,1.8v0.7v0.2v0.2h-0.3l-1.1,4.2h5.3l-0.1-7.1L918,230.7z M918.9,232.2
		c-0.2,0-0.4-0.2-0.4-0.4c0-0.2,0.2-0.4,0.4-0.4c0.2,0,0.4,0.2,0.4,0.4C919.3,232,919.1,232.2,918.9,232.2"/>
	<polygon fill="#EEC71A" points="917.5,232.5 917.3,233.2 917.5,233.2 	"/>
	<polygon fill="#EEC71A" points="917.5,233.4 917.2,233.4 917.2,233.7 917.5,233.7 	"/>
	<polygon fill="#EEC71A" points="917.5,233.2 917.3,233.2 917.2,233.4 917.5,233.4 	"/>
	<polygon fill="#E3A325" points="924.3,248.5 924.1,245.9 921.5,248.5 	"/>
	<path fill="#E3A325" d="M923.3,228.3l-2.7,0.1c-1,0-1.9,0.9-1.9,1.9l2.7-0.1C922.4,230.2,923.2,229.4,923.3,228.3"/>
	<path fill="#E3A325" d="M914.3,235.8c0,0.5,0.4,0.9,0.9,0.9l0,0c0.4,0,0.7-0.3,0.8-0.7l0.1-0.3l0,0l0.4-1.3l-1.3,0.4l0,0L915,235
		C914.6,235.1,914.3,235.4,914.3,235.8"/>
	<path fill="none" stroke="#9ABAC7" stroke-width="1.5" stroke-linecap="round" stroke-linejoin="round" stroke-miterlimit="10" d="
		M897.5,308.6c1.5,5.4,2.6,10.8,3.3,16.2"/>
	<polygon fill="#E3A325" points="915.6,356.5 924.5,347.3 916,337.6 	"/>
	<polygon fill="#E3A325" points="936.8,338.3 920,338 928.4,345.6 	"/>
	<polygon fill="#E3A325" points="940,338.8 931.6,347.4 940.5,356.5 	"/>
	<polygon fill="#E3A325" points="908.2,335.1 948.2,335.5 948.2,331.2 944.2,320.1 928.2,310.8 912.9,320.1 908.2,331.3 	"/>
	<polygon fill="#E3A325" points="908.2,356.5 908.2,338.3 912.9,338 912.8,356.5 	"/>
	<polyline fill="#E3A325" points="936.1,356.5 928.2,349.2 920,356.5 	"/>
	<polygon fill="#E3A325" points="948.2,356.8 948.2,338 943.6,338.3 943.6,356.8 	"/>
	<polygon fill="#FFFFFF" points="933.9,325.3 933.9,323.3 926.4,323.4 926.5,325.3 	"/>
	<polygon fill="#FFFFFF" points="931.1,320.7 931.2,319.1 924.5,319.1 924.5,320.7 	"/>
	<polygon fill="#FFFFFF" points="926.2,327.6 926.2,332.1 929.9,332.1 930,327.6 	"/>
	<polygon fill="#FFFFFF" points="933.9,322.7 933.9,319.1 931.9,319.1 931.6,322.7 	"/>
	<polygon fill="#FFFFFF" points="921.5,332.1 923.7,332.1 923.7,329.8 921.5,329.8 	"/>
	<polygon fill="#FFFFFF" points="930.7,326 930.5,332.1 934,332.1 933.9,325.9 	"/>
	<polygon fill="#FFFFFF" points="921.5,329.1 923.8,329.1 923.8,319.1 921.6,319.2 	"/>
	<polygon fill="#FFFFFF" points="907.8,267 904.9,268.8 904.8,288.6 937.9,288.9 940.8,272 940.8,269.7 908.1,267 	"/>
	<polygon fill="#E3A325" points="911.5,288.7 919.5,280.3 911.9,271.6 	"/>
	<polygon fill="#E3A325" points="930.6,272.3 915.5,272 923,278.8 	"/>
	<polygon fill="#E3A325" points="933.4,272.7 925.9,280.5 933.9,288.7 	"/>
	<polygon fill="#E3A325" points="904.9,269.4 940.8,269.7 940.8,265.9 937.2,256 922.9,247.6 909.1,256 904.9,266 	"/>
	<polygon fill="#E3A325" points="904.9,288.7 904.8,272.3 909.1,272 909,288.7 	"/>
	<polyline fill="#E3A325" points="929.9,288.7 922.9,282 915.5,288.7 	"/>
	<polygon fill="#E3A325" points="940.8,288.9 940.8,272 936.7,272.3 936.7,288.9 	"/>
	<polygon fill="#FFFFFF" points="928,260.6 928,258.8 921.3,258.9 921.3,260.6 	"/>
	<polygon fill="#FFFFFF" points="925.5,256.5 925.5,255.1 919.5,255.1 919.5,256.5 	"/>
	<polygon fill="#FFFFFF" points="921.1,262.7 921,266.7 924.3,266.7 924.4,262.7 	"/>
	<polygon fill="#FFFFFF" points="928,258.3 928,255.1 926.2,255.1 925.9,258.3 	"/>
	<polygon fill="#FFFFFF" points="916.8,266.7 918.8,266.7 918.8,264.6 916.8,264.7 	"/>
	<polygon fill="#FFFFFF" points="925.1,261.2 924.9,266.7 928,266.7 928,261.2 	"/>
	<polygon fill="#FFFFFF" points="916.8,264 918.9,264 918.9,255.1 916.9,255.1 	"/>
	<polyline fill="#FFFFFF" points="888.8,314 888.8,315.1 898.9,317.7 902.1,315.6 902.1,313 890.8,313 	"/>
	<path fill="#E3A325" d="M895.8,308.2c-3.2,0-5.9,2.4-6.4,5.5h12.7C901.7,310.6,899.1,308.2,895.8,308.2"/>
	<path fill="#E3A325" d="M902.2,357.8c0,0,0.1-36,0.1-42.3v0h0h-0.1h-1.1h-0.8h-0.8h-10h-0.1v2.8v1.7v11.4v5.3V358"/>
</g>
</svg>
